<svg width="75" height="74" viewBox="0 0 75 74" fill="none" xmlns="http://www.w3.org/2000/svg">
<g clip-path="url(#clip0_69_7399)">
<g filter="url(#filter0_d_69_7399)">
<path d="M37.1592 4C55.7488 4 70.8184 19.0097 70.8184 37.5254C70.8184 56.0411 55.7488 59.8761 37.1592 59.8761C18.5696 59.8761 3.5 56.0411 3.5 37.5254C3.5 19.0097 18.5703 4 37.1592 4Z" fill="#FF72C6" stroke="black" stroke-width="3"/>
<path d="M62.5995 41.418C64.1705 35.6108 61.6111 29.8745 56.8829 28.6054C52.1547 27.3364 47.0481 31.0153 45.477 36.8225C43.9059 42.6296 46.4653 48.366 51.1935 49.6351C55.9218 50.9041 61.0284 47.2252 62.5995 41.418Z" fill="black"/>
<path d="M23.1266 49.6352C27.8548 48.3662 30.4142 42.6298 28.8431 36.8226C27.272 31.0155 22.1654 27.3366 17.4372 28.6056C12.709 29.8746 10.1496 35.611 11.7207 41.4182C13.2917 47.2254 18.3983 50.9043 23.1266 49.6352Z" fill="black"/>
<path d="M30.8481 56.4476V63.1645C30.8481 66.6359 28.0221 69.4506 24.5369 69.4506C21.0516 69.4506 18.2256 66.6359 18.2256 63.1645V56.4476" fill="#FF72C6"/>
<path d="M30.8481 56.4476V63.1645C30.8481 66.6359 28.0221 69.4506 24.5369 69.4506C21.0516 69.4506 18.2256 66.6359 18.2256 63.1645V56.4476" stroke="black" stroke-width="3" stroke-linecap="round" stroke-linejoin="round"/>
<path d="M43.4707 56.4478V63.1646C43.4707 66.6361 40.6447 69.4508 37.1594 69.4508C33.6741 69.4508 30.8481 66.6361 30.8481 63.1646V56.4478" fill="#FF72C6"/>
<path d="M43.4707 56.4478V63.1646C43.4707 66.6361 40.6447 69.4508 37.1594 69.4508C33.6741 69.4508 30.8481 66.6361 30.8481 63.1646V56.4478" stroke="black" stroke-width="3" stroke-linecap="round" stroke-linejoin="round"/>
<path d="M56.0932 56.4478V63.1646C56.0932 66.6361 53.2673 69.4508 49.782 69.4508C46.2967 69.4508 43.4707 66.6361 43.4707 63.1646V56.4478" fill="#FF72C6"/>
<path d="M56.0932 56.4478V63.1646C56.0932 66.6361 53.2673 69.4508 49.782 69.4508C46.2967 69.4508 43.4707 66.6361 43.4707 63.1646V56.4478" stroke="black" stroke-width="3" stroke-linecap="round" stroke-linejoin="round"/>
<path d="M35.0031 48.4567C35.5028 48.4567 35.9601 48.2991 36.364 47.988C36.7506 47.6901 37.0088 47.3106 37.16 47.0341C37.312 47.3099 37.5695 47.6894 37.9561 47.988C38.3593 48.2991 38.8173 48.4567 39.317 48.4567C40.7106 48.4567 41.7613 47.3217 41.7613 45.8155C41.7613 44.189 40.4503 43.0761 38.4655 41.3915C38.1282 41.1053 37.7465 40.7811 37.3495 40.4355C37.2975 40.3899 37.2301 40.365 37.16 40.365C37.09 40.365 37.0233 40.3899 36.9706 40.4355C36.5736 40.7811 36.1912 41.106 35.8539 41.3922C33.8691 43.0767 32.5581 44.1897 32.5581 45.8162C32.5581 47.3217 33.6088 48.4574 35.0024 48.4574L35.0031 48.4567Z" fill="black"/>
<path d="M20.2231 63.3539C20.4042 64.1226 20.838 64.8518 21.4092 65.3965C21.9803 65.9412 22.7153 66.3615 23.4974 66.5101C23.7764 66.5634 24.0478 66.5523 24.2997 66.4057C24.5155 66.2799 24.7216 66.0332 24.7779 65.7864C24.8382 65.521 24.8257 65.223 24.6731 64.9873C24.5329 64.771 24.315 64.5608 24.0512 64.511C23.8354 64.4703 23.6258 64.4067 23.4232 64.323L23.6716 64.4274C23.4134 64.3168 23.1719 64.1758 22.9485 64.0064L23.1594 64.1689C22.9276 63.9892 22.7208 63.7832 22.5404 63.5516L22.7035 63.7617C22.5334 63.5391 22.3926 63.2986 22.2829 63.0408L22.3877 63.2882C22.3232 63.1306 22.2704 62.9696 22.2316 62.8037C22.1066 62.2756 21.4723 61.9113 20.9511 62.0792C20.398 62.2576 20.0905 62.7885 20.2238 63.3546L20.2231 63.3539Z" fill="white"/>
<path d="M33.6088 63.3539C33.79 64.1226 34.2237 64.8518 34.7949 65.3965C35.3661 65.9412 36.101 66.3615 36.8832 66.5101C37.1621 66.5634 37.4335 66.5523 37.6854 66.4057C37.9013 66.2799 38.1074 66.0332 38.1636 65.7864C38.224 65.521 38.2115 65.223 38.0588 64.9873C37.9186 64.771 37.7007 64.5608 37.437 64.511C37.2211 64.4703 37.0115 64.4067 36.8089 64.323L37.0573 64.4274C36.7992 64.3168 36.5577 64.1758 36.3342 64.0064L36.5452 64.1689C36.3134 63.9892 36.1066 63.7832 35.9261 63.5516L36.0892 63.7617C35.9192 63.5391 35.7783 63.2986 35.6686 63.0408L35.7734 63.2882C35.7089 63.1306 35.6562 62.9696 35.6173 62.8037C35.4924 62.2756 34.8581 61.9113 34.3369 62.0792C33.7837 62.2576 33.4763 62.7885 33.6095 63.3546L33.6088 63.3539Z" fill="white"/>
<path d="M15.028 23.8637C14.6769 23.8637 14.3208 23.7745 13.9953 23.5886C13.0001 23.0197 12.6531 21.7588 13.2215 20.7655C13.4714 20.3293 19.487 10.0609 32.2921 8.67217C33.4351 8.54982 34.4629 9.37102 34.5878 10.5095C34.7128 11.6473 33.8862 12.671 32.7439 12.7954C22.102 13.9491 16.8873 22.7369 16.8359 22.8254C16.45 23.4911 15.7491 23.8644 15.0287 23.8644L15.028 23.8637Z" fill="white"/>
</g>
</g>
<defs>
<filter id="filter0_d_69_7399" x="2" y="2.5" width="72.3184" height="70.4508" filterUnits="userSpaceOnUse" color-interpolation-filters="sRGB">
<feFlood flood-opacity="0" result="BackgroundImageFix"/>
<feColorMatrix in="SourceAlpha" type="matrix" values="0 0 0 0 0 0 0 0 0 0 0 0 0 0 0 0 0 0 127 0" result="hardAlpha"/>
<feOffset dx="2" dy="2"/>
<feComposite in2="hardAlpha" operator="out"/>
<feColorMatrix type="matrix" values="0 0 0 0 0 0 0 0 0 0 0 0 0 0 0 0 0 0 1 0"/>
<feBlend mode="normal" in2="BackgroundImageFix" result="effect1_dropShadow_69_7399"/>
<feBlend mode="normal" in="SourceGraphic" in2="effect1_dropShadow_69_7399" result="shape"/>
</filter>
<clipPath id="clip0_69_7399">
<rect width="74" height="74" fill="white" transform="translate(0.5)"/>
</clipPath>
</defs>
</svg>
