<svg width="865" height="870" viewBox="0 0 865 870" fill="none" xmlns="http://www.w3.org/2000/svg">
<g filter="url(#filter0_d_37_16135)">
<g clip-path="url(#clip0_37_16135)">
<mask id="path-3-inside-1_37_16135" fill="white">
<path d="M0 0.5H859V54.5H0V0.5Z"/>
</mask>
<path d="M0 0.5H859V54.5H0V0.5Z" fill="#61B7F8"/>
<path d="M859 52.5H0V56.5H859V52.5Z" fill="black" mask="url(#path-3-inside-1_37_16135)"/>
<g filter="url(#filter1_d_37_16135)">
<path d="M45.0496 17.2998H24.6496C23.2413 17.2998 22.0996 18.4415 22.0996 19.8498V35.1498C22.0996 36.5581 23.2413 37.6998 24.6496 37.6998H45.0496C46.4579 37.6998 47.5996 36.5581 47.5996 35.1498V19.8498C47.5996 18.4415 46.4579 17.2998 45.0496 17.2998Z" fill="#FFE993" stroke="black" stroke-linecap="round" stroke-linejoin="round"/>
<path d="M47.5996 21.125L36.1629 28.3925C35.7692 28.6391 35.3141 28.7699 34.8496 28.7699C34.3851 28.7699 33.93 28.6391 33.5364 28.3925L22.0996 21.125" fill="#FFE993"/>
<path d="M47.5996 21.125L36.1629 28.3925C35.7692 28.6391 35.3141 28.7699 34.8496 28.7699C34.3851 28.7699 33.93 28.6391 33.5364 28.3925L22.0996 21.125" stroke="black" stroke-linecap="round" stroke-linejoin="round"/>
</g>
<path d="M65.236 34.654C64.8693 34.654 64.4513 34.6393 63.982 34.61C63.5273 34.5807 63.0653 34.5367 62.596 34.478C62.1413 34.4193 61.716 34.346 61.32 34.258V19.452C61.6867 19.3787 62.09 19.32 62.53 19.276C62.97 19.2173 63.4173 19.1733 63.872 19.144C64.3267 19.1 64.7447 19.078 65.126 19.078C66.0353 19.078 66.8347 19.1733 67.524 19.364C68.2133 19.54 68.7853 19.7967 69.24 20.134C69.6947 20.4713 70.032 20.8893 70.252 21.388C70.472 21.872 70.582 22.4367 70.582 23.082C70.582 23.5513 70.4867 24.006 70.296 24.446C70.12 24.8713 69.8707 25.2527 69.548 25.59C69.2253 25.9127 68.866 26.162 68.47 26.338C69.086 26.5433 69.5993 26.822 70.01 27.174C70.4353 27.526 70.7507 27.9367 70.956 28.406C71.176 28.8753 71.286 29.4033 71.286 29.99C71.286 31.0753 71.0513 31.9627 70.582 32.652C70.1127 33.3413 69.4307 33.8473 68.536 34.17C67.6413 34.4927 66.5413 34.654 65.236 34.654ZM65.434 32.564C66.0207 32.564 66.5707 32.498 67.084 32.366C67.612 32.2193 68.0447 31.9627 68.382 31.596C68.7193 31.2147 68.888 30.6793 68.888 29.99C68.888 29.374 68.7413 28.8973 68.448 28.56C68.1547 28.208 67.766 27.9513 67.282 27.79C66.798 27.6287 66.2553 27.548 65.654 27.548H63.762V32.476C63.8647 32.4907 64.07 32.5127 64.378 32.542C64.686 32.5567 65.038 32.564 65.434 32.564ZM63.762 25.524H65.192C65.7347 25.524 66.226 25.4507 66.666 25.304C67.1207 25.1573 67.4873 24.9227 67.766 24.6C68.0447 24.2773 68.184 23.852 68.184 23.324C68.184 22.7667 68.052 22.334 67.788 22.026C67.524 21.718 67.1793 21.5053 66.754 21.388C66.3433 21.256 65.8887 21.19 65.39 21.19C65.0527 21.19 64.7373 21.1973 64.444 21.212C64.1653 21.2267 63.938 21.2487 63.762 21.278V25.524ZM76.6005 29.396V27.042H82.5405V29.396H76.6005ZM87.5251 34.5C87.5691 33.2533 87.6204 31.97 87.6791 30.65C87.7524 29.33 87.8258 28.01 87.8991 26.69C87.9871 25.37 88.0824 24.0867 88.1851 22.84C88.2878 21.5787 88.4051 20.3833 88.5371 19.254H90.6711C90.9058 19.9433 91.1478 20.6987 91.3971 21.52C91.6611 22.3267 91.9251 23.1627 92.1891 24.028C92.4678 24.8787 92.7318 25.7 92.9811 26.492C93.2451 25.656 93.5091 24.8127 93.7731 23.962C94.0371 23.1113 94.3011 22.29 94.5651 21.498C94.8291 20.6913 95.0711 19.9433 95.2911 19.254H97.4471C97.6378 20.9113 97.7918 22.5687 97.9091 24.226C98.0411 25.8833 98.1438 27.5627 98.2171 29.264C98.3051 30.9507 98.3784 32.696 98.4371 34.5H96.1491C96.1344 33.2533 96.1198 31.9407 96.1051 30.562C96.1051 29.1833 96.0978 27.7753 96.0831 26.338C96.0684 24.9007 96.0538 23.4927 96.0391 22.114L93.9491 28.89H92.0131L89.9451 22.114C89.9451 23.4927 89.9304 24.9007 89.9011 26.338C89.8864 27.7753 89.8644 29.1833 89.8351 30.562C89.8204 31.9407 89.8131 33.2533 89.8131 34.5H87.5251ZM106.414 34.764C105.754 34.764 105.123 34.7053 104.522 34.588C103.935 34.4707 103.414 34.2727 102.96 33.994C102.52 33.7153 102.168 33.334 101.904 32.85C101.654 32.366 101.53 31.7647 101.53 31.046C101.53 30.1513 101.757 29.4473 102.212 28.934C102.681 28.406 103.282 28.032 104.016 27.812C104.764 27.5773 105.541 27.46 106.348 27.46C106.773 27.46 107.169 27.482 107.536 27.526C107.917 27.57 108.269 27.6287 108.592 27.702V27.218C108.592 26.7927 108.511 26.3967 108.35 26.03C108.203 25.6633 107.939 25.3627 107.558 25.128C107.191 24.8933 106.67 24.776 105.996 24.776C105.35 24.776 104.764 24.8273 104.236 24.93C103.708 25.018 103.29 25.1207 102.982 25.238L102.674 23.236C102.982 23.104 103.466 22.9867 104.126 22.884C104.8 22.7813 105.512 22.73 106.26 22.73C107.448 22.73 108.379 22.9207 109.054 23.302C109.743 23.6687 110.234 24.1893 110.528 24.864C110.821 25.5387 110.968 26.3233 110.968 27.218V34.28C110.498 34.368 109.853 34.4707 109.032 34.588C108.225 34.7053 107.352 34.764 106.414 34.764ZM106.48 32.74C106.905 32.74 107.301 32.7327 107.668 32.718C108.049 32.6887 108.357 32.652 108.592 32.608V29.528C108.372 29.4693 108.093 29.418 107.756 29.374C107.418 29.33 107.081 29.308 106.744 29.308C106.289 29.308 105.842 29.3593 105.402 29.462C104.976 29.55 104.632 29.7187 104.368 29.968C104.104 30.2027 103.972 30.54 103.972 30.98C103.972 31.64 104.199 32.102 104.654 32.366C105.108 32.6153 105.717 32.74 106.48 32.74ZM121.958 34.764C120.961 34.764 120.176 34.5807 119.604 34.214C119.032 33.8327 118.629 33.29 118.394 32.586C118.174 31.8673 118.064 30.98 118.064 29.924V25.04H114.786V23.016H120.484V30.1C120.484 30.7307 120.55 31.2293 120.682 31.596C120.814 31.9627 121.012 32.2267 121.276 32.388C121.54 32.5347 121.878 32.608 122.288 32.608C122.67 32.608 123.058 32.564 123.454 32.476C123.85 32.3733 124.224 32.234 124.576 32.058L124.906 34.082C124.657 34.1993 124.371 34.3093 124.048 34.412C123.74 34.5147 123.403 34.5953 123.036 34.654C122.684 34.7273 122.325 34.764 121.958 34.764ZM118.812 21.168C118.358 21.168 117.954 21.0067 117.602 20.684C117.265 20.3613 117.096 19.936 117.096 19.408C117.096 18.8507 117.265 18.418 117.602 18.11C117.954 17.802 118.358 17.648 118.812 17.648C119.296 17.648 119.7 17.802 120.022 18.11C120.36 18.418 120.528 18.8507 120.528 19.408C120.528 19.936 120.36 20.3613 120.022 20.684C119.7 21.0067 119.296 21.168 118.812 21.168ZM135.281 34.764C134.342 34.764 133.594 34.588 133.037 34.236C132.479 33.8693 132.076 33.334 131.827 32.63C131.592 31.926 131.475 31.0533 131.475 30.012V19.606H128.197V17.538H133.895V30.122C133.895 30.7673 133.961 31.2733 134.093 31.64C134.239 32.0067 134.445 32.2633 134.709 32.41C134.973 32.542 135.288 32.608 135.655 32.608C136.197 32.608 136.674 32.542 137.085 32.41C137.495 32.2633 137.796 32.146 137.987 32.058L138.317 34.082C138.155 34.17 137.803 34.3093 137.261 34.5C136.733 34.676 136.073 34.764 135.281 34.764Z" fill="black"/>
<rect x="784" y="13.5" width="28" height="28" rx="14" fill="#FFE993"/>
<rect x="784" y="13.5" width="28" height="28" rx="14" stroke="black" stroke-width="2"/>
<rect x="791.715" y="31.2144" width="12.5714" height="2.28571" fill="black"/>
<rect x="820" y="13.5" width="28" height="28" rx="14" fill="#FF72C6"/>
<rect x="820" y="13.5" width="28" height="28" rx="14" stroke="black" stroke-width="2"/>
<path d="M840 23.2143L838.286 21.5L834 25.7857L829.714 21.5L828 23.2143L832.286 27.5L828 31.7857L829.714 33.5L834 29.2143L838.286 33.5L840 31.7857L835.714 27.5L840 23.2143Z" fill="black"/>
<rect width="859" height="809" transform="translate(0 54.5)" fill="#F6F6F6"/>
<g filter="url(#filter2_d_37_16135)">
<path d="M463 347H395C390.306 347 386.5 350.806 386.5 355.5V406.5C386.5 411.194 390.306 415 395 415H463C467.694 415 471.5 411.194 471.5 406.5V355.5C471.5 350.806 467.694 347 463 347Z" fill="#FFE993" stroke="black" stroke-width="3" stroke-linecap="round" stroke-linejoin="round"/>
<path d="M471.5 359.75L433.377 383.975C432.065 384.797 430.548 385.233 429 385.233C427.452 385.233 425.935 384.797 424.623 383.975L386.5 359.75" fill="#FFE993"/>
<path d="M471.5 359.75L433.377 383.975C432.065 384.797 430.548 385.233 429 385.233C427.452 385.233 425.935 384.797 424.623 383.975L386.5 359.75" stroke="black" stroke-width="3" stroke-linecap="round" stroke-linejoin="round"/>
</g>
<path d="M339.49 468V463.32C338.71 461.988 338.008 460.692 337.384 459.432C336.76 458.16 336.196 456.858 335.692 455.526H337.87C338.218 456.582 338.62 457.62 339.076 458.64C339.532 459.66 340.012 460.662 340.516 461.646C340.756 461.178 340.996 460.692 341.236 460.188C341.476 459.684 341.71 459.168 341.938 458.64C342.166 458.112 342.376 457.584 342.568 457.056C342.772 456.528 342.964 456.018 343.144 455.526H345.268C344.932 456.414 344.572 457.284 344.188 458.136C343.804 458.976 343.39 459.822 342.946 460.674C342.502 461.514 342.016 462.384 341.488 463.284V468H339.49ZM352.352 468.27C351.428 468.27 350.63 468.036 349.958 467.568C349.286 467.088 348.764 466.368 348.392 465.408C348.032 464.436 347.852 463.218 347.852 461.754C347.852 460.29 348.038 459.078 348.41 458.118C348.782 457.146 349.298 456.426 349.958 455.958C350.63 455.478 351.422 455.238 352.334 455.238C353.258 455.238 354.056 455.478 354.728 455.958C355.4 456.426 355.916 457.146 356.276 458.118C356.648 459.078 356.834 460.29 356.834 461.754C356.834 463.218 356.648 464.436 356.276 465.408C355.904 466.368 355.382 467.088 354.71 467.568C354.038 468.036 353.252 468.27 352.352 468.27ZM352.316 466.542C352.916 466.542 353.396 466.344 353.756 465.948C354.116 465.552 354.38 464.994 354.548 464.274C354.716 463.554 354.8 462.714 354.8 461.754C354.8 460.77 354.716 459.924 354.548 459.216C354.392 458.496 354.128 457.944 353.756 457.56C353.396 457.164 352.916 456.966 352.316 456.966C351.716 456.966 351.242 457.164 350.894 457.56C350.546 457.956 350.294 458.508 350.138 459.216C349.982 459.924 349.904 460.77 349.904 461.754C349.904 462.726 349.976 463.572 350.12 464.292C350.276 465 350.528 465.552 350.876 465.948C351.236 466.344 351.716 466.542 352.316 466.542ZM364.188 468.27C363.168 468.27 362.358 468.084 361.758 467.712C361.158 467.328 360.726 466.788 360.462 466.092C360.198 465.384 360.066 464.556 360.066 463.608V455.526H362.064V463.428C362.064 464.22 362.142 464.844 362.298 465.3C362.454 465.744 362.688 466.062 363 466.254C363.324 466.446 363.726 466.542 364.206 466.542C364.698 466.542 365.1 466.446 365.412 466.254C365.736 466.062 365.976 465.744 366.132 465.3C366.288 464.844 366.366 464.22 366.366 463.428V455.526H368.346V463.608C368.346 464.556 368.214 465.384 367.95 466.092C367.686 466.788 367.254 467.328 366.654 467.712C366.054 468.084 365.232 468.27 364.188 468.27ZM374.297 459.522L373.991 458.1C374.315 458.028 374.633 457.956 374.945 457.884C375.257 457.8 375.533 457.674 375.773 457.506C376.025 457.338 376.217 457.086 376.349 456.75C375.893 456.69 375.545 456.504 375.305 456.192C375.077 455.88 374.963 455.556 374.963 455.22C374.963 454.692 375.125 454.278 375.449 453.978C375.785 453.666 376.169 453.51 376.601 453.51C377.117 453.51 377.513 453.696 377.789 454.068C378.077 454.428 378.221 454.89 378.221 455.454C378.221 456.006 378.083 456.576 377.807 457.164C377.543 457.752 377.123 458.262 376.547 458.694C375.971 459.126 375.221 459.402 374.297 459.522ZM386.799 468C386.499 467.124 386.193 466.212 385.881 465.264C385.581 464.304 385.287 463.35 384.999 462.402C384.723 461.454 384.459 460.548 384.207 459.684C383.967 458.808 383.757 458.016 383.577 457.308C383.409 456.588 383.277 455.994 383.181 455.526H385.305C385.437 456.294 385.605 457.146 385.809 458.082C386.025 459.006 386.253 459.954 386.493 460.926C386.745 461.898 386.997 462.834 387.249 463.734C387.513 464.622 387.753 465.414 387.969 466.11C388.197 465.414 388.437 464.622 388.689 463.734C388.953 462.834 389.205 461.898 389.445 460.926C389.697 459.942 389.925 458.988 390.129 458.064C390.345 457.128 390.519 456.282 390.651 455.526H392.757C392.625 456.162 392.439 456.954 392.199 457.902C391.959 458.838 391.677 459.87 391.353 460.998C391.029 462.114 390.675 463.272 390.291 464.472C389.907 465.672 389.499 466.848 389.067 468H386.799ZM396.385 468V455.526H403.621V457.2H398.383V460.602H402.955V462.276H398.383V466.326H404.053V468H396.385ZM424.36 468.27C423.34 468.27 422.452 468.024 421.696 467.532C420.94 467.028 420.352 466.29 419.932 465.318C419.512 464.346 419.302 463.158 419.302 461.754C419.302 460.35 419.536 459.162 420.004 458.19C420.472 457.218 421.102 456.486 421.894 455.994C422.686 455.49 423.568 455.238 424.54 455.238C425.164 455.238 425.692 455.298 426.124 455.418C426.556 455.526 426.904 455.652 427.168 455.796C427.444 455.928 427.636 456.036 427.744 456.12L427.168 457.74C426.856 457.524 426.484 457.344 426.052 457.2C425.632 457.044 425.194 456.966 424.738 456.966C424.018 456.966 423.4 457.164 422.884 457.56C422.38 457.956 421.996 458.514 421.732 459.234C421.468 459.954 421.336 460.794 421.336 461.754C421.336 462.738 421.456 463.59 421.696 464.31C421.936 465.018 422.296 465.564 422.776 465.948C423.256 466.332 423.844 466.524 424.54 466.524C424.828 466.524 425.074 466.5 425.278 466.452C425.482 466.404 425.644 466.368 425.764 466.344V461.682H427.744V467.694C427.48 467.802 427.048 467.922 426.448 468.054C425.86 468.198 425.164 468.27 424.36 468.27ZM435.458 468.27C434.534 468.27 433.736 468.036 433.064 467.568C432.392 467.088 431.87 466.368 431.498 465.408C431.138 464.436 430.958 463.218 430.958 461.754C430.958 460.29 431.144 459.078 431.516 458.118C431.888 457.146 432.404 456.426 433.064 455.958C433.736 455.478 434.528 455.238 435.44 455.238C436.364 455.238 437.162 455.478 437.834 455.958C438.506 456.426 439.022 457.146 439.382 458.118C439.754 459.078 439.94 460.29 439.94 461.754C439.94 463.218 439.754 464.436 439.382 465.408C439.01 466.368 438.488 467.088 437.816 467.568C437.144 468.036 436.358 468.27 435.458 468.27ZM435.422 466.542C436.022 466.542 436.502 466.344 436.862 465.948C437.222 465.552 437.486 464.994 437.654 464.274C437.822 463.554 437.906 462.714 437.906 461.754C437.906 460.77 437.822 459.924 437.654 459.216C437.498 458.496 437.234 457.944 436.862 457.56C436.502 457.164 436.022 456.966 435.422 456.966C434.822 456.966 434.348 457.164 434 457.56C433.652 457.956 433.4 458.508 433.244 459.216C433.088 459.924 433.01 460.77 433.01 461.754C433.01 462.726 433.082 463.572 433.226 464.292C433.382 465 433.634 465.552 433.982 465.948C434.342 466.344 434.822 466.542 435.422 466.542ZM446.322 468V457.2H442.956V455.526H451.668V457.2H448.302V468H446.322ZM466.593 468C466.629 466.98 466.671 465.93 466.719 464.85C466.779 463.77 466.839 462.69 466.899 461.61C466.971 460.53 467.049 459.48 467.133 458.46C467.217 457.428 467.313 456.45 467.421 455.526H469.167C469.359 456.09 469.557 456.708 469.761 457.38C469.977 458.04 470.193 458.724 470.409 459.432C470.637 460.128 470.853 460.8 471.057 461.448C471.273 460.764 471.489 460.074 471.705 459.378C471.921 458.682 472.137 458.01 472.353 457.362C472.569 456.702 472.767 456.09 472.947 455.526H474.711C474.867 456.882 474.993 458.238 475.089 459.594C475.197 460.95 475.281 462.324 475.341 463.716C475.413 465.096 475.473 466.524 475.521 468H473.649C473.637 466.98 473.625 465.906 473.613 464.778C473.613 463.65 473.607 462.498 473.595 461.322C473.583 460.146 473.571 458.994 473.559 457.866L471.849 463.41H470.265L468.573 457.866C468.573 458.994 468.561 460.146 468.537 461.322C468.525 462.498 468.507 463.65 468.483 464.778C468.471 465.906 468.465 466.98 468.465 468H466.593ZM478.069 468C478.333 466.98 478.609 465.936 478.897 464.868C479.185 463.8 479.485 462.732 479.797 461.664C480.121 460.596 480.445 459.546 480.769 458.514C481.105 457.482 481.447 456.486 481.795 455.526H484.135C484.483 456.486 484.819 457.488 485.143 458.532C485.479 459.564 485.797 460.62 486.097 461.7C486.409 462.768 486.703 463.836 486.979 464.904C487.267 465.96 487.537 466.992 487.789 468H485.647L484.981 464.904H480.787L480.121 468H478.069ZM481.219 463.248H484.585C484.417 462.528 484.243 461.826 484.063 461.142C483.883 460.458 483.691 459.804 483.487 459.18C483.295 458.544 483.103 457.938 482.911 457.362C482.719 457.95 482.521 458.562 482.317 459.198C482.125 459.834 481.933 460.488 481.741 461.16C481.561 461.832 481.387 462.528 481.219 463.248ZM491.273 468V466.326H493.811V457.2H491.273V455.526H498.347V457.2H495.809V466.326H498.347V468H491.273ZM503.308 468V455.526H505.306V466.326H510.904V468H503.308ZM517.772 463.644C517.724 463.224 517.676 462.834 517.628 462.474C517.58 462.102 517.538 461.736 517.502 461.376C517.478 461.004 517.454 460.62 517.43 460.224C517.406 459.816 517.394 459.366 517.394 458.874V455.526H519.644V458.874C519.644 459.366 519.632 459.816 519.608 460.224C519.596 460.62 519.572 461.004 519.536 461.376C519.512 461.736 519.476 462.102 519.428 462.474C519.392 462.834 519.35 463.224 519.302 463.644H517.772ZM518.528 468.234C518.132 468.234 517.784 468.102 517.484 467.838C517.196 467.562 517.052 467.196 517.052 466.74C517.052 466.284 517.196 465.924 517.484 465.66C517.784 465.396 518.132 465.264 518.528 465.264C518.912 465.264 519.254 465.396 519.554 465.66C519.854 465.924 520.004 466.284 520.004 466.74C520.004 467.196 519.854 467.562 519.554 467.838C519.254 468.102 518.912 468.234 518.528 468.234Z" fill="black"/>
<g filter="url(#filter3_d_37_16135)">
<rect x="343.5" y="533" width="172" height="54" rx="6" fill="#65FBE2" shape-rendering="crispEdges"/>
<rect x="344.5" y="534" width="170" height="52" rx="5" stroke="black" stroke-width="2" shape-rendering="crispEdges"/>
<path d="M411.713 566.27C410.789 566.27 409.991 566.036 409.319 565.568C408.647 565.088 408.125 564.368 407.753 563.408C407.393 562.436 407.213 561.218 407.213 559.754C407.213 558.29 407.399 557.078 407.771 556.118C408.143 555.146 408.659 554.426 409.319 553.958C409.991 553.478 410.783 553.238 411.695 553.238C412.619 553.238 413.417 553.478 414.089 553.958C414.761 554.426 415.277 555.146 415.637 556.118C416.009 557.078 416.195 558.29 416.195 559.754C416.195 561.218 416.009 562.436 415.637 563.408C415.265 564.368 414.743 565.088 414.071 565.568C413.399 566.036 412.613 566.27 411.713 566.27ZM411.677 564.542C412.277 564.542 412.757 564.344 413.117 563.948C413.477 563.552 413.741 562.994 413.909 562.274C414.077 561.554 414.161 560.714 414.161 559.754C414.161 558.77 414.077 557.924 413.909 557.216C413.753 556.496 413.489 555.944 413.117 555.56C412.757 555.164 412.277 554.966 411.677 554.966C411.077 554.966 410.603 555.164 410.255 555.56C409.907 555.956 409.655 556.508 409.499 557.216C409.343 557.924 409.265 558.77 409.265 559.754C409.265 560.726 409.337 561.572 409.481 562.292C409.637 563 409.889 563.552 410.237 563.948C410.597 564.344 411.077 564.542 411.677 564.542ZM419.842 566V553.688C420.178 553.604 420.544 553.544 420.94 553.508C421.336 553.46 421.732 553.43 422.128 553.418C422.524 553.394 422.872 553.382 423.172 553.382C424.204 553.382 425.062 553.538 425.746 553.85C426.442 554.162 426.964 554.612 427.312 555.2C427.672 555.788 427.852 556.514 427.852 557.378C427.852 558.758 427.444 559.796 426.628 560.492C425.812 561.176 424.624 561.518 423.064 561.518H421.84V566H419.842ZM421.84 559.808H423.064C423.676 559.808 424.186 559.73 424.594 559.574C425.002 559.406 425.302 559.148 425.494 558.8C425.698 558.44 425.8 557.978 425.8 557.414C425.8 556.634 425.584 556.058 425.152 555.686C424.732 555.314 424.138 555.128 423.37 555.128C423.106 555.128 422.824 555.134 422.524 555.146C422.224 555.146 421.996 555.158 421.84 555.182V559.808ZM432.002 566V553.526H439.238V555.2H434V558.602H438.572V560.276H434V564.326H439.67V566H432.002ZM443.316 566V553.526H445.116C445.512 554.186 445.872 554.822 446.196 555.434C446.52 556.034 446.826 556.616 447.114 557.18C447.414 557.744 447.696 558.302 447.96 558.854C448.224 559.406 448.482 559.97 448.734 560.546C448.986 561.122 449.244 561.716 449.508 562.328V553.526H451.308V566H449.508C449.124 565.064 448.746 564.188 448.374 563.372C448.014 562.544 447.654 561.758 447.294 561.014C446.946 560.27 446.586 559.55 446.214 558.854C445.854 558.146 445.488 557.438 445.116 556.73V566H443.316Z" fill="black"/>
</g>
</g>
<rect x="1.5" y="2" width="856" height="860" rx="10.5" stroke="black" stroke-width="3" shape-rendering="crispEdges"/>
</g>
<defs>
<filter id="filter0_d_37_16135" x="0" y="0.5" width="865" height="869" filterUnits="userSpaceOnUse" color-interpolation-filters="sRGB">
<feFlood flood-opacity="0" result="BackgroundImageFix"/>
<feColorMatrix in="SourceAlpha" type="matrix" values="0 0 0 0 0 0 0 0 0 0 0 0 0 0 0 0 0 0 127 0" result="hardAlpha"/>
<feOffset dx="6" dy="6"/>
<feComposite in2="hardAlpha" operator="out"/>
<feColorMatrix type="matrix" values="0 0 0 0 0 0 0 0 0 0 0 0 0 0 0 0 0 0 1 0"/>
<feBlend mode="normal" in2="BackgroundImageFix" result="effect1_dropShadow_37_16135"/>
<feBlend mode="normal" in="SourceGraphic" in2="effect1_dropShadow_37_16135" result="shape"/>
</filter>
<filter id="filter1_d_37_16135" x="21.5996" y="16.7998" width="27" height="21.8999" filterUnits="userSpaceOnUse" color-interpolation-filters="sRGB">
<feFlood flood-opacity="0" result="BackgroundImageFix"/>
<feColorMatrix in="SourceAlpha" type="matrix" values="0 0 0 0 0 0 0 0 0 0 0 0 0 0 0 0 0 0 127 0" result="hardAlpha"/>
<feOffset dx="0.5" dy="0.5"/>
<feComposite in2="hardAlpha" operator="out"/>
<feColorMatrix type="matrix" values="0 0 0 0 0 0 0 0 0 0 0 0 0 0 0 0 0 0 1 0"/>
<feBlend mode="normal" in2="BackgroundImageFix" result="effect1_dropShadow_37_16135"/>
<feBlend mode="normal" in="SourceGraphic" in2="effect1_dropShadow_37_16135" result="shape"/>
</filter>
<filter id="filter2_d_37_16135" x="385" y="345.5" width="90" height="73" filterUnits="userSpaceOnUse" color-interpolation-filters="sRGB">
<feFlood flood-opacity="0" result="BackgroundImageFix"/>
<feColorMatrix in="SourceAlpha" type="matrix" values="0 0 0 0 0 0 0 0 0 0 0 0 0 0 0 0 0 0 127 0" result="hardAlpha"/>
<feOffset dx="2" dy="2"/>
<feComposite in2="hardAlpha" operator="out"/>
<feColorMatrix type="matrix" values="0 0 0 0 0 0 0 0 0 0 0 0 0 0 0 0 0 0 1 0"/>
<feBlend mode="normal" in2="BackgroundImageFix" result="effect1_dropShadow_37_16135"/>
<feBlend mode="normal" in="SourceGraphic" in2="effect1_dropShadow_37_16135" result="shape"/>
</filter>
<filter id="filter3_d_37_16135" x="343.5" y="533" width="174" height="56" filterUnits="userSpaceOnUse" color-interpolation-filters="sRGB">
<feFlood flood-opacity="0" result="BackgroundImageFix"/>
<feColorMatrix in="SourceAlpha" type="matrix" values="0 0 0 0 0 0 0 0 0 0 0 0 0 0 0 0 0 0 127 0" result="hardAlpha"/>
<feOffset dx="2" dy="2"/>
<feComposite in2="hardAlpha" operator="out"/>
<feColorMatrix type="matrix" values="0 0 0 0 0 0 0 0 0 0 0 0 0 0 0 0 0 0 1 0"/>
<feBlend mode="normal" in2="BackgroundImageFix" result="effect1_dropShadow_37_16135"/>
<feBlend mode="normal" in="SourceGraphic" in2="effect1_dropShadow_37_16135" result="shape"/>
</filter>
<clipPath id="clip0_37_16135">
<rect y="0.5" width="859" height="863" rx="12" fill="white"/>
</clipPath>
</defs>
</svg>
