<svg width="74" height="74" viewBox="0 0 74 74" fill="none" xmlns="http://www.w3.org/2000/svg">
<path d="M10.0937 49.3971C9.52924 44.4176 10.8567 38.9396 13.702 33.4C13.2241 36.5314 13.0213 39.5352 13.3211 42.4888C13.7737 46.9472 15.3659 51.2489 18.7935 55.6996L19.3106 56.3712L19.978 55.8487L25.695 51.3736C28.8449 58.5641 33.647 62.8418 38.8928 64.9332C42.2996 66.2915 45.8669 66.7172 49.2519 66.442C48.2095 66.922 47.1919 67.3305 46.1514 67.6705C43.5407 68.5235 40.7514 68.9549 37.0376 68.9545C32.6572 67.8635 27.873 65.4531 24.8739 61.0887L24.1204 59.9922L23.4533 61.1433L21.328 64.8105C14.1962 60.7819 10.7718 55.3796 10.0937 49.3971ZM45.8619 58.557C48.8004 57.4052 51.4902 56.0747 53.8821 54.3229C57.4713 51.6944 60.3537 48.1453 62.445 42.9149L62.753 42.1445L61.9868 41.8261L55.283 39.0413C59.8672 32.6762 61.124 26.3222 60.2898 20.6783C59.7492 17.0207 58.3345 13.6865 56.4122 10.8599C57.3302 11.5261 58.1769 12.2064 58.9777 12.9398C61.0142 14.8048 62.7794 17.0381 64.6376 20.2992C65.8973 24.6926 66.2288 30.1014 63.9946 34.9185L63.4449 36.1037L64.7513 36.1132L68.9507 36.1439C69.0764 44.4314 66.165 50.1412 61.3908 53.7257C57.4072 56.7166 52.043 58.2907 45.8619 58.557ZM39.4338 6.5446C43.978 8.54109 48.0039 12.454 51.3219 17.7367C48.8807 15.7491 46.4102 14.0664 43.7302 12.8506C39.6868 11.016 35.2073 10.2614 29.6841 11.043L28.858 11.1599L28.9684 11.9868L29.9392 19.2596C22.2081 18.4262 16.146 20.5021 11.736 24.0568C8.88851 26.3519 6.75055 29.2464 5.29537 32.3308C5.40602 31.196 5.56415 30.1161 5.79025 29.0498C6.36713 26.3293 7.39447 23.6636 9.25353 20.4034C12.3795 17.1032 16.8332 14.1132 22.0595 13.6654L23.359 13.554L22.7212 12.4163L20.6392 8.70252C27.6563 4.45198 33.986 4.15107 39.4338 6.5446Z" fill="white" stroke="black" stroke-width="1.68182"/>
</svg>
