<svg width="75" height="74" viewBox="0 0 75 74" fill="none" xmlns="http://www.w3.org/2000/svg">
<path d="M37.3286 72.3764C56.8401 72.3764 72.6572 56.6221 72.6572 37.1882C72.6572 17.7543 56.8401 2 37.3286 2C17.8172 2 2 17.7543 2 37.1882C2 56.6221 17.8172 72.3764 37.3286 72.3764Z" fill="#65FBE2" stroke="black" stroke-width="3"/>
<path d="M16.9424 37.7975C16.6579 37.7975 16.366 37.7715 16.0759 37.7178C13.5527 37.2474 11.8923 34.8102 12.3627 32.2952C13.2255 27.7003 21.4291 15.1863 33.4223 11.8082C35.8953 11.1082 38.4613 12.5435 39.1604 15.0029C39.8595 17.4643 38.4241 20.0219 35.9529 20.7182C27.8404 23.0036 21.987 32.0692 21.4942 34.0379C21.0759 36.2603 19.1309 37.7975 16.9424 37.7975Z" fill="white"/>
</svg>
