<svg width="1920" height="1080" viewBox="0 0 1920 1080" fill="none" xmlns="http://www.w3.org/2000/svg">
<rect width="1920" height="1080" transform="matrix(-1 0 0 1 1920 0)" fill="black"/>
<path d="M797.924 767.808C796.451 767.808 795.168 767.453 794.076 766.742C792.984 766.014 792.135 764.948 791.528 763.544C790.921 762.14 790.618 760.424 790.618 758.396C790.618 756.368 790.956 754.652 791.632 753.248C792.308 751.844 793.218 750.787 794.362 750.076C795.506 749.348 796.78 748.984 798.184 748.984C799.085 748.984 799.848 749.071 800.472 749.244C801.096 749.4 801.599 749.582 801.98 749.79C802.379 749.981 802.656 750.137 802.812 750.258L801.98 752.598C801.529 752.286 800.992 752.026 800.368 751.818C799.761 751.593 799.129 751.48 798.47 751.48C797.43 751.48 796.537 751.766 795.792 752.338C795.064 752.91 794.509 753.716 794.128 754.756C793.747 755.796 793.556 757.01 793.556 758.396C793.556 759.818 793.729 761.048 794.076 762.088C794.423 763.111 794.943 763.9 795.636 764.454C796.329 765.009 797.179 765.286 798.184 765.286C798.6 765.286 798.955 765.252 799.25 765.182C799.545 765.113 799.779 765.061 799.952 765.026V758.292H802.812V766.976C802.431 767.132 801.807 767.306 800.94 767.496C800.091 767.704 799.085 767.808 797.924 767.808ZM809.067 767.418V749.4H811.953V765H820.039V767.418H809.067ZM831.104 767.808C829.769 767.808 828.616 767.47 827.646 766.794C826.675 766.101 825.921 765.061 825.384 763.674C824.864 762.27 824.604 760.511 824.604 758.396C824.604 756.282 824.872 754.531 825.41 753.144C825.947 751.74 826.692 750.7 827.646 750.024C828.616 749.331 829.76 748.984 831.078 748.984C832.412 748.984 833.565 749.331 834.536 750.024C835.506 750.7 836.252 751.74 836.772 753.144C837.309 754.531 837.578 756.282 837.578 758.396C837.578 760.511 837.309 762.27 836.772 763.674C836.234 765.061 835.48 766.101 834.51 766.794C833.539 767.47 832.404 767.808 831.104 767.808ZM831.052 765.312C831.918 765.312 832.612 765.026 833.132 764.454C833.652 763.882 834.033 763.076 834.276 762.036C834.518 760.996 834.64 759.783 834.64 758.396C834.64 756.975 834.518 755.753 834.276 754.73C834.05 753.69 833.669 752.893 833.132 752.338C832.612 751.766 831.918 751.48 831.052 751.48C830.185 751.48 829.5 751.766 828.998 752.338C828.495 752.91 828.131 753.708 827.906 754.73C827.68 755.753 827.568 756.975 827.568 758.396C827.568 759.8 827.672 761.022 827.88 762.062C828.105 763.085 828.469 763.882 828.972 764.454C829.492 765.026 830.185 765.312 831.052 765.312ZM847.134 767.6C846.701 767.6 846.207 767.583 845.652 767.548C845.115 767.514 844.569 767.462 844.014 767.392C843.477 767.323 842.974 767.236 842.506 767.132V749.634C842.94 749.548 843.416 749.478 843.936 749.426C844.456 749.357 844.985 749.305 845.522 749.27C846.06 749.218 846.554 749.192 847.004 749.192C848.079 749.192 849.024 749.305 849.838 749.53C850.653 749.738 851.329 750.042 851.866 750.44C852.404 750.839 852.802 751.333 853.062 751.922C853.322 752.494 853.452 753.162 853.452 753.924C853.452 754.479 853.34 755.016 853.114 755.536C852.906 756.039 852.612 756.49 852.23 756.888C851.849 757.27 851.424 757.564 850.956 757.772C851.684 758.015 852.291 758.344 852.776 758.76C853.279 759.176 853.652 759.662 853.894 760.216C854.154 760.771 854.284 761.395 854.284 762.088C854.284 763.371 854.007 764.42 853.452 765.234C852.898 766.049 852.092 766.647 851.034 767.028C849.977 767.41 848.677 767.6 847.134 767.6ZM847.368 765.13C848.062 765.13 848.712 765.052 849.318 764.896C849.942 764.723 850.454 764.42 850.852 763.986C851.251 763.536 851.45 762.903 851.45 762.088C851.45 761.36 851.277 760.797 850.93 760.398C850.584 759.982 850.124 759.679 849.552 759.488C848.98 759.298 848.339 759.202 847.628 759.202H845.392V765.026C845.514 765.044 845.756 765.07 846.12 765.104C846.484 765.122 846.9 765.13 847.368 765.13ZM845.392 756.81H847.082C847.724 756.81 848.304 756.724 848.824 756.55C849.362 756.377 849.795 756.1 850.124 755.718C850.454 755.337 850.618 754.834 850.618 754.21C850.618 753.552 850.462 753.04 850.15 752.676C849.838 752.312 849.431 752.061 848.928 751.922C848.443 751.766 847.906 751.688 847.316 751.688C846.918 751.688 846.545 751.697 846.198 751.714C845.869 751.732 845.6 751.758 845.392 751.792V756.81ZM858.355 767.418C858.737 765.945 859.135 764.437 859.551 762.894C859.967 761.352 860.401 759.809 860.851 758.266C861.319 756.724 861.787 755.207 862.255 753.716C862.741 752.226 863.235 750.787 863.737 749.4H867.117C867.62 750.787 868.105 752.234 868.573 753.742C869.059 755.233 869.518 756.758 869.951 758.318C870.402 759.861 870.827 761.404 871.225 762.946C871.641 764.472 872.031 765.962 872.395 767.418H869.301L868.339 762.946H862.281L861.319 767.418H858.355ZM862.905 760.554H867.767C867.525 759.514 867.273 758.5 867.013 757.512C866.753 756.524 866.476 755.58 866.181 754.678C865.904 753.76 865.627 752.884 865.349 752.052C865.072 752.902 864.786 753.786 864.491 754.704C864.214 755.623 863.937 756.568 863.659 757.538C863.399 758.509 863.148 759.514 862.905 760.554ZM877.662 767.418V749.4H880.548V765H888.634V767.418H877.662ZM917.966 767.808C916.492 767.808 915.21 767.453 914.118 766.742C913.026 766.014 912.176 764.948 911.57 763.544C910.963 762.14 910.66 760.424 910.66 758.396C910.66 756.368 910.998 754.652 911.674 753.248C912.35 751.844 913.26 750.787 914.404 750.076C915.548 749.348 916.822 748.984 918.226 748.984C919.127 748.984 919.89 749.071 920.514 749.244C921.138 749.4 921.64 749.582 922.022 749.79C922.42 749.981 922.698 750.137 922.854 750.258L922.022 752.598C921.571 752.286 921.034 752.026 920.41 751.818C919.803 751.593 919.17 751.48 918.512 751.48C917.472 751.48 916.579 751.766 915.834 752.338C915.106 752.91 914.551 753.716 914.17 754.756C913.788 755.796 913.598 757.01 913.598 758.396C913.598 759.818 913.771 761.048 914.118 762.088C914.464 763.111 914.984 763.9 915.678 764.454C916.371 765.009 917.22 765.286 918.226 765.286C918.642 765.286 918.997 765.252 919.292 765.182C919.586 765.113 919.82 765.061 919.994 765.026V758.292H922.854V766.976C922.472 767.132 921.848 767.306 920.982 767.496C920.132 767.704 919.127 767.808 917.966 767.808ZM926.951 767.418C927.332 765.945 927.731 764.437 928.147 762.894C928.563 761.352 928.996 759.809 929.447 758.266C929.915 756.724 930.383 755.207 930.851 753.716C931.336 752.226 931.83 750.787 932.333 749.4H935.713C936.215 750.787 936.701 752.234 937.169 753.742C937.654 755.233 938.113 756.758 938.547 758.318C938.997 759.861 939.422 761.404 939.821 762.946C940.237 764.472 940.627 765.962 940.991 767.418H937.897L936.935 762.946H930.877L929.915 767.418H926.951ZM931.501 760.554H936.363C936.12 759.514 935.869 758.5 935.609 757.512C935.349 756.524 935.071 755.58 934.777 754.678C934.499 753.76 934.222 752.884 933.945 752.052C933.667 752.902 933.381 753.786 933.087 754.704C932.809 755.623 932.532 756.568 932.255 757.538C931.995 758.509 931.743 759.514 931.501 760.554ZM944.671 767.418C944.723 765.945 944.784 764.428 944.853 762.868C944.94 761.308 945.027 759.748 945.113 758.188C945.217 756.628 945.33 755.112 945.451 753.638C945.573 752.148 945.711 750.735 945.867 749.4H948.389C948.667 750.215 948.953 751.108 949.247 752.078C949.559 753.032 949.871 754.02 950.183 755.042C950.513 756.048 950.825 757.018 951.119 757.954C951.431 756.966 951.743 755.97 952.055 754.964C952.367 753.959 952.679 752.988 952.991 752.052C953.303 751.099 953.589 750.215 953.849 749.4H956.397C956.623 751.359 956.805 753.318 956.943 755.276C957.099 757.235 957.221 759.22 957.307 761.23C957.411 763.224 957.498 765.286 957.567 767.418H954.863C954.846 765.945 954.829 764.394 954.811 762.764C954.811 761.135 954.803 759.471 954.785 757.772C954.768 756.074 954.751 754.41 954.733 752.78L952.263 760.788H949.975L947.531 752.78C947.531 754.41 947.514 756.074 947.479 757.772C947.462 759.471 947.436 761.135 947.401 762.764C947.384 764.394 947.375 765.945 947.375 767.418H944.671ZM963.302 767.418V749.4H973.754V751.818H966.188V756.732H972.792V759.15H966.188V765H974.378V767.418H963.302ZM1001.58 767.808C1000.8 767.808 1000.1 767.73 999.472 767.574C998.848 767.418 998.302 767.228 997.834 767.002C997.383 766.76 997.011 766.526 996.716 766.3L997.834 763.96C998.25 764.255 998.761 764.558 999.368 764.87C999.975 765.165 1000.64 765.312 1001.37 765.312C1002.5 765.312 1003.35 765.009 1003.94 764.402C1004.55 763.796 1004.85 762.764 1004.85 761.308V751.818H998.744V749.4H1007.74V761.516C1007.74 762.678 1007.55 763.735 1007.17 764.688C1006.8 765.642 1006.17 766.404 1005.27 766.976C1004.37 767.531 1003.14 767.808 1001.58 767.808ZM1012.69 767.418C1013.08 765.945 1013.47 764.437 1013.89 762.894C1014.31 761.352 1014.74 759.809 1015.19 758.266C1015.66 756.724 1016.13 755.207 1016.59 753.716C1017.08 752.226 1017.57 750.787 1018.08 749.4H1021.46C1021.96 750.787 1022.44 752.234 1022.91 753.742C1023.4 755.233 1023.86 756.758 1024.29 758.318C1024.74 759.861 1025.17 761.404 1025.56 762.946C1025.98 764.472 1026.37 765.962 1026.73 767.418H1023.64L1022.68 762.946H1016.62L1015.66 767.418H1012.69ZM1017.24 760.554H1022.11C1021.86 759.514 1021.61 758.5 1021.35 757.512C1021.09 756.524 1020.82 755.58 1020.52 754.678C1020.24 753.76 1019.97 752.884 1019.69 752.052C1019.41 752.902 1019.13 753.786 1018.83 754.704C1018.55 755.623 1018.28 756.568 1018 757.538C1017.74 758.509 1017.49 759.514 1017.24 760.554ZM1030.42 767.418C1030.47 765.945 1030.53 764.428 1030.6 762.868C1030.68 761.308 1030.77 759.748 1030.86 758.188C1030.96 756.628 1031.07 755.112 1031.2 753.638C1031.32 752.148 1031.46 750.735 1031.61 749.4H1034.13C1034.41 750.215 1034.7 751.108 1034.99 752.078C1035.3 753.032 1035.62 754.02 1035.93 755.042C1036.26 756.048 1036.57 757.018 1036.86 757.954C1037.18 756.966 1037.49 755.97 1037.8 754.964C1038.11 753.959 1038.42 752.988 1038.74 752.052C1039.05 751.099 1039.33 750.215 1039.59 749.4H1042.14C1042.37 751.359 1042.55 753.318 1042.69 755.276C1042.84 757.235 1042.96 759.22 1043.05 761.23C1043.16 763.224 1043.24 765.286 1043.31 767.418H1040.61C1040.59 765.945 1040.57 764.394 1040.56 762.764C1040.56 761.135 1040.55 759.471 1040.53 757.772C1040.51 756.074 1040.49 754.41 1040.48 752.78L1038.01 760.788H1035.72L1033.28 752.78C1033.28 754.41 1033.26 756.074 1033.22 757.772C1033.21 759.471 1033.18 761.135 1033.15 762.764C1033.13 764.394 1033.12 765.945 1033.12 767.418H1030.42ZM1065.78 767.418C1065.74 767.28 1065.73 767.124 1065.73 766.95C1065.73 766.76 1065.73 766.604 1065.73 766.482C1065.73 765.39 1065.95 764.402 1066.4 763.518C1066.87 762.617 1067.45 761.785 1068.15 761.022C1068.84 760.26 1069.53 759.54 1070.23 758.864C1070.78 758.344 1071.29 757.833 1071.76 757.33C1072.24 756.828 1072.63 756.325 1072.9 755.822C1073.2 755.302 1073.35 754.765 1073.35 754.21C1073.35 753.292 1073.08 752.616 1072.54 752.182C1072 751.749 1071.34 751.532 1070.56 751.532C1070.01 751.532 1069.5 751.628 1069.03 751.818C1068.56 751.992 1068.14 752.208 1067.76 752.468C1067.39 752.728 1067.07 752.988 1066.79 753.248L1065.39 751.246C1065.72 750.882 1066.15 750.527 1066.69 750.18C1067.23 749.816 1067.84 749.53 1068.54 749.322C1069.23 749.097 1069.96 748.984 1070.72 748.984C1071.86 748.984 1072.85 749.175 1073.68 749.556C1074.52 749.938 1075.15 750.51 1075.58 751.272C1076.03 752.018 1076.26 752.945 1076.26 754.054C1076.26 754.869 1076.06 755.658 1075.66 756.42C1075.26 757.183 1074.74 757.92 1074.1 758.63C1073.48 759.341 1072.82 760.043 1072.12 760.736C1071.85 760.996 1071.53 761.317 1071.16 761.698C1070.8 762.062 1070.45 762.444 1070.12 762.842C1069.79 763.241 1069.51 763.631 1069.29 764.012C1069.08 764.376 1068.98 764.706 1068.98 765H1077.04V767.418H1065.78ZM1088.31 767.808C1086.37 767.808 1084.87 767.011 1083.81 765.416C1082.77 763.804 1082.25 761.456 1082.25 758.37C1082.25 755.32 1082.78 752.997 1083.84 751.402C1084.91 749.79 1086.4 748.984 1088.31 748.984C1090.25 748.984 1091.74 749.782 1092.78 751.376C1093.84 752.971 1094.37 755.302 1094.37 758.37C1094.37 761.456 1093.84 763.804 1092.78 765.416C1091.74 767.011 1090.25 767.808 1088.31 767.808ZM1088.31 765.286C1088.9 765.286 1089.4 765.122 1089.82 764.792C1090.23 764.446 1090.57 763.969 1090.83 763.362C1091.09 762.738 1091.28 762.01 1091.4 761.178C1091.53 760.329 1091.59 759.393 1091.59 758.37C1091.59 757.365 1091.53 756.446 1091.4 755.614C1091.28 754.765 1091.09 754.037 1090.83 753.43C1090.57 752.806 1090.23 752.33 1089.82 752C1089.4 751.671 1088.9 751.506 1088.31 751.506C1087.72 751.506 1087.22 751.671 1086.8 752C1086.39 752.33 1086.05 752.806 1085.79 753.43C1085.53 754.037 1085.34 754.765 1085.22 755.614C1085.09 756.446 1085.03 757.365 1085.03 758.37C1085.03 759.393 1085.09 760.329 1085.22 761.178C1085.34 762.01 1085.53 762.738 1085.79 763.362C1086.05 763.969 1086.39 764.446 1086.8 764.792C1087.22 765.122 1087.72 765.286 1088.31 765.286ZM1088.34 759.956C1087.85 759.956 1087.45 759.774 1087.14 759.41C1086.85 759.029 1086.7 758.578 1086.7 758.058C1086.7 757.556 1086.85 757.114 1087.14 756.732C1087.45 756.334 1087.85 756.134 1088.34 756.134C1088.82 756.134 1089.21 756.334 1089.51 756.732C1089.82 757.114 1089.97 757.556 1089.97 758.058C1089.97 758.578 1089.82 759.029 1089.51 759.41C1089.21 759.774 1088.82 759.956 1088.34 759.956ZM1100.08 767.418C1100.04 767.28 1100.02 767.124 1100.02 766.95C1100.02 766.76 1100.02 766.604 1100.02 766.482C1100.02 765.39 1100.25 764.402 1100.7 763.518C1101.17 762.617 1101.75 761.785 1102.44 761.022C1103.14 760.26 1103.83 759.54 1104.52 758.864C1105.08 758.344 1105.59 757.833 1106.06 757.33C1106.54 756.828 1106.92 756.325 1107.2 755.822C1107.5 755.302 1107.64 754.765 1107.64 754.21C1107.64 753.292 1107.37 752.616 1106.84 752.182C1106.3 751.749 1105.64 751.532 1104.86 751.532C1104.31 751.532 1103.79 751.628 1103.33 751.818C1102.86 751.992 1102.43 752.208 1102.05 752.468C1101.69 752.728 1101.37 752.988 1101.09 753.248L1099.69 751.246C1100.02 750.882 1100.45 750.527 1100.99 750.18C1101.52 749.816 1102.14 749.53 1102.83 749.322C1103.53 749.097 1104.25 748.984 1105.02 748.984C1106.16 748.984 1107.15 749.175 1107.98 749.556C1108.81 749.938 1109.45 750.51 1109.88 751.272C1110.33 752.018 1110.55 752.945 1110.55 754.054C1110.55 754.869 1110.36 755.658 1109.96 756.42C1109.56 757.183 1109.04 757.92 1108.4 758.63C1107.77 759.341 1107.11 760.043 1106.42 760.736C1106.14 760.996 1105.82 761.317 1105.46 761.698C1105.09 762.062 1104.75 762.444 1104.42 762.842C1104.09 763.241 1103.81 763.631 1103.59 764.012C1103.38 764.376 1103.27 764.706 1103.27 765H1111.33V767.418H1100.08ZM1121.46 767.808C1120.87 767.808 1120.27 767.748 1119.64 767.626C1119.02 767.522 1118.46 767.401 1117.95 767.262C1117.47 767.106 1117.11 766.976 1116.89 766.872L1117.46 764.402C1117.81 764.576 1118.31 764.766 1118.97 764.974C1119.63 765.182 1120.45 765.286 1121.44 765.286C1122.44 765.286 1123.22 765.148 1123.78 764.87C1124.33 764.593 1124.72 764.229 1124.95 763.778C1125.19 763.31 1125.31 762.816 1125.31 762.296C1125.31 761.707 1125.21 761.178 1125 760.71C1124.79 760.225 1124.43 759.818 1123.91 759.488C1123.39 759.159 1122.66 758.908 1121.72 758.734C1120.79 758.544 1119.58 758.448 1118.11 758.448C1118.21 757.616 1118.3 756.819 1118.37 756.056C1118.44 755.294 1118.5 754.548 1118.55 753.82C1118.6 753.075 1118.65 752.338 1118.68 751.61C1118.72 750.882 1118.75 750.146 1118.79 749.4H1127.68V751.818H1121.26C1121.24 752.096 1121.21 752.434 1121.18 752.832C1121.16 753.231 1121.13 753.647 1121.1 754.08C1121.07 754.496 1121.03 754.895 1121 755.276C1120.96 755.64 1120.94 755.944 1120.92 756.186C1123.45 756.308 1125.3 756.888 1126.48 757.928C1127.66 758.968 1128.25 760.381 1128.25 762.166C1128.25 763.241 1128.01 764.203 1127.52 765.052C1127.04 765.902 1126.29 766.578 1125.29 767.08C1124.3 767.566 1123.02 767.808 1121.46 767.808Z" fill="white"/>
<path d="M984.228 326.372C984.288 324.672 984.358 322.922 984.438 321.122C984.538 319.322 984.638 317.522 984.738 315.722C984.858 313.922 984.988 312.172 985.128 310.472C985.268 308.752 985.428 307.122 985.608 305.582H988.518C988.838 306.522 989.168 307.552 989.508 308.672C989.868 309.772 990.228 310.912 990.588 312.092C990.968 313.252 991.328 314.372 991.668 315.452C992.028 314.312 992.388 313.162 992.748 312.002C993.108 310.842 993.468 309.722 993.828 308.642C994.188 307.542 994.518 306.522 994.818 305.582H997.758C998.018 307.842 998.228 310.102 998.388 312.362C998.568 314.622 998.708 316.912 998.808 319.232C998.928 321.532 999.028 323.912 999.108 326.372H995.988C995.968 324.672 995.948 322.882 995.928 321.002C995.928 319.122 995.918 317.202 995.898 315.242C995.878 313.282 995.858 311.362 995.838 309.482L992.988 318.722H990.348L987.528 309.482C987.528 311.362 987.508 313.282 987.468 315.242C987.448 317.202 987.418 319.122 987.378 321.002C987.358 322.882 987.348 324.672 987.348 326.372H984.228Z" fill="white"/>
<path d="M954.781 326.372C955.221 324.672 955.681 322.932 956.161 321.152C956.641 319.372 957.141 317.592 957.661 315.812C958.201 314.032 958.741 312.282 959.281 310.562C959.841 308.842 960.411 307.182 960.991 305.582H964.891C965.471 307.182 966.031 308.852 966.571 310.592C967.131 312.312 967.661 314.072 968.161 315.872C968.681 317.652 969.171 319.432 969.631 321.212C970.111 322.972 970.561 324.692 970.981 326.372H967.411L966.301 321.212H959.311L958.201 326.372H954.781ZM960.031 318.452H965.641C965.361 317.252 965.071 316.082 964.771 314.942C964.471 313.802 964.151 312.712 963.811 311.672C963.491 310.612 963.171 309.602 962.851 308.642C962.531 309.622 962.201 310.642 961.861 311.702C961.541 312.762 961.221 313.852 960.901 314.972C960.601 316.092 960.311 317.252 960.031 318.452Z" fill="white"/>
<path d="M928.364 326.372V305.582H940.424V308.372H931.694V314.042H939.314V316.832H931.694V323.582H941.144V326.372H928.364Z" fill="white"/>
<path d="M903.656 326.372V308.372H898.046V305.582H912.566V308.372H906.956V326.372H903.656Z" fill="white"/>
<path d="M856.867 474.884L876.356 472.719L869.86 402.923L899.313 472.243L920.434 474.444L919.554 348.158L899.978 349.359L901.513 422.961L865.726 350.441L842.981 351.23L856.867 474.884Z" fill="#A78FFF" stroke="black" stroke-width="3" stroke-linecap="round" stroke-linejoin="round"/>
<path d="M925.164 490.725L857.181 486.765L870.998 622.129L887.543 619.432L884.243 571.91L922.525 564.65L925.165 490.726L925.164 490.725ZM909.323 548.148L881.602 552.768L874.342 503.266L909.324 506.566L909.323 548.148Z" fill="#65FBE2" stroke="black" stroke-width="3" stroke-linecap="round" stroke-linejoin="round"/>
<path d="M998.848 347.059L999.508 373.76L1023.62 373.1L1016.84 471.995L1038.14 476.425L1041.09 368.14L1076.73 367.42L1078.02 344.082L998.848 347.059Z" fill="#FF72C6" stroke="black" stroke-width="3" stroke-linecap="round" stroke-linejoin="round"/>
<path d="M1065.5 558.929L1043.06 558.269L1042.84 493.806L1023.04 486.765L1016.99 621.632L1065.19 620.261L1064.39 600.531L1043.37 599.851L1040.42 578.73L1064.84 576.089L1065.5 558.929Z" fill="#61B7F8" stroke="black" stroke-width="3" stroke-linecap="round" stroke-linejoin="round"/>
<path d="M996.849 595.454L986.657 349.039L933.855 349.699L934.515 491.606L949.696 490.946L949.036 464.545L977.417 463.225L976.097 519.328L938.475 516.688L927.255 619.653L997.878 620.313L1005.14 620.973V595.892L996.849 595.456V595.454ZM946.395 438.803L948.375 373.46H971.476L974.116 437.483L946.395 438.803ZM942.435 599.191L951.675 547.709L974.776 544.409L978.736 599.852L942.434 599.192L942.435 599.191Z" fill="#FFE993" stroke="black" stroke-width="3" stroke-linecap="round" stroke-linejoin="round"/>
</svg>
