<svg width="1920" height="52" viewBox="0 0 1920 52" fill="none" xmlns="http://www.w3.org/2000/svg">
<mask id="path-1-outside-1_8_1495" maskUnits="userSpaceOnUse" x="0" y="0" width="1920" height="52" fill="black">
<rect fill="white" width="1920" height="52"/>
<path d="M0 2H1920V52H0V2Z"/>
</mask>
<path d="M0 2H1920V52H0V2Z" fill="#FFE993"/>
<path d="M0 4H1920V0H0V4Z" fill="black" mask="url(#path-1-outside-1_8_1495)"/>
<mask id="path-3-inside-2_8_1495" fill="white">
<path d="M0 2H156V52H0V2Z"/>
</mask>
<path d="M0 2H156V52H0V2Z" fill="#65FBE2"/>
<path d="M154 2V52H158V2H154Z" fill="black" mask="url(#path-3-inside-2_8_1495)"/>
<path d="M37.5226 26.5614C41.125 26.5614 44.0452 23.6527 44.0452 20.0647C44.0452 16.4767 41.125 13.568 37.5226 13.568C33.9203 13.568 31 16.4767 31 20.0647C31 23.6527 33.9203 26.5614 37.5226 26.5614Z" fill="#FF72C6" stroke="black"/>
<path d="M33.7587 20.1772C33.7062 20.1772 33.6523 20.1724 33.5987 20.1625C33.1329 20.0756 32.8263 19.6257 32.9131 19.1613C33.0724 18.313 34.5871 16.0026 36.8013 15.3789C37.2579 15.2496 37.7316 15.5146 37.8607 15.9687C37.9898 16.4231 37.7248 16.8953 37.2685 17.0239C35.7707 17.4458 34.69 19.1196 34.5991 19.4831C34.5218 19.8934 34.1627 20.1772 33.7587 20.1772Z" fill="white"/>
<path d="M52.4777 26.5614C56.08 26.5614 59.0003 23.6527 59.0003 20.0647C59.0003 16.4767 56.08 13.568 52.4777 13.568C48.8754 13.568 45.9551 16.4767 45.9551 20.0647C45.9551 23.6527 48.8754 26.5614 52.4777 26.5614Z" fill="#65FBE2" stroke="black"/>
<path d="M48.7138 20.1772C48.6612 20.1772 48.6073 20.1724 48.5538 20.1625C48.0879 20.0756 47.7814 19.6257 47.8682 19.1613C48.0275 18.313 49.5421 16.0026 51.7564 15.3789C52.213 15.2496 52.6867 15.5146 52.8158 15.9687C52.9449 16.4231 52.6799 16.8953 52.2236 17.0239C50.7258 17.4458 49.6451 19.1196 49.5542 19.4831C49.4769 19.8934 49.1178 20.1772 48.7138 20.1772Z" fill="white"/>
<path d="M37.5226 41.3316C41.125 41.3316 44.0452 38.4229 44.0452 34.8349C44.0452 31.2469 41.125 28.3382 37.5226 28.3382C33.9203 28.3382 31 31.2469 31 34.8349C31 38.4229 33.9203 41.3316 37.5226 41.3316Z" fill="#61B7F8" stroke="black"/>
<path d="M33.7587 34.9474C33.7062 34.9474 33.6523 34.9426 33.5987 34.9327C33.1329 34.8458 32.8263 34.3959 32.9131 33.9315C33.0724 33.0832 34.5871 30.7728 36.8013 30.1491C37.2579 30.0198 37.7316 30.2848 37.8607 30.7389C37.9898 31.1933 37.7248 31.6655 37.2685 31.7941C35.7707 32.2161 34.69 33.8898 34.5991 34.2533C34.5218 34.6636 34.1627 34.9474 33.7587 34.9474Z" fill="white"/>
<path d="M52.4777 41.3315C56.08 41.3315 59.0003 38.4228 59.0003 34.8348C59.0003 31.2468 56.08 28.3381 52.4777 28.3381C48.8754 28.3381 45.9551 31.2468 45.9551 34.8348C45.9551 38.4228 48.8754 41.3315 52.4777 41.3315Z" fill="#FFE993" stroke="black"/>
<path d="M48.7138 34.9473C48.6612 34.9473 48.6073 34.9425 48.5538 34.9326C48.0879 34.8458 47.7814 34.3958 47.8682 33.9315C48.0275 33.0831 49.5421 30.7727 51.7564 30.149C52.213 30.0198 52.6867 30.2848 52.8158 30.7388C52.9449 31.1933 52.6799 31.6655 52.2236 31.794C50.7258 32.216 49.6451 33.8897 49.5542 34.2532C49.4769 34.6635 49.1178 34.9473 48.7138 34.9473Z" fill="white"/>
<path d="M72.698 33.27C72.062 33.27 71.498 33.216 71.006 33.108C70.526 33 70.118 32.874 69.782 32.73C69.446 32.586 69.182 32.46 68.99 32.352L69.584 30.732C69.884 30.9 70.292 31.08 70.808 31.272C71.336 31.464 71.966 31.56 72.698 31.56C73.262 31.56 73.718 31.488 74.066 31.344C74.426 31.2 74.69 30.996 74.858 30.732C75.026 30.456 75.11 30.132 75.11 29.76C75.11 29.304 74.978 28.932 74.714 28.644C74.45 28.356 74.114 28.11 73.706 27.906C73.298 27.702 72.884 27.516 72.464 27.348C72.068 27.192 71.678 27.018 71.294 26.826C70.922 26.634 70.58 26.406 70.268 26.142C69.956 25.878 69.704 25.56 69.512 25.188C69.332 24.804 69.242 24.348 69.242 23.82C69.242 22.692 69.602 21.816 70.322 21.192C71.042 20.556 72.032 20.238 73.292 20.238C74.012 20.238 74.66 20.322 75.236 20.49C75.824 20.658 76.28 20.844 76.604 21.048L75.992 22.65C75.692 22.47 75.314 22.308 74.858 22.164C74.414 22.008 73.916 21.93 73.364 21.93C72.944 21.93 72.572 21.996 72.248 22.128C71.936 22.248 71.684 22.434 71.492 22.686C71.312 22.926 71.222 23.226 71.222 23.586C71.222 23.982 71.33 24.312 71.546 24.576C71.774 24.84 72.068 25.068 72.428 25.26C72.8 25.44 73.184 25.614 73.58 25.782C74.048 25.962 74.492 26.154 74.912 26.358C75.332 26.562 75.704 26.808 76.028 27.096C76.352 27.384 76.61 27.744 76.802 28.176C76.994 28.608 77.09 29.136 77.09 29.76C77.09 30.876 76.718 31.74 75.974 32.352C75.23 32.964 74.138 33.27 72.698 33.27ZM83.9223 33V22.2H80.5563V20.526H89.2683V22.2H85.9023V33H83.9223ZM91.9245 33C92.1885 31.98 92.4645 30.936 92.7525 29.868C93.0405 28.8 93.3405 27.732 93.6525 26.664C93.9765 25.596 94.3005 24.546 94.6245 23.514C94.9605 22.482 95.3025 21.486 95.6505 20.526H97.9905C98.3385 21.486 98.6745 22.488 98.9985 23.532C99.3345 24.564 99.6525 25.62 99.9525 26.7C100.265 27.768 100.559 28.836 100.835 29.904C101.123 30.96 101.393 31.992 101.645 33H99.5025L98.8365 29.904H94.6425L93.9765 33H91.9245ZM95.0745 28.248H98.4405C98.2725 27.528 98.0985 26.826 97.9185 26.142C97.7385 25.458 97.5465 24.804 97.3425 24.18C97.1505 23.544 96.9585 22.938 96.7665 22.362C96.5745 22.95 96.3765 23.562 96.1725 24.198C95.9805 24.834 95.7885 25.488 95.5965 26.16C95.4165 26.832 95.2425 27.528 95.0745 28.248ZM104.715 33V20.706C105.015 20.622 105.351 20.556 105.723 20.508C106.107 20.46 106.485 20.43 106.857 20.418C107.241 20.394 107.571 20.382 107.847 20.382C109.299 20.382 110.427 20.718 111.231 21.39C112.047 22.05 112.455 23.046 112.455 24.378C112.455 25.134 112.269 25.806 111.897 26.394C111.537 26.982 111.015 27.438 110.331 27.762C110.619 28.194 110.931 28.704 111.267 29.292C111.615 29.88 111.957 30.492 112.293 31.128C112.629 31.764 112.923 32.388 113.175 33H111.051C110.811 32.412 110.547 31.83 110.259 31.254C109.983 30.678 109.689 30.132 109.377 29.616C109.077 29.1 108.777 28.632 108.477 28.212C108.417 28.212 108.327 28.218 108.207 28.23C108.099 28.23 108.021 28.23 107.973 28.23H106.731V33H104.715ZM106.731 26.556H107.577C108.189 26.556 108.705 26.49 109.125 26.358C109.545 26.214 109.863 25.98 110.079 25.656C110.307 25.332 110.421 24.894 110.421 24.342C110.421 23.766 110.307 23.322 110.079 23.01C109.863 22.686 109.563 22.458 109.179 22.326C108.807 22.194 108.393 22.128 107.937 22.128C107.709 22.128 107.481 22.134 107.253 22.146C107.025 22.146 106.851 22.158 106.731 22.182V26.556ZM119.539 33V22.2H116.173V20.526H124.885V22.2H121.519V33H119.539Z" fill="black"/>
<rect x="166.5" y="8.5" width="313" height="37" rx="5.5" fill="#F6F6F6"/>
<rect x="166.5" y="8.5" width="313" height="37" rx="5.5" stroke="black"/>
<g filter="url(#filter0_d_8_1495)">
<path d="M211.05 16.8H190.65C189.241 16.8 188.1 17.9417 188.1 19.35V34.65C188.1 36.0584 189.241 37.2 190.65 37.2H211.05C212.458 37.2 213.6 36.0584 213.6 34.65V19.35C213.6 17.9417 212.458 16.8 211.05 16.8Z" fill="#FFE993" stroke="black" stroke-linecap="round" stroke-linejoin="round"/>
<path d="M213.6 20.6251L202.163 27.8926C201.769 28.1392 201.314 28.27 200.85 28.27C200.385 28.27 199.93 28.1392 199.536 27.8926L188.1 20.6251" fill="#FFE993"/>
<path d="M213.6 20.6251L202.163 27.8926C201.769 28.1392 201.314 28.27 200.85 28.27C200.385 28.27 199.93 28.1392 199.536 27.8926L188.1 20.6251" stroke="black" stroke-linecap="round" stroke-linejoin="round"/>
</g>
<path d="M230.284 33.126C229.984 33.126 229.642 33.114 229.258 33.09C228.886 33.066 228.508 33.03 228.124 32.982C227.752 32.934 227.404 32.874 227.08 32.802V20.688C227.38 20.628 227.71 20.58 228.07 20.544C228.43 20.496 228.796 20.46 229.168 20.436C229.54 20.4 229.882 20.382 230.194 20.382C230.938 20.382 231.592 20.46 232.156 20.616C232.72 20.76 233.188 20.97 233.56 21.246C233.932 21.522 234.208 21.864 234.388 22.272C234.568 22.668 234.658 23.13 234.658 23.658C234.658 24.042 234.58 24.414 234.424 24.774C234.28 25.122 234.076 25.434 233.812 25.71C233.548 25.974 233.254 26.178 232.93 26.322C233.434 26.49 233.854 26.718 234.19 27.006C234.538 27.294 234.796 27.63 234.964 28.014C235.144 28.398 235.234 28.83 235.234 29.31C235.234 30.198 235.042 30.924 234.658 31.488C234.274 32.052 233.716 32.466 232.984 32.73C232.252 32.994 231.352 33.126 230.284 33.126ZM230.446 31.416C230.926 31.416 231.376 31.362 231.796 31.254C232.228 31.134 232.582 30.924 232.858 30.624C233.134 30.312 233.272 29.874 233.272 29.31C233.272 28.806 233.152 28.416 232.912 28.14C232.672 27.852 232.354 27.642 231.958 27.51C231.562 27.378 231.118 27.312 230.626 27.312H229.078V31.344C229.162 31.356 229.33 31.374 229.582 31.398C229.834 31.41 230.122 31.416 230.446 31.416ZM229.078 25.656H230.248C230.692 25.656 231.094 25.596 231.454 25.476C231.826 25.356 232.126 25.164 232.354 24.9C232.582 24.636 232.696 24.288 232.696 23.856C232.696 23.4 232.588 23.046 232.372 22.794C232.156 22.542 231.874 22.368 231.526 22.272C231.19 22.164 230.818 22.11 230.41 22.11C230.134 22.11 229.876 22.116 229.636 22.128C229.408 22.14 229.222 22.158 229.078 22.182V25.656ZM240.482 28.824V26.898H245.342V28.824H240.482ZM250.321 33C250.357 31.98 250.399 30.93 250.447 29.85C250.507 28.77 250.567 27.69 250.627 26.61C250.699 25.53 250.777 24.48 250.861 23.46C250.945 22.428 251.041 21.45 251.149 20.526H252.895C253.087 21.09 253.285 21.708 253.489 22.38C253.705 23.04 253.921 23.724 254.137 24.432C254.365 25.128 254.581 25.8 254.785 26.448C255.001 25.764 255.217 25.074 255.433 24.378C255.649 23.682 255.865 23.01 256.081 22.362C256.297 21.702 256.495 21.09 256.675 20.526H258.439C258.595 21.882 258.721 23.238 258.817 24.594C258.925 25.95 259.009 27.324 259.069 28.716C259.141 30.096 259.201 31.524 259.249 33H257.377C257.365 31.98 257.353 30.906 257.341 29.778C257.341 28.65 257.335 27.498 257.323 26.322C257.311 25.146 257.299 23.994 257.287 22.866L255.577 28.41H253.993L252.301 22.866C252.301 23.994 252.289 25.146 252.265 26.322C252.253 27.498 252.235 28.65 252.211 29.778C252.199 30.906 252.193 31.98 252.193 33H250.321ZM261.797 33C262.061 31.98 262.337 30.936 262.625 29.868C262.913 28.8 263.213 27.732 263.525 26.664C263.849 25.596 264.173 24.546 264.497 23.514C264.833 22.482 265.175 21.486 265.523 20.526H267.863C268.211 21.486 268.547 22.488 268.871 23.532C269.207 24.564 269.525 25.62 269.825 26.7C270.137 27.768 270.431 28.836 270.707 29.904C270.995 30.96 271.265 31.992 271.517 33H269.375L268.709 29.904H264.515L263.849 33H261.797ZM264.947 28.248H268.313C268.145 27.528 267.971 26.826 267.791 26.142C267.611 25.458 267.419 24.804 267.215 24.18C267.023 23.544 266.831 22.938 266.639 22.362C266.447 22.95 266.249 23.562 266.045 24.198C265.853 24.834 265.661 25.488 265.469 26.16C265.289 26.832 265.115 27.528 264.947 28.248ZM275.001 33V31.326H277.539V22.2H275.001V20.526H282.075V22.2H279.537V31.326H282.075V33H275.001ZM287.035 33V20.526H289.033V31.326H294.631V33H287.035Z" fill="black"/>
<path d="M449 17C447.674 17 446.402 17.5268 445.464 18.4645C444.527 19.4021 444 20.6739 444 22V24.88C443.44 25.0916 442.927 25.411 442.49 25.82C441.11 27.19 441 30.13 441 31C441 31.87 441.11 34.81 442.49 36.18C443.71 37.39 446.35 38 449 38C451.65 38 454.29 37.4 455.51 36.19C456.89 34.81 457 31.87 457 31C457 30.13 456.89 27.19 455.51 25.82C455.073 25.411 454.56 25.0916 454 24.88V22C454 20.6739 453.473 19.4021 452.536 18.4645C451.598 17.5268 450.326 17 449 17ZM446 22C446 21.2044 446.316 20.4413 446.879 19.8787C447.441 19.3161 448.204 19 449 19C449.796 19 450.559 19.3161 451.121 19.8787C451.684 20.4413 452 21.2044 452 22V24.28C450.016 23.92 447.984 23.92 446 24.28V22ZM450 31V32C450 32.2652 449.895 32.5196 449.707 32.7071C449.52 32.8946 449.265 33 449 33C448.735 33 448.48 32.8946 448.293 32.7071C448.105 32.5196 448 32.2652 448 32V31C447.735 31 447.48 30.8946 447.293 30.7071C447.105 30.5196 447 30.2652 447 30C447 29.7348 447.105 29.4804 447.293 29.2929C447.48 29.1054 447.735 29 448 29H450C450.265 29 450.52 29.1054 450.707 29.2929C450.895 29.4804 451 29.7348 451 30C451 30.2652 450.895 30.5196 450.707 30.7071C450.52 30.8946 450.265 31 450 31Z" fill="black"/>
<circle cx="1840" cy="27" r="9.5" fill="#61B7F8" stroke="black"/>
<circle cx="1870" cy="27" r="9.5" fill="#61B7F8" stroke="black"/>
<circle cx="1900" cy="27" r="9.5" fill="#61B7F8" stroke="black"/>
<defs>
<filter id="filter0_d_8_1495" x="187.6" y="16.3" width="27" height="21.9" filterUnits="userSpaceOnUse" color-interpolation-filters="sRGB">
<feFlood flood-opacity="0" result="BackgroundImageFix"/>
<feColorMatrix in="SourceAlpha" type="matrix" values="0 0 0 0 0 0 0 0 0 0 0 0 0 0 0 0 0 0 127 0" result="hardAlpha"/>
<feOffset dx="0.5" dy="0.5"/>
<feComposite in2="hardAlpha" operator="out"/>
<feColorMatrix type="matrix" values="0 0 0 0 0 0 0 0 0 0 0 0 0 0 0 0 0 0 1 0"/>
<feBlend mode="normal" in2="BackgroundImageFix" result="effect1_dropShadow_8_1495"/>
<feBlend mode="normal" in="SourceGraphic" in2="effect1_dropShadow_8_1495" result="shape"/>
</filter>
</defs>
</svg>
