<svg width="100" height="100" viewBox="0 0 100 100" fill="none" xmlns="http://www.w3.org/2000/svg">
<g filter="url(#filter0_d_16_572)">
<path d="M51.5 17.5H88C90.4853 17.5 92.5 19.5147 92.5 22V80C92.5 82.4853 90.4853 84.5 88 84.5H51.5V17.5Z" fill="#61B7F8" stroke="black" stroke-width="3"/>
<mask id="path-2-inside-1_16_572" fill="white">
<path fill-rule="evenodd" clip-rule="evenodd" d="M56 15H5V85V86H5.10395C6.27517 91.6065 17.1982 96 30.5 96C43.8018 96 54.7248 91.6065 55.896 86H56V85V15Z"/>
</mask>
<path fill-rule="evenodd" clip-rule="evenodd" d="M56 15H5V85V86H5.10395C6.27517 91.6065 17.1982 96 30.5 96C43.8018 96 54.7248 91.6065 55.896 86H56V85V15Z" fill="#61B7F8"/>
<path d="M5 15V12H2V15H5ZM56 15H59V12H56V15ZM5 86H2V89H5V86ZM5.10395 86L8.04056 85.3865L7.54201 83H5.10395V86ZM55.896 86V83H53.458L52.9594 85.3865L55.896 86ZM56 86V89H59V86H56ZM5 18H56V12H5V18ZM8 85V15H2V85H8ZM8 86V85H2V86H8ZM5.10395 83H5V89H5.10395V83ZM30.5 93C24.147 93 18.4786 91.9464 14.3583 90.3135C12.2963 89.4963 10.7232 88.574 9.65104 87.6526C8.57077 86.7241 8.15568 85.9376 8.04056 85.3865L2.16735 86.6135C2.63784 88.8657 4.02732 90.7307 5.74021 92.2029C7.46124 93.6821 9.66981 94.9094 12.1477 95.8914C17.1072 97.8569 23.5511 99 30.5 99V93ZM52.9594 85.3865C52.8443 85.9376 52.4292 86.7241 51.349 87.6526C50.2768 88.574 48.7037 89.4963 46.6417 90.3135C42.5214 91.9464 36.853 93 30.5 93V99C37.4489 99 43.8928 97.8569 48.8523 95.8914C51.3302 94.9094 53.5388 93.6821 55.2598 92.2029C56.9727 90.7307 58.3622 88.8657 58.8327 86.6135L52.9594 85.3865ZM56 83H55.896V89H56V83ZM53 85V86H59V85H53ZM53 15V85H59V15H53Z" fill="black" mask="url(#path-2-inside-1_16_572)"/>
<path d="M54.5 15C54.5 16.015 54.0295 17.1051 52.925 18.2315C51.814 19.3646 50.1326 20.4538 47.9371 21.4009C43.5511 23.2929 37.3872 24.5 30.5 24.5C23.6128 24.5 17.4489 23.2929 13.0629 21.4009C10.8674 20.4538 9.18598 19.3646 8.07496 18.2315C6.97052 17.1051 6.5 16.015 6.5 15C6.5 13.985 6.97052 12.8949 8.07496 11.7685C9.18598 10.6354 10.8674 9.54623 13.0629 8.59914C17.4489 6.70715 23.6128 5.5 30.5 5.5C37.3872 5.5 43.5511 6.70715 47.9371 8.59914C50.1326 9.54623 51.814 10.6354 52.925 11.7685C54.0295 12.8949 54.5 13.985 54.5 15Z" fill="#F6F6F6" stroke="black" stroke-width="3"/>
<circle cx="31" cy="30" r="5" fill="white" stroke="black" stroke-width="2"/>
<circle cx="31" cy="50" r="5" fill="white" stroke="black" stroke-width="2"/>
<circle cx="31" cy="70" r="5" fill="white" stroke="black" stroke-width="2"/>
<circle cx="31" cy="90" r="5" fill="white" stroke="black" stroke-width="2"/>
<mask id="path-9-inside-2_16_572" fill="white">
<path d="M73 17C73 18.5913 72.3679 20.1174 71.2426 21.2426C70.1174 22.3679 68.5913 23 67 23C65.4087 23 63.8826 22.3679 62.7574 21.2426C61.6321 20.1174 61 18.5913 61 17L67 17H73Z"/>
</mask>
<path d="M73 17C73 18.5913 72.3679 20.1174 71.2426 21.2426C70.1174 22.3679 68.5913 23 67 23C65.4087 23 63.8826 22.3679 62.7574 21.2426C61.6321 20.1174 61 18.5913 61 17L67 17H73Z" fill="white" stroke="black" stroke-width="4" mask="url(#path-9-inside-2_16_572)"/>
<circle cx="67" cy="40" r="5" fill="white" stroke="black" stroke-width="2"/>
<circle cx="67" cy="63" r="5" fill="white" stroke="black" stroke-width="2"/>
<mask id="path-12-inside-3_16_572" fill="white">
<path d="M73 85C73 84.2121 72.8448 83.4319 72.5433 82.7039C72.2417 81.9759 71.7998 81.3145 71.2426 80.7574C70.6855 80.2002 70.0241 79.7583 69.2961 79.4567C68.5681 79.1552 67.7879 79 67 79C66.2121 79 65.4319 79.1552 64.7039 79.4567C63.9759 79.7583 63.3145 80.2002 62.7574 80.7574C62.2002 81.3145 61.7583 81.9759 61.4567 82.7039C61.1552 83.4319 61 84.2121 61 85L67 85H73Z"/>
</mask>
<path d="M73 85C73 84.2121 72.8448 83.4319 72.5433 82.7039C72.2417 81.9759 71.7998 81.3145 71.2426 80.7574C70.6855 80.2002 70.0241 79.7583 69.2961 79.4567C68.5681 79.1552 67.7879 79 67 79C66.2121 79 65.4319 79.1552 64.7039 79.4567C63.9759 79.7583 63.3145 80.2002 62.7574 80.7574C62.2002 81.3145 61.7583 81.9759 61.4567 82.7039C61.1552 83.4319 61 84.2121 61 85L67 85H73Z" fill="white" stroke="black" stroke-width="4" mask="url(#path-12-inside-3_16_572)"/>
<path d="M58 30C58 31.487 57.5964 32.7879 56.9964 33.6879C56.3917 34.5949 55.6662 35 55 35C54.3338 35 53.6083 34.5949 53.0036 33.6879C52.4036 32.7879 52 31.487 52 30C52 28.513 52.4036 27.2121 53.0036 26.3121C53.6083 25.4051 54.3338 25 55 25C55.6662 25 56.3917 25.4051 56.9964 26.3121C57.5964 27.2121 58 28.513 58 30Z" fill="white" stroke="black" stroke-width="2"/>
<path d="M58 50C58 51.487 57.5964 52.7879 56.9964 53.6879C56.3917 54.5949 55.6662 55 55 55C54.3338 55 53.6083 54.5949 53.0036 53.6879C52.4036 52.7879 52 51.487 52 50C52 48.513 52.4036 47.2121 53.0036 46.3121C53.6083 45.4051 54.3338 45 55 45C55.6662 45 56.3917 45.4051 56.9964 46.3121C57.5964 47.2121 58 48.513 58 50Z" fill="white" stroke="black" stroke-width="2"/>
<path d="M58 70C58 71.487 57.5964 72.7879 56.9964 73.6879C56.3917 74.5949 55.6662 75 55 75C54.3338 75 53.6083 74.5949 53.0036 73.6879C52.4036 72.7879 52 71.487 52 70C52 68.513 52.4036 67.2121 53.0036 66.3121C53.6083 65.4051 54.3338 65 55 65C55.6662 65 56.3917 65.4051 56.9964 66.3121C57.5964 67.2121 58 68.513 58 70Z" fill="white" stroke="black" stroke-width="2"/>
<path d="M10 30C10 31.487 9.59639 32.7879 8.99638 33.6879C8.39171 34.5949 7.66619 35 7 35C6.33381 35 5.60829 34.5949 5.00362 33.6879C4.40361 32.7879 4 31.487 4 30C4 28.513 4.40361 27.2121 5.00362 26.3121C5.60829 25.4051 6.33381 25 7 25C7.66619 25 8.39171 25.4051 8.99638 26.3121C9.59639 27.2121 10 28.513 10 30Z" fill="white" stroke="black" stroke-width="2"/>
<path d="M10 50C10 51.487 9.59639 52.7879 8.99638 53.6879C8.39171 54.5949 7.66619 55 7 55C6.33381 55 5.60829 54.5949 5.00362 53.6879C4.40361 52.7879 4 51.487 4 50C4 48.513 4.40361 47.2121 5.00362 46.3121C5.60829 45.4051 6.33381 45 7 45C7.66619 45 8.39171 45.4051 8.99638 46.3121C9.59639 47.2121 10 48.513 10 50Z" fill="white" stroke="black" stroke-width="2"/>
<path d="M10 70C10 71.487 9.59639 72.7879 8.99638 73.6879C8.39171 74.5949 7.66619 75 7 75C6.33381 75 5.60829 74.5949 5.00362 73.6879C4.40361 72.7879 4 71.487 4 70C4 68.513 4.40361 67.2121 5.00362 66.3121C5.60829 65.4051 6.33381 65 7 65C7.66619 65 8.39171 65.4051 8.99638 66.3121C9.59639 67.2121 10 68.513 10 70Z" fill="white" stroke="black" stroke-width="2"/>
<circle cx="44" cy="40" r="5" fill="white" stroke="black" stroke-width="2"/>
<circle cx="44" cy="60" r="5" fill="white" stroke="black" stroke-width="2"/>
<circle cx="44" cy="80" r="5" fill="white" stroke="black" stroke-width="2"/>
<circle cx="82" cy="32" r="5" fill="white" stroke="black" stroke-width="2"/>
<circle cx="82" cy="52" r="5" fill="white" stroke="black" stroke-width="2"/>
<circle cx="82" cy="72" r="5" fill="white" stroke="black" stroke-width="2"/>
<circle cx="18" cy="40" r="5" fill="white" stroke="black" stroke-width="2"/>
<circle cx="18" cy="60" r="5" fill="white" stroke="black" stroke-width="2"/>
<circle cx="18" cy="80" r="5" fill="white" stroke="black" stroke-width="2"/>
</g>
<defs>
<filter id="filter0_d_16_572" x="3" y="4" width="93" height="94" filterUnits="userSpaceOnUse" color-interpolation-filters="sRGB">
<feFlood flood-opacity="0" result="BackgroundImageFix"/>
<feColorMatrix in="SourceAlpha" type="matrix" values="0 0 0 0 0 0 0 0 0 0 0 0 0 0 0 0 0 0 127 0" result="hardAlpha"/>
<feOffset dx="2" dy="2"/>
<feComposite in2="hardAlpha" operator="out"/>
<feColorMatrix type="matrix" values="0 0 0 0 0 0 0 0 0 0 0 0 0 0 0 0 0 0 1 0"/>
<feBlend mode="normal" in2="BackgroundImageFix" result="effect1_dropShadow_16_572"/>
<feBlend mode="normal" in="SourceGraphic" in2="effect1_dropShadow_16_572" result="shape"/>
</filter>
</defs>
</svg>
