<svg width="100" height="100" viewBox="0 0 100 100" fill="none" xmlns="http://www.w3.org/2000/svg">
<g filter="url(#filter0_d_8_1765)">
<path d="M83.5 16H15.5C10.8056 16 7 19.8056 7 24.5V75.5C7 80.1944 10.8056 84 15.5 84H83.5C88.1944 84 92 80.1944 92 75.5V24.5C92 19.8056 88.1944 16 83.5 16Z" fill="#FFE993" stroke="black" stroke-width="3" stroke-linecap="round" stroke-linejoin="round"/>
<path d="M92 28.75L53.8775 52.975C52.5654 53.7971 51.0483 54.233 49.5 54.233C47.9517 54.233 46.4346 53.7971 45.1225 52.975L7 28.75" fill="#FFE993"/>
<path d="M92 28.75L53.8775 52.975C52.5654 53.7971 51.0483 54.233 49.5 54.233C47.9517 54.233 46.4346 53.7971 45.1225 52.975L7 28.75" stroke="black" stroke-width="3" stroke-linecap="round" stroke-linejoin="round"/>
</g>
<defs>
<filter id="filter0_d_8_1765" x="5.49976" y="14.5" width="90.0005" height="73" filterUnits="userSpaceOnUse" color-interpolation-filters="sRGB">
<feFlood flood-opacity="0" result="BackgroundImageFix"/>
<feColorMatrix in="SourceAlpha" type="matrix" values="0 0 0 0 0 0 0 0 0 0 0 0 0 0 0 0 0 0 127 0" result="hardAlpha"/>
<feOffset dx="2" dy="2"/>
<feComposite in2="hardAlpha" operator="out"/>
<feColorMatrix type="matrix" values="0 0 0 0 0 0 0 0 0 0 0 0 0 0 0 0 0 0 1 0"/>
<feBlend mode="normal" in2="BackgroundImageFix" result="effect1_dropShadow_8_1765"/>
<feBlend mode="normal" in="SourceGraphic" in2="effect1_dropShadow_8_1765" result="shape"/>
</filter>
</defs>
</svg>
