<svg width="100" height="100" viewBox="0 0 100 100" fill="none" xmlns="http://www.w3.org/2000/svg">
<g clip-path="url(#clip0_20_1024)">
<path d="M55.4131 25.4855C55.4131 25.4855 60.0135 10.5591 76.1154 -0.249756C76.1154 -0.249756 98.2029 16.546 86.8308 61.0086" fill="#A78FFF"/>
<path d="M55.4131 25.4855C55.4131 25.4855 60.0135 10.5591 76.1154 -0.249756C76.1154 -0.249756 98.2029 16.546 86.8308 61.0086" stroke="black" stroke-width="3" stroke-linecap="round" stroke-linejoin="round"/>
<path d="M45.0017 25.4855C45.0017 25.4855 40.4014 10.5591 24.2995 -0.249756C24.2995 -0.249756 2.21194 16.546 13.5841 61.0086" fill="#A78FFF"/>
<path d="M45.0017 25.4855C45.0017 25.4855 40.4014 10.5591 24.2995 -0.249756C24.2995 -0.249756 2.21194 16.546 13.5841 61.0086" stroke="black" stroke-width="3" stroke-linecap="round" stroke-linejoin="round"/>
<path d="M92.9988 57.1549C92.9988 80.7871 73.8411 81.3167 50.2078 81.3167C26.5744 81.3167 7.41797 80.7871 7.41797 57.1549C7.41797 33.5227 26.5756 14.3639 50.209 14.3639C73.8423 14.3639 92.9988 33.5215 92.9988 57.1549Z" fill="#F6F6F6" stroke="black" stroke-width="3" stroke-linecap="round" stroke-linejoin="round"/>
<g clip-path="url(#clip1_20_1024)">
<path d="M86.9984 56.2477C87.0083 54.5616 86.9009 52.8767 86.6923 51.2176C86.1209 46.6635 85.0818 41.3161 81.3658 38.2181C77.9904 35.4042 73.5068 34.1251 69.1503 34.1805C66.3945 34.2149 63.6078 34.943 61.1593 36.4803C60.2572 37.046 55.3354 40.5474 55.3317 41.7982C55.3404 39.106 54.437 36.4237 52.8696 34.4892C51.48 32.7747 49.44 31.6334 47.4826 32.1082C45.6746 32.5472 44.2405 34.2825 43.426 36.2601C42.6115 38.2365 42.3202 40.4539 42.0388 42.632C39.9322 38.7395 36.2964 36.1495 32.4508 35.5321C28.6053 34.9147 24.6091 36.2073 21.4201 38.8465C14.1104 44.8937 11.9827 54.1103 13.4242 63.2887C14.915 72.7819 22.4531 77.6091 31.4401 79.0603C37.4639 80.0331 43.6309 79.9815 49.7152 79.9815C62.0615 79.9815 79.6997 81.0674 85.083 67.0336C86.3974 63.606 86.9774 59.925 86.9984 56.2477Z" fill="#A78FFF"/>
</g>
<path d="M24.1848 48.6249V56.0066C24.1848 56.9473 25.0117 57.8472 25.9823 57.8041C26.9529 57.7609 27.7798 57.0144 27.7798 56.0066V48.6249C27.7798 47.6842 26.9529 46.7843 25.9823 46.8274C25.0117 46.8706 24.1848 47.6171 24.1848 48.6249Z" fill="black"/>
<path d="M72.636 48.6249C72.636 51.0851 72.636 53.5464 72.636 56.0066C72.636 56.9473 73.4628 57.8472 74.4335 57.8041C75.4041 57.7609 76.231 57.0144 76.231 56.0066C76.231 53.5464 76.231 51.0851 76.231 48.6249C76.231 47.6842 75.4041 46.7843 74.4335 46.8274C73.4628 46.8706 72.636 47.6171 72.636 48.6249Z" fill="black"/>
<path d="M46.4738 58.4933C48.6727 58.4981 50.8716 58.5029 53.0706 58.5077C54.0113 58.5101 54.9112 57.6796 54.8681 56.7102C54.8249 55.7348 54.0784 54.9151 53.0706 54.9127C50.8716 54.9079 48.6727 54.9031 46.4738 54.8983C45.5331 54.8959 44.6332 55.7264 44.6763 56.6958C44.7194 57.6712 45.466 58.4909 46.4738 58.4933Z" fill="black"/>
<path d="M39.0032 66.3158C41.1134 70.5675 48.7671 70.6778 50.9493 66.4429H47.8456C50.4783 71.4567 60.6078 71.489 61.2657 65.0372C61.3639 64.0702 60.3693 63.2397 59.4682 63.2397C58.4137 63.2397 57.7702 64.0678 57.6707 65.0372C57.5329 66.3877 55.0775 66.5004 54.1177 66.4369C52.8151 66.3506 51.5712 65.8137 50.9493 64.6286C50.3381 63.4638 48.452 63.4495 47.8456 64.6286C46.857 66.5471 43.0463 66.3937 42.108 64.5016C41.0799 62.4285 37.9762 64.2475 39.0032 66.3158Z" fill="black"/>
<circle cx="20.5" cy="80.5" r="18" fill="#FF72C6" stroke="black" stroke-width="3"/>
<path fill-rule="evenodd" clip-rule="evenodd" d="M20.0828 68.1918C20.3468 69.0366 19.8759 69.9356 19.0311 70.1996C12.7899 72.15 10.5794 76.642 10.2411 78.3335C10.0675 79.2014 9.22311 79.7643 8.35513 79.5907C7.48715 79.4172 6.92424 78.5728 7.09784 77.7048C7.64996 74.9442 10.6394 69.4636 18.075 67.14C18.9198 66.876 19.8188 67.3469 20.0828 68.1918Z" fill="white"/>
</g>
<defs>
<clipPath id="clip0_20_1024">
<rect width="100" height="100" fill="white"/>
</clipPath>
<clipPath id="clip1_20_1024">
<rect width="74" height="48" fill="white" transform="translate(13 32)"/>
</clipPath>
</defs>
</svg>
