<svg width="100" height="100" viewBox="0 0 100 100" fill="none" xmlns="http://www.w3.org/2000/svg">
<g filter="url(#filter0_d_2_230)">
<path d="M14.0576 16.6392C14.0576 15.8107 14.7292 15.1392 15.5576 15.1392H84.9999C85.8284 15.1392 86.4999 15.8107 86.4999 16.6392V26.6823H14.0576V16.6392Z" fill="#C4CEE4" stroke="black" stroke-width="3"/>
<path d="M21.1325 92.3168L17.7723 26.7911H82.7852L79.4249 92.3168C79.3568 93.646 78.2592 94.6887 76.9282 94.6887H23.6293C22.2983 94.6887 21.2007 93.646 21.1325 92.3168Z" fill="#C4CEE4" stroke="black" stroke-width="3"/>
<path d="M63.4582 14.0145V10.0161C63.4582 6.7024 60.7719 4.01611 57.4582 4.01611H44.0078C40.6941 4.01611 38.0078 6.7024 38.0078 10.0161V14.0145" stroke="black" stroke-width="2"/>
<rect x="48.916" y="38.0164" width="2.72683" height="43.6293" rx="1.36342" fill="black"/>
<rect x="65.2764" y="38.0164" width="2.72683" height="43.6293" rx="1.36342" fill="black"/>
<rect x="32.5544" y="38.0164" width="2.72683" height="43.6293" rx="1.36342" fill="black"/>
</g>
<defs>
<filter id="filter0_d_2_230" x="12.5576" y="3.01611" width="77.4424" height="95.1726" filterUnits="userSpaceOnUse" color-interpolation-filters="sRGB">
<feFlood flood-opacity="0" result="BackgroundImageFix"/>
<feColorMatrix in="SourceAlpha" type="matrix" values="0 0 0 0 0 0 0 0 0 0 0 0 0 0 0 0 0 0 127 0" result="hardAlpha"/>
<feOffset dx="2" dy="2"/>
<feComposite in2="hardAlpha" operator="out"/>
<feColorMatrix type="matrix" values="0 0 0 0 0 0 0 0 0 0 0 0 0 0 0 0 0 0 1 0"/>
<feBlend mode="normal" in2="BackgroundImageFix" result="effect1_dropShadow_2_230"/>
<feBlend mode="normal" in="SourceGraphic" in2="effect1_dropShadow_2_230" result="shape"/>
</filter>
</defs>
</svg>
