<svg width="100" height="100" viewBox="0 0 100 100" fill="none" xmlns="http://www.w3.org/2000/svg">
<g clip-path="url(#clip0_37_15121)">
<path d="M50.4994 7.70227C63.6434 7.70227 74.2986 18.2796 74.2986 31.3276C74.2986 44.3757 63.6434 47.0782 50.4994 47.0782C37.3554 47.0782 26.7002 44.3757 26.7002 31.3276C26.7002 18.2796 37.3559 7.70227 50.4994 7.70227Z" fill="#FF72C6" stroke="black" stroke-width="3"/>
<path d="M66.1642 20.2413C71.3134 20.2413 75.4876 16.0976 75.4876 10.986C75.4876 5.87445 71.3134 1.73071 66.1642 1.73071C61.015 1.73071 56.8408 5.87445 56.8408 10.986C56.8408 16.0976 61.015 20.2413 66.1642 20.2413Z" fill="#65FBE2" stroke="black" stroke-width="3"/>
<path d="M60.7841 11.1462C60.709 11.1462 60.632 11.1394 60.5554 11.1253C59.8895 11.0015 59.4513 10.3605 59.5755 9.69898C59.8032 8.49043 61.9682 5.19895 65.1332 4.31045C65.7858 4.12631 66.463 4.50383 66.6475 5.15073C66.832 5.79811 66.4532 6.47083 65.801 6.65399C63.6601 7.25509 62.1154 9.63955 61.9853 10.1574C61.8749 10.7419 61.3616 11.1462 60.7841 11.1462Z" fill="white"/>
<path d="M68.4869 34.0706C69.5978 29.9783 67.7881 25.9359 64.445 25.0416C61.1018 24.1473 57.4911 26.7398 56.3803 30.8321C55.2694 34.9245 57.0791 38.9669 60.4222 39.8612C63.7654 40.7555 67.3761 38.163 68.4869 34.0706Z" fill="black"/>
<path d="M40.5771 39.8612C43.9202 38.967 45.7299 34.9245 44.619 30.8322C43.5082 26.7399 39.8975 24.1474 36.5543 25.0416C33.2111 25.9359 31.4015 29.9784 32.5123 34.0707C33.6232 38.163 37.2339 40.7555 40.5771 39.8612Z" fill="black"/>
<path d="M46.0373 44.6621V49.3955C46.0373 51.8418 44.0391 53.8253 41.5748 53.8253C39.1105 53.8253 37.1123 51.8418 37.1123 49.3955V44.6621" fill="#FF72C6"/>
<path d="M46.0373 44.6621V49.3955C46.0373 51.8418 44.0391 53.8253 41.5748 53.8253C39.1105 53.8253 37.1123 51.8418 37.1123 49.3955V44.6621" stroke="black" stroke-width="3" stroke-linecap="round" stroke-linejoin="round"/>
<path d="M54.9623 44.6621V49.3955C54.9623 51.8418 52.9641 53.8253 50.4998 53.8253C48.0355 53.8253 46.0374 51.8418 46.0374 49.3955V44.6621" fill="#FF72C6"/>
<path d="M54.9623 44.6621V49.3955C54.9623 51.8418 52.9641 53.8253 50.4998 53.8253C48.0355 53.8253 46.0374 51.8418 46.0374 49.3955V44.6621" stroke="black" stroke-width="3" stroke-linecap="round" stroke-linejoin="round"/>
<path d="M63.8869 44.6621V49.3955C63.8869 51.8418 61.8887 53.8253 59.4244 53.8253C56.9601 53.8253 54.9619 51.8418 54.9619 49.3955V44.6621" fill="#FF72C6"/>
<path d="M63.8869 44.6621V49.3955C63.8869 51.8418 61.8887 53.8253 59.4244 53.8253C56.9601 53.8253 54.9619 51.8418 54.9619 49.3955V44.6621" stroke="black" stroke-width="3" stroke-linecap="round" stroke-linejoin="round"/>
<path d="M48.9748 39.031C49.3282 39.031 49.6515 38.9199 49.9371 38.7007C50.2104 38.4908 50.393 38.2233 50.5 38.0285C50.6074 38.2228 50.7895 38.4903 51.0628 38.7007C51.3479 38.9199 51.6718 39.031 52.0251 39.031C53.0104 39.031 53.7533 38.2311 53.7533 37.1697C53.7533 36.0235 52.8264 35.2392 51.423 34.0521C51.1845 33.8504 50.9146 33.622 50.6339 33.3784C50.5971 33.3463 50.5495 33.3287 50.5 33.3287C50.4504 33.3287 50.4033 33.3463 50.366 33.3784C50.0853 33.622 49.8149 33.8509 49.5765 34.0526C48.173 35.2397 47.2461 36.024 47.2461 37.1702C47.2461 38.2311 47.989 39.0315 48.9744 39.0315L48.9748 39.031Z" fill="black"/>
<path d="M38.5243 49.5289C38.6524 50.0706 38.9591 50.5845 39.3629 50.9684C39.7668 51.3522 40.2864 51.6484 40.8395 51.7531C41.0367 51.7906 41.2286 51.7829 41.4067 51.6796C41.5593 51.5909 41.7051 51.417 41.7448 51.2431C41.7875 51.0561 41.7787 50.8461 41.6707 50.68C41.5716 50.5275 41.4175 50.3795 41.231 50.3444C41.0784 50.3156 40.9302 50.2708 40.7869 50.2119L40.9626 50.2854C40.7801 50.2075 40.6093 50.1081 40.4513 49.9888L40.6005 50.1033C40.4366 49.9766 40.2904 49.8314 40.1628 49.6683L40.2781 49.8163C40.1579 49.6595 40.0583 49.49 39.9807 49.3083L40.0548 49.4827C40.0092 49.3716 39.9719 49.2581 39.9444 49.1412C39.8561 48.769 39.4076 48.5123 39.0391 48.6307C38.648 48.7564 38.4306 49.1305 38.5248 49.5294L38.5243 49.5289Z" fill="white"/>
<path d="M47.9894 49.5289C48.1175 50.0706 48.4242 50.5845 48.828 50.9684C49.2319 51.3522 49.7515 51.6484 50.3045 51.7531C50.5018 51.7906 50.6937 51.7829 50.8718 51.6796C51.0244 51.5909 51.1701 51.417 51.2099 51.2431C51.2526 51.0561 51.2437 50.8461 51.1358 50.68C51.0367 50.5275 50.8826 50.3795 50.6961 50.3444C50.5435 50.3156 50.3953 50.2708 50.252 50.2119L50.4277 50.2854C50.2452 50.2075 50.0744 50.1081 49.9164 49.9888L50.0656 50.1033C49.9017 49.9766 49.7554 49.8314 49.6279 49.6683L49.7432 49.8163C49.623 49.6595 49.5233 49.49 49.4458 49.3083L49.5199 49.4827C49.4743 49.3716 49.437 49.2581 49.4095 49.1412C49.3212 48.769 48.8727 48.5123 48.5041 48.6307C48.1131 48.7564 47.8957 49.1305 47.9899 49.5294L47.9894 49.5289Z" fill="white"/>
<path d="M34.8512 21.7002C34.6029 21.7002 34.3511 21.6373 34.121 21.5063C33.4173 21.1054 33.172 20.2169 33.5738 19.5169C33.7505 19.2095 38.0039 11.9733 47.0579 10.9947C47.8661 10.9085 48.5929 11.4872 48.6812 12.2895C48.7695 13.0913 48.1851 13.8127 47.3774 13.9004C39.8529 14.7134 36.1658 20.9062 36.1294 20.9685C35.8566 21.4376 35.361 21.7007 34.8516 21.7007L34.8512 21.7002Z" fill="white"/>
<path d="M83.0812 89.2123C85.0116 88.9414 86.7664 87.7314 87.629 85.8375C88.9691 82.8958 87.6536 79.4328 84.6902 78.1025C81.7268 76.7722 78.2384 78.0782 76.8983 81.0199C76.7447 81.3565 76.6382 81.7014 76.5533 82.0477L27.6492 60.1794C27.8548 59.8871 28.0452 59.5802 28.1987 59.2436C29.5389 56.3019 28.2233 52.839 25.2599 51.5086C22.2965 50.1783 18.8081 51.4843 17.468 54.426C16.6048 56.3199 16.8482 58.4272 17.9185 60.0449C15.988 60.3158 14.2333 61.5258 13.3706 63.4202C12.0305 66.3619 13.3461 69.8249 16.3094 71.1552C19.2728 72.4855 22.7612 71.1795 24.1014 68.2378C24.2549 67.9012 24.3614 67.5563 24.4463 67.21L73.351 89.0783C73.1449 89.3706 72.955 89.6775 72.8014 90.0141C71.4613 92.9558 72.7769 96.4188 75.7402 97.7491C78.7036 99.0794 82.192 97.7734 83.5321 94.8317C84.3953 92.9378 84.1519 90.8305 83.0817 89.2128L83.0812 89.2123Z" fill="#FF72C6" stroke="black" stroke-width="3"/>
<path d="M20.6635 56.0573C20.6801 55.9385 20.7057 55.8216 20.7415 55.7071C20.7523 55.673 20.7641 55.6389 20.7763 55.6058C20.7871 55.577 20.8308 55.4718 20.7793 55.5936C20.7263 55.7193 20.7763 55.6043 20.7866 55.5829C20.7999 55.5561 20.8131 55.5293 20.8274 55.503C20.8843 55.3973 20.9505 55.2984 21.0202 55.2005C21.0712 55.1294 20.9054 55.3403 20.9829 55.2492C21.0065 55.2219 21.0295 55.1942 21.0541 55.1674C21.0943 55.1225 21.1365 55.0797 21.1802 55.0378C21.2238 54.9959 21.269 54.956 21.3151 54.9175C21.3382 54.8985 21.429 54.8278 21.3259 54.9072C21.2229 54.9866 21.3146 54.9175 21.3392 54.8999C21.4378 54.8308 21.5418 54.7684 21.6493 54.7139C21.6817 54.6973 21.7146 54.6827 21.7469 54.6671C21.8372 54.6242 21.6841 54.6978 21.6709 54.6983C21.7258 54.6963 21.8039 54.6486 21.8578 54.632C21.9786 54.5945 22.1017 54.5682 22.2264 54.5497L22.0306 54.576C22.1989 54.5541 22.3662 54.5507 22.5355 54.5663C22.7131 54.5828 22.9344 54.4732 23.0561 54.3524C23.1837 54.2258 23.2799 54.0178 23.2716 53.8356C23.2524 53.4093 22.9472 53.1429 22.5355 53.1049C21.0271 52.9661 19.4558 54.1722 19.2439 55.6686C19.2149 55.8717 19.209 56.0471 19.3179 56.2317C19.4073 56.3832 19.5824 56.5279 19.7576 56.5673C19.9461 56.6097 20.1575 56.601 20.3249 56.4938C20.4741 56.3983 20.6375 56.24 20.6635 56.0573Z" fill="white"/>
<path d="M17.7353 88.8007C15.8083 88.5055 14.0692 87.2736 13.2306 85.3689C11.9283 82.4107 13.288 78.9648 16.2681 77.6714C19.2481 76.3786 22.7194 77.7284 24.0222 80.6867C24.1714 81.0253 24.2735 81.3711 24.3539 81.7185L73.5339 60.4678C73.3317 60.1731 73.1453 59.8638 72.9961 59.5252C71.6937 56.5669 73.0535 53.121 76.0335 51.8277C79.0136 50.5349 82.4848 51.8847 83.7877 54.843C84.6263 56.7476 84.3564 58.8515 83.2656 60.4561C85.1926 60.7513 86.9316 61.9832 87.7702 63.8884C89.0726 66.8466 87.7128 70.2925 84.7328 71.5858C81.7527 72.8787 78.2815 71.5289 76.9786 68.5706C76.8295 68.232 76.7274 67.8862 76.6469 67.5388L27.467 88.7895C27.6691 89.0842 27.8556 89.3935 28.0048 89.7321C29.3071 92.6904 27.9474 96.1363 24.9673 97.4296C21.9873 98.7224 18.516 97.3726 17.2132 94.4143C16.3746 92.5097 16.6445 90.4053 17.7353 88.8007Z" fill="#A78FFF" stroke="black" stroke-width="3"/>
<path d="M16.0466 83.0522C16.0863 82.8058 16.155 82.5671 16.2507 82.3362L16.1766 82.5106C16.2512 82.3357 16.3385 82.1676 16.4416 82.0074C16.4671 81.9674 16.4936 81.928 16.5211 81.889C16.5545 81.8417 16.6707 81.7102 16.5127 81.8944C16.5751 81.8223 16.6335 81.7477 16.6987 81.6786C16.764 81.6094 16.8317 81.5427 16.9029 81.4793C16.9382 81.4477 16.9745 81.4165 17.0113 81.3868C17.1575 81.2674 16.9009 81.4637 17.0034 81.3921C17.1605 81.2825 17.3204 81.1832 17.4932 81.0994C17.8401 80.9308 17.9618 80.4145 17.7572 80.0998C17.528 79.7471 17.1212 79.6575 16.7502 79.8377C15.6609 80.3667 14.8208 81.4735 14.6275 82.664C14.5951 82.8642 14.5946 83.0454 14.7015 83.2271C14.7909 83.3786 14.966 83.5233 15.1412 83.5627C15.3296 83.6051 15.5411 83.5964 15.7085 83.4892C15.8596 83.3927 16.0171 83.2364 16.0466 83.0527V83.0522Z" fill="white"/>
<path d="M77.838 53.6452C77.207 53.6418 76.6147 53.9009 76.149 54.314C75.9454 54.4947 75.7663 54.7212 75.6367 54.9599C75.467 55.2726 75.3855 55.5825 75.3477 55.9327C75.3291 56.1071 75.4434 56.3302 75.5631 56.4495C75.6907 56.5762 75.9002 56.6717 76.0838 56.6634C76.2742 56.6551 76.4714 56.5927 76.6044 56.4495L76.7197 56.3014C76.7865 56.1875 76.8198 56.0647 76.8203 55.9327C76.8218 55.9161 76.8238 55.9001 76.8262 55.884L76.7997 56.0783C76.8193 55.9405 76.8561 55.807 76.9086 55.6779L76.8345 55.8523C76.8959 55.7086 76.9749 55.5756 77.0696 55.4514L76.9543 55.5995C77.0514 55.4763 77.1619 55.3662 77.285 55.2687L77.1358 55.3832C77.2669 55.2829 77.4087 55.1996 77.5608 55.1353L77.3851 55.2088C77.5225 55.1528 77.6643 55.1143 77.8115 55.0939L77.6158 55.1202C77.6894 55.1109 77.7635 55.1065 77.8376 55.107C78.0255 55.108 78.2252 55.0247 78.3582 54.8932C78.4858 54.7665 78.582 54.5585 78.5736 54.3763C78.5555 53.9789 78.2502 53.6476 77.8376 53.6457L77.838 53.6452Z" fill="white"/>
</g>
<defs>
<clipPath id="clip0_37_15121">
<rect width="77" height="98" fill="white" transform="translate(12 1)"/>
</clipPath>
</defs>
</svg>
