<svg width="100" height="100" viewBox="0 0 100 100" fill="none" xmlns="http://www.w3.org/2000/svg">
<g filter="url(#filter0_d_17_820)">
<path d="M77.5561 46.5846C80.0243 42.5028 81.4148 37.6977 81.3323 32.5615C81.1041 18.4865 69.4821 6.89402 55.406 6.70149C40.7137 6.50081 28.7402 18.35 28.7402 32.9965C28.7402 41.2254 32.5215 48.569 38.44 53.3914C38.3718 53.5014 26.4849 59.6827 13.2951 49.9483C13.2951 49.9483 4.83093 67.3655 14.0815 81.8307C18.6523 88.9767 26.5368 93.2989 35.002 93.8388C40.2573 94.174 48.4353 94.3196 61.0087 93.8276C75.6573 93.8276 87.5309 81.9529 87.5309 67.3054C87.5309 58.9187 83.6335 51.4447 77.5561 46.5846Z" fill="#FFE993" stroke="black" stroke-width="3" stroke-linecap="round" stroke-linejoin="round"/>
<path d="M86.944 19.767C87.597 19.5073 88.3019 19.3912 88.9396 19.6489C90.8119 20.4058 90.9607 23.1664 90.3841 24.7657C89.7902 26.4169 88.5525 27.7422 87.3474 29.0176C88.7338 29.1704 90.3505 29.6115 90.814 30.9256C92.3084 35.1592 84.3719 35.9212 81.9087 35.967C78.7997 36.0241 75.3087 35.0146 74.6975 31.5001C74.2707 29.0502 75.9098 26.7643 77.5335 25.0947C79.9437 22.6173 83.3288 21.7158 86.2646 20.09C86.4805 19.9698 86.7087 19.8587 86.943 19.765L86.944 19.767Z" fill="#FFB16C" stroke="black" stroke-width="3" stroke-linecap="round" stroke-linejoin="round"/>
<path d="M66.494 20.3498C66.8893 20.9142 67.2224 21.5182 67.4913 22.1529L67.3375 21.7882C67.4608 22.0836 67.5698 22.3851 67.6635 22.6907C67.7786 23.0656 68.0241 23.4038 68.3653 23.6035C68.6934 23.795 69.1752 23.8765 69.5429 23.7573C69.9127 23.6381 70.2692 23.4089 70.4557 23.0554C70.6441 22.6979 70.7317 22.2751 70.6095 21.8778C70.2754 20.7929 69.7844 19.7386 69.1324 18.8075C68.9002 18.4755 68.621 18.2157 68.2197 18.1057C67.854 18.0048 67.367 18.0507 67.0421 18.2595C66.7161 18.4693 66.4288 18.7831 66.3402 19.1722C66.2536 19.5542 66.2608 20.0157 66.494 20.3498Z" fill="black"/>
<path d="M70.0611 62.1663C73.0203 70.4593 68.6971 79.5826 60.403 82.5418C52.109 85.5011 31.4808 87.1065 22.8965 71.0206C20.0992 65.7775 32.3864 65.0125 35.3182 63.8706C41.5555 61.44 45.7922 55.548 52.2363 53.5575C59.5046 51.3124 67.4838 54.9429 70.0611 62.1663Z" fill="#FFB16C" stroke="black" stroke-width="3" stroke-linecap="round" stroke-linejoin="round"/>
</g>
<defs>
<filter id="filter0_d_17_820" x="8.2561" y="5.19897" width="86.2434" height="92.4464" filterUnits="userSpaceOnUse" color-interpolation-filters="sRGB">
<feFlood flood-opacity="0" result="BackgroundImageFix"/>
<feColorMatrix in="SourceAlpha" type="matrix" values="0 0 0 0 0 0 0 0 0 0 0 0 0 0 0 0 0 0 127 0" result="hardAlpha"/>
<feOffset dx="2" dy="2"/>
<feComposite in2="hardAlpha" operator="out"/>
<feColorMatrix type="matrix" values="0 0 0 0 0 0 0 0 0 0 0 0 0 0 0 0 0 0 1 0"/>
<feBlend mode="normal" in2="BackgroundImageFix" result="effect1_dropShadow_17_820"/>
<feBlend mode="normal" in="SourceGraphic" in2="effect1_dropShadow_17_820" result="shape"/>
</filter>
</defs>
</svg>
