<svg width="865" height="690" viewBox="0 0 865 690" fill="none" xmlns="http://www.w3.org/2000/svg">
<g filter="url(#filter0_d_37_15426)">
<g clip-path="url(#clip0_37_15426)">
<mask id="path-3-inside-1_37_15426" fill="white">
<path d="M0 0H859V54H0V0Z"/>
</mask>
<path d="M0 0H859V54H0V0Z" fill="black"/>
<path d="M859 52H0V56H859V52Z" fill="#FF72C6" mask="url(#path-3-inside-1_37_15426)"/>
<g clip-path="url(#clip1_37_15426)">
<path d="M35.4985 14.915C39.0832 14.915 41.9892 17.9371 41.9892 21.6651C41.9892 25.3932 39.0832 26.1653 35.4985 26.1653C31.9138 26.1653 29.0078 25.3932 29.0078 21.6651C29.0078 17.9371 31.9139 14.915 35.4985 14.915Z" fill="#FF72C6" stroke="black"/>
<path d="M39.7713 18.4977C41.1756 18.4977 42.314 17.3138 42.314 15.8534C42.314 14.3929 41.1756 13.209 39.7713 13.209C38.3669 13.209 37.2285 14.3929 37.2285 15.8534C37.2285 17.3138 38.3669 18.4977 39.7713 18.4977Z" fill="#65FBE2" stroke="black"/>
<path d="M38.3041 15.899C38.2836 15.899 38.2626 15.8971 38.2417 15.893C38.0601 15.8577 37.9406 15.6745 37.9745 15.4855C38.0366 15.1402 38.627 14.1998 39.4902 13.9459C39.6682 13.8933 39.8529 14.0012 39.9032 14.186C39.9535 14.371 39.8502 14.5632 39.6724 14.6155C39.0885 14.7873 38.6672 15.4685 38.6317 15.6165C38.6016 15.7835 38.4616 15.899 38.3041 15.899Z" fill="white"/>
<path d="M40.4051 22.4488C40.708 21.2796 40.2145 20.1246 39.3027 19.8691C38.3909 19.6136 37.4062 20.3543 37.1032 21.5235C36.8003 22.6928 37.2938 23.8478 38.2056 24.1033C39.1174 24.3588 40.1021 23.6181 40.4051 22.4488Z" fill="black"/>
<path d="M32.7929 24.1031C33.7047 23.8476 34.1983 22.6926 33.8953 21.5233C33.5923 20.3541 32.6076 19.6134 31.6958 19.8689C30.7841 20.1244 30.2905 21.2794 30.5935 22.4486C30.8964 23.6179 31.8812 24.3586 32.7929 24.1031Z" fill="black"/>
<path d="M34.2837 25.4749V26.8272C34.2837 27.5262 33.7387 28.0929 33.0666 28.0929C32.3946 28.0929 31.8496 27.5262 31.8496 26.8272V25" fill="#FF72C6"/>
<path d="M34.2837 25.4749V26.8272C34.2837 27.5262 33.7387 28.0929 33.0666 28.0929C32.3946 28.0929 31.8496 27.5262 31.8496 26.8272V25" stroke="black" stroke-linecap="round" stroke-linejoin="round"/>
<path d="M36.7192 25.4746V26.827C36.7192 27.5259 36.1743 28.0927 35.5022 28.0927C34.8301 28.0927 34.2852 27.5259 34.2852 26.827V25.4746" fill="#FF72C6"/>
<path d="M36.7192 25.4746V26.827C36.7192 27.5259 36.1743 28.0927 35.5022 28.0927C34.8301 28.0927 34.2852 27.5259 34.2852 26.827V25.4746" stroke="black" stroke-linecap="round" stroke-linejoin="round"/>
<path d="M39.1509 25V26.8272C39.1509 27.5262 38.6059 28.0929 37.9338 28.0929C37.2617 28.0929 36.7168 27.5262 36.7168 26.8272V25.4749" fill="#FF72C6"/>
<path d="M39.1509 25V26.8272C39.1509 27.5262 38.6059 28.0929 37.9338 28.0929C37.2617 28.0929 36.7168 27.5262 36.7168 26.8272V25.4749" stroke="black" stroke-linecap="round" stroke-linejoin="round"/>
<path d="M35.0848 23.866C35.1811 23.866 35.2693 23.8343 35.3472 23.7717C35.4217 23.7117 35.4715 23.6353 35.5007 23.5796C35.53 23.6351 35.5797 23.7115 35.6542 23.7717C35.732 23.8343 35.8203 23.866 35.9166 23.866C36.1854 23.866 36.388 23.6375 36.388 23.3342C36.388 23.0067 36.1352 22.7827 35.7524 22.4435C35.6874 22.3859 35.6138 22.3206 35.5372 22.251C35.5272 22.2418 35.5142 22.2368 35.5007 22.2368C35.4872 22.2368 35.4743 22.2418 35.4642 22.251C35.3876 22.3206 35.3139 22.386 35.2488 22.4436C34.8661 22.7828 34.6133 23.0069 34.6133 23.3344C34.6133 23.6375 34.8159 23.8662 35.0846 23.8662L35.0848 23.866Z" fill="black"/>
<path d="M32.2343 26.8656C32.2693 27.0203 32.3529 27.1672 32.4631 27.2768C32.5732 27.3865 32.7149 27.4711 32.8657 27.501C32.9195 27.5118 32.9719 27.5095 33.0205 27.48C33.0621 27.4547 33.1018 27.405 33.1127 27.3553C33.1243 27.3019 33.1219 27.2419 33.0925 27.1944C33.0654 27.1509 33.0234 27.1086 32.9725 27.0985C32.9309 27.0903 32.8905 27.0775 32.8514 27.0607L32.8993 27.0817C32.8496 27.0594 32.803 27.031 32.7599 26.9969L32.8006 27.0296C32.7559 26.9935 32.716 26.952 32.6812 26.9054L32.7126 26.9477C32.6799 26.9029 32.6527 26.8544 32.6315 26.8025L32.6518 26.8523C32.6393 26.8206 32.6291 26.7882 32.6216 26.7548C32.5976 26.6484 32.4752 26.5751 32.3747 26.6089C32.2681 26.6448 32.2088 26.7517 32.2345 26.8657L32.2343 26.8656Z" fill="white"/>
<path d="M34.8144 26.8656C34.8494 27.0203 34.933 27.1672 35.0431 27.2768C35.1533 27.3865 35.295 27.4711 35.4458 27.501C35.4996 27.5118 35.552 27.5095 35.6005 27.48C35.6422 27.4547 35.6819 27.405 35.6927 27.3553C35.7044 27.3019 35.702 27.2419 35.6725 27.1944C35.6455 27.1509 35.6035 27.1086 35.5526 27.0985C35.511 27.0903 35.4706 27.0775 35.4315 27.0607L35.4794 27.0817C35.4296 27.0594 35.3831 27.031 35.34 26.9969L35.3807 27.0296C35.336 26.9935 35.2961 26.952 35.2613 26.9054L35.2927 26.9477C35.2599 26.9029 35.2328 26.8544 35.2116 26.8025L35.2318 26.8523C35.2194 26.8206 35.2092 26.7882 35.2017 26.7548C35.1776 26.6484 35.0553 26.5751 34.9548 26.6089C34.8481 26.6448 34.7889 26.7517 34.8146 26.8657L34.8144 26.8656Z" fill="white"/>
<path d="M31.2331 18.9142C31.1654 18.9142 31.0967 18.8962 31.034 18.8588C30.842 18.7442 30.7751 18.4904 30.8847 18.2904C30.9329 18.2025 32.0929 16.1351 34.5622 15.8555C34.7826 15.8308 34.9808 15.9962 35.0049 16.2254C35.029 16.4545 34.8696 16.6606 34.6493 16.6857C32.5972 16.9179 31.5916 18.6873 31.5817 18.7051C31.5073 18.8391 31.3721 18.9143 31.2332 18.9143L31.2331 18.9142Z" fill="white"/>
<path d="M44.3855 38.2035C44.912 38.1261 45.3906 37.7804 45.6259 37.2393C45.9913 36.3988 45.6325 35.4094 44.8244 35.0293C44.0162 34.6492 43.0648 35.0223 42.6993 35.8628C42.6574 35.959 42.6284 36.0575 42.6052 36.1565L29.2677 29.9084C29.3238 29.8249 29.3757 29.7372 29.4176 29.641C29.7831 28.8005 29.4243 27.8111 28.6161 27.431C27.8079 27.0509 26.8565 27.4241 26.491 28.2646C26.2556 28.8057 26.322 29.4078 26.6139 29.87C26.0874 29.9474 25.6088 30.2931 25.3736 30.8343C25.0081 31.6748 25.3669 32.6642 26.1751 33.0443C26.9833 33.4244 27.9346 33.0513 28.3001 32.2108C28.342 32.1146 28.3711 32.0161 28.3942 31.9171L41.7318 38.1652C41.6756 38.2487 41.6238 38.3364 41.582 38.4326C41.2165 39.2731 41.5753 40.2625 42.3835 40.6426C43.1916 41.0227 44.143 40.6496 44.5085 39.8091C44.7439 39.2679 44.6775 38.6659 44.3857 38.2036L44.3855 38.2035Z" fill="#FF72C6" stroke="black"/>
<path d="M27.3628 28.7305C27.3673 28.6965 27.3743 28.6631 27.3841 28.6304C27.387 28.6206 27.3902 28.6109 27.3936 28.6014C27.3965 28.5932 27.4084 28.5632 27.3944 28.598C27.3799 28.6339 27.3936 28.601 27.3964 28.5949C27.4 28.5872 27.4036 28.5796 27.4075 28.5721C27.423 28.5419 27.4411 28.5136 27.4601 28.4856C27.474 28.4653 27.4288 28.5256 27.4499 28.4996C27.4563 28.4918 27.4626 28.4838 27.4693 28.4762C27.4803 28.4634 27.4918 28.4511 27.5037 28.4392C27.5156 28.4272 27.5279 28.4158 27.5405 28.4048C27.5468 28.3994 27.5716 28.3792 27.5435 28.4019C27.5153 28.4245 27.5404 28.4048 27.5471 28.3998C27.574 28.38 27.6023 28.3622 27.6316 28.3466C27.6405 28.3419 27.6494 28.3377 27.6583 28.3332C27.6829 28.321 27.6411 28.342 27.6375 28.3422C27.6525 28.3416 27.6738 28.328 27.6885 28.3232C27.7214 28.3125 27.755 28.305 27.789 28.2997L27.7356 28.3072C27.7815 28.301 27.8272 28.3 27.8733 28.3044C27.9218 28.3092 27.9821 28.2779 28.0153 28.2433C28.0501 28.2072 28.0764 28.1477 28.0741 28.0957C28.0689 27.9739 27.9856 27.8978 27.8733 27.8869C27.462 27.8472 27.0334 28.1918 26.9756 28.6194C26.9677 28.6774 26.9661 28.7275 26.9958 28.7803C27.0202 28.8236 27.068 28.8649 27.1157 28.8762C27.1671 28.8883 27.2248 28.8858 27.2704 28.8552C27.3111 28.8279 27.3557 28.7826 27.3628 28.7305Z" fill="white"/>
<path d="M26.5645 38.0857C26.039 38.0014 25.5647 37.6494 25.336 37.1052C24.9808 36.26 25.3516 35.2755 26.1644 34.906C26.9771 34.5366 27.9238 34.9222 28.2791 35.7675C28.3198 35.8642 28.3477 35.963 28.3696 36.0622L41.7823 29.9906C41.7272 29.9064 41.6763 29.818 41.6357 29.7213C41.2805 28.8761 41.6513 27.8915 42.4641 27.522C43.2768 27.1527 44.2235 27.5383 44.5788 28.3835C44.8075 28.9277 44.7339 29.5288 44.4364 29.9873C44.962 30.0716 45.4363 30.4236 45.665 30.9679C46.0201 31.8132 45.6493 32.7977 44.8366 33.1672C44.0238 33.5366 43.0771 33.1509 42.7218 32.3057C42.6811 32.209 42.6533 32.1102 42.6313 32.0109L29.2186 38.0825C29.2738 38.1667 29.3246 38.2551 29.3653 38.3518C29.7205 39.1971 29.3496 40.1816 28.5369 40.5511C27.7242 40.9205 26.7775 40.5348 26.4221 39.6896C26.1934 39.1454 26.267 38.5442 26.5645 38.0857Z" fill="#A78FFF" stroke="black"/>
<path d="M26.1032 36.4433C26.114 36.3729 26.1327 36.3047 26.1588 36.2387L26.1386 36.2886C26.159 36.2386 26.1828 36.1906 26.2109 36.1448C26.2179 36.1334 26.2251 36.1221 26.2326 36.111C26.2417 36.0975 26.2734 36.0599 26.2303 36.1125C26.2473 36.0919 26.2632 36.0706 26.281 36.0508C26.2988 36.0311 26.3173 36.012 26.3367 35.9939C26.3463 35.9849 26.3562 35.976 26.3663 35.9675C26.4062 35.9334 26.3362 35.9895 26.3641 35.969C26.407 35.9377 26.4506 35.9093 26.4977 35.8854C26.5923 35.8372 26.6255 35.6897 26.5697 35.5998C26.5072 35.499 26.3963 35.4734 26.2951 35.5249C25.998 35.676 25.7689 35.9922 25.7161 36.3324C25.7073 36.3896 25.7072 36.4414 25.7363 36.4933C25.7607 36.5366 25.8085 36.5779 25.8563 36.5892C25.9076 36.6013 25.9653 36.5988 26.011 36.5682C26.0522 36.5406 26.0951 36.4959 26.1032 36.4435V36.4433Z" fill="white"/>
<path d="M42.9571 28.0415C42.785 28.0405 42.6234 28.1146 42.4964 28.2326C42.4409 28.2842 42.392 28.349 42.3567 28.4172C42.3104 28.5065 42.2882 28.595 42.2779 28.6951C42.2728 28.7449 42.304 28.8087 42.3366 28.8428C42.3714 28.8789 42.4286 28.9062 42.4786 28.9039C42.5306 28.9015 42.5844 28.8837 42.6206 28.8428L42.6521 28.8004C42.6703 28.7679 42.6794 28.7328 42.6795 28.6951C42.6799 28.6904 42.6804 28.6858 42.6811 28.6812L42.6739 28.7367C42.6792 28.6973 42.6893 28.6592 42.7036 28.6223L42.6834 28.6721C42.7001 28.6311 42.7217 28.5931 42.7475 28.5576L42.716 28.5999C42.7425 28.5647 42.7727 28.5332 42.8062 28.5054L42.7656 28.5381C42.8013 28.5094 42.84 28.4856 42.8815 28.4673L42.8335 28.4883C42.871 28.4723 42.9097 28.4613 42.9498 28.4554L42.8964 28.4629C42.9165 28.4603 42.9367 28.459 42.9569 28.4592C43.0082 28.4595 43.0627 28.4357 43.0989 28.3981C43.1337 28.3619 43.16 28.3025 43.1577 28.2504C43.1527 28.1368 43.0695 28.0422 42.9569 28.0417L42.9571 28.0415Z" fill="white"/>
</g>
<path d="M65.236 34.154C64.8693 34.154 64.4513 34.1393 63.982 34.11C63.5273 34.0807 63.0653 34.0367 62.596 33.978C62.1413 33.9193 61.716 33.846 61.32 33.758V18.952C61.6867 18.8787 62.09 18.82 62.53 18.776C62.97 18.7173 63.4173 18.6733 63.872 18.644C64.3267 18.6 64.7447 18.578 65.126 18.578C66.0353 18.578 66.8347 18.6733 67.524 18.864C68.2133 19.04 68.7853 19.2967 69.24 19.634C69.6947 19.9713 70.032 20.3893 70.252 20.888C70.472 21.372 70.582 21.9367 70.582 22.582C70.582 23.0513 70.4867 23.506 70.296 23.946C70.12 24.3713 69.8707 24.7527 69.548 25.09C69.2253 25.4127 68.866 25.662 68.47 25.838C69.086 26.0433 69.5993 26.322 70.01 26.674C70.4353 27.026 70.7507 27.4367 70.956 27.906C71.176 28.3753 71.286 28.9033 71.286 29.49C71.286 30.5753 71.0513 31.4627 70.582 32.152C70.1127 32.8413 69.4307 33.3473 68.536 33.67C67.6413 33.9927 66.5413 34.154 65.236 34.154ZM65.434 32.064C66.0207 32.064 66.5707 31.998 67.084 31.866C67.612 31.7193 68.0447 31.4627 68.382 31.096C68.7193 30.7147 68.888 30.1793 68.888 29.49C68.888 28.874 68.7413 28.3973 68.448 28.06C68.1547 27.708 67.766 27.4513 67.282 27.29C66.798 27.1287 66.2553 27.048 65.654 27.048H63.762V31.976C63.8647 31.9907 64.07 32.0127 64.378 32.042C64.686 32.0567 65.038 32.064 65.434 32.064ZM63.762 25.024H65.192C65.7347 25.024 66.226 24.9507 66.666 24.804C67.1207 24.6573 67.4873 24.4227 67.766 24.1C68.0447 23.7773 68.184 23.352 68.184 22.824C68.184 22.2667 68.052 21.834 67.788 21.526C67.524 21.218 67.1793 21.0053 66.754 20.888C66.3433 20.756 65.8887 20.69 65.39 20.69C65.0527 20.69 64.7373 20.6973 64.444 20.712C64.1653 20.7267 63.938 20.7487 63.762 20.778V25.024ZM76.6005 28.896V26.542H82.5405V28.896H76.6005ZM87.5251 34C87.5691 32.7533 87.6204 31.47 87.6791 30.15C87.7524 28.83 87.8258 27.51 87.8991 26.19C87.9871 24.87 88.0824 23.5867 88.1851 22.34C88.2878 21.0787 88.4051 19.8833 88.5371 18.754H90.6711C90.9058 19.4433 91.1478 20.1987 91.3971 21.02C91.6611 21.8267 91.9251 22.6627 92.1891 23.528C92.4678 24.3787 92.7318 25.2 92.9811 25.992C93.2451 25.156 93.5091 24.3127 93.7731 23.462C94.0371 22.6113 94.3011 21.79 94.5651 20.998C94.8291 20.1913 95.0711 19.4433 95.2911 18.754H97.4471C97.6378 20.4113 97.7918 22.0687 97.9091 23.726C98.0411 25.3833 98.1438 27.0627 98.2171 28.764C98.3051 30.4507 98.3784 32.196 98.4371 34H96.1491C96.1344 32.7533 96.1198 31.4407 96.1051 30.062C96.1051 28.6833 96.0978 27.2753 96.0831 25.838C96.0684 24.4007 96.0538 22.9927 96.0391 21.614L93.9491 28.39H92.0131L89.9451 21.614C89.9451 22.9927 89.9304 24.4007 89.9011 25.838C89.8864 27.2753 89.8644 28.6833 89.8351 30.062C89.8204 31.4407 89.8131 32.7533 89.8131 34H87.5251ZM106.414 34.264C105.754 34.264 105.123 34.2053 104.522 34.088C103.935 33.9707 103.414 33.7727 102.96 33.494C102.52 33.2153 102.168 32.834 101.904 32.35C101.654 31.866 101.53 31.2647 101.53 30.546C101.53 29.6513 101.757 28.9473 102.212 28.434C102.681 27.906 103.282 27.532 104.016 27.312C104.764 27.0773 105.541 26.96 106.348 26.96C106.773 26.96 107.169 26.982 107.536 27.026C107.917 27.07 108.269 27.1287 108.592 27.202V26.718C108.592 26.2927 108.511 25.8967 108.35 25.53C108.203 25.1633 107.939 24.8627 107.558 24.628C107.191 24.3933 106.67 24.276 105.996 24.276C105.35 24.276 104.764 24.3273 104.236 24.43C103.708 24.518 103.29 24.6207 102.982 24.738L102.674 22.736C102.982 22.604 103.466 22.4867 104.126 22.384C104.8 22.2813 105.512 22.23 106.26 22.23C107.448 22.23 108.379 22.4207 109.054 22.802C109.743 23.1687 110.234 23.6893 110.528 24.364C110.821 25.0387 110.968 25.8233 110.968 26.718V33.78C110.498 33.868 109.853 33.9707 109.032 34.088C108.225 34.2053 107.352 34.264 106.414 34.264ZM106.48 32.24C106.905 32.24 107.301 32.2327 107.668 32.218C108.049 32.1887 108.357 32.152 108.592 32.108V29.028C108.372 28.9693 108.093 28.918 107.756 28.874C107.418 28.83 107.081 28.808 106.744 28.808C106.289 28.808 105.842 28.8593 105.402 28.962C104.976 29.05 104.632 29.2187 104.368 29.468C104.104 29.7027 103.972 30.04 103.972 30.48C103.972 31.14 104.199 31.602 104.654 31.866C105.108 32.1153 105.717 32.24 106.48 32.24ZM121.958 34.264C120.961 34.264 120.176 34.0807 119.604 33.714C119.032 33.3327 118.629 32.79 118.394 32.086C118.174 31.3673 118.064 30.48 118.064 29.424V24.54H114.786V22.516H120.484V29.6C120.484 30.2307 120.55 30.7293 120.682 31.096C120.814 31.4627 121.012 31.7267 121.276 31.888C121.54 32.0347 121.878 32.108 122.288 32.108C122.67 32.108 123.058 32.064 123.454 31.976C123.85 31.8733 124.224 31.734 124.576 31.558L124.906 33.582C124.657 33.6993 124.371 33.8093 124.048 33.912C123.74 34.0147 123.403 34.0953 123.036 34.154C122.684 34.2273 122.325 34.264 121.958 34.264ZM118.812 20.668C118.358 20.668 117.954 20.5067 117.602 20.184C117.265 19.8613 117.096 19.436 117.096 18.908C117.096 18.3507 117.265 17.918 117.602 17.61C117.954 17.302 118.358 17.148 118.812 17.148C119.296 17.148 119.7 17.302 120.022 17.61C120.36 17.918 120.528 18.3507 120.528 18.908C120.528 19.436 120.36 19.8613 120.022 20.184C119.7 20.5067 119.296 20.668 118.812 20.668ZM135.281 34.264C134.342 34.264 133.594 34.088 133.037 33.736C132.479 33.3693 132.076 32.834 131.827 32.13C131.592 31.426 131.475 30.5533 131.475 29.512V19.106H128.197V17.038H133.895V29.622C133.895 30.2673 133.961 30.7733 134.093 31.14C134.239 31.5067 134.445 31.7633 134.709 31.91C134.973 32.042 135.288 32.108 135.655 32.108C136.197 32.108 136.674 32.042 137.085 31.91C137.495 31.7633 137.796 31.646 137.987 31.558L138.317 33.582C138.155 33.67 137.803 33.8093 137.261 34C136.733 34.176 136.073 34.264 135.281 34.264Z" fill="white"/>
<mask id="path-26-inside-2_37_15426" fill="white">
<path d="M0 54H859V684H0V54Z"/>
</mask>
<path d="M0 54H859V684H0V54Z" fill="black"/>
<path d="M0 55H859V53H0V55Z" fill="white" mask="url(#path-26-inside-2_37_15426)"/>
<g clip-path="url(#clip2_37_15426)">
<path d="M429.5 112.603C465.86 112.603 495.334 141.96 495.334 178.175C495.334 214.39 465.86 221.891 429.5 221.891C393.141 221.891 363.666 214.39 363.666 178.175C363.666 141.96 393.142 112.603 429.5 112.603Z" fill="#FF72C6" stroke="black" stroke-width="3"/>
<path d="M472.832 147.404C487.076 147.404 498.622 135.903 498.622 121.716C498.622 107.529 487.076 96.0278 472.832 96.0278C458.588 96.0278 447.041 107.529 447.041 121.716C447.041 135.903 458.588 147.404 472.832 147.404Z" fill="#65FBE2" stroke="black" stroke-width="3"/>
<path d="M457.948 122.161C457.741 122.161 457.528 122.142 457.316 122.103C455.474 121.759 454.262 119.98 454.605 118.144C455.235 114.79 461.224 105.654 469.979 103.188C471.784 102.677 473.658 103.725 474.168 105.52C474.678 107.317 473.63 109.184 471.826 109.693C465.904 111.361 461.631 117.979 461.271 119.416C460.966 121.039 459.546 122.161 457.948 122.161Z" fill="white"/>
<path d="M479.259 185.788C482.332 174.429 477.326 163.21 468.078 160.728C458.83 158.245 448.842 165.441 445.769 176.799C442.696 188.158 447.702 199.377 456.95 201.859C466.198 204.342 476.186 197.146 479.259 185.788Z" fill="black"/>
<path d="M402.052 201.86C411.3 199.378 416.306 188.158 413.233 176.8C410.161 165.441 400.173 158.246 390.925 160.728C381.677 163.21 376.671 174.43 379.744 185.788C382.816 197.146 392.805 204.342 402.052 201.86Z" fill="black"/>
<path d="M417.155 215.185V228.322C417.155 235.112 411.628 240.617 404.811 240.617C397.994 240.617 392.467 235.112 392.467 228.322V215.185" fill="#FF72C6"/>
<path d="M417.155 215.185V228.322C417.155 235.112 411.628 240.617 404.811 240.617C397.994 240.617 392.467 235.112 392.467 228.322V215.185" stroke="black" stroke-width="3" stroke-linecap="round" stroke-linejoin="round"/>
<path d="M441.845 215.185V228.322C441.845 235.112 436.317 240.617 429.5 240.617C422.684 240.617 417.156 235.112 417.156 228.322V215.185" fill="#FF72C6"/>
<path d="M441.845 215.185V228.322C441.845 235.112 436.317 240.617 429.5 240.617C422.684 240.617 417.156 235.112 417.156 228.322V215.185" stroke="black" stroke-width="3" stroke-linecap="round" stroke-linejoin="round"/>
<path d="M466.532 215.185V228.322C466.532 235.112 461.005 240.617 454.188 240.617C447.371 240.617 441.844 235.112 441.844 228.322V215.185" fill="#FF72C6"/>
<path d="M466.532 215.185V228.322C466.532 235.112 461.005 240.617 454.188 240.617C447.371 240.617 441.844 235.112 441.844 228.322V215.185" stroke="black" stroke-width="3" stroke-linecap="round" stroke-linejoin="round"/>
<path d="M425.282 199.555C426.259 199.555 427.154 199.247 427.944 198.638C428.7 198.056 429.205 197.314 429.501 196.773C429.798 197.312 430.302 198.054 431.058 198.638C431.847 199.247 432.742 199.555 433.72 199.555C436.445 199.555 438.501 197.335 438.501 194.389C438.501 191.208 435.936 189.031 432.054 185.736C431.395 185.177 430.648 184.542 429.872 183.866C429.77 183.777 429.638 183.729 429.501 183.729C429.364 183.729 429.234 183.777 429.13 183.866C428.354 184.542 427.606 185.178 426.946 185.738C423.064 189.032 420.5 191.209 420.5 194.39C420.5 197.335 422.555 199.556 425.281 199.556L425.282 199.555Z" fill="black"/>
<path d="M396.374 228.693C396.728 230.196 397.576 231.622 398.693 232.688C399.811 233.753 401.248 234.575 402.778 234.866C403.324 234.97 403.854 234.948 404.347 234.662C404.769 234.416 405.172 233.933 405.282 233.45C405.4 232.931 405.376 232.348 405.077 231.887C404.803 231.464 404.377 231.053 403.861 230.956C403.439 230.876 403.029 230.752 402.633 230.588L403.119 230.792C402.614 230.576 402.141 230.3 401.704 229.969L402.117 230.287C401.663 229.935 401.259 229.532 400.906 229.079L401.225 229.49C400.892 229.055 400.617 228.584 400.402 228.08L400.607 228.564C400.481 228.256 400.378 227.941 400.302 227.616C400.058 226.583 398.817 225.871 397.798 226.2C396.716 226.548 396.114 227.587 396.375 228.694L396.374 228.693Z" fill="white"/>
<path d="M422.555 228.693C422.91 230.196 423.758 231.622 424.875 232.688C425.992 233.753 427.43 234.575 428.959 234.866C429.505 234.97 430.036 234.948 430.529 234.662C430.951 234.416 431.354 233.933 431.464 233.45C431.582 232.931 431.558 232.348 431.259 231.887C430.985 231.464 430.558 231.053 430.043 230.956C429.621 230.876 429.211 230.752 428.814 230.588L429.3 230.792C428.795 230.576 428.323 230.3 427.886 229.969L428.298 230.287C427.845 229.935 427.441 229.532 427.088 229.079L427.407 229.49C427.074 229.055 426.798 228.584 426.584 228.08L426.789 228.564C426.663 228.256 426.56 227.941 426.484 227.616C426.239 226.583 424.999 225.871 423.979 226.2C422.897 226.548 422.296 227.587 422.557 228.694L422.555 228.693Z" fill="white"/>
<path d="M386.212 151.454C385.526 151.454 384.829 151.279 384.193 150.915C382.246 149.803 381.567 147.337 382.679 145.394C383.168 144.541 394.934 124.457 419.979 121.74C422.215 121.501 424.225 123.107 424.469 125.334C424.714 127.559 423.097 129.562 420.863 129.805C400.048 132.062 389.849 149.25 389.748 149.423C388.994 150.725 387.623 151.455 386.214 151.455L386.212 151.454Z" fill="white"/>
<path d="M519.627 338.834C524.967 338.082 529.821 334.724 532.207 329.467C535.914 321.303 532.275 311.691 524.078 307.999C515.88 304.307 506.231 307.931 502.524 316.096C502.099 317.03 501.804 317.988 501.569 318.949L366.289 258.253C366.858 257.442 367.384 256.59 367.809 255.656C371.516 247.491 367.877 237.88 359.68 234.187C351.482 230.495 341.833 234.12 338.126 242.284C335.738 247.541 336.411 253.39 339.372 257.88C334.032 258.632 329.178 261.99 326.791 267.248C323.084 275.413 326.723 285.024 334.921 288.717C343.118 292.409 352.768 288.784 356.475 280.619C356.9 279.685 357.194 278.728 357.429 277.767L492.711 338.462C492.141 339.274 491.615 340.125 491.191 341.06C487.484 349.224 491.123 358.836 499.32 362.528C507.517 366.22 517.167 362.596 520.874 354.431C523.262 349.174 522.589 343.326 519.628 338.836L519.627 338.834Z" fill="#FF72C6" stroke="black" stroke-width="3"/>
<path d="M346.967 246.812C347.013 246.482 347.084 246.158 347.183 245.84C347.213 245.745 347.245 245.651 347.279 245.559C347.309 245.479 347.43 245.187 347.287 245.525C347.141 245.874 347.279 245.555 347.308 245.495C347.344 245.421 347.381 245.347 347.42 245.274C347.578 244.98 347.761 244.706 347.954 244.434C348.095 244.237 347.636 244.822 347.851 244.569C347.916 244.493 347.98 244.416 348.048 244.342C348.159 244.218 348.276 244.099 348.396 243.982C348.517 243.866 348.642 243.755 348.77 243.648C348.833 243.596 349.085 243.4 348.8 243.62C348.515 243.84 348.768 243.648 348.836 243.6C349.109 243.408 349.397 243.235 349.694 243.083C349.784 243.037 349.875 242.997 349.964 242.954C350.214 242.835 349.79 243.039 349.754 243.04C349.906 243.035 350.122 242.902 350.271 242.856C350.605 242.752 350.946 242.679 351.29 242.628L350.749 242.701C351.214 242.64 351.677 242.63 352.146 242.674C352.637 242.72 353.249 242.415 353.586 242.08C353.939 241.729 354.205 241.151 354.182 240.646C354.129 239.463 353.284 238.723 352.146 238.618C347.973 238.232 343.626 241.58 343.04 245.733C342.96 246.297 342.944 246.784 343.245 247.296C343.492 247.717 343.977 248.118 344.461 248.228C344.983 248.345 345.568 248.321 346.03 248.024C346.443 247.759 346.895 247.319 346.967 246.812Z" fill="white"/>
<path d="M338.863 337.692C333.533 336.872 328.722 333.453 326.403 328.167C322.8 319.956 326.561 310.392 334.805 306.802C343.048 303.214 352.651 306.961 356.255 315.171C356.667 316.111 356.95 317.071 357.172 318.035L493.215 259.053C492.656 258.235 492.14 257.377 491.728 256.437C488.125 248.227 491.887 238.662 500.13 235.073C508.374 231.485 517.976 235.231 521.58 243.442C523.9 248.728 523.153 254.567 520.135 259.021C525.466 259.84 530.277 263.26 532.596 268.547C536.199 276.758 532.438 286.322 524.194 289.912C515.951 293.5 506.348 289.754 502.744 281.543C502.332 280.603 502.049 279.643 501.827 278.679L365.784 337.661C366.343 338.479 366.859 339.337 367.271 340.277C370.874 348.488 367.112 358.052 358.869 361.641C350.625 365.229 341.023 361.483 337.419 353.272C335.099 347.986 335.846 342.145 338.863 337.692Z" fill="#A78FFF" stroke="black" stroke-width="3"/>
<path d="M334.191 321.737C334.301 321.053 334.491 320.39 334.756 319.749L334.551 320.233C334.757 319.748 334.999 319.281 335.284 318.837C335.355 318.726 335.428 318.616 335.504 318.508C335.596 318.377 335.918 318.012 335.481 318.523C335.653 318.323 335.815 318.116 335.995 317.924C336.176 317.732 336.363 317.547 336.56 317.371C336.658 317.283 336.758 317.197 336.86 317.114C337.264 316.783 336.554 317.328 336.838 317.129C337.273 316.825 337.715 316.549 338.193 316.316C339.153 315.849 339.489 314.416 338.923 313.542C338.289 312.563 337.164 312.315 336.138 312.815C333.124 314.283 330.8 317.355 330.266 320.659C330.176 321.215 330.175 321.718 330.471 322.222C330.718 322.643 331.202 323.044 331.687 323.154C332.208 323.271 332.793 323.247 333.256 322.949C333.674 322.682 334.11 322.248 334.191 321.738V321.737Z" fill="white"/>
<path d="M505.121 240.117C503.375 240.108 501.737 240.827 500.449 241.974C499.885 242.475 499.39 243.104 499.032 243.766C498.562 244.634 498.337 245.494 498.232 246.466C498.181 246.95 498.497 247.57 498.828 247.901C499.181 248.252 499.761 248.517 500.268 248.494C500.795 248.471 501.341 248.298 501.708 247.901L502.027 247.49C502.212 247.173 502.304 246.833 502.306 246.466C502.31 246.42 502.315 246.376 502.322 246.331L502.249 246.871C502.303 246.488 502.405 246.118 502.55 245.759L502.345 246.243C502.515 245.844 502.733 245.475 502.995 245.131L502.676 245.542C502.945 245.199 503.25 244.894 503.591 244.624L503.179 244.941C503.541 244.663 503.933 244.432 504.354 244.253L503.868 244.457C504.248 244.302 504.64 244.195 505.048 244.138L504.506 244.211C504.71 244.185 504.915 244.173 505.12 244.175C505.639 244.177 506.192 243.946 506.56 243.581C506.913 243.23 507.179 242.652 507.156 242.147C507.105 241.043 506.261 240.124 505.12 240.119L505.121 240.117Z" fill="white"/>
</g>
<path d="M252.882 429.76C251.642 429.76 250.482 429.52 249.402 429.04C248.362 428.56 247.362 428.02 246.402 427.42C245.402 426.82 244.422 426.26 243.462 425.74C242.542 425.18 241.562 424.9 240.522 424.9C239.882 424.9 239.302 425.08 238.782 425.44C238.302 425.8 237.882 426.32 237.522 427C237.202 427.68 236.902 428.48 236.622 429.4L231.882 428.14C232.082 427.22 232.362 426.24 232.722 425.2C233.122 424.12 233.662 423.1 234.342 422.14C235.022 421.18 235.882 420.4 236.922 419.8C237.962 419.16 239.202 418.84 240.642 418.84C241.842 418.84 242.962 419.08 244.002 419.56C245.042 420.04 246.042 420.56 247.002 421.12C248.042 421.76 249.042 422.36 250.002 422.92C250.962 423.44 251.942 423.7 252.942 423.7C253.662 423.7 254.262 423.52 254.742 423.16C255.222 422.8 255.622 422.28 255.942 421.6C256.302 420.92 256.602 420.1 256.842 419.14L261.642 420.52C261.442 421.4 261.162 422.38 260.802 423.46C260.442 424.54 259.902 425.56 259.182 426.52C258.502 427.44 257.642 428.22 256.602 428.86C255.562 429.46 254.322 429.76 252.882 429.76ZM283.276 442.72C281.716 442.72 280.416 442.22 279.376 441.22C278.336 440.18 277.816 438.88 277.816 437.32C277.816 435.72 278.336 434.4 279.376 433.36C280.416 432.32 281.716 431.8 283.276 431.8C284.796 431.8 286.076 432.32 287.116 433.36C288.156 434.4 288.676 435.72 288.676 437.32C288.676 438.88 288.156 440.18 287.116 441.22C286.076 442.22 284.796 442.72 283.276 442.72ZM283.276 421.54C281.716 421.54 280.416 421.04 279.376 420.04C278.336 419 277.816 417.7 277.816 416.14C277.816 414.54 278.336 413.22 279.376 412.18C280.416 411.14 281.716 410.62 283.276 410.62C284.796 410.62 286.076 411.14 287.116 412.18C288.156 413.22 288.676 414.54 288.676 416.14C288.676 417.7 288.156 419 287.116 420.04C286.076 421.04 284.796 421.54 283.276 421.54ZM319.67 442.9C317.31 442.9 315.27 442.6 313.55 442C311.83 441.36 310.41 440.52 309.29 439.48C308.21 438.4 307.39 437.18 306.83 435.82C306.31 434.46 306.05 433.04 306.05 431.56C306.05 430.04 306.31 428.62 306.83 427.3C307.39 425.98 308.15 424.76 309.11 423.64C310.07 422.52 311.19 421.54 312.47 420.7C310.51 419.5 309.11 418.1 308.27 416.5C307.43 414.9 307.01 413.12 307.01 411.16C307.01 409.68 307.27 408.26 307.79 406.9C308.31 405.5 309.09 404.24 310.13 403.12C311.21 402 312.55 401.1 314.15 400.42C315.79 399.74 317.69 399.4 319.85 399.4C322.01 399.4 323.87 399.72 325.43 400.36C327.03 400.96 328.35 401.78 329.39 402.82C330.43 403.86 331.21 405.02 331.73 406.3C332.25 407.58 332.51 408.9 332.51 410.26C332.51 411.7 332.25 413.08 331.73 414.4C331.25 415.68 330.57 416.86 329.69 417.94C328.81 418.98 327.79 419.88 326.63 420.64C329.07 421.88 330.83 423.38 331.91 425.14C332.99 426.9 333.53 428.94 333.53 431.26C333.53 432.78 333.27 434.26 332.75 435.7C332.23 437.1 331.41 438.34 330.29 439.42C329.17 440.5 327.73 441.36 325.97 442C324.21 442.6 322.11 442.9 319.67 442.9ZM319.73 437.32C321.37 437.32 322.75 437.04 323.87 436.48C324.99 435.92 325.81 435.18 326.33 434.26C326.89 433.34 327.17 432.38 327.17 431.38C327.17 430.26 326.95 429.28 326.51 428.44C326.11 427.56 325.49 426.8 324.65 426.16C323.81 425.52 322.77 424.94 321.53 424.42C320.33 423.9 318.93 423.4 317.33 422.92C315.77 423.92 314.55 425.12 313.67 426.52C312.83 427.92 312.41 429.48 312.41 431.2C312.41 432.2 312.67 433.18 313.19 434.14C313.75 435.1 314.57 435.88 315.65 436.48C316.73 437.04 318.09 437.32 319.73 437.32ZM321.35 418.54C322.91 417.54 324.09 416.4 324.89 415.12C325.73 413.8 326.15 412.28 326.15 410.56C326.15 409.64 325.91 408.76 325.43 407.92C324.95 407.08 324.23 406.38 323.27 405.82C322.35 405.26 321.19 404.98 319.79 404.98C318.43 404.98 317.27 405.26 316.31 405.82C315.35 406.34 314.61 407.04 314.09 407.92C313.61 408.76 313.37 409.68 313.37 410.68C313.37 411.8 313.63 412.86 314.15 413.86C314.71 414.82 315.57 415.7 316.73 416.5C317.89 417.3 319.43 417.98 321.35 418.54ZM356.304 442.9C352.904 442.9 350.204 442.28 348.204 441.04C346.204 439.76 344.764 437.96 343.884 435.64C343.004 433.28 342.564 430.52 342.564 427.36V400.42H349.224V426.76C349.224 429.4 349.484 431.48 350.004 433C350.524 434.48 351.304 435.54 352.344 436.18C353.424 436.82 354.764 437.14 356.364 437.14C358.004 437.14 359.344 436.82 360.384 436.18C361.464 435.54 362.264 434.48 362.784 433C363.304 431.48 363.564 429.4 363.564 426.76V400.42H370.164V427.36C370.164 430.52 369.724 433.28 368.844 435.64C367.964 437.96 366.524 439.76 364.524 441.04C362.524 442.28 359.784 442.9 356.304 442.9ZM392.819 442.9C390.459 442.9 388.419 442.6 386.699 442C384.979 441.36 383.559 440.52 382.439 439.48C381.359 438.4 380.539 437.18 379.979 435.82C379.459 434.46 379.199 433.04 379.199 431.56C379.199 430.04 379.459 428.62 379.979 427.3C380.539 425.98 381.299 424.76 382.259 423.64C383.219 422.52 384.339 421.54 385.619 420.7C383.659 419.5 382.259 418.1 381.419 416.5C380.579 414.9 380.159 413.12 380.159 411.16C380.159 409.68 380.419 408.26 380.939 406.9C381.459 405.5 382.239 404.24 383.279 403.12C384.359 402 385.699 401.1 387.299 400.42C388.939 399.74 390.839 399.4 392.999 399.4C395.159 399.4 397.019 399.72 398.579 400.36C400.179 400.96 401.499 401.78 402.539 402.82C403.579 403.86 404.359 405.02 404.879 406.3C405.399 407.58 405.659 408.9 405.659 410.26C405.659 411.7 405.399 413.08 404.879 414.4C404.399 415.68 403.719 416.86 402.839 417.94C401.959 418.98 400.939 419.88 399.779 420.64C402.219 421.88 403.979 423.38 405.059 425.14C406.139 426.9 406.679 428.94 406.679 431.26C406.679 432.78 406.419 434.26 405.899 435.7C405.379 437.1 404.559 438.34 403.439 439.42C402.319 440.5 400.879 441.36 399.119 442C397.359 442.6 395.259 442.9 392.819 442.9ZM392.879 437.32C394.519 437.32 395.899 437.04 397.019 436.48C398.139 435.92 398.959 435.18 399.479 434.26C400.039 433.34 400.319 432.38 400.319 431.38C400.319 430.26 400.099 429.28 399.659 428.44C399.259 427.56 398.639 426.8 397.799 426.16C396.959 425.52 395.919 424.94 394.679 424.42C393.479 423.9 392.079 423.4 390.479 422.92C388.919 423.92 387.699 425.12 386.819 426.52C385.979 427.92 385.559 429.48 385.559 431.2C385.559 432.2 385.819 433.18 386.339 434.14C386.899 435.1 387.719 435.88 388.799 436.48C389.879 437.04 391.239 437.32 392.879 437.32ZM394.499 418.54C396.059 417.54 397.239 416.4 398.039 415.12C398.879 413.8 399.299 412.28 399.299 410.56C399.299 409.64 399.059 408.76 398.579 407.92C398.099 407.08 397.379 406.38 396.419 405.82C395.499 405.26 394.339 404.98 392.939 404.98C391.579 404.98 390.419 405.26 389.459 405.82C388.499 406.34 387.759 407.04 387.239 407.92C386.759 408.76 386.519 409.68 386.519 410.68C386.519 411.8 386.779 412.86 387.299 413.86C387.859 414.82 388.719 415.7 389.879 416.5C391.039 417.3 392.579 417.98 394.499 418.54ZM429.393 442.9C427.033 442.9 424.993 442.6 423.273 442C421.553 441.36 420.133 440.52 419.013 439.48C417.933 438.4 417.113 437.18 416.553 435.82C416.033 434.46 415.773 433.04 415.773 431.56C415.773 430.04 416.033 428.62 416.553 427.3C417.113 425.98 417.873 424.76 418.833 423.64C419.793 422.52 420.913 421.54 422.193 420.7C420.233 419.5 418.833 418.1 417.993 416.5C417.153 414.9 416.733 413.12 416.733 411.16C416.733 409.68 416.993 408.26 417.513 406.9C418.033 405.5 418.813 404.24 419.853 403.12C420.933 402 422.273 401.1 423.873 400.42C425.513 399.74 427.413 399.4 429.573 399.4C431.733 399.4 433.593 399.72 435.153 400.36C436.753 400.96 438.073 401.78 439.113 402.82C440.153 403.86 440.933 405.02 441.453 406.3C441.973 407.58 442.233 408.9 442.233 410.26C442.233 411.7 441.973 413.08 441.453 414.4C440.973 415.68 440.293 416.86 439.413 417.94C438.533 418.98 437.513 419.88 436.353 420.64C438.793 421.88 440.553 423.38 441.633 425.14C442.713 426.9 443.253 428.94 443.253 431.26C443.253 432.78 442.993 434.26 442.473 435.7C441.953 437.1 441.133 438.34 440.013 439.42C438.893 440.5 437.453 441.36 435.693 442C433.933 442.6 431.833 442.9 429.393 442.9ZM429.453 437.32C431.093 437.32 432.473 437.04 433.593 436.48C434.713 435.92 435.533 435.18 436.053 434.26C436.613 433.34 436.893 432.38 436.893 431.38C436.893 430.26 436.673 429.28 436.233 428.44C435.833 427.56 435.213 426.8 434.373 426.16C433.533 425.52 432.493 424.94 431.253 424.42C430.053 423.9 428.653 423.4 427.053 422.92C425.493 423.92 424.273 425.12 423.393 426.52C422.553 427.92 422.133 429.48 422.133 431.2C422.133 432.2 422.393 433.18 422.913 434.14C423.473 435.1 424.293 435.88 425.373 436.48C426.453 437.04 427.813 437.32 429.453 437.32ZM431.073 418.54C432.633 417.54 433.813 416.4 434.613 415.12C435.453 413.8 435.873 412.28 435.873 410.56C435.873 409.64 435.633 408.76 435.153 407.92C434.673 407.08 433.953 406.38 432.993 405.82C432.073 405.26 430.913 404.98 429.513 404.98C428.153 404.98 426.993 405.26 426.033 405.82C425.073 406.34 424.333 407.04 423.813 407.92C423.333 408.76 423.093 409.68 423.093 410.68C423.093 411.8 423.353 412.86 423.873 413.86C424.433 414.82 425.293 415.7 426.453 416.5C427.613 417.3 429.153 417.98 431.073 418.54ZM454.867 442V400.42H461.527V436.42H480.187V442H454.867ZM500.201 442.9C498.841 442.9 497.401 442.76 495.881 442.48C494.401 442.24 493.061 441.94 491.861 441.58C490.701 441.22 489.861 440.92 489.341 440.68L490.601 434.98C491.481 435.34 492.721 435.78 494.321 436.3C495.921 436.82 497.841 437.08 500.081 437.08C502.281 437.08 504.021 436.78 505.301 436.18C506.621 435.58 507.561 434.74 508.121 433.66C508.721 432.54 509.021 431.28 509.021 429.88C509.021 428.08 508.541 426.66 507.581 425.62C506.661 424.58 505.401 423.84 503.801 423.4C502.241 422.92 500.521 422.68 498.641 422.68H496.721V417.22H499.181C500.461 417.22 501.721 417.04 502.961 416.68C504.201 416.32 505.221 415.7 506.021 414.82C506.861 413.9 507.281 412.62 507.281 410.98C507.281 409.66 507.001 408.58 506.441 407.74C505.921 406.9 505.181 406.28 504.221 405.88C503.261 405.48 502.181 405.28 500.981 405.28C499.221 405.28 497.621 405.56 496.181 406.12C494.781 406.64 493.581 407.22 492.581 407.86L490.121 402.88C491.201 402.16 492.701 401.42 494.621 400.66C496.541 399.86 498.701 399.46 501.101 399.46C504.101 399.46 506.541 399.96 508.421 400.96C510.341 401.92 511.761 403.24 512.681 404.92C513.601 406.6 514.061 408.52 514.061 410.68C514.061 412.64 513.521 414.4 512.441 415.96C511.401 417.48 510.041 418.64 508.361 419.44C509.801 419.92 511.081 420.64 512.201 421.6C513.321 422.56 514.201 423.74 514.841 425.14C515.481 426.54 515.801 428.16 515.801 430C515.801 432.48 515.241 434.7 514.121 436.66C513.041 438.58 511.361 440.1 509.081 441.22C506.801 442.34 503.841 442.9 500.201 442.9ZM538.096 442.9C535.976 442.9 534.096 442.72 532.456 442.36C530.856 442 529.496 441.58 528.376 441.1C527.256 440.62 526.376 440.2 525.736 439.84L527.716 434.44C528.716 435 530.076 435.6 531.796 436.24C533.556 436.88 535.656 437.2 538.096 437.2C539.976 437.2 541.496 436.96 542.656 436.48C543.856 436 544.736 435.32 545.296 434.44C545.856 433.52 546.136 432.44 546.136 431.2C546.136 429.68 545.696 428.44 544.816 427.48C543.936 426.52 542.816 425.7 541.456 425.02C540.096 424.34 538.716 423.72 537.316 423.16C535.996 422.64 534.696 422.06 533.416 421.42C532.176 420.78 531.036 420.02 529.996 419.14C528.956 418.26 528.116 417.2 527.476 415.96C526.876 414.68 526.576 413.16 526.576 411.4C526.576 407.64 527.776 404.72 530.176 402.64C532.576 400.52 535.876 399.46 540.076 399.46C542.476 399.46 544.636 399.74 546.556 400.3C548.516 400.86 550.036 401.48 551.116 402.16L549.076 407.5C548.076 406.9 546.816 406.36 545.296 405.88C543.816 405.36 542.156 405.1 540.316 405.1C538.916 405.1 537.676 405.32 536.596 405.76C535.556 406.16 534.716 406.78 534.076 407.62C533.476 408.42 533.176 409.42 533.176 410.62C533.176 411.94 533.536 413.04 534.256 413.92C535.016 414.8 535.996 415.56 537.196 416.2C538.436 416.8 539.716 417.38 541.036 417.94C542.596 418.54 544.076 419.18 545.476 419.86C546.876 420.54 548.116 421.36 549.196 422.32C550.276 423.28 551.136 424.48 551.776 425.92C552.416 427.36 552.736 429.12 552.736 431.2C552.736 434.92 551.496 437.8 549.016 439.84C546.536 441.88 542.896 442.9 538.096 442.9ZM575.87 442.72C574.31 442.72 573.01 442.22 571.97 441.22C570.93 440.18 570.41 438.88 570.41 437.32C570.41 435.72 570.93 434.4 571.97 433.36C573.01 432.32 574.31 431.8 575.87 431.8C577.39 431.8 578.67 432.32 579.71 433.36C580.75 434.4 581.27 435.72 581.27 437.32C581.27 438.88 580.75 440.18 579.71 441.22C578.67 442.22 577.39 442.72 575.87 442.72ZM575.87 421.54C574.31 421.54 573.01 421.04 571.97 420.04C570.93 419 570.41 417.7 570.41 416.14C570.41 414.54 570.93 413.22 571.97 412.18C573.01 411.14 574.31 410.62 575.87 410.62C577.39 410.62 578.67 411.14 579.71 412.18C580.75 413.22 581.27 414.54 581.27 416.14C581.27 417.7 580.75 419 579.71 420.04C578.67 421.04 577.39 421.54 575.87 421.54ZM618.624 429.76C617.384 429.76 616.224 429.52 615.144 429.04C614.104 428.56 613.104 428.02 612.144 427.42C611.144 426.82 610.164 426.26 609.204 425.74C608.284 425.18 607.304 424.9 606.264 424.9C605.624 424.9 605.044 425.08 604.524 425.44C604.044 425.8 603.624 426.32 603.264 427C602.944 427.68 602.644 428.48 602.364 429.4L597.624 428.14C597.824 427.22 598.104 426.24 598.464 425.2C598.864 424.12 599.404 423.1 600.084 422.14C600.764 421.18 601.624 420.4 602.664 419.8C603.704 419.16 604.944 418.84 606.384 418.84C607.584 418.84 608.704 419.08 609.744 419.56C610.784 420.04 611.784 420.56 612.744 421.12C613.784 421.76 614.784 422.36 615.744 422.92C616.704 423.44 617.684 423.7 618.684 423.7C619.404 423.7 620.004 423.52 620.484 423.16C620.964 422.8 621.364 422.28 621.684 421.6C622.044 420.92 622.344 420.1 622.584 419.14L627.384 420.52C627.184 421.4 626.904 422.38 626.544 423.46C626.184 424.54 625.644 425.56 624.924 426.52C624.244 427.44 623.384 428.22 622.344 428.86C621.304 429.46 620.064 429.76 618.624 429.76Z" fill="white"/>
<path d="M314.327 498V492.28C313.374 490.652 312.516 489.068 311.753 487.528C310.99 485.973 310.301 484.382 309.685 482.754H312.347C312.772 484.045 313.264 485.313 313.821 486.56C314.378 487.807 314.965 489.031 315.581 490.234C315.874 489.662 316.168 489.068 316.461 488.452C316.754 487.836 317.04 487.205 317.319 486.56C317.598 485.915 317.854 485.269 318.089 484.624C318.338 483.979 318.573 483.355 318.793 482.754H321.389C320.978 483.839 320.538 484.903 320.069 485.944C319.6 486.971 319.094 488.005 318.551 489.046C318.008 490.073 317.414 491.136 316.769 492.236V498H314.327ZM328.926 498.286C327.884 498.286 326.968 498.037 326.176 497.538C325.384 497.025 324.76 496.313 324.306 495.404C323.866 494.495 323.646 493.439 323.646 492.236C323.646 491.033 323.873 489.985 324.328 489.09C324.782 488.181 325.406 487.477 326.198 486.978C326.99 486.479 327.899 486.23 328.926 486.23C329.967 486.23 330.884 486.479 331.676 486.978C332.468 487.477 333.091 488.181 333.546 489.09C334 489.985 334.228 491.033 334.228 492.236C334.228 493.439 334 494.495 333.546 495.404C333.106 496.313 332.482 497.025 331.676 497.538C330.884 498.037 329.967 498.286 328.926 498.286ZM328.904 496.13C329.49 496.13 329.996 495.976 330.422 495.668C330.847 495.345 331.17 494.898 331.39 494.326C331.61 493.739 331.72 493.05 331.72 492.258C331.72 491.466 331.61 490.777 331.39 490.19C331.17 489.603 330.847 489.156 330.422 488.848C330.011 488.525 329.512 488.364 328.926 488.364C328.354 488.364 327.855 488.525 327.43 488.848C327.004 489.156 326.682 489.603 326.462 490.19C326.242 490.777 326.132 491.466 326.132 492.258C326.132 493.05 326.242 493.739 326.462 494.326C326.682 494.898 326.997 495.345 327.408 495.668C327.818 495.976 328.317 496.13 328.904 496.13ZM342.38 498.264C341.192 498.264 340.261 498.037 339.586 497.582C338.912 497.127 338.435 496.504 338.156 495.712C337.892 494.905 337.76 493.989 337.76 492.962V486.516H340.202V492.522C340.202 493.358 340.276 494.04 340.422 494.568C340.584 495.096 340.833 495.485 341.17 495.734C341.522 495.983 341.992 496.108 342.578 496.108C342.916 496.108 343.26 496.086 343.612 496.042C343.964 495.998 344.221 495.961 344.382 495.932V486.516H346.846V497.648C346.348 497.765 345.717 497.897 344.954 498.044C344.192 498.191 343.334 498.264 342.38 498.264ZM364.669 498V481.324L367.111 480.906V486.648C367.419 486.531 367.764 486.435 368.145 486.362C368.527 486.289 368.886 486.252 369.223 486.252C370.382 486.252 371.284 486.472 371.929 486.912C372.589 487.352 373.051 487.968 373.315 488.76C373.594 489.552 373.733 490.469 373.733 491.51V498H371.291V491.95C371.291 491.085 371.218 490.395 371.071 489.882C370.939 489.369 370.705 488.995 370.367 488.76C370.03 488.525 369.568 488.408 368.981 488.408C368.615 488.408 368.255 488.452 367.903 488.54C367.551 488.613 367.287 488.687 367.111 488.76V498H364.669ZM382.59 498.264C381.93 498.264 381.299 498.205 380.698 498.088C380.111 497.971 379.59 497.773 379.136 497.494C378.696 497.215 378.344 496.834 378.08 496.35C377.83 495.866 377.706 495.265 377.706 494.546C377.706 493.651 377.933 492.947 378.388 492.434C378.857 491.906 379.458 491.532 380.192 491.312C380.94 491.077 381.717 490.96 382.524 490.96C382.949 490.96 383.345 490.982 383.712 491.026C384.093 491.07 384.445 491.129 384.768 491.202V490.718C384.768 490.293 384.687 489.897 384.526 489.53C384.379 489.163 384.115 488.863 383.734 488.628C383.367 488.393 382.846 488.276 382.172 488.276C381.526 488.276 380.94 488.327 380.412 488.43C379.884 488.518 379.466 488.621 379.158 488.738L378.85 486.736C379.158 486.604 379.642 486.487 380.302 486.384C380.976 486.281 381.688 486.23 382.436 486.23C383.624 486.23 384.555 486.421 385.23 486.802C385.919 487.169 386.41 487.689 386.704 488.364C386.997 489.039 387.144 489.823 387.144 490.718V497.78C386.674 497.868 386.029 497.971 385.208 498.088C384.401 498.205 383.528 498.264 382.59 498.264ZM382.656 496.24C383.081 496.24 383.477 496.233 383.844 496.218C384.225 496.189 384.533 496.152 384.768 496.108V493.028C384.548 492.969 384.269 492.918 383.932 492.874C383.594 492.83 383.257 492.808 382.92 492.808C382.465 492.808 382.018 492.859 381.578 492.962C381.152 493.05 380.808 493.219 380.544 493.468C380.28 493.703 380.148 494.04 380.148 494.48C380.148 495.14 380.375 495.602 380.83 495.866C381.284 496.115 381.893 496.24 382.656 496.24ZM394.812 498C394.328 497.003 393.822 495.895 393.294 494.678C392.766 493.446 392.253 492.148 391.754 490.784C391.27 489.405 390.816 487.983 390.39 486.516H393.008C393.243 487.411 393.522 488.386 393.844 489.442C394.182 490.483 394.534 491.503 394.9 492.5C395.267 493.497 395.612 494.377 395.934 495.14C396.184 494.568 396.448 493.93 396.726 493.226C397.02 492.507 397.306 491.759 397.584 490.982C397.863 490.205 398.127 489.435 398.376 488.672C398.64 487.909 398.86 487.191 399.036 486.516H401.566C401.244 487.616 400.892 488.694 400.51 489.75C400.144 490.791 399.755 491.803 399.344 492.786C398.948 493.754 398.545 494.678 398.134 495.558C397.724 496.438 397.335 497.252 396.968 498H394.812ZM410.247 498.264C408.927 498.264 407.812 498.022 406.903 497.538C405.994 497.054 405.304 496.365 404.835 495.47C404.366 494.561 404.131 493.505 404.131 492.302C404.131 491.275 404.278 490.388 404.571 489.64C404.879 488.877 405.29 488.247 405.803 487.748C406.331 487.235 406.918 486.853 407.563 486.604C408.208 486.355 408.868 486.23 409.543 486.23C410.614 486.23 411.523 486.45 412.271 486.89C413.019 487.315 413.584 487.968 413.965 488.848C414.361 489.713 414.559 490.791 414.559 492.082C414.559 492.214 414.552 492.368 414.537 492.544C414.537 492.705 414.537 492.852 414.537 492.984H406.617C406.676 493.981 407.035 494.751 407.695 495.294C408.37 495.837 409.279 496.108 410.423 496.108C411.083 496.108 411.677 496.049 412.205 495.932C412.748 495.8 413.173 495.675 413.481 495.558L413.811 497.626C413.444 497.787 412.946 497.934 412.315 498.066C411.699 498.198 411.01 498.264 410.247 498.264ZM406.639 491.136H412.117C412.117 490.593 412.022 490.109 411.831 489.684C411.64 489.259 411.354 488.921 410.973 488.672C410.592 488.408 410.122 488.276 409.565 488.276C408.978 488.276 408.472 488.415 408.047 488.694C407.636 488.973 407.314 489.332 407.079 489.772C406.844 490.197 406.698 490.652 406.639 491.136ZM436.232 498.264C435.572 498.264 434.941 498.205 434.34 498.088C433.753 497.971 433.233 497.773 432.778 497.494C432.338 497.215 431.986 496.834 431.722 496.35C431.473 495.866 431.348 495.265 431.348 494.546C431.348 493.651 431.575 492.947 432.03 492.434C432.499 491.906 433.101 491.532 433.834 491.312C434.582 491.077 435.359 490.96 436.166 490.96C436.591 490.96 436.987 490.982 437.354 491.026C437.735 491.07 438.087 491.129 438.41 491.202V490.718C438.41 490.293 438.329 489.897 438.168 489.53C438.021 489.163 437.757 488.863 437.376 488.628C437.009 488.393 436.489 488.276 435.814 488.276C435.169 488.276 434.582 488.327 434.054 488.43C433.526 488.518 433.108 488.621 432.8 488.738L432.492 486.736C432.8 486.604 433.284 486.487 433.944 486.384C434.619 486.281 435.33 486.23 436.078 486.23C437.266 486.23 438.197 486.421 438.872 486.802C439.561 487.169 440.053 487.689 440.346 488.364C440.639 489.039 440.786 489.823 440.786 490.718V497.78C440.317 497.868 439.671 497.971 438.85 498.088C438.043 498.205 437.171 498.264 436.232 498.264ZM436.298 496.24C436.723 496.24 437.119 496.233 437.486 496.218C437.867 496.189 438.175 496.152 438.41 496.108V493.028C438.19 492.969 437.911 492.918 437.574 492.874C437.237 492.83 436.899 492.808 436.562 492.808C436.107 492.808 435.66 492.859 435.22 492.962C434.795 493.05 434.45 493.219 434.186 493.468C433.922 493.703 433.79 494.04 433.79 494.48C433.79 495.14 434.017 495.602 434.472 495.866C434.927 496.115 435.535 496.24 436.298 496.24ZM444.341 498V486.868C444.898 486.677 445.441 486.538 445.969 486.45C446.511 486.347 447.003 486.296 447.443 486.296C447.912 486.296 448.337 486.362 448.719 486.494C449.1 486.611 449.43 486.809 449.709 487.088C450.017 486.868 450.361 486.685 450.743 486.538C451.124 486.377 451.513 486.296 451.909 486.296C452.583 486.296 453.141 486.45 453.581 486.758C454.035 487.051 454.38 487.499 454.615 488.1C454.849 488.701 454.967 489.449 454.967 490.344V498H452.877V490.278C452.877 489.794 452.818 489.413 452.701 489.134C452.598 488.841 452.451 488.635 452.261 488.518C452.07 488.386 451.865 488.32 451.645 488.32C451.469 488.32 451.278 488.357 451.073 488.43C450.882 488.503 450.706 488.613 450.545 488.76C450.603 488.995 450.647 489.251 450.677 489.53C450.706 489.809 450.721 490.109 450.721 490.432V493.6H448.609V490.3C448.609 489.64 448.521 489.149 448.345 488.826C448.169 488.489 447.853 488.32 447.399 488.32C447.281 488.32 447.135 488.335 446.959 488.364C446.797 488.393 446.629 488.437 446.453 488.496V498H444.341ZM463.075 498.264C461.887 498.264 460.956 498.037 460.281 497.582C459.606 497.127 459.13 496.504 458.851 495.712C458.587 494.905 458.455 493.989 458.455 492.962V486.516H460.897V492.522C460.897 493.358 460.97 494.04 461.117 494.568C461.278 495.096 461.528 495.485 461.865 495.734C462.217 495.983 462.686 496.108 463.273 496.108C463.61 496.108 463.955 496.086 464.307 496.042C464.659 495.998 464.916 495.961 465.077 495.932V486.516H467.541V497.648C467.042 497.765 466.412 497.897 465.649 498.044C464.886 498.191 464.028 498.264 463.075 498.264ZM475.914 498.264C475.342 498.264 474.806 498.22 474.308 498.132C473.824 498.059 473.369 497.956 472.944 497.824C472.533 497.692 472.144 497.553 471.778 497.406L472.218 495.272C472.775 495.521 473.376 495.741 474.022 495.932C474.682 496.108 475.356 496.196 476.046 496.196C476.896 496.196 477.534 496.108 477.96 495.932C478.4 495.756 478.62 495.455 478.62 495.03C478.62 494.693 478.495 494.421 478.246 494.216C477.996 493.996 477.659 493.805 477.234 493.644C476.823 493.468 476.383 493.307 475.914 493.16C475.459 493.013 475.004 492.852 474.55 492.676C474.095 492.485 473.677 492.265 473.296 492.016C472.929 491.752 472.628 491.429 472.394 491.048C472.159 490.652 472.042 490.175 472.042 489.618C472.042 488.987 472.21 488.415 472.548 487.902C472.885 487.389 473.406 486.985 474.11 486.692C474.814 486.384 475.716 486.23 476.816 486.23C477.49 486.23 478.158 486.281 478.818 486.384C479.478 486.487 480.042 486.619 480.512 486.78L480.094 488.914C479.918 488.826 479.654 488.738 479.302 488.65C478.964 488.547 478.576 488.459 478.136 488.386C477.71 488.313 477.278 488.276 476.838 488.276C475.987 488.276 475.378 488.386 475.012 488.606C474.645 488.811 474.462 489.112 474.462 489.508C474.462 489.772 474.572 490.007 474.792 490.212C475.012 490.403 475.305 490.571 475.672 490.718C476.053 490.865 476.471 491.019 476.926 491.18C477.395 491.356 477.872 491.547 478.356 491.752C478.84 491.943 479.287 492.177 479.698 492.456C480.108 492.72 480.438 493.057 480.688 493.468C480.937 493.864 481.062 494.348 481.062 494.92C481.062 495.595 480.886 496.189 480.534 496.702C480.182 497.201 479.632 497.589 478.884 497.868C478.136 498.132 477.146 498.264 475.914 498.264ZM490.71 498.264C489.39 498.264 488.276 498.022 487.366 497.538C486.457 497.054 485.768 496.365 485.298 495.47C484.829 494.561 484.594 493.505 484.594 492.302C484.594 491.275 484.741 490.388 485.034 489.64C485.342 488.877 485.753 488.247 486.266 487.748C486.794 487.235 487.381 486.853 488.026 486.604C488.672 486.355 489.332 486.23 490.006 486.23C491.077 486.23 491.986 486.45 492.734 486.89C493.482 487.315 494.047 487.968 494.428 488.848C494.824 489.713 495.022 490.791 495.022 492.082C495.022 492.214 495.015 492.368 495 492.544C495 492.705 495 492.852 495 492.984H487.08C487.139 493.981 487.498 494.751 488.158 495.294C488.833 495.837 489.742 496.108 490.886 496.108C491.546 496.108 492.14 496.049 492.668 495.932C493.211 495.8 493.636 495.675 493.944 495.558L494.274 497.626C493.908 497.787 493.409 497.934 492.778 498.066C492.162 498.198 491.473 498.264 490.71 498.264ZM487.102 491.136H492.58C492.58 490.593 492.485 490.109 492.294 489.684C492.104 489.259 491.818 488.921 491.436 488.672C491.055 488.408 490.586 488.276 490.028 488.276C489.442 488.276 488.936 488.415 488.51 488.694C488.1 488.973 487.777 489.332 487.542 489.772C487.308 490.197 487.161 490.652 487.102 491.136ZM503.439 498.264C502.309 498.264 501.334 498.022 500.513 497.538C499.691 497.054 499.061 496.365 498.621 495.47C498.181 494.575 497.961 493.512 497.961 492.28C497.961 491.063 498.151 490.007 498.533 489.112C498.914 488.217 499.457 487.521 500.161 487.022C500.879 486.509 501.745 486.252 502.757 486.252C503.285 486.252 503.761 486.318 504.187 486.45C504.627 486.567 504.979 486.707 505.243 486.868V481.324L507.685 480.906V497.648C507.362 497.751 506.973 497.853 506.519 497.956C506.079 498.044 505.595 498.117 505.067 498.176C504.553 498.235 504.011 498.264 503.439 498.264ZM503.439 496.108C503.849 496.108 504.201 496.093 504.495 496.064C504.803 496.035 505.052 495.998 505.243 495.954V489.09C505.008 488.914 504.7 488.753 504.319 488.606C503.937 488.459 503.534 488.386 503.109 488.386C502.493 488.386 501.987 488.547 501.591 488.87C501.209 489.193 500.923 489.64 500.733 490.212C500.557 490.784 500.469 491.451 500.469 492.214C500.469 493.431 500.733 494.385 501.261 495.074C501.789 495.763 502.515 496.108 503.439 496.108ZM524.804 498V486.868C525.361 486.677 525.904 486.538 526.432 486.45C526.974 486.347 527.466 486.296 527.906 486.296C528.375 486.296 528.8 486.362 529.182 486.494C529.563 486.611 529.893 486.809 530.172 487.088C530.48 486.868 530.824 486.685 531.206 486.538C531.587 486.377 531.976 486.296 532.372 486.296C533.046 486.296 533.604 486.45 534.044 486.758C534.498 487.051 534.843 487.499 535.078 488.1C535.312 488.701 535.43 489.449 535.43 490.344V498H533.34V490.278C533.34 489.794 533.281 489.413 533.164 489.134C533.061 488.841 532.914 488.635 532.724 488.518C532.533 488.386 532.328 488.32 532.108 488.32C531.932 488.32 531.741 488.357 531.536 488.43C531.345 488.503 531.169 488.613 531.008 488.76C531.066 488.995 531.11 489.251 531.14 489.53C531.169 489.809 531.184 490.109 531.184 490.432V493.6H529.072V490.3C529.072 489.64 528.984 489.149 528.808 488.826C528.632 488.489 528.316 488.32 527.862 488.32C527.744 488.32 527.598 488.335 527.422 488.364C527.26 488.393 527.092 488.437 526.916 488.496V498H524.804ZM544.352 498.264C543.032 498.264 541.918 498.022 541.008 497.538C540.099 497.054 539.41 496.365 538.94 495.47C538.471 494.561 538.236 493.505 538.236 492.302C538.236 491.275 538.383 490.388 538.676 489.64C538.984 488.877 539.395 488.247 539.908 487.748C540.436 487.235 541.023 486.853 541.668 486.604C542.314 486.355 542.974 486.23 543.648 486.23C544.719 486.23 545.628 486.45 546.376 486.89C547.124 487.315 547.689 487.968 548.07 488.848C548.466 489.713 548.664 490.791 548.664 492.082C548.664 492.214 548.657 492.368 548.642 492.544C548.642 492.705 548.642 492.852 548.642 492.984H540.722C540.781 493.981 541.14 494.751 541.8 495.294C542.475 495.837 543.384 496.108 544.528 496.108C545.188 496.108 545.782 496.049 546.31 495.932C546.853 495.8 547.278 495.675 547.586 495.558L547.916 497.626C547.55 497.787 547.051 497.934 546.42 498.066C545.804 498.198 545.115 498.264 544.352 498.264ZM540.744 491.136H546.222C546.222 490.593 546.127 490.109 545.936 489.684C545.746 489.259 545.46 488.921 545.078 488.672C544.697 488.408 544.228 488.276 543.67 488.276C543.084 488.276 542.578 488.415 542.152 488.694C541.742 488.973 541.419 489.332 541.184 489.772C540.95 490.197 540.803 490.652 540.744 491.136ZM190.508 524V521.954H193.61V510.8H190.508V508.754H199.154V510.8H196.052V521.954H199.154V524H190.508ZM217.659 524C217.381 522.812 217.124 521.573 216.889 520.282C216.669 518.977 216.471 517.664 216.295 516.344C216.134 515.024 215.987 513.748 215.855 512.516H218.077C218.107 513.176 218.143 513.829 218.187 514.474C218.246 515.119 218.305 515.787 218.363 516.476C218.422 517.151 218.495 517.862 218.583 518.61C218.686 519.358 218.796 520.179 218.913 521.074C219.163 520.429 219.368 519.849 219.529 519.336C219.705 518.823 219.859 518.339 219.991 517.884C220.138 517.429 220.27 516.975 220.387 516.52C220.519 516.051 220.659 515.552 220.805 515.024H222.587C222.734 515.552 222.866 516.051 222.983 516.52C223.115 516.975 223.24 517.429 223.357 517.884C223.489 518.324 223.636 518.808 223.797 519.336C223.973 519.849 224.164 520.421 224.369 521.052C224.545 519.923 224.685 518.889 224.787 517.95C224.905 516.997 225 516.087 225.073 515.222C225.161 514.342 225.227 513.44 225.271 512.516H227.427C227.31 513.748 227.156 515.039 226.965 516.388C226.789 517.723 226.584 519.043 226.349 520.348C226.115 521.639 225.858 522.856 225.579 524H223.731C223.497 523.457 223.291 522.966 223.115 522.526C222.954 522.071 222.793 521.631 222.631 521.206C222.485 520.766 222.331 520.311 222.169 519.842C222.008 519.358 221.825 518.823 221.619 518.236C221.429 518.823 221.253 519.358 221.091 519.842C220.93 520.311 220.769 520.759 220.607 521.184C220.461 521.609 220.299 522.049 220.123 522.504C219.947 522.959 219.742 523.457 219.507 524H217.659ZM237.208 524.264C236.21 524.264 235.426 524.081 234.854 523.714C234.282 523.333 233.878 522.79 233.644 522.086C233.424 521.367 233.314 520.48 233.314 519.424V514.54H230.036V512.516H235.734V519.6C235.734 520.231 235.8 520.729 235.932 521.096C236.064 521.463 236.262 521.727 236.526 521.888C236.79 522.035 237.127 522.108 237.538 522.108C237.919 522.108 238.308 522.064 238.704 521.976C239.1 521.873 239.474 521.734 239.826 521.558L240.156 523.582C239.906 523.699 239.62 523.809 239.298 523.912C238.99 524.015 238.652 524.095 238.286 524.154C237.934 524.227 237.574 524.264 237.208 524.264ZM234.062 510.668C233.607 510.668 233.204 510.507 232.852 510.184C232.514 509.861 232.346 509.436 232.346 508.908C232.346 508.351 232.514 507.918 232.852 507.61C233.204 507.302 233.607 507.148 234.062 507.148C234.546 507.148 234.949 507.302 235.272 507.61C235.609 507.918 235.778 508.351 235.778 508.908C235.778 509.436 235.609 509.861 235.272 510.184C234.949 510.507 234.546 510.668 234.062 510.668ZM250.53 524.264C249.592 524.264 248.844 524.088 248.286 523.736C247.729 523.369 247.326 522.834 247.076 522.13C246.842 521.426 246.724 520.553 246.724 519.512V509.106H243.446V507.038H249.144V519.622C249.144 520.267 249.21 520.773 249.342 521.14C249.489 521.507 249.694 521.763 249.958 521.91C250.222 522.042 250.538 522.108 250.904 522.108C251.447 522.108 251.924 522.042 252.334 521.91C252.745 521.763 253.046 521.646 253.236 521.558L253.566 523.582C253.405 523.67 253.053 523.809 252.51 524C251.982 524.176 251.322 524.264 250.53 524.264ZM263.941 524.264C263.002 524.264 262.254 524.088 261.697 523.736C261.14 523.369 260.736 522.834 260.487 522.13C260.252 521.426 260.135 520.553 260.135 519.512V509.106H256.857V507.038H262.555V519.622C262.555 520.267 262.621 520.773 262.753 521.14C262.9 521.507 263.105 521.763 263.369 521.91C263.633 522.042 263.948 522.108 264.315 522.108C264.858 522.108 265.334 522.042 265.745 521.91C266.156 521.763 266.456 521.646 266.647 521.558L266.977 523.582C266.816 523.67 266.464 523.809 265.921 524C265.393 524.176 264.733 524.264 263.941 524.264ZM288.738 524.264C287.55 524.264 286.619 524.037 285.944 523.582C285.269 523.127 284.793 522.504 284.514 521.712C284.25 520.905 284.118 519.989 284.118 518.962V512.516H286.56V518.522C286.56 519.358 286.633 520.04 286.78 520.568C286.941 521.096 287.191 521.485 287.528 521.734C287.88 521.983 288.349 522.108 288.936 522.108C289.273 522.108 289.618 522.086 289.97 522.042C290.322 521.998 290.579 521.961 290.74 521.932V512.516H293.204V523.648C292.705 523.765 292.075 523.897 291.312 524.044C290.549 524.191 289.691 524.264 288.738 524.264ZM297.617 524V512.846C298.277 512.67 298.988 512.531 299.751 512.428C300.513 512.311 301.269 512.252 302.017 512.252C303.117 512.252 304.011 512.45 304.701 512.846C305.39 513.227 305.889 513.799 306.197 514.562C306.519 515.31 306.681 516.241 306.681 517.356V524H304.239V517.752C304.239 516.872 304.151 516.197 303.975 515.728C303.799 515.244 303.535 514.907 303.183 514.716C302.831 514.511 302.398 514.408 301.885 514.408C301.591 514.408 301.291 514.423 300.983 514.452C300.675 514.481 300.367 514.525 300.059 514.584V524H297.617ZM317.583 524.264C316.644 524.264 315.896 524.088 315.339 523.736C314.782 523.369 314.378 522.834 314.129 522.13C313.894 521.426 313.777 520.553 313.777 519.512V509.106H310.499V507.038H316.197V519.622C316.197 520.267 316.263 520.773 316.395 521.14C316.542 521.507 316.747 521.763 317.011 521.91C317.275 522.042 317.59 522.108 317.957 522.108C318.5 522.108 318.976 522.042 319.387 521.91C319.798 521.763 320.098 521.646 320.289 521.558L320.619 523.582C320.458 523.67 320.106 523.809 319.563 524C319.035 524.176 318.375 524.264 317.583 524.264ZM328.926 524.286C327.884 524.286 326.968 524.037 326.176 523.538C325.384 523.025 324.76 522.313 324.306 521.404C323.866 520.495 323.646 519.439 323.646 518.236C323.646 517.033 323.873 515.985 324.328 515.09C324.782 514.181 325.406 513.477 326.198 512.978C326.99 512.479 327.899 512.23 328.926 512.23C329.967 512.23 330.884 512.479 331.676 512.978C332.468 513.477 333.091 514.181 333.546 515.09C334 515.985 334.228 517.033 334.228 518.236C334.228 519.439 334 520.495 333.546 521.404C333.106 522.313 332.482 523.025 331.676 523.538C330.884 524.037 329.967 524.286 328.926 524.286ZM328.904 522.13C329.49 522.13 329.996 521.976 330.422 521.668C330.847 521.345 331.17 520.898 331.39 520.326C331.61 519.739 331.72 519.05 331.72 518.258C331.72 517.466 331.61 516.777 331.39 516.19C331.17 515.603 330.847 515.156 330.422 514.848C330.011 514.525 329.512 514.364 328.926 514.364C328.354 514.364 327.855 514.525 327.43 514.848C327.004 515.156 326.682 515.603 326.462 516.19C326.242 516.777 326.132 517.466 326.132 518.258C326.132 519.05 326.242 519.739 326.462 520.326C326.682 520.898 326.997 521.345 327.408 521.668C327.818 521.976 328.317 522.13 328.904 522.13ZM343.744 524.264C342.38 524.264 341.222 524.022 340.268 523.538C339.315 523.054 338.589 522.365 338.09 521.47C337.592 520.575 337.342 519.505 337.342 518.258C337.342 517.319 337.489 516.476 337.782 515.728C338.09 514.965 338.523 514.327 339.08 513.814C339.652 513.301 340.334 512.912 341.126 512.648C341.918 512.369 342.806 512.23 343.788 512.23C344.39 512.23 344.969 512.274 345.526 512.362C346.084 512.435 346.656 512.582 347.242 512.802L346.714 514.826C346.26 514.665 345.812 514.547 345.372 514.474C344.947 514.401 344.47 514.364 343.942 514.364C343.092 514.364 342.358 514.511 341.742 514.804C341.126 515.097 340.65 515.53 340.312 516.102C339.99 516.674 339.828 517.393 339.828 518.258C339.828 519.123 339.99 519.842 340.312 520.414C340.65 520.971 341.134 521.397 341.764 521.69C342.395 521.969 343.165 522.108 344.074 522.108C344.573 522.108 345.072 522.079 345.57 522.02C346.084 521.961 346.59 521.837 347.088 521.646L347.44 523.692C347.103 523.809 346.744 523.912 346.362 524C345.996 524.088 345.592 524.154 345.152 524.198C344.712 524.242 344.243 524.264 343.744 524.264ZM351.259 524V507.324L353.701 506.906V517.224C354.229 516.711 354.757 516.197 355.285 515.684C355.813 515.156 356.319 514.621 356.803 514.078C357.287 513.535 357.727 513.015 358.123 512.516H361.005C360.579 513.044 360.073 513.609 359.487 514.21C358.915 514.797 358.321 515.383 357.705 515.97C357.103 516.557 356.517 517.107 355.945 517.62C356.37 517.987 356.839 518.434 357.353 518.962C357.881 519.475 358.409 520.025 358.937 520.612C359.465 521.199 359.949 521.785 360.389 522.372C360.829 522.959 361.181 523.501 361.445 524H358.607C358.343 523.516 358.013 523.017 357.617 522.504C357.221 521.991 356.788 521.485 356.319 520.986C355.864 520.473 355.409 520.003 354.955 519.578C354.5 519.153 354.082 518.801 353.701 518.522V524H351.259ZM379.18 528.136C378.798 528.136 378.41 528.092 378.014 528.004C377.618 527.916 377.317 527.828 377.112 527.74L377.574 525.738C377.808 525.841 378.058 525.921 378.322 525.98C378.586 526.039 378.842 526.068 379.092 526.068C379.81 526.068 380.375 525.877 380.786 525.496C381.211 525.129 381.578 524.601 381.886 523.912C381.343 522.841 380.8 521.69 380.258 520.458C379.715 519.226 379.209 517.943 378.74 516.608C378.27 515.259 377.852 513.895 377.486 512.516H380.082C380.287 513.352 380.536 514.276 380.83 515.288C381.138 516.285 381.475 517.297 381.842 518.324C382.223 519.336 382.619 520.289 383.03 521.184C383.338 520.26 383.616 519.329 383.866 518.39C384.13 517.451 384.386 516.491 384.636 515.508C384.885 514.525 385.127 513.528 385.362 512.516H387.87C387.503 513.939 387.122 515.339 386.726 516.718C386.33 518.082 385.904 519.409 385.45 520.7C385.01 521.976 384.526 523.201 383.998 524.374C383.602 525.239 383.184 525.951 382.744 526.508C382.318 527.065 381.82 527.476 381.248 527.74C380.676 528.004 379.986 528.136 379.18 528.136ZM395.978 524.286C394.937 524.286 394.02 524.037 393.228 523.538C392.436 523.025 391.813 522.313 391.358 521.404C390.918 520.495 390.698 519.439 390.698 518.236C390.698 517.033 390.926 515.985 391.38 515.09C391.835 514.181 392.458 513.477 393.25 512.978C394.042 512.479 394.952 512.23 395.978 512.23C397.02 512.23 397.936 512.479 398.728 512.978C399.52 513.477 400.144 514.181 400.598 515.09C401.053 515.985 401.28 517.033 401.28 518.236C401.28 519.439 401.053 520.495 400.598 521.404C400.158 522.313 399.535 523.025 398.728 523.538C397.936 524.037 397.02 524.286 395.978 524.286ZM395.956 522.13C396.543 522.13 397.049 521.976 397.474 521.668C397.9 521.345 398.222 520.898 398.442 520.326C398.662 519.739 398.772 519.05 398.772 518.258C398.772 517.466 398.662 516.777 398.442 516.19C398.222 515.603 397.9 515.156 397.474 514.848C397.064 514.525 396.565 514.364 395.978 514.364C395.406 514.364 394.908 514.525 394.482 514.848C394.057 515.156 393.734 515.603 393.514 516.19C393.294 516.777 393.184 517.466 393.184 518.258C393.184 519.05 393.294 519.739 393.514 520.326C393.734 520.898 394.05 521.345 394.46 521.668C394.871 521.976 395.37 522.13 395.956 522.13ZM409.433 524.264C408.245 524.264 407.314 524.037 406.639 523.582C405.964 523.127 405.488 522.504 405.209 521.712C404.945 520.905 404.813 519.989 404.813 518.962V512.516H407.255V518.522C407.255 519.358 407.328 520.04 407.475 520.568C407.636 521.096 407.886 521.485 408.223 521.734C408.575 521.983 409.044 522.108 409.631 522.108C409.968 522.108 410.313 522.086 410.665 522.042C411.017 521.998 411.274 521.961 411.435 521.932V512.516H413.899V523.648C413.4 523.765 412.77 523.897 412.007 524.044C411.244 524.191 410.386 524.264 409.433 524.264ZM419.103 524V513.176C419.91 512.897 420.739 512.677 421.589 512.516C422.44 512.355 423.349 512.274 424.317 512.274C424.625 512.274 424.963 512.289 425.329 512.318C425.711 512.333 426.099 512.369 426.495 512.428C426.891 512.472 427.273 512.553 427.639 512.67L427.199 514.87C426.906 514.782 426.591 514.716 426.253 514.672C425.931 514.613 425.608 514.577 425.285 514.562C424.963 514.533 424.662 514.518 424.383 514.518C423.899 514.518 423.423 514.547 422.953 514.606C422.484 514.65 422.015 514.738 421.545 514.87V524H419.103ZM445.133 528.07V512.868C445.47 512.765 445.859 512.67 446.299 512.582C446.739 512.494 447.223 512.421 447.751 512.362C448.279 512.289 448.821 512.252 449.379 512.252C450.523 512.252 451.505 512.494 452.327 512.978C453.148 513.462 453.779 514.159 454.219 515.068C454.659 515.963 454.879 517.026 454.879 518.258C454.879 519.431 454.695 520.473 454.329 521.382C453.962 522.277 453.419 522.981 452.701 523.494C451.997 524.007 451.131 524.264 450.105 524.264C449.591 524.264 449.122 524.198 448.697 524.066C448.271 523.949 447.897 523.802 447.575 523.626V528.07H445.133ZM449.709 522.108C450.339 522.108 450.845 521.954 451.227 521.646C451.623 521.323 451.916 520.876 452.107 520.304C452.297 519.717 452.393 519.05 452.393 518.302C452.393 517.085 452.121 516.131 451.579 515.442C451.051 514.738 450.317 514.386 449.379 514.386C448.953 514.386 448.587 514.408 448.279 514.452C447.985 514.481 447.751 514.518 447.575 514.562V521.426C447.795 521.602 448.103 521.763 448.499 521.91C448.909 522.042 449.313 522.108 449.709 522.108ZM459.335 524V513.176C460.142 512.897 460.97 512.677 461.821 512.516C462.672 512.355 463.581 512.274 464.549 512.274C464.857 512.274 465.194 512.289 465.561 512.318C465.942 512.333 466.331 512.369 466.727 512.428C467.123 512.472 467.504 512.553 467.871 512.67L467.431 514.87C467.138 514.782 466.822 514.716 466.485 514.672C466.162 514.613 465.84 514.577 465.517 514.562C465.194 514.533 464.894 514.518 464.615 514.518C464.131 514.518 463.654 514.547 463.185 514.606C462.716 514.65 462.246 514.738 461.777 514.87V524H459.335ZM477.3 524.264C475.98 524.264 474.865 524.022 473.956 523.538C473.046 523.054 472.357 522.365 471.888 521.47C471.418 520.561 471.184 519.505 471.184 518.302C471.184 517.275 471.33 516.388 471.624 515.64C471.932 514.877 472.342 514.247 472.856 513.748C473.384 513.235 473.97 512.853 474.616 512.604C475.261 512.355 475.921 512.23 476.596 512.23C477.666 512.23 478.576 512.45 479.324 512.89C480.072 513.315 480.636 513.968 481.018 514.848C481.414 515.713 481.612 516.791 481.612 518.082C481.612 518.214 481.604 518.368 481.59 518.544C481.59 518.705 481.59 518.852 481.59 518.984H473.67C473.728 519.981 474.088 520.751 474.748 521.294C475.422 521.837 476.332 522.108 477.476 522.108C478.136 522.108 478.73 522.049 479.258 521.932C479.8 521.8 480.226 521.675 480.534 521.558L480.864 523.626C480.497 523.787 479.998 523.934 479.368 524.066C478.752 524.198 478.062 524.264 477.3 524.264ZM473.692 517.136H479.17C479.17 516.593 479.074 516.109 478.884 515.684C478.693 515.259 478.407 514.921 478.026 514.672C477.644 514.408 477.175 514.276 476.618 514.276C476.031 514.276 475.525 514.415 475.1 514.694C474.689 514.973 474.366 515.332 474.132 515.772C473.897 516.197 473.75 516.652 473.692 517.136ZM491.26 524.264C489.896 524.264 488.738 524.022 487.784 523.538C486.831 523.054 486.105 522.365 485.606 521.47C485.108 520.575 484.858 519.505 484.858 518.258C484.858 517.319 485.005 516.476 485.298 515.728C485.606 514.965 486.039 514.327 486.596 513.814C487.168 513.301 487.85 512.912 488.642 512.648C489.434 512.369 490.322 512.23 491.304 512.23C491.906 512.23 492.485 512.274 493.042 512.362C493.6 512.435 494.172 512.582 494.758 512.802L494.23 514.826C493.776 514.665 493.328 514.547 492.888 514.474C492.463 514.401 491.986 514.364 491.458 514.364C490.608 514.364 489.874 514.511 489.258 514.804C488.642 515.097 488.166 515.53 487.828 516.102C487.506 516.674 487.344 517.393 487.344 518.258C487.344 519.123 487.506 519.842 487.828 520.414C488.166 520.971 488.65 521.397 489.28 521.69C489.911 521.969 490.681 522.108 491.59 522.108C492.089 522.108 492.588 522.079 493.086 522.02C493.6 521.961 494.106 521.837 494.604 521.646L494.956 523.692C494.619 523.809 494.26 523.912 493.878 524C493.512 524.088 493.108 524.154 492.668 524.198C492.228 524.242 491.759 524.264 491.26 524.264ZM505.419 524.264C504.421 524.264 503.637 524.081 503.065 523.714C502.493 523.333 502.089 522.79 501.855 522.086C501.635 521.367 501.525 520.48 501.525 519.424V514.54H498.247V512.516H503.945V519.6C503.945 520.231 504.011 520.729 504.143 521.096C504.275 521.463 504.473 521.727 504.737 521.888C505.001 522.035 505.338 522.108 505.749 522.108C506.13 522.108 506.519 522.064 506.915 521.976C507.311 521.873 507.685 521.734 508.037 521.558L508.367 523.582C508.117 523.699 507.831 523.809 507.509 523.912C507.201 524.015 506.863 524.095 506.497 524.154C506.145 524.227 505.785 524.264 505.419 524.264ZM502.273 510.668C501.818 510.668 501.415 510.507 501.063 510.184C500.725 509.861 500.557 509.436 500.557 508.908C500.557 508.351 500.725 507.918 501.063 507.61C501.415 507.302 501.818 507.148 502.273 507.148C502.757 507.148 503.16 507.302 503.483 507.61C503.82 507.918 503.989 508.351 503.989 508.908C503.989 509.436 503.82 509.861 503.483 510.184C503.16 510.507 502.757 510.668 502.273 510.668ZM516.673 524.286C515.632 524.286 514.715 524.037 513.923 523.538C513.131 523.025 512.508 522.313 512.053 521.404C511.613 520.495 511.393 519.439 511.393 518.236C511.393 517.033 511.621 515.985 512.075 515.09C512.53 514.181 513.153 513.477 513.945 512.978C514.737 512.479 515.647 512.23 516.673 512.23C517.715 512.23 518.631 512.479 519.423 512.978C520.215 513.477 520.839 514.181 521.293 515.09C521.748 515.985 521.975 517.033 521.975 518.236C521.975 519.439 521.748 520.495 521.293 521.404C520.853 522.313 520.23 523.025 519.423 523.538C518.631 524.037 517.715 524.286 516.673 524.286ZM516.651 522.13C517.238 522.13 517.744 521.976 518.169 521.668C518.595 521.345 518.917 520.898 519.137 520.326C519.357 519.739 519.467 519.05 519.467 518.258C519.467 517.466 519.357 516.777 519.137 516.19C518.917 515.603 518.595 515.156 518.169 514.848C517.759 514.525 517.26 514.364 516.673 514.364C516.101 514.364 515.603 514.525 515.177 514.848C514.752 515.156 514.429 515.603 514.209 516.19C513.989 516.777 513.879 517.466 513.879 518.258C513.879 519.05 513.989 519.739 514.209 520.326C514.429 520.898 514.745 521.345 515.155 521.668C515.566 521.976 516.065 522.13 516.651 522.13ZM530.128 524.264C528.94 524.264 528.008 524.037 527.334 523.582C526.659 523.127 526.182 522.504 525.904 521.712C525.64 520.905 525.508 519.989 525.508 518.962V512.516H527.95V518.522C527.95 519.358 528.023 520.04 528.17 520.568C528.331 521.096 528.58 521.485 528.918 521.734C529.27 521.983 529.739 522.108 530.326 522.108C530.663 522.108 531.008 522.086 531.36 522.042C531.712 521.998 531.968 521.961 532.13 521.932V512.516H534.594V523.648C534.095 523.765 533.464 523.897 532.702 524.044C531.939 524.191 531.081 524.264 530.128 524.264ZM542.966 524.264C542.394 524.264 541.859 524.22 541.36 524.132C540.876 524.059 540.422 523.956 539.996 523.824C539.586 523.692 539.197 523.553 538.83 523.406L539.27 521.272C539.828 521.521 540.429 521.741 541.074 521.932C541.734 522.108 542.409 522.196 543.098 522.196C543.949 522.196 544.587 522.108 545.012 521.932C545.452 521.756 545.672 521.455 545.672 521.03C545.672 520.693 545.548 520.421 545.298 520.216C545.049 519.996 544.712 519.805 544.286 519.644C543.876 519.468 543.436 519.307 542.966 519.16C542.512 519.013 542.057 518.852 541.602 518.676C541.148 518.485 540.73 518.265 540.348 518.016C539.982 517.752 539.681 517.429 539.446 517.048C539.212 516.652 539.094 516.175 539.094 515.618C539.094 514.987 539.263 514.415 539.6 513.902C539.938 513.389 540.458 512.985 541.162 512.692C541.866 512.384 542.768 512.23 543.868 512.23C544.543 512.23 545.21 512.281 545.87 512.384C546.53 512.487 547.095 512.619 547.564 512.78L547.146 514.914C546.97 514.826 546.706 514.738 546.354 514.65C546.017 514.547 545.628 514.459 545.188 514.386C544.763 514.313 544.33 514.276 543.89 514.276C543.04 514.276 542.431 514.386 542.064 514.606C541.698 514.811 541.514 515.112 541.514 515.508C541.514 515.772 541.624 516.007 541.844 516.212C542.064 516.403 542.358 516.571 542.724 516.718C543.106 516.865 543.524 517.019 543.978 517.18C544.448 517.356 544.924 517.547 545.408 517.752C545.892 517.943 546.34 518.177 546.75 518.456C547.161 518.72 547.491 519.057 547.74 519.468C547.99 519.864 548.114 520.348 548.114 520.92C548.114 521.595 547.938 522.189 547.586 522.702C547.234 523.201 546.684 523.589 545.936 523.868C545.188 524.132 544.198 524.264 542.966 524.264ZM570.491 524.264C569.362 524.264 568.387 524.022 567.565 523.538C566.744 523.054 566.113 522.365 565.673 521.47C565.233 520.575 565.013 519.512 565.013 518.28C565.013 517.063 565.204 516.007 565.585 515.112C565.967 514.217 566.509 513.521 567.213 513.022C567.932 512.509 568.797 512.252 569.809 512.252C570.337 512.252 570.814 512.318 571.239 512.45C571.679 512.567 572.031 512.707 572.295 512.868V507.324L574.737 506.906V523.648C574.415 523.751 574.026 523.853 573.571 523.956C573.131 524.044 572.647 524.117 572.119 524.176C571.606 524.235 571.063 524.264 570.491 524.264ZM570.491 522.108C570.902 522.108 571.254 522.093 571.547 522.064C571.855 522.035 572.105 521.998 572.295 521.954V515.09C572.061 514.914 571.753 514.753 571.371 514.606C570.99 514.459 570.587 514.386 570.161 514.386C569.545 514.386 569.039 514.547 568.643 514.87C568.262 515.193 567.976 515.64 567.785 516.212C567.609 516.784 567.521 517.451 567.521 518.214C567.521 519.431 567.785 520.385 568.313 521.074C568.841 521.763 569.567 522.108 570.491 522.108ZM583.726 524.286C582.685 524.286 581.768 524.037 580.976 523.538C580.184 523.025 579.561 522.313 579.106 521.404C578.666 520.495 578.446 519.439 578.446 518.236C578.446 517.033 578.673 515.985 579.128 515.09C579.583 514.181 580.206 513.477 580.998 512.978C581.79 512.479 582.699 512.23 583.726 512.23C584.767 512.23 585.684 512.479 586.476 512.978C587.268 513.477 587.891 514.181 588.346 515.09C588.801 515.985 589.028 517.033 589.028 518.236C589.028 519.439 588.801 520.495 588.346 521.404C587.906 522.313 587.283 523.025 586.476 523.538C585.684 524.037 584.767 524.286 583.726 524.286ZM583.704 522.13C584.291 522.13 584.797 521.976 585.222 521.668C585.647 521.345 585.97 520.898 586.19 520.326C586.41 519.739 586.52 519.05 586.52 518.258C586.52 517.466 586.41 516.777 586.19 516.19C585.97 515.603 585.647 515.156 585.222 514.848C584.811 514.525 584.313 514.364 583.726 514.364C583.154 514.364 582.655 514.525 582.23 514.848C581.805 515.156 581.482 515.603 581.262 516.19C581.042 516.777 580.932 517.466 580.932 518.258C580.932 519.05 581.042 519.739 581.262 520.326C581.482 520.898 581.797 521.345 582.208 521.668C582.619 521.976 583.117 522.13 583.704 522.13ZM598.545 524.264C597.181 524.264 596.022 524.022 595.069 523.538C594.115 523.054 593.389 522.365 592.891 521.47C592.392 520.575 592.143 519.505 592.143 518.258C592.143 517.319 592.289 516.476 592.583 515.728C592.891 514.965 593.323 514.327 593.881 513.814C594.453 513.301 595.135 512.912 595.927 512.648C596.719 512.369 597.606 512.23 598.589 512.23C599.19 512.23 599.769 512.274 600.327 512.362C600.884 512.435 601.456 512.582 602.043 512.802L601.515 514.826C601.06 514.665 600.613 514.547 600.173 514.474C599.747 514.401 599.271 514.364 598.743 514.364C597.892 514.364 597.159 514.511 596.543 514.804C595.927 515.097 595.45 515.53 595.113 516.102C594.79 516.674 594.629 517.393 594.629 518.258C594.629 519.123 594.79 519.842 595.113 520.414C595.45 520.971 595.934 521.397 596.565 521.69C597.195 521.969 597.965 522.108 598.875 522.108C599.373 522.108 599.872 522.079 600.371 522.02C600.884 521.961 601.39 521.837 601.889 521.646L602.241 523.692C601.903 523.809 601.544 523.912 601.163 524C600.796 524.088 600.393 524.154 599.953 524.198C599.513 524.242 599.043 524.264 598.545 524.264ZM610.591 524.264C609.403 524.264 608.472 524.037 607.797 523.582C607.122 523.127 606.646 522.504 606.367 521.712C606.103 520.905 605.971 519.989 605.971 518.962V512.516H608.413V518.522C608.413 519.358 608.486 520.04 608.633 520.568C608.794 521.096 609.044 521.485 609.381 521.734C609.733 521.983 610.202 522.108 610.789 522.108C611.126 522.108 611.471 522.086 611.823 522.042C612.175 521.998 612.432 521.961 612.593 521.932V512.516H615.057V523.648C614.558 523.765 613.928 523.897 613.165 524.044C612.402 524.191 611.544 524.264 610.591 524.264ZM618.678 524V512.868C619.235 512.677 619.778 512.538 620.306 512.45C620.848 512.347 621.34 512.296 621.78 512.296C622.249 512.296 622.674 512.362 623.056 512.494C623.437 512.611 623.767 512.809 624.046 513.088C624.354 512.868 624.698 512.685 625.08 512.538C625.461 512.377 625.85 512.296 626.246 512.296C626.92 512.296 627.478 512.45 627.918 512.758C628.372 513.051 628.717 513.499 628.952 514.1C629.186 514.701 629.304 515.449 629.304 516.344V524H627.214V516.278C627.214 515.794 627.155 515.413 627.038 515.134C626.935 514.841 626.788 514.635 626.598 514.518C626.407 514.386 626.202 514.32 625.982 514.32C625.806 514.32 625.615 514.357 625.41 514.43C625.219 514.503 625.043 514.613 624.882 514.76C624.94 514.995 624.984 515.251 625.014 515.53C625.043 515.809 625.058 516.109 625.058 516.432V519.6H622.946V516.3C622.946 515.64 622.858 515.149 622.682 514.826C622.506 514.489 622.19 514.32 621.736 514.32C621.618 514.32 621.472 514.335 621.296 514.364C621.134 514.393 620.966 514.437 620.79 514.496V524H618.678ZM638.226 524.264C636.906 524.264 635.792 524.022 634.882 523.538C633.973 523.054 633.284 522.365 632.814 521.47C632.345 520.561 632.11 519.505 632.11 518.302C632.11 517.275 632.257 516.388 632.55 515.64C632.858 514.877 633.269 514.247 633.782 513.748C634.31 513.235 634.897 512.853 635.542 512.604C636.188 512.355 636.848 512.23 637.522 512.23C638.593 512.23 639.502 512.45 640.25 512.89C640.998 513.315 641.563 513.968 641.944 514.848C642.34 515.713 642.538 516.791 642.538 518.082C642.538 518.214 642.531 518.368 642.516 518.544C642.516 518.705 642.516 518.852 642.516 518.984H634.596C634.655 519.981 635.014 520.751 635.674 521.294C636.349 521.837 637.258 522.108 638.402 522.108C639.062 522.108 639.656 522.049 640.184 521.932C640.727 521.8 641.152 521.675 641.46 521.558L641.79 523.626C641.424 523.787 640.925 523.934 640.294 524.066C639.678 524.198 638.989 524.264 638.226 524.264ZM634.618 517.136H640.096C640.096 516.593 640.001 516.109 639.81 515.684C639.62 515.259 639.334 514.921 638.952 514.672C638.571 514.408 638.102 514.276 637.544 514.276C636.958 514.276 636.452 514.415 636.026 514.694C635.616 514.973 635.293 515.332 635.058 515.772C634.824 516.197 634.677 516.652 634.618 517.136ZM646.291 524V512.846C646.951 512.67 647.662 512.531 648.425 512.428C649.187 512.311 649.943 512.252 650.691 512.252C651.791 512.252 652.685 512.45 653.375 512.846C654.064 513.227 654.563 513.799 654.871 514.562C655.193 515.31 655.355 516.241 655.355 517.356V524H652.913V517.752C652.913 516.872 652.825 516.197 652.649 515.728C652.473 515.244 652.209 514.907 651.857 514.716C651.505 514.511 651.072 514.408 650.559 514.408C650.265 514.408 649.965 514.423 649.657 514.452C649.349 514.481 649.041 514.525 648.733 514.584V524H646.291ZM666.081 524.264C665.04 524.264 664.204 524.117 663.573 523.824C662.943 523.531 662.488 523.047 662.209 522.372C661.945 521.683 661.813 520.773 661.813 519.644V514.54H659.305V512.516H661.813V509.414L664.255 509.018V512.516H669.095V514.54H664.255V519.622C664.255 520.297 664.329 520.817 664.475 521.184C664.622 521.536 664.849 521.778 665.157 521.91C665.48 522.042 665.876 522.108 666.345 522.108C666.917 522.108 667.394 522.064 667.775 521.976C668.157 521.873 668.567 521.727 669.007 521.536L669.337 523.626C668.985 523.787 668.523 523.934 667.951 524.066C667.379 524.198 666.756 524.264 666.081 524.264Z" fill="white"/>
<g filter="url(#filter1_d_37_15426)">
<rect x="252.5" y="590" width="172" height="54" rx="6" fill="#65FBE2" shape-rendering="crispEdges"/>
<rect x="253.5" y="591" width="170" height="52" rx="5" stroke="black" stroke-width="2" shape-rendering="crispEdges"/>
<path d="M332.586 623.27C331.662 623.27 330.864 623.036 330.192 622.568C329.52 622.088 328.998 621.368 328.626 620.408C328.266 619.436 328.086 618.218 328.086 616.754C328.086 615.29 328.272 614.078 328.644 613.118C329.016 612.146 329.532 611.426 330.192 610.958C330.864 610.478 331.656 610.238 332.568 610.238C333.492 610.238 334.29 610.478 334.962 610.958C335.634 611.426 336.15 612.146 336.51 613.118C336.882 614.078 337.068 615.29 337.068 616.754C337.068 618.218 336.882 619.436 336.51 620.408C336.138 621.368 335.616 622.088 334.944 622.568C334.272 623.036 333.486 623.27 332.586 623.27ZM332.55 621.542C333.15 621.542 333.63 621.344 333.99 620.948C334.35 620.552 334.614 619.994 334.782 619.274C334.95 618.554 335.034 617.714 335.034 616.754C335.034 615.77 334.95 614.924 334.782 614.216C334.626 613.496 334.362 612.944 333.99 612.56C333.63 612.164 333.15 611.966 332.55 611.966C331.95 611.966 331.476 612.164 331.128 612.56C330.78 612.956 330.528 613.508 330.372 614.216C330.216 614.924 330.138 615.77 330.138 616.754C330.138 617.726 330.21 618.572 330.354 619.292C330.51 620 330.762 620.552 331.11 620.948C331.47 621.344 331.95 621.542 332.55 621.542ZM340.534 623V610.526H342.532V615.926C342.904 615.506 343.282 615.062 343.666 614.594C344.05 614.126 344.416 613.658 344.764 613.19C345.112 612.71 345.442 612.248 345.754 611.804C346.066 611.348 346.342 610.922 346.582 610.526H348.85C348.586 610.958 348.292 611.414 347.968 611.894C347.656 612.374 347.314 612.86 346.942 613.352C346.57 613.844 346.18 614.342 345.772 614.846C345.364 615.338 344.938 615.824 344.494 616.304C344.914 616.676 345.352 617.114 345.808 617.618C346.276 618.122 346.726 618.668 347.158 619.256C347.59 619.844 347.992 620.456 348.364 621.092C348.736 621.716 349.042 622.352 349.282 623H347.032C346.78 622.436 346.48 621.872 346.132 621.308C345.784 620.744 345.412 620.204 345.016 619.688C344.62 619.16 344.212 618.68 343.792 618.248C343.372 617.804 342.952 617.432 342.532 617.132V623H340.534Z" fill="black"/>
</g>
<g filter="url(#filter2_d_37_15426)">
<rect x="434.5" y="590" width="172" height="54" rx="6" fill="#FF72C6" shape-rendering="crispEdges"/>
<rect x="435.5" y="591" width="170" height="52" rx="5" stroke="black" stroke-width="2" shape-rendering="crispEdges"/>
<path d="M474.811 623V610.526H476.809V615.638H481.093V610.526H483.091V623H481.093V617.312H476.809V623H474.811ZM490.805 623.27C489.785 623.27 488.975 623.084 488.375 622.712C487.775 622.328 487.343 621.788 487.079 621.092C486.815 620.384 486.683 619.556 486.683 618.608V610.526H488.681V618.428C488.681 619.22 488.759 619.844 488.915 620.3C489.071 620.744 489.305 621.062 489.617 621.254C489.941 621.446 490.343 621.542 490.823 621.542C491.315 621.542 491.717 621.446 492.029 621.254C492.353 621.062 492.593 620.744 492.749 620.3C492.905 619.844 492.983 619.22 492.983 618.428V610.526H494.963V618.608C494.963 619.556 494.831 620.384 494.567 621.092C494.303 621.788 493.871 622.328 493.271 622.712C492.671 623.084 491.849 623.27 490.805 623.27ZM498.753 623V610.706C499.053 610.622 499.389 610.556 499.761 610.508C500.145 610.46 500.523 610.43 500.895 610.418C501.279 610.394 501.609 610.382 501.885 610.382C503.337 610.382 504.465 610.718 505.269 611.39C506.085 612.05 506.493 613.046 506.493 614.378C506.493 615.134 506.307 615.806 505.935 616.394C505.575 616.982 505.053 617.438 504.369 617.762C504.657 618.194 504.969 618.704 505.305 619.292C505.653 619.88 505.995 620.492 506.331 621.128C506.667 621.764 506.961 622.388 507.213 623H505.089C504.849 622.412 504.585 621.83 504.297 621.254C504.021 620.678 503.727 620.132 503.415 619.616C503.115 619.1 502.815 618.632 502.515 618.212C502.455 618.212 502.365 618.218 502.245 618.23C502.137 618.23 502.059 618.23 502.011 618.23H500.769V623H498.753ZM500.769 616.556H501.615C502.227 616.556 502.743 616.49 503.163 616.358C503.583 616.214 503.901 615.98 504.117 615.656C504.345 615.332 504.459 614.894 504.459 614.342C504.459 613.766 504.345 613.322 504.117 613.01C503.901 612.686 503.601 612.458 503.217 612.326C502.845 612.194 502.431 612.128 501.975 612.128C501.747 612.128 501.519 612.134 501.291 612.146C501.063 612.146 500.889 612.158 500.769 612.182V616.556ZM510.626 623V610.706C510.926 610.622 511.262 610.556 511.634 610.508C512.018 610.46 512.396 610.43 512.768 610.418C513.152 610.394 513.482 610.382 513.758 610.382C515.21 610.382 516.338 610.718 517.142 611.39C517.958 612.05 518.366 613.046 518.366 614.378C518.366 615.134 518.18 615.806 517.808 616.394C517.448 616.982 516.926 617.438 516.242 617.762C516.53 618.194 516.842 618.704 517.178 619.292C517.526 619.88 517.868 620.492 518.204 621.128C518.54 621.764 518.834 622.388 519.086 623H516.962C516.722 622.412 516.458 621.83 516.17 621.254C515.894 620.678 515.6 620.132 515.288 619.616C514.988 619.1 514.688 618.632 514.388 618.212C514.328 618.212 514.238 618.218 514.118 618.23C514.01 618.23 513.932 618.23 513.884 618.23H512.642V623H510.626ZM512.642 616.556H513.488C514.1 616.556 514.616 616.49 515.036 616.358C515.456 616.214 515.774 615.98 515.99 615.656C516.218 615.332 516.332 614.894 516.332 614.342C516.332 613.766 516.218 613.322 515.99 613.01C515.774 612.686 515.474 612.458 515.09 612.326C514.718 612.194 514.304 612.128 513.848 612.128C513.62 612.128 513.392 612.134 513.164 612.146C512.936 612.146 512.762 612.158 512.642 612.182V616.556ZM525.468 623V618.32C524.688 616.988 523.986 615.692 523.362 614.432C522.738 613.16 522.174 611.858 521.67 610.526H523.848C524.196 611.582 524.598 612.62 525.054 613.64C525.51 614.66 525.99 615.662 526.494 616.646C526.734 616.178 526.974 615.692 527.214 615.188C527.454 614.684 527.688 614.168 527.916 613.64C528.144 613.112 528.354 612.584 528.546 612.056C528.75 611.528 528.942 611.018 529.122 610.526H531.246C530.91 611.414 530.55 612.284 530.166 613.136C529.782 613.976 529.368 614.822 528.924 615.674C528.48 616.514 527.994 617.384 527.466 618.284V623H525.468ZM537.538 618.644C537.49 618.224 537.442 617.834 537.394 617.474C537.346 617.102 537.304 616.736 537.268 616.376C537.244 616.004 537.22 615.62 537.196 615.224C537.172 614.816 537.16 614.366 537.16 613.874V610.526H539.41V613.874C539.41 614.366 539.398 614.816 539.374 615.224C539.362 615.62 539.338 616.004 539.302 616.376C539.278 616.736 539.242 617.102 539.194 617.474C539.158 617.834 539.116 618.224 539.068 618.644H537.538ZM538.294 623.234C537.898 623.234 537.55 623.102 537.25 622.838C536.962 622.562 536.818 622.196 536.818 621.74C536.818 621.284 536.962 620.924 537.25 620.66C537.55 620.396 537.898 620.264 538.294 620.264C538.678 620.264 539.02 620.396 539.32 620.66C539.62 620.924 539.77 621.284 539.77 621.74C539.77 622.196 539.62 622.562 539.32 622.838C539.02 623.102 538.678 623.234 538.294 623.234ZM549.411 618.644C549.363 618.224 549.315 617.834 549.267 617.474C549.219 617.102 549.177 616.736 549.141 616.376C549.117 616.004 549.093 615.62 549.069 615.224C549.045 614.816 549.033 614.366 549.033 613.874V610.526H551.283V613.874C551.283 614.366 551.271 614.816 551.247 615.224C551.235 615.62 551.211 616.004 551.175 616.376C551.151 616.736 551.115 617.102 551.067 617.474C551.031 617.834 550.989 618.224 550.941 618.644H549.411ZM550.167 623.234C549.771 623.234 549.423 623.102 549.123 622.838C548.835 622.562 548.691 622.196 548.691 621.74C548.691 621.284 548.835 620.924 549.123 620.66C549.423 620.396 549.771 620.264 550.167 620.264C550.551 620.264 550.893 620.396 551.193 620.66C551.493 620.924 551.643 621.284 551.643 621.74C551.643 622.196 551.493 622.562 551.193 622.838C550.893 623.102 550.551 623.234 550.167 623.234ZM558.961 623V621.326H561.625V613.298C561.301 613.562 560.881 613.82 560.365 614.072C559.861 614.324 559.387 614.528 558.943 614.684L558.313 613.118C558.769 612.938 559.231 612.722 559.699 612.47C560.167 612.206 560.617 611.912 561.049 611.588C561.493 611.264 561.889 610.91 562.237 610.526H563.605V621.326H566.017V623H558.961Z" fill="black"/>
</g>
</g>
<rect x="1.5" y="1.5" width="856" height="681" rx="10.5" stroke="black" stroke-width="3" shape-rendering="crispEdges"/>
</g>
<defs>
<filter id="filter0_d_37_15426" x="0" y="0" width="865" height="690" filterUnits="userSpaceOnUse" color-interpolation-filters="sRGB">
<feFlood flood-opacity="0" result="BackgroundImageFix"/>
<feColorMatrix in="SourceAlpha" type="matrix" values="0 0 0 0 0 0 0 0 0 0 0 0 0 0 0 0 0 0 127 0" result="hardAlpha"/>
<feOffset dx="6" dy="6"/>
<feComposite in2="hardAlpha" operator="out"/>
<feColorMatrix type="matrix" values="0 0 0 0 0 0 0 0 0 0 0 0 0 0 0 0 0 0 1 0"/>
<feBlend mode="normal" in2="BackgroundImageFix" result="effect1_dropShadow_37_15426"/>
<feBlend mode="normal" in="SourceGraphic" in2="effect1_dropShadow_37_15426" result="shape"/>
</filter>
<filter id="filter1_d_37_15426" x="252.5" y="590" width="174" height="56" filterUnits="userSpaceOnUse" color-interpolation-filters="sRGB">
<feFlood flood-opacity="0" result="BackgroundImageFix"/>
<feColorMatrix in="SourceAlpha" type="matrix" values="0 0 0 0 0 0 0 0 0 0 0 0 0 0 0 0 0 0 127 0" result="hardAlpha"/>
<feOffset dx="2" dy="2"/>
<feComposite in2="hardAlpha" operator="out"/>
<feColorMatrix type="matrix" values="0 0 0 0 0 0 0 0 0 0 0 0 0 0 0 0 0 0 1 0"/>
<feBlend mode="normal" in2="BackgroundImageFix" result="effect1_dropShadow_37_15426"/>
<feBlend mode="normal" in="SourceGraphic" in2="effect1_dropShadow_37_15426" result="shape"/>
</filter>
<filter id="filter2_d_37_15426" x="434.5" y="590" width="174" height="56" filterUnits="userSpaceOnUse" color-interpolation-filters="sRGB">
<feFlood flood-opacity="0" result="BackgroundImageFix"/>
<feColorMatrix in="SourceAlpha" type="matrix" values="0 0 0 0 0 0 0 0 0 0 0 0 0 0 0 0 0 0 127 0" result="hardAlpha"/>
<feOffset dx="2" dy="2"/>
<feComposite in2="hardAlpha" operator="out"/>
<feColorMatrix type="matrix" values="0 0 0 0 0 0 0 0 0 0 0 0 0 0 0 0 0 0 1 0"/>
<feBlend mode="normal" in2="BackgroundImageFix" result="effect1_dropShadow_37_15426"/>
<feBlend mode="normal" in="SourceGraphic" in2="effect1_dropShadow_37_15426" result="shape"/>
</filter>
<clipPath id="clip0_37_15426">
<rect width="859" height="684" rx="12" fill="white"/>
</clipPath>
<clipPath id="clip1_37_15426">
<rect width="21" height="28" fill="white" transform="translate(25 13)"/>
</clipPath>
<clipPath id="clip2_37_15426">
<rect width="213" height="272" fill="white" transform="translate(323 94)"/>
</clipPath>
</defs>
</svg>
