<svg width="865" height="870" viewBox="0 0 865 870" fill="none" xmlns="http://www.w3.org/2000/svg">
<g filter="url(#filter0_d_37_15931)">
<g clip-path="url(#clip0_37_15931)">
<mask id="path-3-inside-1_37_15931" fill="white">
<path d="M0 0.5H859V54.5H0V0.5Z"/>
</mask>
<path d="M0 0.5H859V54.5H0V0.5Z" fill="#61B7F8"/>
<path d="M859 52.5H0V56.5H859V52.5Z" fill="black" mask="url(#path-3-inside-1_37_15931)"/>
<g filter="url(#filter1_d_37_15931)">
<path d="M45.0496 17.2998H24.6496C23.2413 17.2998 22.0996 18.4415 22.0996 19.8498V35.1498C22.0996 36.5581 23.2413 37.6998 24.6496 37.6998H45.0496C46.4579 37.6998 47.5996 36.5581 47.5996 35.1498V19.8498C47.5996 18.4415 46.4579 17.2998 45.0496 17.2998Z" fill="#FFE993" stroke="black" stroke-linecap="round" stroke-linejoin="round"/>
<path d="M47.5996 21.125L36.1629 28.3925C35.7692 28.6391 35.3141 28.7699 34.8496 28.7699C34.3851 28.7699 33.93 28.6391 33.5364 28.3925L22.0996 21.125" fill="#FFE993"/>
<path d="M47.5996 21.125L36.1629 28.3925C35.7692 28.6391 35.3141 28.7699 34.8496 28.7699C34.3851 28.7699 33.93 28.6391 33.5364 28.3925L22.0996 21.125" stroke="black" stroke-linecap="round" stroke-linejoin="round"/>
</g>
<path d="M65.236 34.654C64.8693 34.654 64.4513 34.6393 63.982 34.61C63.5273 34.5807 63.0653 34.5367 62.596 34.478C62.1413 34.4193 61.716 34.346 61.32 34.258V19.452C61.6867 19.3787 62.09 19.32 62.53 19.276C62.97 19.2173 63.4173 19.1733 63.872 19.144C64.3267 19.1 64.7447 19.078 65.126 19.078C66.0353 19.078 66.8347 19.1733 67.524 19.364C68.2133 19.54 68.7853 19.7967 69.24 20.134C69.6947 20.4713 70.032 20.8893 70.252 21.388C70.472 21.872 70.582 22.4367 70.582 23.082C70.582 23.5513 70.4867 24.006 70.296 24.446C70.12 24.8713 69.8707 25.2527 69.548 25.59C69.2253 25.9127 68.866 26.162 68.47 26.338C69.086 26.5433 69.5993 26.822 70.01 27.174C70.4353 27.526 70.7507 27.9367 70.956 28.406C71.176 28.8753 71.286 29.4033 71.286 29.99C71.286 31.0753 71.0513 31.9627 70.582 32.652C70.1127 33.3413 69.4307 33.8473 68.536 34.17C67.6413 34.4927 66.5413 34.654 65.236 34.654ZM65.434 32.564C66.0207 32.564 66.5707 32.498 67.084 32.366C67.612 32.2193 68.0447 31.9627 68.382 31.596C68.7193 31.2147 68.888 30.6793 68.888 29.99C68.888 29.374 68.7413 28.8973 68.448 28.56C68.1547 28.208 67.766 27.9513 67.282 27.79C66.798 27.6287 66.2553 27.548 65.654 27.548H63.762V32.476C63.8647 32.4907 64.07 32.5127 64.378 32.542C64.686 32.5567 65.038 32.564 65.434 32.564ZM63.762 25.524H65.192C65.7347 25.524 66.226 25.4507 66.666 25.304C67.1207 25.1573 67.4873 24.9227 67.766 24.6C68.0447 24.2773 68.184 23.852 68.184 23.324C68.184 22.7667 68.052 22.334 67.788 22.026C67.524 21.718 67.1793 21.5053 66.754 21.388C66.3433 21.256 65.8887 21.19 65.39 21.19C65.0527 21.19 64.7373 21.1973 64.444 21.212C64.1653 21.2267 63.938 21.2487 63.762 21.278V25.524ZM76.6005 29.396V27.042H82.5405V29.396H76.6005ZM87.5251 34.5C87.5691 33.2533 87.6204 31.97 87.6791 30.65C87.7524 29.33 87.8258 28.01 87.8991 26.69C87.9871 25.37 88.0824 24.0867 88.1851 22.84C88.2878 21.5787 88.4051 20.3833 88.5371 19.254H90.6711C90.9058 19.9433 91.1478 20.6987 91.3971 21.52C91.6611 22.3267 91.9251 23.1627 92.1891 24.028C92.4678 24.8787 92.7318 25.7 92.9811 26.492C93.2451 25.656 93.5091 24.8127 93.7731 23.962C94.0371 23.1113 94.3011 22.29 94.5651 21.498C94.8291 20.6913 95.0711 19.9433 95.2911 19.254H97.4471C97.6378 20.9113 97.7918 22.5687 97.9091 24.226C98.0411 25.8833 98.1438 27.5627 98.2171 29.264C98.3051 30.9507 98.3784 32.696 98.4371 34.5H96.1491C96.1344 33.2533 96.1198 31.9407 96.1051 30.562C96.1051 29.1833 96.0978 27.7753 96.0831 26.338C96.0684 24.9007 96.0538 23.4927 96.0391 22.114L93.9491 28.89H92.0131L89.9451 22.114C89.9451 23.4927 89.9304 24.9007 89.9011 26.338C89.8864 27.7753 89.8644 29.1833 89.8351 30.562C89.8204 31.9407 89.8131 33.2533 89.8131 34.5H87.5251ZM106.414 34.764C105.754 34.764 105.123 34.7053 104.522 34.588C103.935 34.4707 103.414 34.2727 102.96 33.994C102.52 33.7153 102.168 33.334 101.904 32.85C101.654 32.366 101.53 31.7647 101.53 31.046C101.53 30.1513 101.757 29.4473 102.212 28.934C102.681 28.406 103.282 28.032 104.016 27.812C104.764 27.5773 105.541 27.46 106.348 27.46C106.773 27.46 107.169 27.482 107.536 27.526C107.917 27.57 108.269 27.6287 108.592 27.702V27.218C108.592 26.7927 108.511 26.3967 108.35 26.03C108.203 25.6633 107.939 25.3627 107.558 25.128C107.191 24.8933 106.67 24.776 105.996 24.776C105.35 24.776 104.764 24.8273 104.236 24.93C103.708 25.018 103.29 25.1207 102.982 25.238L102.674 23.236C102.982 23.104 103.466 22.9867 104.126 22.884C104.8 22.7813 105.512 22.73 106.26 22.73C107.448 22.73 108.379 22.9207 109.054 23.302C109.743 23.6687 110.234 24.1893 110.528 24.864C110.821 25.5387 110.968 26.3233 110.968 27.218V34.28C110.498 34.368 109.853 34.4707 109.032 34.588C108.225 34.7053 107.352 34.764 106.414 34.764ZM106.48 32.74C106.905 32.74 107.301 32.7327 107.668 32.718C108.049 32.6887 108.357 32.652 108.592 32.608V29.528C108.372 29.4693 108.093 29.418 107.756 29.374C107.418 29.33 107.081 29.308 106.744 29.308C106.289 29.308 105.842 29.3593 105.402 29.462C104.976 29.55 104.632 29.7187 104.368 29.968C104.104 30.2027 103.972 30.54 103.972 30.98C103.972 31.64 104.199 32.102 104.654 32.366C105.108 32.6153 105.717 32.74 106.48 32.74ZM121.958 34.764C120.961 34.764 120.176 34.5807 119.604 34.214C119.032 33.8327 118.629 33.29 118.394 32.586C118.174 31.8673 118.064 30.98 118.064 29.924V25.04H114.786V23.016H120.484V30.1C120.484 30.7307 120.55 31.2293 120.682 31.596C120.814 31.9627 121.012 32.2267 121.276 32.388C121.54 32.5347 121.878 32.608 122.288 32.608C122.67 32.608 123.058 32.564 123.454 32.476C123.85 32.3733 124.224 32.234 124.576 32.058L124.906 34.082C124.657 34.1993 124.371 34.3093 124.048 34.412C123.74 34.5147 123.403 34.5953 123.036 34.654C122.684 34.7273 122.325 34.764 121.958 34.764ZM118.812 21.168C118.358 21.168 117.954 21.0067 117.602 20.684C117.265 20.3613 117.096 19.936 117.096 19.408C117.096 18.8507 117.265 18.418 117.602 18.11C117.954 17.802 118.358 17.648 118.812 17.648C119.296 17.648 119.7 17.802 120.022 18.11C120.36 18.418 120.528 18.8507 120.528 19.408C120.528 19.936 120.36 20.3613 120.022 20.684C119.7 21.0067 119.296 21.168 118.812 21.168ZM135.281 34.764C134.342 34.764 133.594 34.588 133.037 34.236C132.479 33.8693 132.076 33.334 131.827 32.63C131.592 31.926 131.475 31.0533 131.475 30.012V19.606H128.197V17.538H133.895V30.122C133.895 30.7673 133.961 31.2733 134.093 31.64C134.239 32.0067 134.445 32.2633 134.709 32.41C134.973 32.542 135.288 32.608 135.655 32.608C136.197 32.608 136.674 32.542 137.085 32.41C137.495 32.2633 137.796 32.146 137.987 32.058L138.317 34.082C138.155 34.17 137.803 34.3093 137.261 34.5C136.733 34.676 136.073 34.764 135.281 34.764Z" fill="black"/>
<rect x="784" y="13.5" width="28" height="28" rx="14" fill="#FFE993"/>
<rect x="784" y="13.5" width="28" height="28" rx="14" stroke="black" stroke-width="2"/>
<rect x="791.715" y="31.2144" width="12.5714" height="2.28571" fill="black"/>
<rect x="820" y="13.5" width="28" height="28" rx="14" fill="#FF72C6"/>
<rect x="820" y="13.5" width="28" height="28" rx="14" stroke="black" stroke-width="2"/>
<path d="M840 23.2143L838.286 21.5L834 25.7857L829.714 21.5L828 23.2143L832.286 27.5L828 31.7857L829.714 33.5L834 29.2143L838.286 33.5L840 31.7857L835.714 27.5L840 23.2143Z" fill="black"/>
<rect width="859" height="809" transform="translate(0 54.5)" fill="#F6F6F6"/>
<path d="M429.5 379.5C417.93 379.5 406.619 382.931 396.999 389.359C387.379 395.787 379.881 404.924 375.453 415.613C371.025 426.302 369.867 438.065 372.124 449.413C374.381 460.761 379.953 471.184 388.134 479.366C396.316 487.547 406.739 493.119 418.087 495.376C429.435 497.633 441.198 496.475 451.887 492.047C462.576 487.619 471.713 480.121 478.141 470.501C484.569 460.881 488 449.57 488 438C487.984 422.49 481.816 407.619 470.848 396.652C459.881 385.684 445.01 379.516 429.5 379.5ZM429.5 487.5C419.71 487.5 410.14 484.597 401.999 479.158C393.859 473.719 387.515 465.988 383.768 456.943C380.021 447.898 379.041 437.945 380.951 428.343C382.861 418.741 387.576 409.921 394.498 402.998C401.421 396.076 410.241 391.361 419.843 389.451C429.445 387.541 439.398 388.521 448.443 392.268C457.488 396.014 465.219 402.359 470.658 410.499C476.097 418.639 479 428.21 479 438C478.984 451.123 473.764 463.705 464.484 472.984C455.205 482.264 442.623 487.484 429.5 487.5ZM456.38 416.52C457.293 417.29 457.868 418.388 457.98 419.577C458.092 420.767 457.733 421.953 456.98 422.88L426.98 458.88C426.566 459.356 426.06 459.745 425.493 460.023C424.927 460.301 424.31 460.463 423.68 460.5C422.487 460.499 421.343 460.024 420.5 459.18L402.5 441.18C401.705 440.327 401.272 439.199 401.293 438.033C401.314 436.867 401.786 435.755 402.61 434.93C403.435 434.106 404.547 433.634 405.713 433.613C406.879 433.592 408.007 434.025 408.86 434.82L423.5 449.34L450.32 417.12C451.079 416.291 452.117 415.771 453.235 415.66C454.354 415.549 455.474 415.856 456.38 416.52Z" fill="#65FBE2"/>
<path d="M372.641 533.5V521.026H379.877V522.7H374.639V526.102H379.211V527.776H374.639V531.826H380.309V533.5H372.641ZM383.487 533.5C383.523 532.48 383.565 531.43 383.613 530.35C383.673 529.27 383.733 528.19 383.793 527.11C383.865 526.03 383.943 524.98 384.027 523.96C384.111 522.928 384.207 521.95 384.315 521.026H386.061C386.253 521.59 386.451 522.208 386.655 522.88C386.871 523.54 387.087 524.224 387.303 524.932C387.531 525.628 387.747 526.3 387.951 526.948C388.167 526.264 388.383 525.574 388.599 524.878C388.815 524.182 389.031 523.51 389.247 522.862C389.463 522.202 389.661 521.59 389.841 521.026H391.605C391.761 522.382 391.887 523.738 391.983 525.094C392.091 526.45 392.175 527.824 392.235 529.216C392.307 530.596 392.367 532.024 392.415 533.5H390.543C390.531 532.48 390.519 531.406 390.507 530.278C390.507 529.15 390.501 527.998 390.489 526.822C390.477 525.646 390.465 524.494 390.453 523.366L388.743 528.91H387.159L385.467 523.366C385.467 524.494 385.455 525.646 385.431 526.822C385.419 527.998 385.401 529.15 385.377 530.278C385.365 531.406 385.359 532.48 385.359 533.5H383.487ZM394.963 533.5C395.227 532.48 395.503 531.436 395.791 530.368C396.079 529.3 396.379 528.232 396.691 527.164C397.015 526.096 397.339 525.046 397.663 524.014C397.999 522.982 398.341 521.986 398.689 521.026H401.029C401.377 521.986 401.713 522.988 402.037 524.032C402.373 525.064 402.691 526.12 402.991 527.2C403.303 528.268 403.597 529.336 403.873 530.404C404.161 531.46 404.431 532.492 404.683 533.5H402.541L401.875 530.404H397.681L397.015 533.5H394.963ZM398.113 528.748H401.479C401.311 528.028 401.137 527.326 400.957 526.642C400.777 525.958 400.585 525.304 400.381 524.68C400.189 524.044 399.997 523.438 399.805 522.862C399.613 523.45 399.415 524.062 399.211 524.698C399.019 525.334 398.827 525.988 398.635 526.66C398.455 527.332 398.281 528.028 398.113 528.748ZM408.167 533.5V531.826H410.705V522.7H408.167V521.026H415.241V522.7H412.703V531.826H415.241V533.5H408.167ZM420.202 533.5V521.026H422.2V531.826H427.798V533.5H420.202ZM446.97 533.77C446.334 533.77 445.77 533.716 445.278 533.608C444.798 533.5 444.39 533.374 444.054 533.23C443.718 533.086 443.454 532.96 443.262 532.852L443.856 531.232C444.156 531.4 444.564 531.58 445.08 531.772C445.608 531.964 446.238 532.06 446.97 532.06C447.534 532.06 447.99 531.988 448.338 531.844C448.698 531.7 448.962 531.496 449.13 531.232C449.298 530.956 449.382 530.632 449.382 530.26C449.382 529.804 449.25 529.432 448.986 529.144C448.722 528.856 448.386 528.61 447.978 528.406C447.57 528.202 447.156 528.016 446.736 527.848C446.34 527.692 445.95 527.518 445.566 527.326C445.194 527.134 444.852 526.906 444.54 526.642C444.228 526.378 443.976 526.06 443.784 525.688C443.604 525.304 443.514 524.848 443.514 524.32C443.514 523.192 443.874 522.316 444.594 521.692C445.314 521.056 446.304 520.738 447.564 520.738C448.284 520.738 448.932 520.822 449.508 520.99C450.096 521.158 450.552 521.344 450.876 521.548L450.264 523.15C449.964 522.97 449.586 522.808 449.13 522.664C448.686 522.508 448.188 522.43 447.636 522.43C447.216 522.43 446.844 522.496 446.52 522.628C446.208 522.748 445.956 522.934 445.764 523.186C445.584 523.426 445.494 523.726 445.494 524.086C445.494 524.482 445.602 524.812 445.818 525.076C446.046 525.34 446.34 525.568 446.7 525.76C447.072 525.94 447.456 526.114 447.852 526.282C448.32 526.462 448.764 526.654 449.184 526.858C449.604 527.062 449.976 527.308 450.3 527.596C450.624 527.884 450.882 528.244 451.074 528.676C451.266 529.108 451.362 529.636 451.362 530.26C451.362 531.376 450.99 532.24 450.246 532.852C449.502 533.464 448.41 533.77 446.97 533.77ZM455.747 533.5V521.026H462.983V522.7H457.745V526.102H462.317V527.776H457.745V531.826H463.415V533.5H455.747ZM467.061 533.5V521.026H468.861C469.257 521.686 469.617 522.322 469.941 522.934C470.265 523.534 470.571 524.116 470.859 524.68C471.159 525.244 471.441 525.802 471.705 526.354C471.969 526.906 472.227 527.47 472.479 528.046C472.731 528.622 472.989 529.216 473.253 529.828V521.026H475.053V533.5H473.253C472.869 532.564 472.491 531.688 472.119 530.872C471.759 530.044 471.399 529.258 471.039 528.514C470.691 527.77 470.331 527.05 469.959 526.354C469.599 525.646 469.233 524.938 468.861 524.23V533.5H467.061ZM481.939 533.5V522.7H478.573V521.026H487.285V522.7H483.919V533.5H481.939Z" fill="black"/>
</g>
<rect x="1.5" y="2" width="856" height="860" rx="10.5" stroke="black" stroke-width="3" shape-rendering="crispEdges"/>
</g>
<defs>
<filter id="filter0_d_37_15931" x="0" y="0.5" width="865" height="869" filterUnits="userSpaceOnUse" color-interpolation-filters="sRGB">
<feFlood flood-opacity="0" result="BackgroundImageFix"/>
<feColorMatrix in="SourceAlpha" type="matrix" values="0 0 0 0 0 0 0 0 0 0 0 0 0 0 0 0 0 0 127 0" result="hardAlpha"/>
<feOffset dx="6" dy="6"/>
<feComposite in2="hardAlpha" operator="out"/>
<feColorMatrix type="matrix" values="0 0 0 0 0 0 0 0 0 0 0 0 0 0 0 0 0 0 1 0"/>
<feBlend mode="normal" in2="BackgroundImageFix" result="effect1_dropShadow_37_15931"/>
<feBlend mode="normal" in="SourceGraphic" in2="effect1_dropShadow_37_15931" result="shape"/>
</filter>
<filter id="filter1_d_37_15931" x="21.5996" y="16.7998" width="27" height="21.8999" filterUnits="userSpaceOnUse" color-interpolation-filters="sRGB">
<feFlood flood-opacity="0" result="BackgroundImageFix"/>
<feColorMatrix in="SourceAlpha" type="matrix" values="0 0 0 0 0 0 0 0 0 0 0 0 0 0 0 0 0 0 127 0" result="hardAlpha"/>
<feOffset dx="0.5" dy="0.5"/>
<feComposite in2="hardAlpha" operator="out"/>
<feColorMatrix type="matrix" values="0 0 0 0 0 0 0 0 0 0 0 0 0 0 0 0 0 0 1 0"/>
<feBlend mode="normal" in2="BackgroundImageFix" result="effect1_dropShadow_37_15931"/>
<feBlend mode="normal" in="SourceGraphic" in2="effect1_dropShadow_37_15931" result="shape"/>
</filter>
<clipPath id="clip0_37_15931">
<rect y="0.5" width="859" height="863" rx="12" fill="white"/>
</clipPath>
</defs>
</svg>
