<svg width="75" height="74" viewBox="0 0 75 74" fill="none" xmlns="http://www.w3.org/2000/svg">
<path d="M38.0668 72C37.2232 72 36.5308 71.3219 36.5153 70.4717C36.4997 69.6132 37.1839 68.904 38.0409 68.8895C38.369 68.8843 38.6981 68.8729 39.0242 68.8573C39.8646 68.8221 40.6098 69.4753 40.6523 70.3327C40.6947 71.1913 40.0354 71.9212 39.1794 71.9637C38.8182 71.9824 38.458 71.9927 38.0947 72H38.0668ZM29.8569 71.1311C29.742 71.1311 29.623 71.1176 29.5061 71.0917C29.1521 71.0098 28.8002 70.9206 28.4503 70.8273C27.6223 70.6054 27.1307 69.7531 27.3511 68.9226C27.5726 68.0931 28.4214 67.6017 29.2525 67.8215C29.5682 67.9065 29.8849 67.9853 30.2047 68.0589C31.041 68.2539 31.5616 69.0885 31.3681 69.9253C31.2014 70.6438 30.5628 71.1301 29.8559 71.1301L29.8569 71.1311ZM47.2361 70.5577C46.5705 70.5577 45.9568 70.1264 45.7518 69.4566C45.5014 68.6354 45.964 67.7655 46.7837 67.5156C47.1005 67.4182 47.4141 67.3176 47.7287 67.2108C48.5423 66.937 49.422 67.3715 49.6963 68.1854C49.9716 68.9983 49.5359 69.8817 48.7234 70.1565C48.3808 70.2726 48.0361 70.3846 47.6894 70.4893C47.5383 70.536 47.3861 70.5577 47.2361 70.5577ZM21.1979 67.7769C20.9423 67.7769 20.6825 67.7137 20.4434 67.5809C20.1267 67.4047 19.8151 67.2232 19.5056 67.0387C18.7708 66.5959 18.5317 65.641 18.9716 64.9038C19.4125 64.1676 20.3657 63.9292 21.1027 64.3688C21.3832 64.5378 21.6678 64.7026 21.9535 64.8634C22.7039 65.2812 22.9719 66.2279 22.5548 66.9785C22.2712 67.4897 21.7423 67.7779 21.1969 67.7779L21.1979 67.7769ZM55.6591 66.6322C55.1509 66.6322 54.652 66.3823 54.355 65.922C53.8892 65.2014 54.0941 64.2381 54.8135 63.7715C55.0898 63.5922 55.3631 63.4086 55.6332 63.221C56.3391 62.7326 57.3058 62.9068 57.7944 63.6119C58.2839 64.318 58.109 65.2864 57.4042 65.7768C57.1061 65.9832 56.8059 66.1853 56.5016 66.3823C56.2408 66.5513 55.9489 66.6322 55.6591 66.6322ZM13.7975 62.1655C13.4 62.1655 13.0026 62.0141 12.6993 61.7103C12.4447 61.4552 12.1942 61.195 11.9458 60.9316C11.3589 60.3054 11.389 59.3214 12.0131 58.7335C12.6393 58.1456 13.6215 58.1746 14.2073 58.8009C14.433 59.0414 14.6607 59.2778 14.8936 59.5111C15.5001 60.1187 15.5001 61.1027 14.8936 61.7103C14.5903 62.0141 14.1928 62.1655 13.7954 62.1655H13.7975ZM62.6755 60.5438C62.3122 60.5438 61.949 60.4173 61.654 60.1592C61.0091 59.593 60.9439 58.6101 61.508 57.9641C61.7254 57.7163 61.9376 57.4665 62.1456 57.2114C62.69 56.5468 63.6681 56.4503 64.3305 56.9968C64.993 57.5411 65.0882 58.522 64.5448 59.1856C64.3161 59.4645 64.0821 59.7403 63.8441 60.013C63.5367 60.3645 63.1082 60.5438 62.6755 60.5438ZM8.20936 54.7406C7.66597 54.7406 7.13707 54.4544 6.85244 53.9432C6.67545 53.6249 6.50467 53.3066 6.33803 52.9831C5.94472 52.22 6.24281 51.2816 7.00563 50.8876C7.76741 50.4967 8.7041 50.7923 9.09741 51.5564C9.24853 51.8488 9.40275 52.1391 9.56318 52.4274C9.98133 53.178 9.71429 54.1247 8.96493 54.5436C8.72584 54.6773 8.46605 54.7406 8.20936 54.7406ZM67.7627 52.7675C67.5402 52.7675 67.3145 52.7198 67.1003 52.6181C66.325 52.2511 65.9938 51.3242 66.3592 50.5476C66.4989 50.251 66.6345 49.9524 66.7649 49.6507C67.1075 48.8627 68.0225 48.5039 68.8081 48.844C69.5947 49.1862 69.9549 50.1027 69.6133 50.8908C69.4684 51.2225 69.3214 51.5512 69.1672 51.8768C68.9023 52.4388 68.3444 52.7675 67.7627 52.7675ZM4.8714 46.0601C4.16241 46.0601 3.5238 45.5717 3.35923 44.8521C3.27953 44.5017 3.20398 44.1491 3.13256 43.7956C2.96385 42.9537 3.50931 42.1335 4.35078 41.9655C5.18916 41.7924 6.0089 42.343 6.17761 43.1859C6.24178 43.5104 6.31216 43.835 6.38565 44.1574C6.57816 44.9952 6.05547 45.8288 5.21917 46.0207C5.10221 46.0476 4.98526 46.0601 4.8714 46.0601ZM70.5159 43.891C70.432 43.891 70.3482 43.8848 70.2633 43.8702C69.4177 43.7313 68.8433 42.9319 68.982 42.0837C69.0358 41.7592 69.0824 41.4316 69.1258 41.105C69.2386 40.2547 70.018 39.6565 70.8698 39.7674C71.7196 39.8804 72.3168 40.6622 72.205 41.5145C72.1574 41.8743 72.1046 42.231 72.0477 42.5866C71.9235 43.3487 71.2631 43.891 70.5159 43.891ZM70.9475 38.4786C70.0905 38.4786 69.3949 37.7818 69.3949 36.9233C69.3949 36.5947 69.3897 36.2649 69.3794 35.9383C69.3515 35.0798 70.0232 34.3613 70.8802 34.3333C71.7382 34.2752 72.4545 34.9782 72.4824 35.8367C72.4948 36.1986 72.5 36.5594 72.5 36.9233C72.5 37.7818 71.8045 38.4786 70.9475 38.4786ZM4.05373 36.7979C4.02682 36.7979 3.99888 36.7979 3.97093 36.7958C3.11496 36.7502 2.45669 36.0182 2.50223 35.1607C2.52189 34.8009 2.54466 34.4432 2.57261 34.0855C2.63989 33.229 3.37061 32.5841 4.24314 32.6588C5.09807 32.7262 5.73565 33.4758 5.66734 34.3322C5.64146 34.6609 5.61973 34.9938 5.60317 35.3245C5.55969 36.154 4.87347 36.7979 4.05373 36.7979ZM69.6682 29.2693C68.9933 29.2693 68.3713 28.8245 68.1767 28.1412C68.0856 27.8229 67.9904 27.5067 67.891 27.1925C67.6312 26.3744 68.0835 25.4993 68.9012 25.2391C69.7158 24.9798 70.5914 25.433 70.8512 26.251C70.9589 26.5932 71.0644 26.9385 71.1638 27.2868C71.3998 28.1132 70.9226 28.9738 70.0977 29.2092C69.9549 29.2496 69.812 29.2693 69.6702 29.2693H69.6682ZM5.79154 27.6643C5.6249 27.6643 5.45516 27.6383 5.28852 27.5803C4.47809 27.3014 4.04545 26.418 4.32284 25.6051C4.4398 25.2629 4.56089 24.9228 4.6882 24.5858C4.99043 23.7812 5.88676 23.3748 6.68891 23.6776C7.49105 23.9803 7.89678 24.8772 7.59559 25.6818C7.47967 25.9908 7.36789 26.3008 7.26128 26.6139C7.04082 27.2588 6.4374 27.6653 5.79258 27.6653L5.79154 27.6643ZM65.9028 20.7692C65.3852 20.7692 64.8791 20.51 64.5852 20.0372C64.4113 19.7572 64.2322 19.4814 64.049 19.2067C63.5729 18.4933 63.7644 17.527 64.4765 17.049C65.1865 16.572 66.1512 16.7628 66.6304 17.4772C66.8312 17.7779 67.0268 18.0827 67.2183 18.3907C67.6716 19.1185 67.4511 20.0787 66.7225 20.5328C66.4668 20.6925 66.1843 20.7692 65.9028 20.7692ZM9.97822 19.3684C9.67185 19.3684 9.36238 19.2782 9.09224 19.0885C8.38842 18.598 8.21557 17.6286 8.70617 16.9235C8.91111 16.628 9.12122 16.3356 9.33547 16.0453C9.84574 15.3548 10.8176 15.2086 11.507 15.7218C12.1963 16.233 12.3412 17.2076 11.8299 17.8971C11.6343 18.1626 11.4417 18.4311 11.2523 18.7017C10.9511 19.1351 10.4678 19.3684 9.97822 19.3684ZM59.9482 13.6305C59.5767 13.6305 59.203 13.4978 58.906 13.2282C58.6627 13.0063 58.4154 12.7896 58.1649 12.576C57.5118 12.0203 57.4321 11.0394 57.9879 10.3841C58.5416 9.73088 59.5218 9.65001 60.1759 10.2068C60.4513 10.4411 60.7214 10.6796 60.9895 10.9212C61.625 11.4977 61.6736 12.4817 61.0982 13.1183C60.7918 13.4573 60.3695 13.6294 59.9472 13.6294L59.9482 13.6305ZM16.2795 12.5376C15.8303 12.5376 15.3862 12.3437 15.0788 11.9694C14.5354 11.3059 14.6296 10.326 15.2931 9.78065C15.5736 9.55047 15.8561 9.32548 16.1439 9.10463C16.8239 8.57998 17.7989 8.70855 18.3205 9.3908C18.8432 10.072 18.7149 11.0487 18.0349 11.5713C17.7751 11.7714 17.5184 11.9757 17.2648 12.1851C16.9771 12.4225 16.6272 12.5387 16.2805 12.5387L16.2795 12.5376ZM52.2756 8.39957C52.0438 8.39957 51.8098 8.34772 51.5883 8.23886C51.2954 8.09266 51.0015 7.95372 50.7034 7.81789C49.9219 7.46329 49.5762 6.54153 49.9302 5.75975C50.2842 4.97796 51.2075 4.63165 51.9848 4.98522C52.3149 5.13556 52.642 5.29109 52.9649 5.45076C53.7339 5.83233 54.0486 6.76549 53.6687 7.53587C53.3976 8.08333 52.8469 8.39957 52.2756 8.39957ZM24.2047 7.69347C23.6023 7.69347 23.0299 7.34094 22.7774 6.75305C22.4389 5.96297 22.8022 5.04847 23.5898 4.70942C23.9211 4.56633 24.2554 4.42843 24.5928 4.29468C25.3908 3.98051 26.2923 4.3714 26.607 5.17081C26.9216 5.97023 26.5304 6.87332 25.7324 7.18853C25.4249 7.30984 25.1196 7.43633 24.8164 7.56698C24.6166 7.65304 24.4086 7.69347 24.2047 7.69347ZM43.4665 5.48705C43.3754 5.48705 43.2833 5.47876 43.1901 5.46321C42.8662 5.40411 42.5391 5.35226 42.212 5.30249C41.3644 5.17393 40.7806 4.38177 40.9079 3.53259C41.0352 2.68445 41.8187 2.09344 42.6747 2.22616C43.0307 2.28007 43.3858 2.33814 43.7377 2.40139C44.5812 2.55277 45.1422 3.36151 44.9921 4.20654C44.8576 4.9593 44.2024 5.48705 43.4655 5.48705H43.4665ZM33.1597 5.22992C32.3917 5.22992 31.7241 4.65965 31.6227 3.87579C31.5119 3.02453 32.1112 2.24378 32.961 2.1318C33.3191 2.08515 33.6782 2.04471 34.0405 2.00946C34.8809 1.91407 35.6531 2.55173 35.7359 3.40817C35.8187 4.26253 35.1935 5.02358 34.3396 5.10653C34.0126 5.13764 33.6865 5.17393 33.3636 5.21644C33.2953 5.22577 33.2259 5.22992 33.1597 5.22992Z" fill="black"/>
</svg>
