<svg width="1281" height="838" viewBox="0 0 1281 838" fill="none" xmlns="http://www.w3.org/2000/svg">
<rect x="4" y="4" width="1277" height="834" rx="6" fill="black"/>
<g clip-path="url(#clip0_85_7693)">
<mask id="path-4-inside-1_85_7693" fill="white">
<path d="M0 0H1277V54H0V0Z"/>
</mask>
<path d="M0 0H1277V54H0V0Z" fill="#61B7F8"/>
<path d="M1277 52H0V56H1277V52Z" fill="black" mask="url(#path-4-inside-1_85_7693)"/>
<g clip-path="url(#clip1_85_7693)">
<path d="M36.624 19.6457C36.624 19.6457 38.0041 15.1678 42.8347 11.9252C42.8347 11.9252 49.461 16.9639 46.0493 30.3027" fill="#A78FFF"/>
<path d="M36.624 19.6457C36.624 19.6457 38.0041 15.1678 42.8347 11.9252C42.8347 11.9252 49.461 16.9639 46.0493 30.3027" stroke="black" stroke-linecap="round" stroke-linejoin="round"/>
<path d="M33.5001 19.6457C33.5001 19.6457 32.12 15.1678 27.2895 11.9252C27.2895 11.9252 20.6632 16.9639 24.0748 30.3027" fill="#A78FFF"/>
<path d="M33.5001 19.6457C33.5001 19.6457 32.12 15.1678 27.2895 11.9252C27.2895 11.9252 20.6632 16.9639 24.0748 30.3027" stroke="black" stroke-linecap="round" stroke-linejoin="round"/>
<path d="M47.8988 29.1464C47.8988 36.236 42.1516 36.3949 35.0615 36.3949C27.9715 36.3949 22.2246 36.236 22.2246 29.1464C22.2246 22.0567 27.9719 16.3091 35.0619 16.3091C42.1519 16.3091 47.8988 22.0564 47.8988 29.1464Z" fill="#F6F6F6" stroke="black" stroke-linecap="round" stroke-linejoin="round"/>
<g clip-path="url(#clip2_85_7693)">
<path d="M46.0989 28.8742C46.1019 28.3683 46.0697 27.8629 46.0071 27.3651C45.8357 25.9989 45.524 24.3947 44.4092 23.4653C43.3965 22.6211 42.0515 22.2374 40.7445 22.254C39.9178 22.2643 39.0818 22.4827 38.3472 22.9439C38.0766 23.1137 36.6 24.1641 36.5989 24.5393C36.6015 23.7317 36.3305 22.927 35.8603 22.3466C35.4434 21.8323 34.8314 21.4899 34.2442 21.6323C33.7018 21.764 33.2716 22.2846 33.0272 22.8779C32.7829 23.4708 32.6955 24.136 32.6111 24.7895C31.9791 23.6217 30.8883 22.8447 29.7347 22.6595C28.581 22.4743 27.3822 22.862 26.4255 23.6538C24.2325 25.468 23.5942 28.2329 24.0267 30.9865C24.4739 33.8344 26.7353 35.2826 29.4314 35.7179C31.2386 36.0098 33.0887 35.9943 34.914 35.9943C38.6179 35.9943 43.9093 36.3201 45.5243 32.1099C45.9186 31.0816 46.0926 29.9774 46.0989 28.8742Z" fill="#A78FFF"/>
</g>
<path d="M27.2539 26.5874V28.8019C27.2539 29.0841 27.502 29.3541 27.7932 29.3412C28.0843 29.3282 28.3324 29.1043 28.3324 28.8019V26.5874C28.3324 26.3052 28.0843 26.0352 27.7932 26.0482C27.502 26.0611 27.2539 26.2851 27.2539 26.5874Z" fill="black"/>
<path d="M41.7891 26.5874C41.7891 27.3255 41.7891 28.0639 41.7891 28.8019C41.7891 29.0841 42.0371 29.3541 42.3283 29.3412C42.6195 29.3282 42.8676 29.1043 42.8676 28.8019C42.8676 28.0639 42.8676 27.3255 42.8676 26.5874C42.8676 26.3052 42.6195 26.0352 42.3283 26.0482C42.0371 26.0611 41.7891 26.2851 41.7891 26.5874Z" fill="black"/>
<path d="M33.9411 29.548C34.6007 29.5495 35.2604 29.5509 35.9201 29.5524C36.2023 29.5531 36.4723 29.3039 36.4593 29.0131C36.4464 28.7205 36.2224 28.4746 35.9201 28.4739C35.2604 28.4724 34.6007 28.471 33.9411 28.4695C33.6589 28.4688 33.3889 28.718 33.4018 29.0088C33.4148 29.3014 33.6387 29.5473 33.9411 29.548Z" fill="black"/>
<path d="M31.7 31.8948C32.3331 33.1703 34.6292 33.2033 35.2838 31.9329H34.3527C35.1425 33.437 38.1814 33.4467 38.3787 31.5112C38.4082 31.2211 38.1098 30.9719 37.8395 30.9719C37.5231 30.9719 37.3301 31.2203 37.3002 31.5112C37.2589 31.9163 36.5223 31.9501 36.2343 31.9311C35.8435 31.9052 35.4704 31.7441 35.2838 31.3886C35.1005 31.0392 34.5346 31.0348 34.3527 31.3886C34.0561 31.9641 32.9129 31.9181 32.6314 31.3505C32.323 30.7285 31.3919 31.2743 31.7 31.8948Z" fill="black"/>
<circle cx="26.1488" cy="36.15" r="5.4" fill="#FF72C6" stroke="black" stroke-width="0.9"/>
<path fill-rule="evenodd" clip-rule="evenodd" d="M26.0241 32.4576C26.1033 32.7111 25.962 32.9807 25.7085 33.0599C23.8362 33.645 23.173 34.9927 23.0715 35.5001C23.0195 35.7605 22.7662 35.9294 22.5058 35.8773C22.2454 35.8252 22.0765 35.5719 22.1286 35.3115C22.2942 34.4833 23.191 32.8392 25.4217 32.1421C25.6752 32.0629 25.9449 32.2041 26.0241 32.4576Z" fill="white"/>
</g>
<path d="M65.742 34.33C64.9647 34.33 64.2753 34.264 63.674 34.132C63.0873 34 62.5887 33.846 62.178 33.67C61.7673 33.494 61.4447 33.34 61.21 33.208L61.936 31.228C62.3027 31.4333 62.8013 31.6533 63.432 31.888C64.0773 32.1227 64.8473 32.24 65.742 32.24C66.4313 32.24 66.9887 32.152 67.414 31.976C67.854 31.8 68.1767 31.5507 68.382 31.228C68.5873 30.8907 68.69 30.4947 68.69 30.04C68.69 29.4827 68.5287 29.028 68.206 28.676C67.8833 28.324 67.4727 28.0233 66.974 27.774C66.4753 27.5247 65.9693 27.2973 65.456 27.092C64.972 26.9013 64.4953 26.6887 64.026 26.454C63.5713 26.2193 63.1533 25.9407 62.772 25.618C62.3907 25.2953 62.0827 24.9067 61.848 24.452C61.628 23.9827 61.518 23.4253 61.518 22.78C61.518 21.4013 61.958 20.3307 62.838 19.568C63.718 18.7907 64.928 18.402 66.468 18.402C67.348 18.402 68.14 18.5047 68.844 18.71C69.5627 18.9153 70.12 19.1427 70.516 19.392L69.768 21.35C69.4013 21.13 68.9393 20.932 68.382 20.756C67.8393 20.5653 67.2307 20.47 66.556 20.47C66.0427 20.47 65.588 20.5507 65.192 20.712C64.8107 20.8587 64.5027 21.086 64.268 21.394C64.048 21.6873 63.938 22.054 63.938 22.494C63.938 22.978 64.07 23.3813 64.334 23.704C64.6127 24.0267 64.972 24.3053 65.412 24.54C65.8667 24.76 66.336 24.9727 66.82 25.178C67.392 25.398 67.9347 25.6327 68.448 25.882C68.9613 26.1313 69.416 26.432 69.812 26.784C70.208 27.136 70.5233 27.576 70.758 28.104C70.9927 28.632 71.11 29.2773 71.11 30.04C71.11 31.404 70.6553 32.46 69.746 33.208C68.8367 33.956 67.502 34.33 65.742 34.33ZM79.6145 34.264C78.4265 34.264 77.4952 34.0367 76.8205 33.582C76.1459 33.1273 75.6692 32.504 75.3905 31.712C75.1265 30.9053 74.9945 29.9887 74.9945 28.962V22.516H77.4365V28.522C77.4365 29.358 77.5099 30.04 77.6565 30.568C77.8179 31.096 78.0672 31.4847 78.4045 31.734C78.7565 31.9833 79.2259 32.108 79.8125 32.108C80.1499 32.108 80.4945 32.086 80.8465 32.042C81.1985 31.998 81.4552 31.9613 81.6165 31.932V22.516H84.0805V33.648C83.5819 33.7653 82.9512 33.8973 82.1885 34.044C81.4259 34.1907 80.5679 34.264 79.6145 34.264ZM88.4931 38.07V22.868C88.8304 22.7653 89.2191 22.67 89.6591 22.582C90.0991 22.494 90.5831 22.4207 91.1111 22.362C91.6391 22.2887 92.1818 22.252 92.7391 22.252C93.8831 22.252 94.8658 22.494 95.6871 22.978C96.5084 23.462 97.1391 24.1587 97.5791 25.068C98.0191 25.9627 98.2391 27.026 98.2391 28.258C98.2391 29.4313 98.0558 30.4727 97.6891 31.382C97.3224 32.2767 96.7798 32.9807 96.0611 33.494C95.3571 34.0073 94.4918 34.264 93.4651 34.264C92.9518 34.264 92.4824 34.198 92.0571 34.066C91.6318 33.9487 91.2578 33.802 90.9351 33.626V38.07H88.4931ZM93.0691 32.108C93.6998 32.108 94.2058 31.954 94.5871 31.646C94.9831 31.3233 95.2764 30.876 95.4671 30.304C95.6578 29.7173 95.7531 29.05 95.7531 28.302C95.7531 27.0847 95.4818 26.1313 94.9391 25.442C94.4111 24.738 93.6778 24.386 92.7391 24.386C92.3138 24.386 91.9471 24.408 91.6391 24.452C91.3458 24.4813 91.1111 24.518 90.9351 24.562V31.426C91.1551 31.602 91.4631 31.7633 91.8591 31.91C92.2698 32.042 92.6731 32.108 93.0691 32.108ZM107.25 34.264C105.93 34.264 104.815 34.022 103.906 33.538C102.996 33.054 102.307 32.3647 101.838 31.47C101.368 30.5607 101.134 29.5047 101.134 28.302C101.134 27.2753 101.28 26.388 101.574 25.64C101.882 24.8773 102.292 24.2467 102.806 23.748C103.334 23.2347 103.92 22.8533 104.566 22.604C105.211 22.3547 105.871 22.23 106.546 22.23C107.616 22.23 108.526 22.45 109.274 22.89C110.022 23.3153 110.586 23.968 110.968 24.848C111.364 25.7133 111.562 26.7913 111.562 28.082C111.562 28.214 111.554 28.368 111.54 28.544C111.54 28.7053 111.54 28.852 111.54 28.984H103.62C103.678 29.9813 104.038 30.7513 104.698 31.294C105.372 31.8367 106.282 32.108 107.426 32.108C108.086 32.108 108.68 32.0493 109.208 31.932C109.75 31.8 110.176 31.6753 110.484 31.558L110.814 33.626C110.447 33.7873 109.948 33.934 109.318 34.066C108.702 34.198 108.012 34.264 107.25 34.264ZM103.642 27.136H109.12C109.12 26.5933 109.024 26.1093 108.834 25.684C108.643 25.2587 108.357 24.9213 107.976 24.672C107.594 24.408 107.125 24.276 106.568 24.276C105.981 24.276 105.475 24.4153 105.05 24.694C104.639 24.9727 104.316 25.332 104.082 25.772C103.847 26.1973 103.7 26.652 103.642 27.136ZM116.106 34V23.176C116.913 22.8973 117.742 22.6773 118.592 22.516C119.443 22.3547 120.352 22.274 121.32 22.274C121.628 22.274 121.966 22.2887 122.332 22.318C122.714 22.3327 123.102 22.3693 123.498 22.428C123.894 22.472 124.276 22.5527 124.642 22.67L124.202 24.87C123.909 24.782 123.594 24.716 123.256 24.672C122.934 24.6133 122.611 24.5767 122.288 24.562C121.966 24.5327 121.665 24.518 121.386 24.518C120.902 24.518 120.426 24.5473 119.956 24.606C119.487 24.65 119.018 24.738 118.548 24.87V34H116.106ZM145.699 34.154C145.333 34.154 144.915 34.1393 144.445 34.11C143.991 34.0807 143.529 34.0367 143.059 33.978C142.605 33.9193 142.179 33.846 141.783 33.758V18.952C142.15 18.8787 142.553 18.82 142.993 18.776C143.433 18.7173 143.881 18.6733 144.335 18.644C144.79 18.6 145.208 18.578 145.589 18.578C146.499 18.578 147.298 18.6733 147.987 18.864C148.677 19.04 149.249 19.2967 149.703 19.634C150.158 19.9713 150.495 20.3893 150.715 20.888C150.935 21.372 151.045 21.9367 151.045 22.582C151.045 23.0513 150.95 23.506 150.759 23.946C150.583 24.3713 150.334 24.7527 150.011 25.09C149.689 25.4127 149.329 25.662 148.933 25.838C149.549 26.0433 150.063 26.322 150.473 26.674C150.899 27.026 151.214 27.4367 151.419 27.906C151.639 28.3753 151.749 28.9033 151.749 29.49C151.749 30.5753 151.515 31.4627 151.045 32.152C150.576 32.8413 149.894 33.3473 148.999 33.67C148.105 33.9927 147.005 34.154 145.699 34.154ZM145.897 32.064C146.484 32.064 147.034 31.998 147.547 31.866C148.075 31.7193 148.508 31.4627 148.845 31.096C149.183 30.7147 149.351 30.1793 149.351 29.49C149.351 28.874 149.205 28.3973 148.911 28.06C148.618 27.708 148.229 27.4513 147.745 27.29C147.261 27.1287 146.719 27.048 146.117 27.048H144.225V31.976C144.328 31.9907 144.533 32.0127 144.841 32.042C145.149 32.0567 145.501 32.064 145.897 32.064ZM144.225 25.024H145.655C146.198 25.024 146.689 24.9507 147.129 24.804C147.584 24.6573 147.951 24.4227 148.229 24.1C148.508 23.7773 148.647 23.352 148.647 22.824C148.647 22.2667 148.515 21.834 148.251 21.526C147.987 21.218 147.643 21.0053 147.217 20.888C146.807 20.756 146.352 20.69 145.853 20.69C145.516 20.69 145.201 20.6973 144.907 20.712C144.629 20.7267 144.401 20.7487 144.225 20.778V25.024ZM160.078 34.264C158.89 34.264 157.958 34.0367 157.284 33.582C156.609 33.1273 156.132 32.504 155.854 31.712C155.59 30.9053 155.458 29.9887 155.458 28.962V22.516H157.9V28.522C157.9 29.358 157.973 30.04 158.12 30.568C158.281 31.096 158.53 31.4847 158.868 31.734C159.22 31.9833 159.689 32.108 160.276 32.108C160.613 32.108 160.958 32.086 161.31 32.042C161.662 31.998 161.918 31.9613 162.08 31.932V22.516H164.544V33.648C164.045 33.7653 163.414 33.8973 162.652 34.044C161.889 34.1907 161.031 34.264 160.078 34.264ZM173.202 34.264C172.645 34.264 172.102 34.2347 171.574 34.176C171.046 34.1173 170.555 34.044 170.1 33.956C169.66 33.8533 169.272 33.7507 168.934 33.648V17.324L171.398 16.906V22.868C171.721 22.692 172.095 22.5453 172.52 22.428C172.96 22.3107 173.43 22.252 173.928 22.252C174.955 22.252 175.82 22.5087 176.524 23.022C177.243 23.5207 177.786 24.2173 178.152 25.112C178.534 26.0067 178.724 27.0553 178.724 28.258C178.724 29.49 178.497 30.5533 178.042 31.448C177.602 32.3427 176.972 33.0393 176.15 33.538C175.329 34.022 174.346 34.264 173.202 34.264ZM173.026 32.152C174.024 32.152 174.801 31.8367 175.358 31.206C175.93 30.5607 176.216 29.5633 176.216 28.214C176.216 27.4513 176.121 26.784 175.93 26.212C175.754 25.64 175.468 25.1927 175.072 24.87C174.676 24.5473 174.163 24.386 173.532 24.386C173.136 24.386 172.733 24.4593 172.322 24.606C171.926 24.7527 171.618 24.914 171.398 25.09V31.932C171.677 32.0053 171.956 32.064 172.234 32.108C172.528 32.1373 172.792 32.152 173.026 32.152ZM186.613 34.264C186.056 34.264 185.513 34.2347 184.985 34.176C184.457 34.1173 183.966 34.044 183.511 33.956C183.071 33.8533 182.682 33.7507 182.345 33.648V17.324L184.809 16.906V22.868C185.132 22.692 185.506 22.5453 185.931 22.428C186.371 22.3107 186.84 22.252 187.339 22.252C188.366 22.252 189.231 22.5087 189.935 23.022C190.654 23.5207 191.196 24.2173 191.563 25.112C191.944 26.0067 192.135 27.0553 192.135 28.258C192.135 29.49 191.908 30.5533 191.453 31.448C191.013 32.3427 190.382 33.0393 189.561 33.538C188.74 34.022 187.757 34.264 186.613 34.264ZM186.437 32.152C187.434 32.152 188.212 31.8367 188.769 31.206C189.341 30.5607 189.627 29.5633 189.627 28.214C189.627 27.4513 189.532 26.784 189.341 26.212C189.165 25.64 188.879 25.1927 188.483 24.87C188.087 24.5473 187.574 24.386 186.943 24.386C186.547 24.386 186.144 24.4593 185.733 24.606C185.337 24.7527 185.029 24.914 184.809 25.09V31.932C185.088 32.0053 185.366 32.064 185.645 32.108C185.938 32.1373 186.202 32.152 186.437 32.152ZM202.333 34.264C201.395 34.264 200.647 34.088 200.089 33.736C199.532 33.3693 199.129 32.834 198.879 32.13C198.645 31.426 198.527 30.5533 198.527 29.512V19.106H195.249V17.038H200.947V29.622C200.947 30.2673 201.013 30.7733 201.145 31.14C201.292 31.5067 201.497 31.7633 201.761 31.91C202.025 32.042 202.341 32.108 202.707 32.108C203.25 32.108 203.727 32.042 204.137 31.91C204.548 31.7633 204.849 31.646 205.039 31.558L205.369 33.582C205.208 33.67 204.856 33.8093 204.313 34C203.785 34.176 203.125 34.264 202.333 34.264ZM214.534 34.264C213.214 34.264 212.099 34.022 211.19 33.538C210.281 33.054 209.591 32.3647 209.122 31.47C208.653 30.5607 208.418 29.5047 208.418 28.302C208.418 27.2753 208.565 26.388 208.858 25.64C209.166 24.8773 209.577 24.2467 210.09 23.748C210.618 23.2347 211.205 22.8533 211.85 22.604C212.495 22.3547 213.155 22.23 213.83 22.23C214.901 22.23 215.81 22.45 216.558 22.89C217.306 23.3153 217.871 23.968 218.252 24.848C218.648 25.7133 218.846 26.7913 218.846 28.082C218.846 28.214 218.839 28.368 218.824 28.544C218.824 28.7053 218.824 28.852 218.824 28.984H210.904C210.963 29.9813 211.322 30.7513 211.982 31.294C212.657 31.8367 213.566 32.108 214.71 32.108C215.37 32.108 215.964 32.0493 216.492 31.932C217.035 31.8 217.46 31.6753 217.768 31.558L218.098 33.626C217.731 33.7873 217.233 33.934 216.602 34.066C215.986 34.198 215.297 34.264 214.534 34.264ZM210.926 27.136H216.404C216.404 26.5933 216.309 26.1093 216.118 25.684C215.927 25.2587 215.641 24.9213 215.26 24.672C214.879 24.408 214.409 24.276 213.852 24.276C213.265 24.276 212.759 24.4153 212.334 24.694C211.923 24.9727 211.601 25.332 211.366 25.772C211.131 26.1973 210.985 26.652 210.926 27.136ZM241.707 34.33C240.416 34.33 239.287 34.0367 238.319 33.45C237.366 32.8487 236.618 31.9613 236.075 30.788C235.547 29.6 235.283 28.126 235.283 26.366C235.283 24.65 235.576 23.2053 236.163 22.032C236.75 20.844 237.542 19.942 238.539 19.326C239.536 18.71 240.644 18.402 241.861 18.402C242.404 18.402 242.91 18.4533 243.379 18.556C243.848 18.6587 244.274 18.7907 244.655 18.952C245.036 19.1133 245.381 19.2893 245.689 19.48L245.007 21.46C244.523 21.1667 244.017 20.9467 243.489 20.8C242.976 20.6387 242.44 20.558 241.883 20.558C241.12 20.558 240.424 20.7707 239.793 21.196C239.162 21.6213 238.664 22.2667 238.297 23.132C237.945 23.9827 237.769 25.046 237.769 26.322C237.769 27.6127 237.93 28.6907 238.253 29.556C238.59 30.4213 239.074 31.074 239.705 31.514C240.35 31.954 241.106 32.174 241.971 32.174C242.572 32.174 243.137 32.1007 243.665 31.954C244.193 31.8073 244.684 31.6093 245.139 31.36L245.755 33.318C245.256 33.6113 244.662 33.8533 243.973 34.044C243.298 34.2347 242.543 34.33 241.707 34.33ZM253.93 34.264C253.27 34.264 252.639 34.2053 252.038 34.088C251.451 33.9707 250.93 33.7727 250.476 33.494C250.036 33.2153 249.684 32.834 249.42 32.35C249.17 31.866 249.046 31.2647 249.046 30.546C249.046 29.6513 249.273 28.9473 249.728 28.434C250.197 27.906 250.798 27.532 251.532 27.312C252.28 27.0773 253.057 26.96 253.864 26.96C254.289 26.96 254.685 26.982 255.052 27.026C255.433 27.07 255.785 27.1287 256.108 27.202V26.718C256.108 26.2927 256.027 25.8967 255.866 25.53C255.719 25.1633 255.455 24.8627 255.074 24.628C254.707 24.3933 254.186 24.276 253.512 24.276C252.866 24.276 252.28 24.3273 251.752 24.43C251.224 24.518 250.806 24.6207 250.498 24.738L250.19 22.736C250.498 22.604 250.982 22.4867 251.642 22.384C252.316 22.2813 253.028 22.23 253.776 22.23C254.964 22.23 255.895 22.4207 256.57 22.802C257.259 23.1687 257.75 23.6893 258.044 24.364C258.337 25.0387 258.484 25.8233 258.484 26.718V33.78C258.014 33.868 257.369 33.9707 256.548 34.088C255.741 34.2053 254.868 34.264 253.93 34.264ZM253.996 32.24C254.421 32.24 254.817 32.2327 255.184 32.218C255.565 32.1887 255.873 32.152 256.108 32.108V29.028C255.888 28.9693 255.609 28.918 255.272 28.874C254.934 28.83 254.597 28.808 254.26 28.808C253.805 28.808 253.358 28.8593 252.918 28.962C252.492 29.05 252.148 29.2187 251.884 29.468C251.62 29.7027 251.488 30.04 251.488 30.48C251.488 31.14 251.715 31.602 252.17 31.866C252.624 32.1153 253.233 32.24 253.996 32.24ZM269.21 34.264C268.169 34.264 267.333 34.1173 266.702 33.824C266.072 33.5307 265.617 33.0467 265.338 32.372C265.074 31.6827 264.942 30.7733 264.942 29.644V24.54H262.434V22.516H264.942V19.414L267.384 19.018V22.516H272.224V24.54H267.384V29.622C267.384 30.2967 267.458 30.8173 267.604 31.184C267.751 31.536 267.978 31.778 268.286 31.91C268.609 32.042 269.005 32.108 269.474 32.108C270.046 32.108 270.523 32.064 270.904 31.976C271.286 31.8733 271.696 31.7267 272.136 31.536L272.466 33.626C272.114 33.7873 271.652 33.934 271.08 34.066C270.508 34.198 269.885 34.264 269.21 34.264Z" fill="black"/>
<rect x="1238" y="13" width="28" height="28" rx="14" fill="#FF72C6"/>
<rect x="1238" y="13" width="28" height="28" rx="14" stroke="black" stroke-width="2"/>
<path d="M1258 22.7143L1256.29 21L1252 25.2857L1247.71 21L1246 22.7143L1250.29 27L1246 31.2857L1247.71 33L1252 28.7143L1256.29 33L1258 31.2857L1253.71 27L1258 22.7143Z" fill="black"/>
<rect width="1277" height="780" transform="translate(0 54)" fill="#FFE993"/>
</g>
<rect x="1.5" y="1.5" width="1274" height="831" rx="10.5" stroke="black" stroke-width="3"/>
<defs>
<clipPath id="clip0_85_7693">
<rect width="1277" height="834" rx="12" fill="white"/>
</clipPath>
<clipPath id="clip1_85_7693">
<rect width="30" height="30" fill="white" transform="translate(20 12)"/>
</clipPath>
<clipPath id="clip2_85_7693">
<rect width="22.2" height="14.4" fill="white" transform="translate(23.8994 21.5999)"/>
</clipPath>
</defs>
</svg>
