<svg width="76" height="193" viewBox="0 0 76 193" fill="none" xmlns="http://www.w3.org/2000/svg">
<path d="M42.1002 133.258C43.2332 135.751 43.6062 138.79 43.9242 141.207C44.5922 146.283 45.1252 150.734 47.0432 155.583C48.4942 159.252 50.4232 162.89 53.5502 165.296C55.6182 166.887 58.1232 167.87 60.0722 169.605C65.0712 174.057 64.5902 182.917 59.6202 187.401C54.6502 191.885 46.4972 191.833 41.0432 187.95C37.2642 185.26 34.7572 181.14 32.8022 176.933C26.6722 163.74 25.0672 148.494 28.3152 134.313C29.3182 129.932 34.8272 127.067 39.0072 129.563C40.4302 130.413 41.4072 131.733 42.1002 133.258Z" fill="#A78FFF" stroke="black" stroke-width="3" stroke-linecap="round" stroke-linejoin="round"/>
<path d="M73.86 110.412C73.86 128.954 57.774 136.329 37.93 136.329C18.086 136.329 2 128.954 2 110.412C2 91.87 18.086 66.236 37.93 66.236C57.774 66.236 73.86 91.87 73.86 110.412Z" fill="#F6F6F6" stroke="black" stroke-width="3" stroke-linecap="round" stroke-linejoin="round"/>
<path d="M42.9023 22.976C42.9023 22.976 46.7413 10.52 60.1783 1.5C60.1783 1.5 78.6103 15.516 69.1203 52.62" fill="#A78FFF"/>
<path d="M42.9023 22.976C42.9023 22.976 46.7413 10.52 60.1783 1.5C60.1783 1.5 78.6103 15.516 69.1203 52.62" stroke="black" stroke-width="3" stroke-linecap="round" stroke-linejoin="round"/>
<path d="M34.2142 22.976C34.2142 22.976 30.3752 10.52 16.9382 1.5C16.9382 1.5 -1.4938 15.516 7.9962 52.62" fill="#A78FFF"/>
<path d="M34.2142 22.976C34.2142 22.976 30.3752 10.52 16.9382 1.5C16.9382 1.5 -1.4938 15.516 7.9962 52.62" stroke="black" stroke-width="3" stroke-linecap="round" stroke-linejoin="round"/>
<path d="M74.2661 49.404C74.2661 69.125 58.2791 69.567 38.5571 69.567C18.8351 69.567 2.84814 69.125 2.84814 49.404C2.84814 29.683 18.8371 13.695 38.5581 13.695C58.2791 13.695 74.2661 29.682 74.2661 49.404Z" fill="#F6F6F6" stroke="black" stroke-width="3" stroke-linecap="round" stroke-linejoin="round"/>
<path d="M68.7682 49.396C68.7762 48.025 68.6892 46.655 68.5202 45.306C68.0572 41.603 67.2152 37.255 64.2042 34.736C61.4692 32.448 57.8362 31.408 54.3062 31.453C52.0732 31.481 49.8152 32.073 47.8312 33.323C47.1002 33.783 43.1122 36.63 43.1092 37.647C43.1162 35.458 42.3842 33.277 41.1142 31.704C39.9882 30.31 38.3352 29.382 36.7492 29.768C35.2842 30.125 34.1222 31.536 33.4622 33.144C32.8022 34.751 32.5662 36.554 32.3382 38.325C30.6312 35.16 27.6852 33.054 24.5692 32.552C21.4542 32.049 18.2152 33.101 15.6312 35.247C9.70921 40.165 7.98421 47.659 9.15221 55.122C10.3602 62.841 16.4682 66.766 23.7502 67.946C28.6312 68.737 33.6282 68.695 38.5582 68.695C48.5622 68.695 62.8542 69.578 67.2162 58.167C68.2812 55.38 68.7512 52.386 68.7682 49.396Z" fill="#A78FFF"/>
<path d="M16.8413 42.286V48.446C16.8413 49.231 17.5313 49.982 18.3413 49.946C19.1513 49.91 19.8413 49.287 19.8413 48.446V42.286C19.8413 41.501 19.1513 40.75 18.3413 40.786C17.5313 40.822 16.8413 41.445 16.8413 42.286Z" fill="black"/>
<path d="M57.2754 42.286C57.2754 44.339 57.2754 46.393 57.2754 48.446C57.2754 49.231 57.9654 49.982 58.7754 49.946C59.5854 49.91 60.2754 49.287 60.2754 48.446C60.2754 46.393 60.2754 44.339 60.2754 42.286C60.2754 41.501 59.5854 40.75 58.7754 40.786C57.9654 40.822 57.2754 41.445 57.2754 42.286Z" fill="black"/>
<path d="M35.4412 50.521C37.2762 50.525 39.1112 50.529 40.9462 50.533C41.7312 50.535 42.4822 49.842 42.4462 49.033C42.4102 48.219 41.7872 47.535 40.9462 47.533C39.1112 47.529 37.2762 47.525 35.4412 47.521C34.6562 47.519 33.9052 48.212 33.9412 49.021C33.9772 49.835 34.6002 50.519 35.4412 50.521Z" fill="black"/>
<path d="M29.2072 57.049C30.9682 60.597 37.3552 60.689 39.1762 57.155H36.5862C38.7832 61.339 47.2362 61.366 47.7852 55.982C47.8672 55.175 47.0372 54.482 46.2852 54.482C45.4052 54.482 44.8682 55.173 44.7852 55.982C44.6702 57.109 42.6212 57.203 41.8202 57.15C40.7332 57.078 39.6952 56.63 39.1762 55.641C38.6662 54.669 37.0922 54.657 36.5862 55.641C35.7612 57.242 32.5812 57.114 31.7982 55.535C30.9402 53.805 28.3502 55.323 29.2072 57.049Z" fill="black"/>
</svg>
