<svg width="1920" height="1080" viewBox="0 0 1920 1080" fill="none" xmlns="http://www.w3.org/2000/svg">
<g clip-path="url(#clip0_8_2450)">
<rect width="1920" height="1080" transform="matrix(-1 0 0 1 1920 0)" fill="url(#paint0_linear_8_2450)"/>
<path d="M1920 1080L1920 2.80738e-05" stroke="#7268FF"/>
<path d="M1880 1080L1880 2.80738e-05" stroke="#7268FF"/>
<path d="M1840 1080L1840 2.80738e-05" stroke="#7268FF"/>
<path d="M1800 1080L1800 2.80738e-05" stroke="#7268FF"/>
<path d="M1760 1080L1760 2.80738e-05" stroke="#7268FF"/>
<path d="M1720 1080L1720 2.80738e-05" stroke="#7268FF"/>
<path d="M1680 1080L1680 2.80738e-05" stroke="#7268FF"/>
<path d="M1640 1080L1640 2.80738e-05" stroke="#7268FF"/>
<path d="M1600 1080L1600 2.80738e-05" stroke="#7268FF"/>
<path d="M1560 1080L1560 2.80738e-05" stroke="#7268FF"/>
<path d="M1520 1080L1520 2.80738e-05" stroke="#7268FF"/>
<path d="M1480 1080L1480 2.80738e-05" stroke="#7268FF"/>
<path d="M1440 1080L1440 0" stroke="#7268FF"/>
<path d="M1400 1080L1400 0" stroke="#7268FF"/>
<path d="M1360 1080L1360 0" stroke="#7268FF"/>
<path d="M1320 1080L1320 0" stroke="#7268FF"/>
<path d="M1280 1080L1280 0" stroke="#7268FF"/>
<path d="M1240 1080L1240 0" stroke="#7268FF"/>
<path d="M1200 1080L1200 0" stroke="#7268FF"/>
<path d="M1160 1080L1160 0" stroke="#7268FF"/>
<path d="M1120 1080L1120 0" stroke="#7268FF"/>
<path d="M1080 1080L1080 0" stroke="#7268FF"/>
<path d="M1040 1080L1040 0" stroke="#7268FF"/>
<path d="M1000 1080L1000 0" stroke="#7268FF"/>
<path d="M960 1080L960 0" stroke="#7268FF"/>
<path d="M920 1080L920 0" stroke="#7268FF"/>
<path d="M880 1080L880 0" stroke="#7268FF"/>
<path d="M840 1080L840 0" stroke="#7268FF"/>
<path d="M800 1080L800 0" stroke="#7268FF"/>
<path d="M760 1080L760 0" stroke="#7268FF"/>
<path d="M720 1080L720 2.80738e-05" stroke="#7268FF"/>
<path d="M680 1080L680 2.80738e-05" stroke="#7268FF"/>
<path d="M640 1080L640 2.80738e-05" stroke="#7268FF"/>
<path d="M600 1080L600 2.80738e-05" stroke="#7268FF"/>
<path d="M560 1080L560 2.80738e-05" stroke="#7268FF"/>
<path d="M520 1080L520 2.80738e-05" stroke="#7268FF"/>
<path d="M480 1080L480 2.80738e-05" stroke="#7268FF"/>
<path d="M440 1080L440 2.80738e-05" stroke="#7268FF"/>
<path d="M400 1080L400 2.80738e-05" stroke="#7268FF"/>
<path d="M360 1080L360 2.80738e-05" stroke="#7268FF"/>
<path d="M320 1080L320 2.80738e-05" stroke="#7268FF"/>
<path d="M280 1080L280 2.80738e-05" stroke="#7268FF"/>
<path d="M240 1080L240 2.80738e-05" stroke="#7268FF"/>
<path d="M200 1080L200 2.80738e-05" stroke="#7268FF"/>
<path d="M160 1080L160 2.80738e-05" stroke="#7268FF"/>
<path d="M120 1080L120 2.80738e-05" stroke="#7268FF"/>
<path d="M80 1080L80 2.80738e-05" stroke="#7268FF"/>
<path d="M40 1080L40 2.80738e-05" stroke="#7268FF"/>
<path d="M0 1080L1.28789e-05 2.80738e-05" stroke="#7268FF"/>
<path d="M1920 0H1.055e-05" stroke="#7268FF"/>
<path d="M1920 40H1.055e-05" stroke="#7268FF"/>
<path d="M1920 80H1.055e-05" stroke="#7268FF"/>
<path d="M1920 120H1.055e-05" stroke="#7268FF"/>
<path d="M1920 160H1.055e-05" stroke="#7268FF"/>
<path d="M1920 200H1.055e-05" stroke="#7268FF"/>
<path d="M1920 240H1.055e-05" stroke="#7268FF"/>
<path d="M1920 280H1.055e-05" stroke="#7268FF"/>
<path d="M1920 320H1.055e-05" stroke="#7268FF"/>
<path d="M1920 360H1.055e-05" stroke="#7268FF"/>
<path d="M1920 400H1.055e-05" stroke="#7268FF"/>
<path d="M1920 440H1.055e-05" stroke="#7268FF"/>
<path d="M1920 480H1.055e-05" stroke="#7268FF"/>
<path d="M1920 520H1.055e-05" stroke="#7268FF"/>
<path d="M1920 560H1.055e-05" stroke="#7268FF"/>
<path d="M1920 600H1.055e-05" stroke="#7268FF"/>
<path d="M1920 640H1.055e-05" stroke="#7268FF"/>
<path d="M1920 680H1.055e-05" stroke="#7268FF"/>
<path d="M1920 720H1.055e-05" stroke="#7268FF"/>
<path d="M1920 760H1.055e-05" stroke="#7268FF"/>
<path d="M1920 800H1.055e-05" stroke="#7268FF"/>
<path d="M1920 840H1.055e-05" stroke="#7268FF"/>
<path d="M1920 880H1.055e-05" stroke="#7268FF"/>
<path d="M1920 920H1.055e-05" stroke="#7268FF"/>
<path d="M1920 960H1.055e-05" stroke="#7268FF"/>
<path d="M1920 1000H1.055e-05" stroke="#7268FF"/>
<path d="M1920 1040H1.055e-05" stroke="#7268FF"/>
<path d="M1920 1080H1.055e-05" stroke="#7268FF"/>
</g>
<defs>
<linearGradient id="paint0_linear_8_2450" x1="960" y1="0" x2="960" y2="1080" gradientUnits="userSpaceOnUse">
<stop offset="0.59" stop-color="#C08FFC"/>
<stop offset="1" stop-color="#AC8FFC"/>
</linearGradient>
<clipPath id="clip0_8_2450">
<rect width="1920" height="1080" fill="white" transform="matrix(-1 0 0 1 1920 0)"/>
</clipPath>
</defs>
</svg>
