<svg width="141" height="437" viewBox="0 0 141 437" fill="none" xmlns="http://www.w3.org/2000/svg">
<g filter="url(#filter0_d_11_1173)">
<path d="M14.4786 92.5895H124.479V379.589C124.479 409.965 99.8543 434.589 69.4786 434.589C39.103 434.589 14.4786 409.965 14.4786 379.589V92.5895Z" fill="black" shape-rendering="crispEdges"/>
<path d="M15.9786 94.0895H122.979V379.589C122.979 409.137 99.0259 433.089 69.4786 433.089C39.9314 433.089 15.9786 409.137 15.9786 379.589V94.0895Z" stroke="black" stroke-width="3" shape-rendering="crispEdges"/>
<circle cx="69.4786" cy="207.589" r="33.5" fill="#4F4556" stroke="#889AAB" stroke-width="3"/>
<circle cx="69.4786" cy="290.589" r="33.5" fill="#4F4556" stroke="#889AAB" stroke-width="3"/>
<circle cx="69.4786" cy="373.589" r="33.5" fill="#4F4556" stroke="#889AAB" stroke-width="3"/>
</g>
<g filter="url(#filter1_d_11_1173)">
<path d="M67.8342 18.5743C104.194 18.5743 133.668 47.9319 133.668 84.1468C133.668 120.362 104.194 127.863 67.8342 127.863C31.4747 127.863 2 120.362 2 84.1468C2 47.9319 31.4761 18.5743 67.8342 18.5743Z" fill="#FF72C6" stroke="black" stroke-width="3"/>
<path d="M111.167 53.3764C125.41 53.3764 136.957 41.8754 136.957 27.6882C136.957 13.501 125.41 2 111.167 2C96.9229 2 85.376 13.501 85.376 27.6882C85.376 41.8754 96.9229 53.3764 111.167 53.3764Z" fill="#65FBE2" stroke="black" stroke-width="3"/>
<path d="M96.2842 28.1329C96.0765 28.1329 95.8634 28.1139 95.6516 28.0747C93.8096 27.7313 92.5974 25.9521 92.9409 24.1161C93.5707 20.7617 99.5596 11.6262 108.315 9.16012C110.12 8.64906 111.993 9.69687 112.504 11.4923C113.014 13.2892 111.966 15.1563 110.162 15.6646C104.24 17.333 99.9668 23.9511 99.6071 25.3883C99.3017 27.0107 97.8818 28.1329 96.2842 28.1329Z" fill="white"/>
<path d="M117.593 91.7599C120.666 80.4016 115.66 69.1818 106.412 66.6997C97.164 64.2176 87.176 71.4132 84.1031 82.7714C81.0302 94.1297 86.0361 105.35 95.2841 107.832C104.532 110.314 114.52 103.118 117.593 91.7599Z" fill="black"/>
<path d="M40.3876 107.832C49.6355 105.35 54.6414 94.1299 51.5686 82.7716C48.4957 71.4133 38.5077 64.2178 29.2597 66.6999C20.0117 69.182 15.0058 80.4018 18.0787 91.7601C21.1516 103.118 31.1396 110.314 40.3876 107.832Z" fill="black"/>
<path d="M55.4902 121.157V134.294C55.4902 141.084 49.9629 146.59 43.146 146.59C36.3291 146.59 30.8018 141.084 30.8018 134.294V121.157" fill="#FF72C6"/>
<path d="M55.4902 121.157V134.294C55.4902 141.084 49.9629 146.59 43.146 146.59C36.3291 146.59 30.8018 141.084 30.8018 134.294V121.157" stroke="black" stroke-width="3" stroke-linecap="round" stroke-linejoin="round"/>
<path d="M80.1789 121.157V134.294C80.1789 141.084 74.6515 146.59 67.8346 146.59C61.0177 146.59 55.4904 141.084 55.4904 134.294V121.157" fill="#FF72C6"/>
<path d="M80.1789 121.157V134.294C80.1789 141.084 74.6515 146.59 67.8346 146.59C61.0177 146.59 55.4904 141.084 55.4904 134.294V121.157" stroke="black" stroke-width="3" stroke-linecap="round" stroke-linejoin="round"/>
<path d="M104.867 121.157V134.294C104.867 141.084 99.34 146.59 92.5231 146.59C85.7062 146.59 80.1788 141.084 80.1788 134.294V121.157" fill="#FF72C6"/>
<path d="M104.867 121.157V134.294C104.867 141.084 99.34 146.59 92.5231 146.59C85.7062 146.59 80.1788 141.084 80.1788 134.294V121.157" stroke="black" stroke-width="3" stroke-linecap="round" stroke-linejoin="round"/>
<path d="M63.6171 105.527C64.5944 105.527 65.489 105.219 66.279 104.611C67.035 104.028 67.54 103.286 67.8359 102.745C68.1332 103.284 68.6368 104.027 69.3929 104.611C70.1815 105.219 71.0774 105.527 72.0547 105.527C74.7804 105.527 76.8355 103.307 76.8355 100.361C76.8355 97.1801 74.2714 95.0034 70.3892 91.7085C69.7295 91.1488 68.9829 90.5147 68.2065 89.8387C68.1047 89.7495 67.973 89.7008 67.8359 89.7008C67.6988 89.7008 67.5685 89.7495 67.4653 89.8387C66.6889 90.5147 65.941 91.1502 65.2813 91.7099C61.3991 95.0047 58.835 97.1815 58.835 100.363C58.835 103.307 60.8901 105.529 63.6157 105.529L63.6171 105.527Z" fill="black"/>
<path d="M34.7085 134.665C35.0628 136.168 35.9112 137.594 37.0284 138.66C38.1455 139.725 39.583 140.547 41.1128 140.838C41.6585 140.942 42.1892 140.92 42.6819 140.634C43.1041 140.388 43.5072 139.905 43.6172 139.422C43.7353 138.903 43.7109 138.32 43.4122 137.859C43.138 137.436 42.7118 137.025 42.196 136.928C41.7738 136.848 41.3639 136.724 40.9675 136.56L41.4535 136.764C40.9485 136.548 40.4762 136.272 40.0391 135.941L40.4517 136.259C39.9984 135.907 39.5939 135.504 39.2409 135.051L39.5599 135.462C39.2273 135.027 38.9518 134.556 38.7373 134.052L38.9423 134.536C38.8161 134.228 38.7129 133.913 38.6369 133.588C38.3925 132.556 37.1519 131.843 36.1325 132.172C35.0506 132.52 34.4493 133.559 34.7099 134.666L34.7085 134.665Z" fill="white"/>
<path d="M60.8902 134.665C61.2445 136.168 62.0928 137.594 63.21 138.66C64.3271 139.725 65.7646 140.547 67.2944 140.838C67.8401 140.942 68.3709 140.92 68.8636 140.634C69.2857 140.388 69.6889 139.905 69.7988 139.422C69.9169 138.903 69.8925 138.32 69.5939 137.859C69.3197 137.436 68.8934 137.025 68.3776 136.928C67.9555 136.848 67.5455 136.724 67.1492 136.56L67.6351 136.764C67.1302 136.548 66.6578 136.272 66.2207 135.941L66.6334 136.259C66.18 135.907 65.7755 135.504 65.4226 135.051L65.7416 135.462C65.409 135.027 65.1334 134.556 64.919 134.052L65.1239 134.536C64.9977 134.228 64.8945 133.913 64.8185 133.588C64.5742 132.556 63.3335 131.843 62.3141 132.172C61.2322 132.52 60.6309 133.559 60.8915 134.666L60.8902 134.665Z" fill="white"/>
<path d="M24.5473 57.4256C23.8605 57.4256 23.1642 57.2512 22.5275 56.8875C20.581 55.7748 19.9023 53.3087 21.014 51.3659C21.5027 50.5128 33.2687 30.4286 58.3142 27.7125C60.5498 27.4732 62.5601 29.0793 62.8045 31.3061C63.0488 33.5315 61.4321 35.5338 59.1978 35.7772C38.3834 38.0337 28.1838 55.2218 28.0834 55.3949C27.3287 56.6968 25.9577 57.4269 24.5487 57.4269L24.5473 57.4256Z" fill="white"/>
</g>
<defs>
<filter id="filter0_d_11_1173" x="14.4786" y="92.5895" width="112" height="344" filterUnits="userSpaceOnUse" color-interpolation-filters="sRGB">
<feFlood flood-opacity="0" result="BackgroundImageFix"/>
<feColorMatrix in="SourceAlpha" type="matrix" values="0 0 0 0 0 0 0 0 0 0 0 0 0 0 0 0 0 0 127 0" result="hardAlpha"/>
<feOffset dx="2" dy="2"/>
<feComposite in2="hardAlpha" operator="out"/>
<feColorMatrix type="matrix" values="0 0 0 0 0 0 0 0 0 0 0 0 0 0 0 0 0 0 1 0"/>
<feBlend mode="normal" in2="BackgroundImageFix" result="effect1_dropShadow_11_1173"/>
<feBlend mode="normal" in="SourceGraphic" in2="effect1_dropShadow_11_1173" result="shape"/>
</filter>
<filter id="filter1_d_11_1173" x="0.5" y="0.5" width="139.957" height="149.589" filterUnits="userSpaceOnUse" color-interpolation-filters="sRGB">
<feFlood flood-opacity="0" result="BackgroundImageFix"/>
<feColorMatrix in="SourceAlpha" type="matrix" values="0 0 0 0 0 0 0 0 0 0 0 0 0 0 0 0 0 0 127 0" result="hardAlpha"/>
<feOffset dx="2" dy="2"/>
<feComposite in2="hardAlpha" operator="out"/>
<feColorMatrix type="matrix" values="0 0 0 0 0 0 0 0 0 0 0 0 0 0 0 0 0 0 1 0"/>
<feBlend mode="normal" in2="BackgroundImageFix" result="effect1_dropShadow_11_1173"/>
<feBlend mode="normal" in="SourceGraphic" in2="effect1_dropShadow_11_1173" result="shape"/>
</filter>
</defs>
</svg>
