<svg width="174" height="57" viewBox="0 0 174 57" fill="none" xmlns="http://www.w3.org/2000/svg">
<g filter="url(#filter0_d_37_15760)">
<rect y="0.5" width="172" height="54" rx="6" fill="#26A9C1" shape-rendering="crispEdges"/>
<rect x="1" y="1.5" width="170" height="52" rx="5" stroke="black" stroke-width="2" shape-rendering="crispEdges"/>
<path d="M67.8535 33.77C67.2175 33.77 66.6535 33.716 66.1615 33.608C65.6815 33.5 65.2735 33.374 64.9375 33.23C64.6015 33.086 64.3375 32.96 64.1455 32.852L64.7395 31.232C65.0395 31.4 65.4475 31.58 65.9635 31.772C66.4915 31.964 67.1215 32.06 67.8535 32.06C68.4175 32.06 68.8735 31.988 69.2215 31.844C69.5815 31.7 69.8455 31.496 70.0135 31.232C70.1815 30.956 70.2655 30.632 70.2655 30.26C70.2655 29.804 70.1335 29.432 69.8695 29.144C69.6055 28.856 69.2695 28.61 68.8615 28.406C68.4535 28.202 68.0395 28.016 67.6195 27.848C67.2235 27.692 66.8335 27.518 66.4495 27.326C66.0775 27.134 65.7355 26.906 65.4235 26.642C65.1115 26.378 64.8595 26.06 64.6675 25.688C64.4875 25.304 64.3975 24.848 64.3975 24.32C64.3975 23.192 64.7575 22.316 65.4775 21.692C66.1975 21.056 67.1875 20.738 68.4475 20.738C69.1675 20.738 69.8155 20.822 70.3915 20.99C70.9795 21.158 71.4355 21.344 71.7595 21.548L71.1475 23.15C70.8475 22.97 70.4695 22.808 70.0135 22.664C69.5695 22.508 69.0715 22.43 68.5195 22.43C68.0995 22.43 67.7275 22.496 67.4035 22.628C67.0915 22.748 66.8395 22.934 66.6475 23.186C66.4675 23.426 66.3775 23.726 66.3775 24.086C66.3775 24.482 66.4855 24.812 66.7015 25.076C66.9295 25.34 67.2235 25.568 67.5835 25.76C67.9555 25.94 68.3395 26.114 68.7355 26.282C69.2035 26.462 69.6475 26.654 70.0675 26.858C70.4875 27.062 70.8595 27.308 71.1835 27.596C71.5075 27.884 71.7655 28.244 71.9575 28.676C72.1495 29.108 72.2455 29.636 72.2455 30.26C72.2455 31.376 71.8735 32.24 71.1295 32.852C70.3855 33.464 69.2935 33.77 67.8535 33.77ZM76.6297 33.5V21.026H83.8657V22.7H78.6277V26.102H83.1997V27.776H78.6277V31.826H84.2977V33.5H76.6297ZM87.944 33.5V21.026H89.744C90.14 21.686 90.5 22.322 90.824 22.934C91.148 23.534 91.454 24.116 91.742 24.68C92.042 25.244 92.324 25.802 92.588 26.354C92.852 26.906 93.11 27.47 93.362 28.046C93.614 28.622 93.872 29.216 94.136 29.828V21.026H95.936V33.5H94.136C93.752 32.564 93.374 31.688 93.002 30.872C92.642 30.044 92.282 29.258 91.922 28.514C91.574 27.77 91.214 27.05 90.842 26.354C90.482 25.646 90.116 24.938 89.744 24.23V33.5H87.944ZM102.426 33.626C102.006 33.626 101.586 33.602 101.166 33.554C100.746 33.506 100.308 33.428 99.8523 33.32V21.188C100.344 21.08 100.812 21.002 101.256 20.954C101.712 20.906 102.15 20.882 102.57 20.882C103.662 20.882 104.628 21.098 105.468 21.53C106.308 21.962 106.962 22.646 107.43 23.582C107.91 24.506 108.15 25.73 108.15 27.254C108.15 28.802 107.904 30.044 107.412 30.98C106.92 31.904 106.242 32.576 105.378 32.996C104.514 33.416 103.53 33.626 102.426 33.626ZM102.642 31.898C103.434 31.898 104.082 31.724 104.586 31.376C105.102 31.028 105.486 30.512 105.738 29.828C105.99 29.132 106.116 28.274 106.116 27.254C106.116 26.294 105.996 25.472 105.756 24.788C105.528 24.092 105.162 23.558 104.658 23.186C104.166 22.814 103.524 22.628 102.732 22.628C102.576 22.628 102.42 22.634 102.264 22.646C102.12 22.646 101.982 22.658 101.85 22.682V31.844C101.97 31.868 102.102 31.886 102.246 31.898C102.39 31.898 102.522 31.898 102.642 31.898Z" fill="black"/>
</g>
<defs>
<filter id="filter0_d_37_15760" x="0" y="0.5" width="174" height="56" filterUnits="userSpaceOnUse" color-interpolation-filters="sRGB">
<feFlood flood-opacity="0" result="BackgroundImageFix"/>
<feColorMatrix in="SourceAlpha" type="matrix" values="0 0 0 0 0 0 0 0 0 0 0 0 0 0 0 0 0 0 127 0" result="hardAlpha"/>
<feOffset dx="2" dy="2"/>
<feComposite in2="hardAlpha" operator="out"/>
<feColorMatrix type="matrix" values="0 0 0 0 0 0 0 0 0 0 0 0 0 0 0 0 0 0 1 0"/>
<feBlend mode="normal" in2="BackgroundImageFix" result="effect1_dropShadow_37_15760"/>
<feBlend mode="normal" in="SourceGraphic" in2="effect1_dropShadow_37_15760" result="shape"/>
</filter>
</defs>
</svg>
