<svg width="1920" height="1080" viewBox="0 0 1920 1080" fill="none" xmlns="http://www.w3.org/2000/svg">
<rect width="1920" height="1080" transform="matrix(-1 0 0 1 1920 0)" fill="#61B7F8"/>
<path d="M854.96 635.688C854.798 634.266 854.652 632.711 854.52 631.024C854.388 629.323 854.278 627.57 854.19 625.766C854.102 623.962 854.028 622.188 853.97 620.442H856.28C856.294 621.806 856.302 623.192 856.302 624.6C856.316 625.994 856.324 627.387 856.324 628.78C856.338 630.159 856.353 631.501 856.368 632.806C856.544 632.249 856.72 631.677 856.896 631.09C857.086 630.489 857.27 629.895 857.446 629.308C857.622 628.707 857.79 628.135 857.952 627.592C858.128 627.035 858.296 626.522 858.458 626.052H860.394C860.687 627.006 861.01 628.062 861.362 629.22C861.728 630.364 862.095 631.56 862.462 632.806C862.491 631.516 862.506 630.181 862.506 628.802C862.52 627.409 862.535 626.008 862.55 624.6C862.564 623.192 862.572 621.806 862.572 620.442H864.882C864.823 622.202 864.742 623.984 864.64 625.788C864.537 627.592 864.427 629.338 864.31 631.024C864.192 632.711 864.046 634.266 863.87 635.688H861.736C861.354 634.515 860.973 633.312 860.592 632.08C860.21 630.834 859.822 629.624 859.426 628.45C859.176 629.213 858.92 630.005 858.656 630.826C858.392 631.648 858.128 632.469 857.864 633.29C857.614 634.112 857.365 634.911 857.116 635.688H854.96ZM873.694 635.952C872.374 635.952 871.26 635.71 870.35 635.226C869.441 634.742 868.752 634.053 868.282 633.158C867.813 632.249 867.578 631.193 867.578 629.99C867.578 628.964 867.725 628.076 868.018 627.328C868.326 626.566 868.737 625.935 869.25 625.436C869.778 624.923 870.365 624.542 871.01 624.292C871.656 624.043 872.316 623.918 872.99 623.918C874.061 623.918 874.97 624.138 875.718 624.578C876.466 625.004 877.031 625.656 877.412 626.536C877.808 627.402 878.006 628.48 878.006 629.77C878.006 629.902 877.999 630.056 877.984 630.232C877.984 630.394 877.984 630.54 877.984 630.672H870.064C870.123 631.67 870.482 632.44 871.142 632.982C871.817 633.525 872.726 633.796 873.87 633.796C874.53 633.796 875.124 633.738 875.652 633.62C876.195 633.488 876.62 633.364 876.928 633.246L877.258 635.314C876.892 635.476 876.393 635.622 875.762 635.754C875.146 635.886 874.457 635.952 873.694 635.952ZM870.086 628.824H875.564C875.564 628.282 875.469 627.798 875.278 627.372C875.088 626.947 874.802 626.61 874.42 626.36C874.039 626.096 873.57 625.964 873.012 625.964C872.426 625.964 871.92 626.104 871.494 626.382C871.084 626.661 870.761 627.02 870.526 627.46C870.292 627.886 870.145 628.34 870.086 628.824ZM888.315 635.952C887.376 635.952 886.628 635.776 886.071 635.424C885.513 635.058 885.11 634.522 884.861 633.818C884.626 633.114 884.509 632.242 884.509 631.2V620.794H881.231V618.726H886.929V631.31C886.929 631.956 886.995 632.462 887.127 632.828C887.273 633.195 887.479 633.452 887.743 633.598C888.007 633.73 888.322 633.796 888.689 633.796C889.231 633.796 889.708 633.73 890.119 633.598C890.529 633.452 890.83 633.334 891.021 633.246L891.351 635.27C891.189 635.358 890.837 635.498 890.295 635.688C889.767 635.864 889.107 635.952 888.315 635.952ZM901.065 635.952C899.701 635.952 898.543 635.71 897.589 635.226C896.636 634.742 895.91 634.053 895.411 633.158C894.913 632.264 894.663 631.193 894.663 629.946C894.663 629.008 894.81 628.164 895.103 627.416C895.411 626.654 895.844 626.016 896.401 625.502C896.973 624.989 897.655 624.6 898.447 624.336C899.239 624.058 900.127 623.918 901.109 623.918C901.711 623.918 902.29 623.962 902.847 624.05C903.405 624.124 903.977 624.27 904.563 624.49L904.035 626.514C903.581 626.353 903.133 626.236 902.693 626.162C902.268 626.089 901.791 626.052 901.263 626.052C900.413 626.052 899.679 626.199 899.063 626.492C898.447 626.786 897.971 627.218 897.633 627.79C897.311 628.362 897.149 629.081 897.149 629.946C897.149 630.812 897.311 631.53 897.633 632.102C897.971 632.66 898.455 633.085 899.085 633.378C899.716 633.657 900.486 633.796 901.395 633.796C901.894 633.796 902.393 633.767 902.891 633.708C903.405 633.65 903.911 633.525 904.409 633.334L904.761 635.38C904.424 635.498 904.065 635.6 903.683 635.688C903.317 635.776 902.913 635.842 902.473 635.886C902.033 635.93 901.564 635.952 901.065 635.952ZM913.068 635.974C912.026 635.974 911.11 635.725 910.318 635.226C909.526 634.713 908.902 634.002 908.448 633.092C908.008 632.183 907.788 631.127 907.788 629.924C907.788 628.722 908.015 627.673 908.47 626.778C908.924 625.869 909.548 625.165 910.34 624.666C911.132 624.168 912.041 623.918 913.068 623.918C914.109 623.918 915.026 624.168 915.818 624.666C916.61 625.165 917.233 625.869 917.688 626.778C918.142 627.673 918.37 628.722 918.37 629.924C918.37 631.127 918.142 632.183 917.688 633.092C917.248 634.002 916.624 634.713 915.818 635.226C915.026 635.725 914.109 635.974 913.068 635.974ZM913.046 633.818C913.632 633.818 914.138 633.664 914.564 633.356C914.989 633.034 915.312 632.586 915.532 632.014C915.752 631.428 915.862 630.738 915.862 629.946C915.862 629.154 915.752 628.465 915.532 627.878C915.312 627.292 914.989 626.844 914.564 626.536C914.153 626.214 913.654 626.052 913.068 626.052C912.496 626.052 911.997 626.214 911.572 626.536C911.146 626.844 910.824 627.292 910.604 627.878C910.384 628.465 910.274 629.154 910.274 629.946C910.274 630.738 910.384 631.428 910.604 632.014C910.824 632.586 911.139 633.034 911.55 633.356C911.96 633.664 912.459 633.818 913.046 633.818ZM921.198 635.688V624.556C921.756 624.366 922.298 624.226 922.826 624.138C923.369 624.036 923.86 623.984 924.3 623.984C924.77 623.984 925.195 624.05 925.576 624.182C925.958 624.3 926.288 624.498 926.566 624.776C926.874 624.556 927.219 624.373 927.6 624.226C927.982 624.065 928.37 623.984 928.766 623.984C929.441 623.984 929.998 624.138 930.438 624.446C930.893 624.74 931.238 625.187 931.472 625.788C931.707 626.39 931.824 627.138 931.824 628.032V635.688H929.734V627.966C929.734 627.482 929.676 627.101 929.558 626.822C929.456 626.529 929.309 626.324 929.118 626.206C928.928 626.074 928.722 626.008 928.502 626.008C928.326 626.008 928.136 626.045 927.93 626.118C927.74 626.192 927.564 626.302 927.402 626.448C927.461 626.683 927.505 626.94 927.534 627.218C927.564 627.497 927.578 627.798 927.578 628.12V631.288H925.466V627.988C925.466 627.328 925.378 626.837 925.202 626.514C925.026 626.177 924.711 626.008 924.256 626.008C924.139 626.008 923.992 626.023 923.816 626.052C923.655 626.082 923.486 626.126 923.31 626.184V635.688H921.198ZM940.747 635.952C939.427 635.952 938.312 635.71 937.403 635.226C936.494 634.742 935.804 634.053 935.335 633.158C934.866 632.249 934.631 631.193 934.631 629.99C934.631 628.964 934.778 628.076 935.071 627.328C935.379 626.566 935.79 625.935 936.303 625.436C936.831 624.923 937.418 624.542 938.063 624.292C938.708 624.043 939.368 623.918 940.043 623.918C941.114 623.918 942.023 624.138 942.771 624.578C943.519 625.004 944.084 625.656 944.465 626.536C944.861 627.402 945.059 628.48 945.059 629.77C945.059 629.902 945.052 630.056 945.037 630.232C945.037 630.394 945.037 630.54 945.037 630.672H937.117C937.176 631.67 937.535 632.44 938.195 632.982C938.87 633.525 939.779 633.796 940.923 633.796C941.583 633.796 942.177 633.738 942.705 633.62C943.248 633.488 943.673 633.364 943.981 633.246L944.311 635.314C943.944 635.476 943.446 635.622 942.815 635.754C942.199 635.886 941.51 635.952 940.747 635.952ZM937.139 628.824H942.617C942.617 628.282 942.522 627.798 942.331 627.372C942.14 626.947 941.854 626.61 941.473 626.36C941.092 626.096 940.622 625.964 940.065 625.964C939.478 625.964 938.972 626.104 938.547 626.382C938.136 626.661 937.814 627.02 937.579 627.46C937.344 627.886 937.198 628.34 937.139 628.824ZM966.468 635.952C965.911 635.952 965.368 635.923 964.84 635.864C964.312 635.806 963.821 635.732 963.366 635.644C962.926 635.542 962.537 635.439 962.2 635.336V619.012L964.664 618.594V624.556C964.987 624.38 965.361 624.234 965.786 624.116C966.226 623.999 966.695 623.94 967.194 623.94C968.221 623.94 969.086 624.197 969.79 624.71C970.509 625.209 971.051 625.906 971.418 626.8C971.799 627.695 971.99 628.744 971.99 629.946C971.99 631.178 971.763 632.242 971.308 633.136C970.868 634.031 970.237 634.728 969.416 635.226C968.595 635.71 967.612 635.952 966.468 635.952ZM966.292 633.84C967.289 633.84 968.067 633.525 968.624 632.894C969.196 632.249 969.482 631.252 969.482 629.902C969.482 629.14 969.387 628.472 969.196 627.9C969.02 627.328 968.734 626.881 968.338 626.558C967.942 626.236 967.429 626.074 966.798 626.074C966.402 626.074 965.999 626.148 965.588 626.294C965.192 626.441 964.884 626.602 964.664 626.778V633.62C964.943 633.694 965.221 633.752 965.5 633.796C965.793 633.826 966.057 633.84 966.292 633.84ZM980.143 635.952C979.483 635.952 978.852 635.894 978.251 635.776C977.664 635.659 977.143 635.461 976.689 635.182C976.249 634.904 975.897 634.522 975.633 634.038C975.383 633.554 975.259 632.953 975.259 632.234C975.259 631.34 975.486 630.636 975.941 630.122C976.41 629.594 977.011 629.22 977.745 629C978.493 628.766 979.27 628.648 980.077 628.648C980.502 628.648 980.898 628.67 981.265 628.714C981.646 628.758 981.998 628.817 982.321 628.89V628.406C982.321 627.981 982.24 627.585 982.079 627.218C981.932 626.852 981.668 626.551 981.287 626.316C980.92 626.082 980.399 625.964 979.725 625.964C979.079 625.964 978.493 626.016 977.965 626.118C977.437 626.206 977.019 626.309 976.711 626.426L976.403 624.424C976.711 624.292 977.195 624.175 977.855 624.072C978.529 623.97 979.241 623.918 979.989 623.918C981.177 623.918 982.108 624.109 982.783 624.49C983.472 624.857 983.963 625.378 984.257 626.052C984.55 626.727 984.697 627.512 984.697 628.406V635.468C984.227 635.556 983.582 635.659 982.761 635.776C981.954 635.894 981.081 635.952 980.143 635.952ZM980.209 633.928C980.634 633.928 981.03 633.921 981.397 633.906C981.778 633.877 982.086 633.84 982.321 633.796V630.716C982.101 630.658 981.822 630.606 981.485 630.562C981.147 630.518 980.81 630.496 980.473 630.496C980.018 630.496 979.571 630.548 979.131 630.65C978.705 630.738 978.361 630.907 978.097 631.156C977.833 631.391 977.701 631.728 977.701 632.168C977.701 632.828 977.928 633.29 978.383 633.554C978.837 633.804 979.446 633.928 980.209 633.928ZM994.939 635.952C993.575 635.952 992.416 635.71 991.463 635.226C990.51 634.742 989.784 634.053 989.285 633.158C988.786 632.264 988.537 631.193 988.537 629.946C988.537 629.008 988.684 628.164 988.977 627.416C989.285 626.654 989.718 626.016 990.275 625.502C990.847 624.989 991.529 624.6 992.321 624.336C993.113 624.058 994 623.918 994.983 623.918C995.584 623.918 996.164 623.962 996.721 624.05C997.278 624.124 997.85 624.27 998.437 624.49L997.909 626.514C997.454 626.353 997.007 626.236 996.567 626.162C996.142 626.089 995.665 626.052 995.137 626.052C994.286 626.052 993.553 626.199 992.937 626.492C992.321 626.786 991.844 627.218 991.507 627.79C991.184 628.362 991.023 629.081 991.023 629.946C991.023 630.812 991.184 631.53 991.507 632.102C991.844 632.66 992.328 633.085 992.959 633.378C993.59 633.657 994.36 633.796 995.269 633.796C995.768 633.796 996.266 633.767 996.765 633.708C997.278 633.65 997.784 633.525 998.283 633.334L998.635 635.38C998.298 635.498 997.938 635.6 997.557 635.688C997.19 635.776 996.787 635.842 996.347 635.886C995.907 635.93 995.438 635.952 994.939 635.952ZM1002.45 635.688V619.012L1004.9 618.594V628.912C1005.42 628.399 1005.95 627.886 1006.48 627.372C1007.01 626.844 1007.51 626.309 1008 625.766C1008.48 625.224 1008.92 624.703 1009.32 624.204H1012.2C1011.77 624.732 1011.27 625.297 1010.68 625.898C1010.11 626.485 1009.52 627.072 1008.9 627.658C1008.3 628.245 1007.71 628.795 1007.14 629.308C1007.56 629.675 1008.03 630.122 1008.55 630.65C1009.08 631.164 1009.6 631.714 1010.13 632.3C1010.66 632.887 1011.14 633.474 1011.58 634.06C1012.02 634.647 1012.38 635.19 1012.64 635.688H1009.8C1009.54 635.204 1009.21 634.706 1008.81 634.192C1008.42 633.679 1007.98 633.173 1007.51 632.674C1007.06 632.161 1006.6 631.692 1006.15 631.266C1005.69 630.841 1005.28 630.489 1004.9 630.21V635.688H1002.45ZM1018 639.318L1017.62 637.58C1018.02 637.492 1018.41 637.404 1018.79 637.316C1019.17 637.228 1019.52 637.074 1019.82 636.854C1020.13 636.649 1020.37 636.341 1020.53 635.93C1019.96 635.872 1019.52 635.652 1019.23 635.27C1018.95 634.874 1018.81 634.471 1018.81 634.06C1018.81 633.415 1019.01 632.909 1019.41 632.542C1019.82 632.161 1020.29 631.97 1020.81 631.97C1021.46 631.97 1021.95 632.198 1022.29 632.652C1022.63 633.092 1022.79 633.657 1022.79 634.346C1022.79 635.021 1022.63 635.718 1022.29 636.436C1021.97 637.155 1021.45 637.778 1020.75 638.306C1020.04 638.834 1019.13 639.172 1018 639.318ZM1042.29 635.688V620.442H1044.49C1044.97 621.249 1045.41 622.026 1045.81 622.774C1046.21 623.508 1046.58 624.219 1046.93 624.908C1047.3 625.598 1047.64 626.28 1047.97 626.954C1048.29 627.629 1048.6 628.318 1048.91 629.022C1049.22 629.726 1049.53 630.452 1049.86 631.2V620.442H1052.06V635.688H1049.86C1049.39 634.544 1048.93 633.474 1048.47 632.476C1048.03 631.464 1047.59 630.504 1047.15 629.594C1046.73 628.685 1046.29 627.805 1045.83 626.954C1045.39 626.089 1044.94 625.224 1044.49 624.358V635.688H1042.29ZM1056.03 635.688V620.64C1056.44 620.538 1056.89 620.464 1057.37 620.42C1057.86 620.362 1058.34 620.325 1058.82 620.31C1059.31 620.281 1059.73 620.266 1060.1 620.266C1061.36 620.266 1062.41 620.457 1063.25 620.838C1064.1 621.22 1064.73 621.77 1065.16 622.488C1065.6 623.207 1065.82 624.094 1065.82 625.15C1065.82 626.837 1065.32 628.106 1064.32 628.956C1063.33 629.792 1061.87 630.21 1059.97 630.21H1058.47V635.688H1056.03ZM1058.47 628.12H1059.97C1060.72 628.12 1061.34 628.025 1061.84 627.834C1062.34 627.629 1062.7 627.314 1062.94 626.888C1063.19 626.448 1063.31 625.884 1063.31 625.194C1063.31 624.241 1063.05 623.537 1062.52 623.082C1062.01 622.628 1061.28 622.4 1060.34 622.4C1060.02 622.4 1059.67 622.408 1059.31 622.422C1058.94 622.422 1058.66 622.437 1058.47 622.466V628.12Z" fill="black"/>
<rect x="-1" y="1" width="398" height="74" rx="5" transform="matrix(-1 0 0 1 1158 671.688)" fill="white"/>
<rect x="-1" y="1" width="398" height="74" rx="5" transform="matrix(-1 0 0 1 1158 671.688)" stroke="black" stroke-width="2"/>
<path d="M896.002 713.898C895.062 713.898 894.242 713.678 893.542 713.238C892.862 712.778 892.342 712.188 891.982 711.468C891.622 710.728 891.442 709.938 891.442 709.098C891.442 708.238 891.622 707.448 891.982 706.728C892.342 706.008 892.862 705.428 893.542 704.988C894.242 704.528 895.062 704.298 896.002 704.298C896.942 704.298 897.752 704.528 898.432 704.988C899.112 705.428 899.632 706.008 899.992 706.728C900.372 707.448 900.562 708.238 900.562 709.098C900.562 709.938 900.372 710.728 899.992 711.468C899.632 712.188 899.112 712.778 898.432 713.238C897.752 713.678 896.942 713.898 896.002 713.898ZM914.289 713.898C913.349 713.898 912.529 713.678 911.829 713.238C911.149 712.778 910.629 712.188 910.269 711.468C909.909 710.728 909.729 709.938 909.729 709.098C909.729 708.238 909.909 707.448 910.269 706.728C910.629 706.008 911.149 705.428 911.829 704.988C912.529 704.528 913.349 704.298 914.289 704.298C915.229 704.298 916.039 704.528 916.719 704.988C917.399 705.428 917.919 706.008 918.279 706.728C918.659 707.448 918.849 708.238 918.849 709.098C918.849 709.938 918.659 710.728 918.279 711.468C917.919 712.188 917.399 712.778 916.719 713.238C916.039 713.678 915.229 713.898 914.289 713.898ZM932.576 713.898C931.636 713.898 930.816 713.678 930.116 713.238C929.436 712.778 928.916 712.188 928.556 711.468C928.196 710.728 928.016 709.938 928.016 709.098C928.016 708.238 928.196 707.448 928.556 706.728C928.916 706.008 929.436 705.428 930.116 704.988C930.816 704.528 931.636 704.298 932.576 704.298C933.516 704.298 934.326 704.528 935.006 704.988C935.686 705.428 936.206 706.008 936.566 706.728C936.946 707.448 937.136 708.238 937.136 709.098C937.136 709.938 936.946 710.728 936.566 711.468C936.206 712.188 935.686 712.778 935.006 713.238C934.326 713.678 933.516 713.898 932.576 713.898ZM950.863 713.898C949.923 713.898 949.103 713.678 948.403 713.238C947.723 712.778 947.203 712.188 946.843 711.468C946.483 710.728 946.303 709.938 946.303 709.098C946.303 708.238 946.483 707.448 946.843 706.728C947.203 706.008 947.723 705.428 948.403 704.988C949.103 704.528 949.923 704.298 950.863 704.298C951.803 704.298 952.613 704.528 953.293 704.988C953.973 705.428 954.493 706.008 954.853 706.728C955.233 707.448 955.423 708.238 955.423 709.098C955.423 709.938 955.233 710.728 954.853 711.468C954.493 712.188 953.973 712.778 953.293 713.238C952.613 713.678 951.803 713.898 950.863 713.898ZM969.15 713.898C968.21 713.898 967.39 713.678 966.69 713.238C966.01 712.778 965.49 712.188 965.13 711.468C964.77 710.728 964.59 709.938 964.59 709.098C964.59 708.238 964.77 707.448 965.13 706.728C965.49 706.008 966.01 705.428 966.69 704.988C967.39 704.528 968.21 704.298 969.15 704.298C970.09 704.298 970.9 704.528 971.58 704.988C972.26 705.428 972.78 706.008 973.14 706.728C973.52 707.448 973.71 708.238 973.71 709.098C973.71 709.938 973.52 710.728 973.14 711.468C972.78 712.188 972.26 712.778 971.58 713.238C970.9 713.678 970.09 713.898 969.15 713.898ZM987.437 713.898C986.497 713.898 985.677 713.678 984.977 713.238C984.297 712.778 983.777 712.188 983.417 711.468C983.057 710.728 982.877 709.938 982.877 709.098C982.877 708.238 983.057 707.448 983.417 706.728C983.777 706.008 984.297 705.428 984.977 704.988C985.677 704.528 986.497 704.298 987.437 704.298C988.377 704.298 989.187 704.528 989.867 704.988C990.547 705.428 991.067 706.008 991.427 706.728C991.807 707.448 991.997 708.238 991.997 709.098C991.997 709.938 991.807 710.728 991.427 711.468C991.067 712.188 990.547 712.778 989.867 713.238C989.187 713.678 988.377 713.898 987.437 713.898ZM1005.72 713.898C1004.78 713.898 1003.96 713.678 1003.26 713.238C1002.58 712.778 1002.06 712.188 1001.7 711.468C1001.34 710.728 1001.16 709.938 1001.16 709.098C1001.16 708.238 1001.34 707.448 1001.7 706.728C1002.06 706.008 1002.58 705.428 1003.26 704.988C1003.96 704.528 1004.78 704.298 1005.72 704.298C1006.66 704.298 1007.47 704.528 1008.15 704.988C1008.83 705.428 1009.35 706.008 1009.71 706.728C1010.09 707.448 1010.28 708.238 1010.28 709.098C1010.28 709.938 1010.09 710.728 1009.71 711.468C1009.35 712.188 1008.83 712.778 1008.15 713.238C1007.47 713.678 1006.66 713.898 1005.72 713.898ZM1024.01 713.898C1023.07 713.898 1022.25 713.678 1021.55 713.238C1020.87 712.778 1020.35 712.188 1019.99 711.468C1019.63 710.728 1019.45 709.938 1019.45 709.098C1019.45 708.238 1019.63 707.448 1019.99 706.728C1020.35 706.008 1020.87 705.428 1021.55 704.988C1022.25 704.528 1023.07 704.298 1024.01 704.298C1024.95 704.298 1025.76 704.528 1026.44 704.988C1027.12 705.428 1027.64 706.008 1028 706.728C1028.38 707.448 1028.57 708.238 1028.57 709.098C1028.57 709.938 1028.38 710.728 1028 711.468C1027.64 712.188 1027.12 712.778 1026.44 713.238C1025.76 713.678 1024.95 713.898 1024.01 713.898Z" fill="black"/>
<g filter="url(#filter0_d_30_3240)">
<rect x="760" y="777.688" width="400" height="54" rx="6" fill="#65FBE2" shape-rendering="crispEdges"/>
<rect x="761" y="778.688" width="398" height="52" rx="5" stroke="black" stroke-width="2" shape-rendering="crispEdges"/>
<path d="M926.957 810.688V798.214H928.955V809.014H934.553V810.688H926.957ZM942.213 810.958C941.289 810.958 940.491 810.724 939.819 810.256C939.147 809.776 938.625 809.056 938.253 808.096C937.893 807.124 937.713 805.906 937.713 804.442C937.713 802.978 937.899 801.766 938.271 800.806C938.643 799.834 939.159 799.114 939.819 798.646C940.491 798.166 941.283 797.926 942.195 797.926C943.119 797.926 943.917 798.166 944.589 798.646C945.261 799.114 945.777 799.834 946.137 800.806C946.509 801.766 946.695 802.978 946.695 804.442C946.695 805.906 946.509 807.124 946.137 808.096C945.765 809.056 945.243 809.776 944.571 810.256C943.899 810.724 943.113 810.958 942.213 810.958ZM942.177 809.23C942.777 809.23 943.257 809.032 943.617 808.636C943.977 808.24 944.241 807.682 944.409 806.962C944.577 806.242 944.661 805.402 944.661 804.442C944.661 803.458 944.577 802.612 944.409 801.904C944.253 801.184 943.989 800.632 943.617 800.248C943.257 799.852 942.777 799.654 942.177 799.654C941.577 799.654 941.103 799.852 940.755 800.248C940.407 800.644 940.155 801.196 939.999 801.904C939.843 802.612 939.765 803.458 939.765 804.442C939.765 805.414 939.837 806.26 939.981 806.98C940.137 807.688 940.389 808.24 940.737 808.636C941.097 809.032 941.577 809.23 942.177 809.23ZM954.86 810.958C953.84 810.958 952.952 810.712 952.196 810.22C951.44 809.716 950.852 808.978 950.432 808.006C950.012 807.034 949.802 805.846 949.802 804.442C949.802 803.038 950.036 801.85 950.504 800.878C950.972 799.906 951.602 799.174 952.394 798.682C953.186 798.178 954.068 797.926 955.04 797.926C955.664 797.926 956.192 797.986 956.624 798.106C957.056 798.214 957.404 798.34 957.668 798.484C957.944 798.616 958.136 798.724 958.244 798.808L957.668 800.428C957.356 800.212 956.984 800.032 956.552 799.888C956.132 799.732 955.694 799.654 955.238 799.654C954.518 799.654 953.9 799.852 953.384 800.248C952.88 800.644 952.496 801.202 952.232 801.922C951.968 802.642 951.836 803.482 951.836 804.442C951.836 805.426 951.956 806.278 952.196 806.998C952.436 807.706 952.796 808.252 953.276 808.636C953.756 809.02 954.344 809.212 955.04 809.212C955.328 809.212 955.574 809.188 955.778 809.14C955.982 809.092 956.144 809.056 956.264 809.032V804.37H958.244V810.382C957.98 810.49 957.548 810.61 956.948 810.742C956.36 810.886 955.664 810.958 954.86 810.958ZM974.284 810.688V809.014H976.822V799.888H974.284V798.214H981.358V799.888H978.82V809.014H981.358V810.688H974.284ZM985.689 810.688V798.214H987.489C987.885 798.874 988.245 799.51 988.569 800.122C988.893 800.722 989.199 801.304 989.487 801.868C989.787 802.432 990.069 802.99 990.333 803.542C990.597 804.094 990.855 804.658 991.107 805.234C991.359 805.81 991.617 806.404 991.881 807.016V798.214H993.681V810.688H991.881C991.497 809.752 991.119 808.876 990.747 808.06C990.387 807.232 990.027 806.446 989.667 805.702C989.319 804.958 988.959 804.238 988.587 803.542C988.227 802.834 987.861 802.126 987.489 801.418V810.688H985.689Z" fill="black"/>
</g>
<path d="M919.5 318.688C939.011 318.688 954.829 302.934 954.829 283.5C954.829 264.066 939.011 248.312 919.5 248.312C899.989 248.312 884.171 264.066 884.171 283.5C884.171 302.934 899.989 318.688 919.5 318.688Z" fill="#FF72C6" stroke="black" stroke-width="3"/>
<path d="M899.114 284.109C898.829 284.109 898.537 284.083 898.247 284.03C895.724 283.559 894.064 281.122 894.534 278.607C895.397 274.012 903.601 261.498 915.594 258.12C918.067 257.42 920.633 258.855 921.332 261.315C922.031 263.776 920.595 266.334 918.124 267.03C910.012 269.315 904.158 278.381 903.666 280.35C903.247 282.572 901.302 284.109 899.114 284.109Z" fill="white"/>
<path d="M1000.5 318.688C1020.01 318.688 1035.83 302.934 1035.83 283.5C1035.83 264.066 1020.01 248.312 1000.5 248.312C980.989 248.312 965.171 264.066 965.171 283.5C965.171 302.934 980.989 318.688 1000.5 318.688Z" fill="#65FBE2" stroke="black" stroke-width="3"/>
<path d="M980.114 284.109C979.829 284.109 979.537 284.083 979.247 284.03C976.724 283.559 975.064 281.122 975.534 278.607C976.397 274.012 984.601 261.498 996.594 258.12C999.067 257.42 1001.63 258.855 1002.33 261.315C1003.03 263.776 1001.6 266.334 999.124 267.03C991.012 269.315 985.158 278.381 984.666 280.35C984.247 282.572 982.302 284.109 980.114 284.109Z" fill="white"/>
<path d="M919.5 398.688C939.011 398.688 954.829 382.934 954.829 363.5C954.829 344.066 939.011 328.312 919.5 328.312C899.989 328.312 884.171 344.066 884.171 363.5C884.171 382.934 899.989 398.688 919.5 398.688Z" fill="#61B7F8" stroke="black" stroke-width="3"/>
<path d="M899.114 364.109C898.829 364.109 898.537 364.083 898.247 364.03C895.724 363.559 894.064 361.122 894.534 358.607C895.397 354.012 903.601 341.498 915.594 338.12C918.067 337.42 920.633 338.855 921.332 341.315C922.031 343.776 920.595 346.334 918.124 347.03C910.012 349.315 904.158 358.381 903.666 360.35C903.247 362.572 901.302 364.109 899.114 364.109Z" fill="white"/>
<path d="M1000.5 398.688C1020.01 398.688 1035.83 382.934 1035.83 363.5C1035.83 344.066 1020.01 328.312 1000.5 328.312C980.989 328.312 965.171 344.066 965.171 363.5C965.171 382.934 980.989 398.688 1000.5 398.688Z" fill="#FFE993" stroke="black" stroke-width="3"/>
<path d="M980.114 364.109C979.829 364.109 979.537 364.083 979.247 364.03C976.724 363.559 975.064 361.122 975.534 358.607C976.397 354.012 984.601 341.498 996.594 338.12C999.067 337.42 1001.63 338.855 1002.33 341.315C1003.03 343.776 1001.6 346.334 999.124 347.03C991.012 349.315 985.158 358.381 984.666 360.35C984.247 362.572 982.302 364.109 980.114 364.109Z" fill="white"/>
<path d="M842.486 483.038C841.653 483.038 840.703 483.005 839.636 482.938C838.603 482.872 837.553 482.772 836.486 482.638C835.453 482.505 834.486 482.338 833.586 482.138V448.488C834.419 448.322 835.336 448.188 836.336 448.088C837.336 447.955 838.353 447.855 839.386 447.788C840.419 447.688 841.369 447.638 842.236 447.638C844.303 447.638 846.119 447.855 847.686 448.288C849.253 448.688 850.553 449.272 851.586 450.038C852.619 450.805 853.386 451.755 853.886 452.888C854.386 453.988 854.636 455.272 854.636 456.738C854.636 457.805 854.419 458.838 853.986 459.838C853.586 460.805 853.019 461.672 852.286 462.438C851.553 463.172 850.736 463.738 849.836 464.138C851.236 464.605 852.403 465.238 853.336 466.038C854.303 466.838 855.019 467.772 855.486 468.838C855.986 469.905 856.236 471.105 856.236 472.438C856.236 474.905 855.703 476.922 854.636 478.488C853.569 480.055 852.019 481.205 849.986 481.938C847.953 482.672 845.453 483.038 842.486 483.038ZM842.936 478.288C844.269 478.288 845.519 478.138 846.686 477.838C847.886 477.505 848.869 476.922 849.636 476.088C850.403 475.222 850.786 474.005 850.786 472.438C850.786 471.038 850.453 469.955 849.786 469.188C849.119 468.388 848.236 467.805 847.136 467.438C846.036 467.072 844.803 466.888 843.436 466.888H839.136V478.088C839.369 478.122 839.836 478.172 840.536 478.238C841.236 478.272 842.036 478.288 842.936 478.288ZM839.136 462.288H842.386C843.619 462.288 844.736 462.122 845.736 461.788C846.769 461.455 847.603 460.922 848.236 460.188C848.869 459.455 849.186 458.488 849.186 457.288C849.186 456.022 848.886 455.038 848.286 454.338C847.686 453.638 846.903 453.155 845.936 452.888C845.003 452.588 843.969 452.438 842.836 452.438C842.069 452.438 841.353 452.455 840.686 452.488C840.053 452.522 839.536 452.572 839.136 452.638V462.288ZM877.514 483.438C874.681 483.438 872.431 482.922 870.764 481.888C869.098 480.822 867.898 479.322 867.164 477.388C866.431 475.422 866.064 473.122 866.064 470.488V448.038H871.614V469.988C871.614 472.188 871.831 473.922 872.264 475.188C872.698 476.422 873.348 477.305 874.214 477.838C875.114 478.372 876.231 478.638 877.564 478.638C878.931 478.638 880.048 478.372 880.914 477.838C881.814 477.305 882.481 476.422 882.914 475.188C883.348 473.922 883.564 472.188 883.564 469.988V448.038H889.064V470.488C889.064 473.122 888.698 475.422 887.964 477.388C887.231 479.322 886.031 480.822 884.364 481.888C882.698 482.922 880.414 483.438 877.514 483.438ZM908.443 483.038C907.61 483.038 906.66 483.005 905.593 482.938C904.56 482.872 903.51 482.772 902.443 482.638C901.41 482.505 900.443 482.338 899.543 482.138V448.488C900.376 448.322 901.293 448.188 902.293 448.088C903.293 447.955 904.31 447.855 905.343 447.788C906.376 447.688 907.326 447.638 908.193 447.638C910.26 447.638 912.076 447.855 913.643 448.288C915.21 448.688 916.51 449.272 917.543 450.038C918.576 450.805 919.343 451.755 919.843 452.888C920.343 453.988 920.593 455.272 920.593 456.738C920.593 457.805 920.376 458.838 919.943 459.838C919.543 460.805 918.976 461.672 918.243 462.438C917.51 463.172 916.693 463.738 915.793 464.138C917.193 464.605 918.36 465.238 919.293 466.038C920.26 466.838 920.976 467.772 921.443 468.838C921.943 469.905 922.193 471.105 922.193 472.438C922.193 474.905 921.66 476.922 920.593 478.488C919.526 480.055 917.976 481.205 915.943 481.938C913.91 482.672 911.41 483.038 908.443 483.038ZM908.893 478.288C910.226 478.288 911.476 478.138 912.643 477.838C913.843 477.505 914.826 476.922 915.593 476.088C916.36 475.222 916.743 474.005 916.743 472.438C916.743 471.038 916.41 469.955 915.743 469.188C915.076 468.388 914.193 467.805 913.093 467.438C911.993 467.072 910.76 466.888 909.393 466.888H905.093V478.088C905.326 478.122 905.793 478.172 906.493 478.238C907.193 478.272 907.993 478.288 908.893 478.288ZM905.093 462.288H908.343C909.576 462.288 910.693 462.122 911.693 461.788C912.726 461.455 913.56 460.922 914.193 460.188C914.826 459.455 915.143 458.488 915.143 457.288C915.143 456.022 914.843 455.038 914.243 454.338C913.643 453.638 912.86 453.155 911.893 452.888C910.96 452.588 909.926 452.438 908.793 452.438C908.026 452.438 907.31 452.455 906.643 452.488C906.01 452.522 905.493 452.572 905.093 452.638V462.288ZM941.421 483.038C940.588 483.038 939.638 483.005 938.571 482.938C937.538 482.872 936.488 482.772 935.421 482.638C934.388 482.505 933.421 482.338 932.521 482.138V448.488C933.355 448.322 934.271 448.188 935.271 448.088C936.271 447.955 937.288 447.855 938.321 447.788C939.355 447.688 940.305 447.638 941.171 447.638C943.238 447.638 945.055 447.855 946.621 448.288C948.188 448.688 949.488 449.272 950.521 450.038C951.555 450.805 952.321 451.755 952.821 452.888C953.321 453.988 953.571 455.272 953.571 456.738C953.571 457.805 953.355 458.838 952.921 459.838C952.521 460.805 951.955 461.672 951.221 462.438C950.488 463.172 949.671 463.738 948.771 464.138C950.171 464.605 951.338 465.238 952.271 466.038C953.238 466.838 953.955 467.772 954.421 468.838C954.921 469.905 955.171 471.105 955.171 472.438C955.171 474.905 954.638 476.922 953.571 478.488C952.505 480.055 950.955 481.205 948.921 481.938C946.888 482.672 944.388 483.038 941.421 483.038ZM941.871 478.288C943.205 478.288 944.455 478.138 945.621 477.838C946.821 477.505 947.805 476.922 948.571 476.088C949.338 475.222 949.721 474.005 949.721 472.438C949.721 471.038 949.388 469.955 948.721 469.188C948.055 468.388 947.171 467.805 946.071 467.438C944.971 467.072 943.738 466.888 942.371 466.888H938.071V478.088C938.305 478.122 938.771 478.172 939.471 478.238C940.171 478.272 940.971 478.288 941.871 478.288ZM938.071 462.288H941.321C942.555 462.288 943.671 462.122 944.671 461.788C945.705 461.455 946.538 460.922 947.171 460.188C947.805 459.455 948.121 458.488 948.121 457.288C948.121 456.022 947.821 455.038 947.221 454.338C946.621 453.638 945.838 453.155 944.871 452.888C943.938 452.588 942.905 452.438 941.771 452.438C941.005 452.438 940.288 452.455 939.621 452.488C938.988 452.522 938.471 452.572 938.071 452.638V462.288ZM967.15 482.688V448.038H972.7V478.038H988.25V482.688H967.15ZM999.929 482.688V448.038H1020.03V452.688H1005.48V462.138H1018.18V466.788H1005.48V478.038H1021.23V482.688H999.929Z" fill="black"/>
<path d="M1301.91 881.931L1300.97 882.29C1301.16 882.781 1301.49 883.205 1301.92 883.509C1302.35 883.813 1302.86 883.983 1303.38 883.999C1303.91 884.014 1304.43 883.874 1304.88 883.596C1305.32 883.318 1305.68 882.915 1305.89 882.436C1305.89 882.436 1305.89 882.436 1305.89 882.436L1311.38 870.371L1323.45 864.885L1323.46 864.882L1323.47 864.879C1323.94 864.656 1324.33 864.301 1324.61 863.857L1323.75 863.334L1324.61 863.857C1324.88 863.412 1325.01 862.898 1325 862.378C1324.98 861.857 1324.82 861.352 1324.52 860.925C1324.22 860.497 1323.8 860.166 1323.32 859.972L1323.31 859.969L1323.31 859.966L1292.62 848.17L1292.61 848.167L1292.61 848.164C1292.13 847.988 1291.6 847.953 1291.11 848.063C1290.61 848.172 1290.15 848.423 1289.79 848.784C1289.42 849.146 1289.17 849.603 1289.06 850.102C1288.95 850.602 1288.99 851.122 1289.16 851.603L1289.17 851.61L1289.17 851.618L1300.97 882.29L1301.91 881.931Z" fill="white" stroke="black" stroke-width="2"/>
<defs>
<filter id="filter0_d_30_3240" x="760" y="777.688" width="402" height="56" filterUnits="userSpaceOnUse" color-interpolation-filters="sRGB">
<feFlood flood-opacity="0" result="BackgroundImageFix"/>
<feColorMatrix in="SourceAlpha" type="matrix" values="0 0 0 0 0 0 0 0 0 0 0 0 0 0 0 0 0 0 127 0" result="hardAlpha"/>
<feOffset dx="2" dy="2"/>
<feComposite in2="hardAlpha" operator="out"/>
<feColorMatrix type="matrix" values="0 0 0 0 0 0 0 0 0 0 0 0 0 0 0 0 0 0 1 0"/>
<feBlend mode="normal" in2="BackgroundImageFix" result="effect1_dropShadow_30_3240"/>
<feBlend mode="normal" in="SourceGraphic" in2="effect1_dropShadow_30_3240" result="shape"/>
</filter>
</defs>
</svg>
