<svg width="1283" height="841" viewBox="0 0 1283 841" fill="none" xmlns="http://www.w3.org/2000/svg">
<g filter="url(#filter0_d_37_8435)">
<g clip-path="url(#clip0_37_8435)">
<mask id="path-3-inside-1_37_8435" fill="white">
<path d="M0 0.5H1277V54.5H0V0.5Z"/>
</mask>
<path d="M0 0.5H1277V54.5H0V0.5Z" fill="#61B7F8"/>
<path d="M1277 52.5H0V56.5H1277V52.5Z" fill="black" mask="url(#path-3-inside-1_37_8435)"/>
<g filter="url(#filter1_d_37_8435)">
<path d="M35.5 17.8003H46.4C47.118 17.8003 47.7 18.3823 47.7 19.1003V36.5003C47.7 37.2183 47.118 37.8003 46.4 37.8003H35.5V17.8003Z" fill="#61B7F8" stroke="black"/>
<mask id="path-6-inside-2_37_8435" fill="white">
<path fill-rule="evenodd" clip-rule="evenodd" d="M36.8 17.0002H21.5V38.3002H21.5313C21.8827 39.9822 25.1596 41.3002 29.1501 41.3002C33.1406 41.3002 36.4175 39.9822 36.7689 38.3002H36.8V38.0165C36.8001 38.0111 36.8001 38.0056 36.8001 38.0002C36.8001 37.9947 36.8001 37.9893 36.8 37.9839V17.0002Z"/>
</mask>
<path fill-rule="evenodd" clip-rule="evenodd" d="M36.8 17.0002H21.5V38.3002H21.5313C21.8827 39.9822 25.1596 41.3002 29.1501 41.3002C33.1406 41.3002 36.4175 39.9822 36.7689 38.3002H36.8V38.0165C36.8001 38.0111 36.8001 38.0056 36.8001 38.0002C36.8001 37.9947 36.8001 37.9893 36.8 37.9839V17.0002Z" fill="#61B7F8"/>
<path d="M21.5 17.0002V16.1002H20.6V17.0002H21.5ZM36.8 17.0002H37.7V16.1002H36.8V17.0002ZM21.5 38.3002H20.6V39.2002H21.5V38.3002ZM21.5313 38.3002L22.4123 38.1162L22.2627 37.4002H21.5313V38.3002ZM36.7689 38.3002V37.4002H36.0375L35.8879 38.1162L36.7689 38.3002ZM36.8 38.3002V39.2002H37.7V38.3002H36.8ZM36.8 38.0165L35.9 38.0064V38.0165H36.8ZM36.8 37.9839H35.8999L35.9001 37.994L36.8 37.9839ZM21.5 17.9002H36.8V16.1002H21.5V17.9002ZM22.4 38.3002V17.0002H20.6V38.3002H22.4ZM21.5313 37.4002H21.5V39.2002H21.5313V37.4002ZM29.1501 40.4002C27.2442 40.4002 25.5437 40.0841 24.3076 39.5942C23.689 39.3491 23.2171 39.0724 22.8954 38.796C22.5714 38.5175 22.4468 38.2815 22.4123 38.1162L20.6503 38.4843C20.7915 39.16 21.2083 39.7195 21.7222 40.1611C22.2385 40.6048 22.9011 40.973 23.6445 41.2676C25.1323 41.8573 27.0655 42.2002 29.1501 42.2002V40.4002ZM35.8879 38.1162C35.8534 38.2815 35.7288 38.5175 35.4047 38.796C35.0831 39.0724 34.6112 39.3491 33.9926 39.5942C32.7565 40.0841 31.056 40.4002 29.1501 40.4002V42.2002C31.2347 42.2002 33.1679 41.8573 34.6557 41.2676C35.3991 40.973 36.0617 40.6048 36.578 40.1611C37.0918 39.7195 37.5087 39.16 37.6499 38.4843L35.8879 38.1162ZM36.8 37.4002H36.7689V39.2002H36.8V37.4002ZM35.9 38.0165V38.3002H37.7V38.0165H35.9ZM35.9001 38.0002C35.9001 38.0023 35.9001 38.0043 35.9001 38.0064L37.6999 38.0266C37.7 38.0178 37.7001 38.009 37.7001 38.0002H35.9001ZM35.9001 37.994C35.9001 37.996 35.9001 37.9981 35.9001 38.0002H37.7001C37.7001 37.9914 37.7 37.9826 37.6999 37.9738L35.9001 37.994ZM35.9 17.0002V37.9839H37.7V17.0002H35.9Z" fill="black" mask="url(#path-6-inside-2_37_8435)"/>
<path d="M36.3 17.0002C36.3 17.2879 36.1669 17.603 35.8418 17.9346C35.5145 18.2685 35.0163 18.592 34.3613 18.8745C33.0531 19.4389 31.211 19.8002 29.15 19.8002C27.089 19.8002 25.2469 19.4389 23.9387 18.8745C23.2837 18.592 22.7855 18.2685 22.4582 17.9346C22.1331 17.603 22 17.2879 22 17.0002C22 16.7125 22.1331 16.3973 22.4582 16.0657C22.7855 15.7319 23.2837 15.4084 23.9387 15.1258C25.2469 14.5615 27.089 14.2002 29.15 14.2002C31.211 14.2002 33.0531 14.5615 34.3613 15.1258C35.0163 15.4084 35.5145 15.7319 35.8418 16.0657C36.1669 16.3973 36.3 16.7125 36.3 17.0002Z" fill="#F6F6F6" stroke="black"/>
<circle cx="29.3" cy="21.5002" r="1.5" fill="white" stroke="black" stroke-width="0.6"/>
<circle cx="29.3" cy="27.5002" r="1.5" fill="white" stroke="black" stroke-width="0.6"/>
<circle cx="29.3" cy="33.5002" r="1.5" fill="white" stroke="black" stroke-width="0.6"/>
<circle cx="29.3" cy="39.5002" r="1.5" fill="white" stroke="black" stroke-width="0.6"/>
<mask id="path-13-inside-3_37_8435" fill="white">
<path d="M41.9008 17.6003C41.9008 18.0777 41.7111 18.5355 41.3736 18.8731C41.036 19.2107 40.5782 19.4003 40.1008 19.4003C39.6234 19.4003 39.1656 19.2107 38.828 18.8731C38.4904 18.5355 38.3008 18.0777 38.3008 17.6003L40.1008 17.6003H41.9008Z"/>
</mask>
<path d="M41.9008 17.6003C41.9008 18.0777 41.7111 18.5355 41.3736 18.8731C41.036 19.2107 40.5782 19.4003 40.1008 19.4003C39.6234 19.4003 39.1656 19.2107 38.828 18.8731C38.4904 18.5355 38.3008 18.0777 38.3008 17.6003L40.1008 17.6003H41.9008Z" fill="white" stroke="black" stroke-width="1.2" mask="url(#path-13-inside-3_37_8435)"/>
<circle cx="40.1008" cy="24.5002" r="1.5" fill="white" stroke="black" stroke-width="0.6"/>
<circle cx="40.1008" cy="31.4003" r="1.5" fill="white" stroke="black" stroke-width="0.6"/>
<mask id="path-16-inside-4_37_8435" fill="white">
<path d="M41.9008 38.0002C41.9008 37.7638 41.8542 37.5298 41.7638 37.3114C41.6733 37.093 41.5407 36.8945 41.3736 36.7274C41.2064 36.5603 41.008 36.4277 40.7896 36.3372C40.5712 36.2468 40.3372 36.2002 40.1008 36.2002C39.8644 36.2002 39.6303 36.2468 39.412 36.3372C39.1936 36.4277 38.9951 36.5603 38.828 36.7274C38.6608 36.8945 38.5283 37.093 38.4378 37.3114C38.3473 37.5298 38.3008 37.7638 38.3008 38.0002L40.1008 38.0002H41.9008Z"/>
</mask>
<path d="M41.9008 38.0002C41.9008 37.7638 41.8542 37.5298 41.7638 37.3114C41.6733 37.093 41.5407 36.8945 41.3736 36.7274C41.2064 36.5603 41.008 36.4277 40.7896 36.3372C40.5712 36.2468 40.3372 36.2002 40.1008 36.2002C39.8644 36.2002 39.6303 36.2468 39.412 36.3372C39.1936 36.4277 38.9951 36.5603 38.828 36.7274C38.6608 36.8945 38.5283 37.093 38.4378 37.3114C38.3473 37.5298 38.3008 37.7638 38.3008 38.0002L40.1008 38.0002H41.9008Z" fill="white" stroke="black" stroke-width="1.2" mask="url(#path-16-inside-4_37_8435)"/>
<path d="M37.4008 21.5002C37.4008 21.9463 37.2797 22.3366 37.0997 22.6066C36.9183 22.8787 36.7006 23.0002 36.5008 23.0002C36.3009 23.0002 36.0833 22.8787 35.9019 22.6066C35.7219 22.3366 35.6008 21.9463 35.6008 21.5002C35.6008 21.0541 35.7219 20.6638 35.9019 20.3938C36.0833 20.1217 36.3009 20.0002 36.5008 20.0002C36.7006 20.0002 36.9183 20.1217 37.0997 20.3938C37.2797 20.6638 37.4008 21.0541 37.4008 21.5002Z" fill="white" stroke="black" stroke-width="0.6"/>
<path d="M37.4008 27.5002C37.4008 27.9463 37.2797 28.3366 37.0997 28.6066C36.9183 28.8787 36.7006 29.0002 36.5008 29.0002C36.3009 29.0002 36.0833 28.8787 35.9019 28.6066C35.7219 28.3366 35.6008 27.9463 35.6008 27.5002C35.6008 27.0541 35.7219 26.6638 35.9019 26.3938C36.0833 26.1217 36.3009 26.0002 36.5008 26.0002C36.7006 26.0002 36.9183 26.1217 37.0997 26.3938C37.2797 26.6638 37.4008 27.0541 37.4008 27.5002Z" fill="white" stroke="black" stroke-width="0.6"/>
<path d="M37.4008 33.5002C37.4008 33.9463 37.2797 34.3366 37.0997 34.6066C36.9183 34.8787 36.7006 35.0002 36.5008 35.0002C36.3009 35.0002 36.0833 34.8787 35.9019 34.6066C35.7219 34.3366 35.6008 33.9463 35.6008 33.5002C35.6008 33.0541 35.7219 32.6638 35.9019 32.3938C36.0833 32.1217 36.3009 32.0002 36.5008 32.0002C36.7006 32.0002 36.9183 32.1217 37.0997 32.3938C37.2797 32.6638 37.4008 33.0541 37.4008 33.5002Z" fill="white" stroke="black" stroke-width="0.6"/>
<path d="M23.0004 21.5002C23.0004 21.9463 22.8793 22.3366 22.6993 22.6066C22.5179 22.8787 22.3002 23.0002 22.1004 23.0002C21.9005 23.0002 21.6829 22.8787 21.5015 22.6066C21.3215 22.3366 21.2004 21.9463 21.2004 21.5002C21.2004 21.0541 21.3215 20.6638 21.5015 20.3938C21.6829 20.1217 21.9005 20.0002 22.1004 20.0002C22.3002 20.0002 22.5179 20.1217 22.6993 20.3938C22.8793 20.6638 23.0004 21.0541 23.0004 21.5002Z" fill="white" stroke="black" stroke-width="0.6"/>
<path d="M23.0004 27.5002C23.0004 27.9463 22.8793 28.3366 22.6993 28.6066C22.5179 28.8787 22.3002 29.0002 22.1004 29.0002C21.9005 29.0002 21.6829 28.8787 21.5015 28.6066C21.3215 28.3366 21.2004 27.9463 21.2004 27.5002C21.2004 27.0541 21.3215 26.6638 21.5015 26.3938C21.6829 26.1217 21.9005 26.0002 22.1004 26.0002C22.3002 26.0002 22.5179 26.1217 22.6993 26.3938C22.8793 26.6638 23.0004 27.0541 23.0004 27.5002Z" fill="white" stroke="black" stroke-width="0.6"/>
<path d="M23.0004 33.5002C23.0004 33.9463 22.8793 34.3366 22.6993 34.6066C22.5179 34.8787 22.3002 35.0002 22.1004 35.0002C21.9005 35.0002 21.6829 34.8787 21.5015 34.6066C21.3215 34.3366 21.2004 33.9463 21.2004 33.5002C21.2004 33.0541 21.3215 32.6638 21.5015 32.3938C21.6829 32.1217 21.9005 32.0002 22.1004 32.0002C22.3002 32.0002 22.5179 32.1217 22.6993 32.3938C22.8793 32.6638 23.0004 33.0541 23.0004 33.5002Z" fill="white" stroke="black" stroke-width="0.6"/>
<circle cx="33.2004" cy="24.5002" r="1.5" fill="white" stroke="black" stroke-width="0.6"/>
<circle cx="33.2004" cy="30.5004" r="1.5" fill="white" stroke="black" stroke-width="0.6"/>
<circle cx="33.2004" cy="36.5002" r="1.5" fill="white" stroke="black" stroke-width="0.6"/>
<circle cx="44.6008" cy="22.1003" r="1.5" fill="white" stroke="black" stroke-width="0.6"/>
<circle cx="44.6008" cy="28.1003" r="1.5" fill="white" stroke="black" stroke-width="0.6"/>
<circle cx="44.6008" cy="34.1003" r="1.5" fill="white" stroke="black" stroke-width="0.6"/>
<circle cx="25.4016" cy="24.5002" r="1.5" fill="white" stroke="black" stroke-width="0.6"/>
<circle cx="25.4016" cy="30.5004" r="1.5" fill="white" stroke="black" stroke-width="0.6"/>
<circle cx="25.4016" cy="36.5002" r="1.5" fill="white" stroke="black" stroke-width="0.6"/>
</g>
<path d="M61.694 34.5C61.5327 33.0773 61.386 31.5227 61.254 29.836C61.122 28.1347 61.012 26.382 60.924 24.578C60.836 22.774 60.7627 20.9993 60.704 19.254H63.014C63.0287 20.618 63.036 22.004 63.036 23.412C63.0507 24.8053 63.058 26.1987 63.058 27.592C63.0727 28.9707 63.0873 30.3127 63.102 31.618C63.278 31.0607 63.454 30.4887 63.63 29.902C63.8207 29.3007 64.004 28.7067 64.18 28.12C64.356 27.5187 64.5247 26.9467 64.686 26.404C64.862 25.8467 65.0307 25.3333 65.192 24.864H67.128C67.4213 25.8173 67.744 26.8733 68.096 28.032C68.4627 29.176 68.8293 30.3713 69.196 31.618C69.2253 30.3273 69.24 28.9927 69.24 27.614C69.2547 26.2207 69.2693 24.82 69.284 23.412C69.2987 22.004 69.306 20.618 69.306 19.254H71.616C71.5573 21.014 71.4767 22.796 71.374 24.6C71.2713 26.404 71.1613 28.1493 71.044 29.836C70.9267 31.5227 70.78 33.0773 70.604 34.5H68.47C68.0887 33.3267 67.7073 32.124 67.326 30.892C66.9447 29.6453 66.556 28.4353 66.16 27.262C65.9107 28.0247 65.654 28.8167 65.39 29.638C65.126 30.4593 64.862 31.2807 64.598 32.102C64.3487 32.9233 64.0993 33.7227 63.85 34.5H61.694ZM75.8745 34.5V23.676C76.6812 23.3973 77.5099 23.1773 78.3605 23.016C79.2112 22.8547 80.1205 22.774 81.0885 22.774C81.3965 22.774 81.7339 22.7887 82.1005 22.818C82.4819 22.8327 82.8705 22.8693 83.2665 22.928C83.6625 22.972 84.0439 23.0527 84.4105 23.17L83.9705 25.37C83.6772 25.282 83.3619 25.216 83.0245 25.172C82.7019 25.1133 82.3792 25.0767 82.0565 25.062C81.7339 25.0327 81.4332 25.018 81.1545 25.018C80.6705 25.018 80.1939 25.0473 79.7245 25.106C79.2552 25.15 78.7859 25.238 78.3165 25.37V34.5H75.8745ZM93.0031 34.764C92.3431 34.764 91.7124 34.7053 91.1111 34.588C90.5244 34.4707 90.0038 34.2727 89.5491 33.994C89.1091 33.7153 88.7571 33.334 88.4931 32.85C88.2438 32.366 88.1191 31.7647 88.1191 31.046C88.1191 30.1513 88.3464 29.4473 88.8011 28.934C89.2704 28.406 89.8718 28.032 90.6051 27.812C91.3531 27.5773 92.1304 27.46 92.9371 27.46C93.3624 27.46 93.7584 27.482 94.1251 27.526C94.5064 27.57 94.8584 27.6287 95.1811 27.702V27.218C95.1811 26.7927 95.1004 26.3967 94.9391 26.03C94.7924 25.6633 94.5284 25.3627 94.1471 25.128C93.7804 24.8933 93.2598 24.776 92.5851 24.776C91.9398 24.776 91.3531 24.8273 90.8251 24.93C90.2971 25.018 89.8791 25.1207 89.5711 25.238L89.2631 23.236C89.5711 23.104 90.0551 22.9867 90.7151 22.884C91.3898 22.7813 92.1011 22.73 92.8491 22.73C94.0371 22.73 94.9684 22.9207 95.6431 23.302C96.3324 23.6687 96.8238 24.1893 97.1171 24.864C97.4104 25.5387 97.5571 26.3233 97.5571 27.218V34.28C97.0878 34.368 96.4424 34.4707 95.6211 34.588C94.8144 34.7053 93.9418 34.764 93.0031 34.764ZM93.0691 32.74C93.4944 32.74 93.8904 32.7327 94.2571 32.718C94.6384 32.6887 94.9464 32.652 95.1811 32.608V29.528C94.9611 29.4693 94.6824 29.418 94.3451 29.374C94.0078 29.33 93.6704 29.308 93.3331 29.308C92.8784 29.308 92.4311 29.3593 91.9911 29.462C91.5658 29.55 91.2211 29.7187 90.9571 29.968C90.6931 30.2027 90.5611 30.54 90.5611 30.98C90.5611 31.64 90.7884 32.102 91.2431 32.366C91.6978 32.6153 92.3064 32.74 93.0691 32.74ZM101.904 38.57V23.368C102.241 23.2653 102.63 23.17 103.07 23.082C103.51 22.994 103.994 22.9207 104.522 22.862C105.05 22.7887 105.592 22.752 106.15 22.752C107.294 22.752 108.276 22.994 109.098 23.478C109.919 23.962 110.55 24.6587 110.99 25.568C111.43 26.4627 111.65 27.526 111.65 28.758C111.65 29.9313 111.466 30.9727 111.1 31.882C110.733 32.7767 110.19 33.4807 109.472 33.994C108.768 34.5073 107.902 34.764 106.876 34.764C106.362 34.764 105.893 34.698 105.468 34.566C105.042 34.4487 104.668 34.302 104.346 34.126V38.57H101.904ZM106.48 32.608C107.11 32.608 107.616 32.454 107.998 32.146C108.394 31.8233 108.687 31.376 108.878 30.804C109.068 30.2173 109.164 29.55 109.164 28.802C109.164 27.5847 108.892 26.6313 108.35 25.942C107.822 25.238 107.088 24.886 106.15 24.886C105.724 24.886 105.358 24.908 105.05 24.952C104.756 24.9813 104.522 25.018 104.346 25.062V31.926C104.566 32.102 104.874 32.2633 105.27 32.41C105.68 32.542 106.084 32.608 106.48 32.608ZM128.659 34.5V19.452C129.069 19.3493 129.517 19.276 130.001 19.232C130.485 19.1733 130.969 19.1367 131.453 19.122C131.937 19.0927 132.362 19.078 132.729 19.078C133.99 19.078 135.039 19.2687 135.875 19.65C136.725 20.0313 137.363 20.5813 137.789 21.3C138.229 22.0187 138.449 22.906 138.449 23.962C138.449 25.6487 137.95 26.9173 136.953 27.768C135.955 28.604 134.503 29.022 132.597 29.022H131.101V34.5H128.659ZM131.101 26.932H132.597C133.345 26.932 133.968 26.8367 134.467 26.646C134.965 26.4407 135.332 26.1253 135.567 25.7C135.816 25.26 135.941 24.6953 135.941 24.006C135.941 23.0527 135.677 22.3487 135.149 21.894C134.635 21.4393 133.909 21.212 132.971 21.212C132.648 21.212 132.303 21.2193 131.937 21.234C131.57 21.234 131.291 21.2487 131.101 21.278V26.932ZM146.623 34.786C145.582 34.786 144.665 34.5367 143.873 34.038C143.081 33.5247 142.458 32.8133 142.003 31.904C141.563 30.9947 141.343 29.9387 141.343 28.736C141.343 27.5333 141.571 26.4847 142.025 25.59C142.48 24.6807 143.103 23.9767 143.895 23.478C144.687 22.9793 145.597 22.73 146.623 22.73C147.665 22.73 148.581 22.9793 149.373 23.478C150.165 23.9767 150.789 24.6807 151.243 25.59C151.698 26.4847 151.925 27.5333 151.925 28.736C151.925 29.9387 151.698 30.9947 151.243 31.904C150.803 32.8133 150.18 33.5247 149.373 34.038C148.581 34.5367 147.665 34.786 146.623 34.786ZM146.601 32.63C147.188 32.63 147.694 32.476 148.119 32.168C148.545 31.8453 148.867 31.398 149.087 30.826C149.307 30.2393 149.417 29.55 149.417 28.758C149.417 27.966 149.307 27.2767 149.087 26.69C148.867 26.1033 148.545 25.656 148.119 25.348C147.709 25.0253 147.21 24.864 146.623 24.864C146.051 24.864 145.553 25.0253 145.127 25.348C144.702 25.656 144.379 26.1033 144.159 26.69C143.939 27.2767 143.829 27.966 143.829 28.758C143.829 29.55 143.939 30.2393 144.159 30.826C144.379 31.398 144.695 31.8453 145.105 32.168C145.516 32.476 146.015 32.63 146.601 32.63ZM155.546 38.57V23.368C155.883 23.2653 156.272 23.17 156.712 23.082C157.152 22.994 157.636 22.9207 158.164 22.862C158.692 22.7887 159.234 22.752 159.792 22.752C160.936 22.752 161.918 22.994 162.74 23.478C163.561 23.962 164.192 24.6587 164.632 25.568C165.072 26.4627 165.292 27.526 165.292 28.758C165.292 29.9313 165.108 30.9727 164.742 31.882C164.375 32.7767 163.832 33.4807 163.114 33.994C162.41 34.5073 161.544 34.764 160.518 34.764C160.004 34.764 159.535 34.698 159.11 34.566C158.684 34.4487 158.31 34.302 157.988 34.126V38.57H155.546ZM160.122 32.608C160.752 32.608 161.258 32.454 161.64 32.146C162.036 31.8233 162.329 31.376 162.52 30.804C162.71 30.2173 162.806 29.55 162.806 28.802C162.806 27.5847 162.534 26.6313 161.992 25.942C161.464 25.238 160.73 24.886 159.792 24.886C159.366 24.886 159 24.908 158.692 24.952C158.398 24.9813 158.164 25.018 157.988 25.062V31.926C158.208 32.102 158.516 32.2633 158.912 32.41C159.322 32.542 159.726 32.608 160.122 32.608Z" fill="black"/>
<rect x="1238" y="13.5" width="28" height="28" rx="14" fill="#FF72C6"/>
<rect x="1238" y="13.5" width="28" height="28" rx="14" stroke="black" stroke-width="2"/>
<path d="M1258 23.2143L1256.29 21.5L1252 25.7857L1247.71 21.5L1246 23.2143L1250.29 27.5L1246 31.7857L1247.71 33.5L1252 29.2143L1256.29 33.5L1258 31.7857L1253.71 27.5L1258 23.2143Z" fill="black"/>
<rect width="1277" height="780" transform="translate(0 54.5)" fill="black"/>
<path d="M638.5 227.102C674.86 227.102 704.334 256.46 704.334 292.675C704.334 328.89 674.86 336.391 638.5 336.391C602.141 336.391 572.666 328.89 572.666 292.675C572.666 256.46 602.142 227.102 638.5 227.102Z" fill="#FF72C6" stroke="black" stroke-width="3"/>
<path d="M681.832 261.904C696.076 261.904 707.622 250.403 707.622 236.216C707.622 222.029 696.076 210.528 681.832 210.528C667.588 210.528 656.041 222.029 656.041 236.216C656.041 250.403 667.588 261.904 681.832 261.904Z" fill="#65FBE2" stroke="black" stroke-width="3"/>
<path d="M666.948 236.661C666.741 236.661 666.528 236.642 666.316 236.603C664.474 236.26 663.262 234.48 663.605 232.644C664.235 229.29 670.224 220.154 678.979 217.688C680.784 217.177 682.658 218.225 683.168 220.021C683.678 221.817 682.63 223.684 680.826 224.193C674.904 225.861 670.631 232.479 670.271 233.916C669.966 235.539 668.546 236.661 666.948 236.661Z" fill="white"/>
<path d="M688.259 300.288C691.332 288.929 686.326 277.71 677.078 275.228C667.83 272.745 657.842 279.941 654.769 291.299C651.696 302.658 656.702 313.877 665.95 316.359C675.198 318.842 685.186 311.646 688.259 300.288Z" fill="black"/>
<path d="M611.052 316.36C620.3 313.878 625.306 302.658 622.233 291.3C619.161 279.941 609.173 272.746 599.925 275.228C590.677 277.71 585.671 288.93 588.744 300.288C591.816 311.646 601.805 318.842 611.052 316.36Z" fill="black"/>
<path d="M626.155 329.685V342.822C626.155 349.612 620.628 355.117 613.811 355.117C606.994 355.117 601.467 349.612 601.467 342.822V329.685" fill="#FF72C6"/>
<path d="M626.155 329.685V342.822C626.155 349.612 620.628 355.117 613.811 355.117C606.994 355.117 601.467 349.612 601.467 342.822V329.685" stroke="black" stroke-width="3" stroke-linecap="round" stroke-linejoin="round"/>
<path d="M650.845 329.685V342.822C650.845 349.612 645.317 355.117 638.5 355.117C631.684 355.117 626.156 349.612 626.156 342.822V329.685" fill="#FF72C6"/>
<path d="M650.845 329.685V342.822C650.845 349.612 645.317 355.117 638.5 355.117C631.684 355.117 626.156 349.612 626.156 342.822V329.685" stroke="black" stroke-width="3" stroke-linecap="round" stroke-linejoin="round"/>
<path d="M675.532 329.685V342.822C675.532 349.612 670.005 355.117 663.188 355.117C656.371 355.117 650.844 349.612 650.844 342.822V329.685" fill="#FF72C6"/>
<path d="M675.532 329.685V342.822C675.532 349.612 670.005 355.117 663.188 355.117C656.371 355.117 650.844 349.612 650.844 342.822V329.685" stroke="black" stroke-width="3" stroke-linecap="round" stroke-linejoin="round"/>
<path d="M634.282 314.055C635.259 314.055 636.154 313.747 636.944 313.139C637.7 312.556 638.205 311.814 638.501 311.273C638.798 311.812 639.302 312.555 640.058 313.139C640.847 313.747 641.742 314.055 642.72 314.055C645.445 314.055 647.501 311.835 647.501 308.889C647.501 305.708 644.936 303.531 641.054 300.236C640.395 299.677 639.648 299.043 638.872 298.367C638.77 298.277 638.638 298.229 638.501 298.229C638.364 298.229 638.234 298.277 638.13 298.367C637.354 299.043 636.606 299.678 635.946 300.238C632.064 303.533 629.5 305.709 629.5 308.891C629.5 311.835 631.555 314.057 634.281 314.057L634.282 314.055Z" fill="black"/>
<path d="M605.374 343.193C605.728 344.696 606.576 346.122 607.693 347.188C608.811 348.253 610.248 349.075 611.778 349.366C612.324 349.47 612.854 349.448 613.347 349.162C613.769 348.916 614.172 348.433 614.282 347.95C614.4 347.431 614.376 346.848 614.077 346.387C613.803 345.964 613.377 345.553 612.861 345.456C612.439 345.376 612.029 345.252 611.633 345.088L612.119 345.292C611.614 345.076 611.141 344.8 610.704 344.469L611.117 344.787C610.663 344.435 610.259 344.032 609.906 343.579L610.225 343.99C609.892 343.555 609.617 343.084 609.402 342.58L609.607 343.064C609.481 342.756 609.378 342.441 609.302 342.116C609.058 341.083 607.817 340.371 606.798 340.7C605.716 341.048 605.114 342.087 605.375 343.194L605.374 343.193Z" fill="white"/>
<path d="M631.555 343.193C631.91 344.696 632.758 346.122 633.875 347.188C634.992 348.253 636.43 349.075 637.959 349.366C638.505 349.47 639.036 349.448 639.529 349.162C639.951 348.916 640.354 348.433 640.464 347.95C640.582 347.431 640.558 346.848 640.259 346.387C639.985 345.964 639.558 345.553 639.043 345.456C638.621 345.376 638.211 345.252 637.814 345.088L638.3 345.292C637.795 345.076 637.323 344.8 636.886 344.469L637.298 344.787C636.845 344.435 636.441 344.032 636.088 343.579L636.407 343.99C636.074 343.555 635.798 343.084 635.584 342.58L635.789 343.064C635.663 342.756 635.56 342.441 635.484 342.116C635.239 341.083 633.999 340.371 632.979 340.7C631.897 341.048 631.296 342.087 631.557 343.194L631.555 343.193Z" fill="white"/>
<path d="M595.212 265.954C594.526 265.954 593.829 265.779 593.193 265.415C591.246 264.303 590.567 261.837 591.679 259.894C592.168 259.041 603.934 238.957 628.979 236.24C631.215 236.001 633.225 237.607 633.469 239.834C633.714 242.059 632.097 244.062 629.863 244.305C609.048 246.562 598.849 263.75 598.748 263.923C597.994 265.225 596.623 265.955 595.214 265.955L595.212 265.954Z" fill="white"/>
<path d="M728.627 453.334C733.967 452.582 738.821 449.224 741.207 443.967C744.914 435.803 741.275 426.191 733.078 422.499C724.88 418.807 715.231 422.431 711.524 430.596C711.099 431.53 710.804 432.488 710.569 433.449L575.289 372.753C575.858 371.942 576.384 371.09 576.809 370.156C580.516 361.991 576.877 352.38 568.68 348.687C560.482 344.995 550.833 348.62 547.126 356.784C544.738 362.041 545.411 367.89 548.372 372.38C543.032 373.132 538.178 376.49 535.791 381.748C532.084 389.913 535.723 399.524 543.921 403.217C552.118 406.909 561.768 403.284 565.475 395.119C565.9 394.185 566.194 393.228 566.429 392.267L701.711 452.962C701.141 453.774 700.615 454.625 700.191 455.56C696.484 463.724 700.123 473.336 708.32 477.028C716.517 480.72 726.167 477.096 729.874 468.931C732.262 463.674 731.589 457.826 728.628 453.336L728.627 453.334Z" fill="#FF72C6" stroke="black" stroke-width="3"/>
<path d="M555.967 361.312C556.013 360.982 556.084 360.658 556.183 360.34C556.213 360.245 556.245 360.151 556.279 360.059C556.309 359.979 556.43 359.687 556.287 360.025C556.141 360.374 556.279 360.055 556.308 359.995C556.344 359.921 556.381 359.847 556.42 359.774C556.578 359.48 556.761 359.206 556.954 358.934C557.095 358.737 556.636 359.322 556.851 359.069C556.916 358.993 556.98 358.916 557.048 358.842C557.159 358.718 557.276 358.599 557.396 358.482C557.517 358.366 557.642 358.255 557.77 358.148C557.833 358.096 558.085 357.9 557.8 358.12C557.515 358.34 557.768 358.148 557.836 358.1C558.109 357.908 558.397 357.735 558.694 357.583C558.784 357.537 558.875 357.497 558.964 357.454C559.214 357.335 558.79 357.539 558.754 357.54C558.906 357.535 559.122 357.402 559.271 357.356C559.605 357.252 559.946 357.179 560.29 357.128L559.749 357.201C560.214 357.14 560.677 357.13 561.146 357.174C561.637 357.22 562.249 356.915 562.586 356.58C562.939 356.229 563.205 355.651 563.182 355.146C563.129 353.963 562.284 353.223 561.146 353.118C556.973 352.732 552.626 356.08 552.04 360.233C551.96 360.797 551.944 361.284 552.245 361.796C552.492 362.217 552.977 362.618 553.461 362.728C553.983 362.845 554.568 362.821 555.03 362.524C555.443 362.259 555.895 361.819 555.967 361.312Z" fill="white"/>
<path d="M547.863 452.192C542.533 451.372 537.722 447.953 535.403 442.667C531.8 434.456 535.561 424.892 543.805 421.302C552.048 417.714 561.651 421.461 565.255 429.671C565.667 430.611 565.95 431.571 566.172 432.535L702.215 373.553C701.656 372.735 701.14 371.877 700.728 370.937C697.125 362.727 700.887 353.162 709.13 349.573C717.374 345.985 726.976 349.731 730.58 357.942C732.9 363.228 732.153 369.067 729.135 373.521C734.466 374.34 739.277 377.76 741.596 383.047C745.199 391.258 741.438 400.822 733.194 404.412C724.951 408 715.348 404.254 711.744 396.043C711.332 395.103 711.049 394.143 710.827 393.179L574.784 452.161C575.343 452.979 575.859 453.837 576.271 454.777C579.874 462.988 576.112 472.552 567.869 476.141C559.625 479.729 550.023 475.983 546.419 467.772C544.099 462.486 544.846 456.645 547.863 452.192Z" fill="#A78FFF" stroke="black" stroke-width="3"/>
<path d="M543.191 436.237C543.301 435.553 543.491 434.89 543.756 434.249L543.551 434.733C543.757 434.248 543.999 433.781 544.284 433.337C544.355 433.226 544.428 433.116 544.504 433.008C544.596 432.877 544.918 432.512 544.481 433.023C544.653 432.823 544.815 432.616 544.995 432.424C545.176 432.232 545.363 432.047 545.56 431.871C545.658 431.783 545.758 431.697 545.86 431.614C546.264 431.283 545.554 431.828 545.838 431.629C546.273 431.325 546.715 431.049 547.193 430.816C548.153 430.349 548.489 428.916 547.923 428.042C547.289 427.063 546.164 426.815 545.138 427.315C542.124 428.783 539.8 431.855 539.266 435.159C539.176 435.715 539.175 436.218 539.471 436.722C539.718 437.143 540.202 437.544 540.687 437.654C541.208 437.771 541.793 437.747 542.256 437.449C542.674 437.182 543.11 436.748 543.191 436.238V436.237Z" fill="white"/>
<path d="M714.121 354.617C712.375 354.608 710.737 355.327 709.449 356.474C708.885 356.975 708.39 357.604 708.032 358.266C707.562 359.134 707.337 359.994 707.232 360.966C707.181 361.45 707.497 362.07 707.828 362.401C708.181 362.752 708.761 363.017 709.268 362.994C709.795 362.971 710.341 362.798 710.708 362.401L711.027 361.99C711.212 361.673 711.304 361.333 711.306 360.966C711.31 360.92 711.315 360.876 711.322 360.831L711.249 361.371C711.303 360.988 711.405 360.618 711.55 360.259L711.345 360.743C711.515 360.344 711.733 359.975 711.995 359.631L711.676 360.042C711.945 359.699 712.25 359.394 712.591 359.124L712.179 359.441C712.541 359.163 712.933 358.932 713.354 358.753L712.868 358.957C713.248 358.802 713.64 358.695 714.048 358.638L713.506 358.711C713.71 358.685 713.915 358.673 714.12 358.675C714.639 358.677 715.192 358.446 715.56 358.081C715.913 357.73 716.179 357.152 716.156 356.647C716.105 355.543 715.261 354.624 714.12 354.619L714.121 354.617Z" fill="white"/>
<path d="M567.432 560.5V558.454H570.534V547.3H567.432V545.254H576.078V547.3H572.976V558.454H576.078V560.5H567.432ZM592.625 560.5C592.948 559.253 593.285 557.977 593.637 556.672C593.989 555.367 594.356 554.061 594.737 552.756C595.133 551.451 595.529 550.167 595.925 548.906C596.336 547.645 596.754 546.427 597.179 545.254H600.039C600.464 546.427 600.875 547.652 601.271 548.928C601.682 550.189 602.07 551.48 602.437 552.8C602.818 554.105 603.178 555.411 603.515 556.716C603.867 558.007 604.197 559.268 604.505 560.5H601.887L601.073 556.716H595.947L595.133 560.5H592.625ZM596.475 554.692H600.589C600.384 553.812 600.171 552.954 599.951 552.118C599.731 551.282 599.496 550.483 599.247 549.72C599.012 548.943 598.778 548.202 598.543 547.498C598.308 548.217 598.066 548.965 597.817 549.742C597.582 550.519 597.348 551.319 597.113 552.14C596.893 552.961 596.68 553.812 596.475 554.692ZM606.52 560.5C606.564 559.253 606.615 557.97 606.674 556.65C606.747 555.33 606.82 554.01 606.894 552.69C606.982 551.37 607.077 550.087 607.18 548.84C607.282 547.579 607.4 546.383 607.532 545.254H609.666C609.9 545.943 610.142 546.699 610.392 547.52C610.656 548.327 610.92 549.163 611.184 550.028C611.462 550.879 611.726 551.7 611.976 552.492C612.24 551.656 612.504 550.813 612.768 549.962C613.032 549.111 613.296 548.29 613.56 547.498C613.824 546.691 614.066 545.943 614.286 545.254H616.442C616.632 546.911 616.786 548.569 616.904 550.226C617.036 551.883 617.138 553.563 617.212 555.264C617.3 556.951 617.373 558.696 617.432 560.5H615.144C615.129 559.253 615.114 557.941 615.1 556.562C615.1 555.183 615.092 553.775 615.078 552.338C615.063 550.901 615.048 549.493 615.034 548.114L612.944 554.89H611.008L608.94 548.114C608.94 549.493 608.925 550.901 608.896 552.338C608.881 553.775 608.859 555.183 608.83 556.562C608.815 557.941 608.808 559.253 608.808 560.5H606.52ZM632.857 560.5C633.179 559.253 633.517 557.977 633.869 556.672C634.221 555.367 634.587 554.061 634.969 552.756C635.365 551.451 635.761 550.167 636.157 548.906C636.567 547.645 636.985 546.427 637.411 545.254H640.271C640.696 546.427 641.107 547.652 641.503 548.928C641.913 550.189 642.302 551.48 642.669 552.8C643.05 554.105 643.409 555.411 643.747 556.716C644.099 558.007 644.429 559.268 644.737 560.5H642.119L641.305 556.716H636.179L635.365 560.5H632.857ZM636.707 554.692H640.821C640.615 553.812 640.403 552.954 640.183 552.118C639.963 551.282 639.728 550.483 639.479 549.72C639.244 548.943 639.009 548.202 638.775 547.498C638.54 548.217 638.298 548.965 638.049 549.742C637.814 550.519 637.579 551.319 637.345 552.14C637.125 552.961 636.912 553.812 636.707 554.692ZM646.751 560.5C646.795 559.253 646.847 557.97 646.905 556.65C646.979 555.33 647.052 554.01 647.125 552.69C647.213 551.37 647.309 550.087 647.411 548.84C647.514 547.579 647.631 546.383 647.763 545.254H649.897C650.132 545.943 650.374 546.699 650.623 547.52C650.887 548.327 651.151 549.163 651.415 550.028C651.694 550.879 651.958 551.7 652.207 552.492C652.471 551.656 652.735 550.813 652.999 549.962C653.263 549.111 653.527 548.29 653.791 547.498C654.055 546.691 654.297 545.943 654.517 545.254H656.673C656.864 546.911 657.018 548.569 657.135 550.226C657.267 551.883 657.37 553.563 657.443 555.264C657.531 556.951 657.605 558.696 657.663 560.5H655.375C655.361 559.253 655.346 557.941 655.331 556.562C655.331 555.183 655.324 553.775 655.309 552.338C655.295 550.901 655.28 549.493 655.265 548.114L653.175 554.89H651.239L649.171 548.114C649.171 549.493 649.157 550.901 649.127 552.338C649.113 553.775 649.091 555.183 649.061 556.562C649.047 557.941 649.039 559.253 649.039 560.5H646.751ZM665.596 560.83C664.349 560.83 663.359 560.603 662.626 560.148C661.892 559.679 661.364 559.019 661.042 558.168C660.719 557.303 660.558 556.291 660.558 555.132V545.254H663V554.912C663 555.88 663.095 556.643 663.286 557.2C663.476 557.743 663.762 558.131 664.144 558.366C664.54 558.601 665.031 558.718 665.618 558.718C666.219 558.718 666.71 558.601 667.092 558.366C667.488 558.131 667.781 557.743 667.972 557.2C668.162 556.643 668.258 555.88 668.258 554.912V545.254H670.678V555.132C670.678 556.291 670.516 557.303 670.194 558.168C669.871 559.019 669.343 559.679 668.61 560.148C667.876 560.603 666.872 560.83 665.596 560.83ZM678.61 560.83C677.833 560.83 677.144 560.764 676.542 560.632C675.956 560.5 675.457 560.346 675.046 560.17C674.636 559.994 674.313 559.84 674.078 559.708L674.804 557.728C675.171 557.933 675.67 558.153 676.3 558.388C676.946 558.623 677.716 558.74 678.61 558.74C679.3 558.74 679.857 558.652 680.282 558.476C680.722 558.3 681.045 558.051 681.25 557.728C681.456 557.391 681.558 556.995 681.558 556.54C681.558 555.983 681.397 555.528 681.074 555.176C680.752 554.824 680.341 554.523 679.842 554.274C679.344 554.025 678.838 553.797 678.324 553.592C677.84 553.401 677.364 553.189 676.894 552.954C676.44 552.719 676.022 552.441 675.64 552.118C675.259 551.795 674.951 551.407 674.716 550.952C674.496 550.483 674.386 549.925 674.386 549.28C674.386 547.901 674.826 546.831 675.706 546.068C676.586 545.291 677.796 544.902 679.336 544.902C680.216 544.902 681.008 545.005 681.712 545.21C682.431 545.415 682.988 545.643 683.384 545.892L682.636 547.85C682.27 547.63 681.808 547.432 681.25 547.256C680.708 547.065 680.099 546.97 679.424 546.97C678.911 546.97 678.456 547.051 678.06 547.212C677.679 547.359 677.371 547.586 677.136 547.894C676.916 548.187 676.806 548.554 676.806 548.994C676.806 549.478 676.938 549.881 677.202 550.204C677.481 550.527 677.84 550.805 678.28 551.04C678.735 551.26 679.204 551.473 679.688 551.678C680.26 551.898 680.803 552.133 681.316 552.382C681.83 552.631 682.284 552.932 682.68 553.284C683.076 553.636 683.392 554.076 683.626 554.604C683.861 555.132 683.978 555.777 683.978 556.54C683.978 557.904 683.524 558.96 682.614 559.708C681.705 560.456 680.37 560.83 678.61 560.83ZM688.237 560.5V545.254H697.081V547.3H690.679V551.458H696.267V553.504H690.679V558.454H697.609V560.5H688.237ZM704.155 560.654C703.642 560.654 703.129 560.625 702.615 560.566C702.102 560.507 701.567 560.412 701.009 560.28V545.452C701.611 545.32 702.183 545.225 702.725 545.166C703.283 545.107 703.818 545.078 704.331 545.078C705.666 545.078 706.847 545.342 707.873 545.87C708.9 546.398 709.699 547.234 710.271 548.378C710.858 549.507 711.151 551.003 711.151 552.866C711.151 554.758 710.851 556.276 710.249 557.42C709.648 558.549 708.819 559.371 707.763 559.884C706.707 560.397 705.505 560.654 704.155 560.654ZM704.419 558.542C705.387 558.542 706.179 558.329 706.795 557.904C707.426 557.479 707.895 556.848 708.203 556.012C708.511 555.161 708.665 554.113 708.665 552.866C708.665 551.693 708.519 550.688 708.225 549.852C707.947 549.001 707.499 548.349 706.883 547.894C706.282 547.439 705.497 547.212 704.529 547.212C704.339 547.212 704.148 547.219 703.957 547.234C703.781 547.234 703.613 547.249 703.451 547.278V558.476C703.598 558.505 703.759 558.527 703.935 558.542C704.111 558.542 704.273 558.542 704.419 558.542Z" fill="white"/>
<g filter="url(#filter2_d_37_8435)">
<rect x="461.5" y="626.5" width="172" height="54" rx="6" fill="#65FBE2" shape-rendering="crispEdges"/>
<rect x="462.5" y="627.5" width="170" height="52" rx="5" stroke="black" stroke-width="2" shape-rendering="crispEdges"/>
<path d="M541.586 659.77C540.662 659.77 539.864 659.536 539.192 659.068C538.52 658.588 537.998 657.868 537.626 656.908C537.266 655.936 537.086 654.718 537.086 653.254C537.086 651.79 537.272 650.578 537.644 649.618C538.016 648.646 538.532 647.926 539.192 647.458C539.864 646.978 540.656 646.738 541.568 646.738C542.492 646.738 543.29 646.978 543.962 647.458C544.634 647.926 545.15 648.646 545.51 649.618C545.882 650.578 546.068 651.79 546.068 653.254C546.068 654.718 545.882 655.936 545.51 656.908C545.138 657.868 544.616 658.588 543.944 659.068C543.272 659.536 542.486 659.77 541.586 659.77ZM541.55 658.042C542.15 658.042 542.63 657.844 542.99 657.448C543.35 657.052 543.614 656.494 543.782 655.774C543.95 655.054 544.034 654.214 544.034 653.254C544.034 652.27 543.95 651.424 543.782 650.716C543.626 649.996 543.362 649.444 542.99 649.06C542.63 648.664 542.15 648.466 541.55 648.466C540.95 648.466 540.476 648.664 540.128 649.06C539.78 649.456 539.528 650.008 539.372 650.716C539.216 651.424 539.138 652.27 539.138 653.254C539.138 654.226 539.21 655.072 539.354 655.792C539.51 656.5 539.762 657.052 540.11 657.448C540.47 657.844 540.95 658.042 541.55 658.042ZM549.534 659.5V647.026H551.532V652.426C551.904 652.006 552.282 651.562 552.666 651.094C553.05 650.626 553.416 650.158 553.764 649.69C554.112 649.21 554.442 648.748 554.754 648.304C555.066 647.848 555.342 647.422 555.582 647.026H557.85C557.586 647.458 557.292 647.914 556.968 648.394C556.656 648.874 556.314 649.36 555.942 649.852C555.57 650.344 555.18 650.842 554.772 651.346C554.364 651.838 553.938 652.324 553.494 652.804C553.914 653.176 554.352 653.614 554.808 654.118C555.276 654.622 555.726 655.168 556.158 655.756C556.59 656.344 556.992 656.956 557.364 657.592C557.736 658.216 558.042 658.852 558.282 659.5H556.032C555.78 658.936 555.48 658.372 555.132 657.808C554.784 657.244 554.412 656.704 554.016 656.188C553.62 655.66 553.212 655.18 552.792 654.748C552.372 654.304 551.952 653.932 551.532 653.632V659.5H549.534Z" fill="black"/>
</g>
<g filter="url(#filter3_d_37_8435)">
<rect x="643.5" y="626.5" width="172" height="54" rx="6" fill="#FF72C6" shape-rendering="crispEdges"/>
<rect x="644.5" y="627.5" width="170" height="52" rx="5" stroke="black" stroke-width="2" shape-rendering="crispEdges"/>
<path d="M693.545 659.77C692.909 659.77 692.345 659.716 691.853 659.608C691.373 659.5 690.965 659.374 690.629 659.23C690.293 659.086 690.029 658.96 689.837 658.852L690.431 657.232C690.731 657.4 691.139 657.58 691.655 657.772C692.183 657.964 692.813 658.06 693.545 658.06C694.109 658.06 694.565 657.988 694.913 657.844C695.273 657.7 695.537 657.496 695.705 657.232C695.873 656.956 695.957 656.632 695.957 656.26C695.957 655.804 695.825 655.432 695.561 655.144C695.297 654.856 694.961 654.61 694.553 654.406C694.145 654.202 693.731 654.016 693.311 653.848C692.915 653.692 692.525 653.518 692.141 653.326C691.769 653.134 691.427 652.906 691.115 652.642C690.803 652.378 690.551 652.06 690.359 651.688C690.179 651.304 690.089 650.848 690.089 650.32C690.089 649.192 690.449 648.316 691.169 647.692C691.889 647.056 692.879 646.738 694.139 646.738C694.859 646.738 695.507 646.822 696.083 646.99C696.671 647.158 697.127 647.344 697.451 647.548L696.839 649.15C696.539 648.97 696.161 648.808 695.705 648.664C695.261 648.508 694.763 648.43 694.211 648.43C693.791 648.43 693.419 648.496 693.095 648.628C692.783 648.748 692.531 648.934 692.339 649.186C692.159 649.426 692.069 649.726 692.069 650.086C692.069 650.482 692.177 650.812 692.393 651.076C692.621 651.34 692.915 651.568 693.275 651.76C693.647 651.94 694.031 652.114 694.427 652.282C694.895 652.462 695.339 652.654 695.759 652.858C696.179 653.062 696.551 653.308 696.875 653.596C697.199 653.884 697.457 654.244 697.649 654.676C697.841 655.108 697.937 655.636 697.937 656.26C697.937 657.376 697.565 658.24 696.821 658.852C696.077 659.464 694.985 659.77 693.545 659.77ZM701.619 659.5V647.026H703.617V652.138H707.901V647.026H709.899V659.5H707.901V653.812H703.617V659.5H701.619ZM717.614 659.77C716.594 659.77 715.784 659.584 715.184 659.212C714.584 658.828 714.152 658.288 713.888 657.592C713.624 656.884 713.492 656.056 713.492 655.108V647.026H715.49V654.928C715.49 655.72 715.568 656.344 715.724 656.8C715.88 657.244 716.114 657.562 716.426 657.754C716.75 657.946 717.152 658.042 717.632 658.042C718.124 658.042 718.526 657.946 718.838 657.754C719.162 657.562 719.402 657.244 719.558 656.8C719.714 656.344 719.792 655.72 719.792 654.928V647.026H721.772V655.108C721.772 656.056 721.64 656.884 721.376 657.592C721.112 658.288 720.68 658.828 720.08 659.212C719.48 659.584 718.658 659.77 717.614 659.77ZM728.514 659.5V648.7H725.148V647.026H733.86V648.7H730.494V659.5H728.514ZM753.23 659.77C752.21 659.77 751.4 659.584 750.8 659.212C750.2 658.828 749.768 658.288 749.504 657.592C749.24 656.884 749.108 656.056 749.108 655.108V647.026H751.106V654.928C751.106 655.72 751.184 656.344 751.34 656.8C751.496 657.244 751.73 657.562 752.042 657.754C752.366 657.946 752.768 658.042 753.248 658.042C753.74 658.042 754.142 657.946 754.454 657.754C754.778 657.562 755.018 657.244 755.174 656.8C755.33 656.344 755.408 655.72 755.408 654.928V647.026H757.388V655.108C757.388 656.056 757.256 656.884 756.992 657.592C756.728 658.288 756.296 658.828 755.696 659.212C755.096 659.584 754.274 659.77 753.23 659.77ZM761.395 659.5V647.188C761.731 647.104 762.097 647.044 762.493 647.008C762.889 646.96 763.285 646.93 763.681 646.918C764.077 646.894 764.425 646.882 764.725 646.882C765.757 646.882 766.615 647.038 767.299 647.35C767.995 647.662 768.517 648.112 768.865 648.7C769.225 649.288 769.405 650.014 769.405 650.878C769.405 652.258 768.997 653.296 768.181 653.992C767.365 654.676 766.177 655.018 764.617 655.018H763.393V659.5H761.395ZM763.393 653.308H764.617C765.229 653.308 765.739 653.23 766.147 653.074C766.555 652.906 766.855 652.648 767.047 652.3C767.251 651.94 767.353 651.478 767.353 650.914C767.353 650.134 767.137 649.558 766.705 649.186C766.285 648.814 765.691 648.628 764.923 648.628C764.659 648.628 764.377 648.634 764.077 648.646C763.777 648.646 763.549 648.658 763.393 648.682V653.308Z" fill="black"/>
</g>
</g>
<rect x="1.5" y="2" width="1274" height="831" rx="10.5" stroke="black" stroke-width="3" shape-rendering="crispEdges"/>
</g>
<defs>
<filter id="filter0_d_37_8435" x="0" y="0.5" width="1283" height="840" filterUnits="userSpaceOnUse" color-interpolation-filters="sRGB">
<feFlood flood-opacity="0" result="BackgroundImageFix"/>
<feColorMatrix in="SourceAlpha" type="matrix" values="0 0 0 0 0 0 0 0 0 0 0 0 0 0 0 0 0 0 127 0" result="hardAlpha"/>
<feOffset dx="6" dy="6"/>
<feComposite in2="hardAlpha" operator="out"/>
<feColorMatrix type="matrix" values="0 0 0 0 0 0 0 0 0 0 0 0 0 0 0 0 0 0 1 0"/>
<feBlend mode="normal" in2="BackgroundImageFix" result="effect1_dropShadow_37_8435"/>
<feBlend mode="normal" in="SourceGraphic" in2="effect1_dropShadow_37_8435" result="shape"/>
</filter>
<filter id="filter1_d_37_8435" x="20.9004" y="13.7002" width="27.8988" height="28.2001" filterUnits="userSpaceOnUse" color-interpolation-filters="sRGB">
<feFlood flood-opacity="0" result="BackgroundImageFix"/>
<feColorMatrix in="SourceAlpha" type="matrix" values="0 0 0 0 0 0 0 0 0 0 0 0 0 0 0 0 0 0 127 0" result="hardAlpha"/>
<feOffset dx="0.6" dy="0.6"/>
<feComposite in2="hardAlpha" operator="out"/>
<feColorMatrix type="matrix" values="0 0 0 0 0 0 0 0 0 0 0 0 0 0 0 0 0 0 1 0"/>
<feBlend mode="normal" in2="BackgroundImageFix" result="effect1_dropShadow_37_8435"/>
<feBlend mode="normal" in="SourceGraphic" in2="effect1_dropShadow_37_8435" result="shape"/>
</filter>
<filter id="filter2_d_37_8435" x="461.5" y="626.5" width="174" height="56" filterUnits="userSpaceOnUse" color-interpolation-filters="sRGB">
<feFlood flood-opacity="0" result="BackgroundImageFix"/>
<feColorMatrix in="SourceAlpha" type="matrix" values="0 0 0 0 0 0 0 0 0 0 0 0 0 0 0 0 0 0 127 0" result="hardAlpha"/>
<feOffset dx="2" dy="2"/>
<feComposite in2="hardAlpha" operator="out"/>
<feColorMatrix type="matrix" values="0 0 0 0 0 0 0 0 0 0 0 0 0 0 0 0 0 0 1 0"/>
<feBlend mode="normal" in2="BackgroundImageFix" result="effect1_dropShadow_37_8435"/>
<feBlend mode="normal" in="SourceGraphic" in2="effect1_dropShadow_37_8435" result="shape"/>
</filter>
<filter id="filter3_d_37_8435" x="643.5" y="626.5" width="174" height="56" filterUnits="userSpaceOnUse" color-interpolation-filters="sRGB">
<feFlood flood-opacity="0" result="BackgroundImageFix"/>
<feColorMatrix in="SourceAlpha" type="matrix" values="0 0 0 0 0 0 0 0 0 0 0 0 0 0 0 0 0 0 127 0" result="hardAlpha"/>
<feOffset dx="2" dy="2"/>
<feComposite in2="hardAlpha" operator="out"/>
<feColorMatrix type="matrix" values="0 0 0 0 0 0 0 0 0 0 0 0 0 0 0 0 0 0 1 0"/>
<feBlend mode="normal" in2="BackgroundImageFix" result="effect1_dropShadow_37_8435"/>
<feBlend mode="normal" in="SourceGraphic" in2="effect1_dropShadow_37_8435" result="shape"/>
</filter>
<clipPath id="clip0_37_8435">
<rect y="0.5" width="1277" height="834" rx="12" fill="white"/>
</clipPath>
</defs>
</svg>
