<svg width="305" height="624" viewBox="0 0 305 624" fill="none" xmlns="http://www.w3.org/2000/svg">
<mask id="path-1-inside-1_80_6819" fill="white">
<path fill-rule="evenodd" clip-rule="evenodd" d="M296.75 53H18.75V574V575H18.7772C20.258 602.153 81.9112 624 157.75 624C233.589 624 295.242 602.153 296.723 575H296.75V574V53Z"/>
</mask>
<path fill-rule="evenodd" clip-rule="evenodd" d="M296.75 53H18.75V574V575H18.7772C20.258 602.153 81.9112 624 157.75 624C233.589 624 295.242 602.153 296.723 575H296.75V574V53Z" fill="#61B7F8"/>
<path d="M18.75 53V50H15.75V53H18.75ZM296.75 53H299.75V50H296.75V53ZM18.75 575H15.75V578H18.75V575ZM18.7772 575L21.7728 574.837L21.6181 572H18.7772V575ZM296.723 575V572H293.882L293.727 574.837L296.723 575ZM296.75 575V578H299.75V575H296.75ZM18.75 56H296.75V50H18.75V56ZM21.75 574V53H15.75V574H21.75ZM21.75 575V574H15.75V575H21.75ZM18.7772 572H18.75V578H18.7772V572ZM157.75 621C120.082 621 86.0613 615.57 61.3783 606.853C49.0258 602.491 39.1603 597.358 32.3509 591.789C25.52 586.202 22.0791 580.452 21.7728 574.837L15.7817 575.163C16.2158 583.124 21.0368 590.287 28.5524 596.434C36.0893 602.598 46.6547 608.017 59.3804 612.511C84.854 621.507 119.579 627 157.75 627V621ZM293.727 574.837C293.421 580.452 289.98 586.202 283.149 591.789C276.34 597.358 266.474 602.491 254.122 606.853C229.439 615.57 195.418 621 157.75 621V627C195.921 627 230.646 621.507 256.12 612.511C268.845 608.017 279.411 602.598 286.948 596.434C294.463 590.287 299.284 583.124 299.718 575.163L293.727 574.837ZM296.75 572H296.723V578H296.75V572ZM293.75 574V575H299.75V574H293.75ZM293.75 53V574H299.75V53H293.75Z" fill="black" mask="url(#path-1-inside-1_80_6819)"/>
<path d="M295.25 50C295.25 56.2952 291.708 62.4917 284.855 68.3196C278.008 74.1423 268.013 79.4537 255.53 83.9439C230.578 92.9196 196.007 98.5 157.75 98.5C119.493 98.5 84.9223 92.9196 59.9699 83.9439C47.4873 79.4537 37.4917 74.1423 30.6451 68.3196C23.7924 62.4917 20.25 56.2952 20.25 50C20.25 43.7048 23.7924 37.5083 30.6451 31.6804C37.4917 25.8577 47.4873 20.5463 59.9699 16.0561C84.9223 7.08045 119.493 1.5 157.75 1.5C196.007 1.5 230.578 7.08045 255.53 16.0561C268.013 20.5463 278.008 25.8577 284.855 31.6804C291.708 37.5083 295.25 43.7048 295.25 50Z" fill="#889AAB" stroke="black" stroke-width="3"/>
<path d="M214.822 50C214.822 52.2891 213.533 54.6707 210.75 57.0299C207.973 59.3836 203.866 61.5709 198.661 63.4373C188.262 67.1654 173.798 69.5 157.75 69.5C141.702 69.5 127.238 67.1654 116.839 63.4373C111.634 61.5709 107.527 59.3836 104.75 57.0299C101.967 54.6707 100.678 52.2891 100.678 50C100.678 47.7109 101.967 45.3293 104.75 42.9701C107.527 40.6164 111.634 38.4291 116.839 36.5627C127.238 32.8346 141.702 30.5 157.75 30.5C173.798 30.5 188.262 32.8346 198.661 36.5627C203.866 38.4291 207.973 40.6164 210.75 42.9701C213.533 45.3293 214.822 47.7109 214.822 50Z" fill="#61B7F8" stroke="black" stroke-width="3"/>
<circle cx="99.75" cy="159" r="35.7386" fill="white" stroke="black" stroke-width="2.52273"/>
<path d="M73.8075 155.598C74.091 149.502 79.081 136.46 96.773 133.057" stroke="black" stroke-width="2.52273" stroke-linecap="round"/>
<circle cx="99.75" cy="260" r="35.7386" fill="white" stroke="black" stroke-width="2.52273"/>
<path d="M73.8075 256.598C74.091 250.502 79.081 237.46 96.773 234.057" stroke="black" stroke-width="2.52273" stroke-linecap="round"/>
<circle cx="99.75" cy="361" r="35.7386" fill="white" stroke="black" stroke-width="2.52273"/>
<path d="M73.8075 357.598C74.091 351.502 79.081 338.46 96.773 335.057" stroke="black" stroke-width="2.52273" stroke-linecap="round"/>
<circle cx="99.75" cy="462" r="35.7386" fill="white" stroke="black" stroke-width="2.52273"/>
<path d="M73.8075 458.598C74.091 452.502 79.081 439.46 96.773 436.057" stroke="black" stroke-width="2.52273" stroke-linecap="round"/>
<circle cx="99.75" cy="563" r="35.7386" fill="white" stroke="black" stroke-width="2.52273"/>
<path d="M73.8075 559.598C74.091 553.502 79.081 540.46 96.773 537.057" stroke="black" stroke-width="2.52273" stroke-linecap="round"/>
<circle cx="204.75" cy="209" r="35.7386" fill="white" stroke="black" stroke-width="2.52273"/>
<path d="M178.807 205.598C179.091 199.502 184.081 186.46 201.773 183.057" stroke="black" stroke-width="2.52273" stroke-linecap="round"/>
<circle cx="204.75" cy="310" r="35.7386" fill="white" stroke="black" stroke-width="2.52273"/>
<path d="M178.807 306.598C179.091 300.502 184.081 287.46 201.773 284.057" stroke="black" stroke-width="2.52273" stroke-linecap="round"/>
<circle cx="204.75" cy="411" r="35.7386" fill="white" stroke="black" stroke-width="2.52273"/>
<path d="M178.807 407.598C179.091 401.502 184.081 388.46 201.773 385.057" stroke="black" stroke-width="2.52273" stroke-linecap="round"/>
<circle cx="204.75" cy="512" r="35.7386" fill="white" stroke="black" stroke-width="2.52273"/>
<path d="M178.807 508.598C179.091 502.502 184.081 489.46 201.773 486.057" stroke="black" stroke-width="2.52273" stroke-linecap="round"/>
<path d="M40.4886 209C40.4886 219.041 38.1897 228.069 34.5373 234.543C30.8629 241.056 25.9833 244.739 20.875 244.739C15.7667 244.739 10.8871 241.056 7.21273 234.543C3.56027 228.069 1.26136 219.041 1.26136 209C1.26136 198.959 3.56027 189.931 7.21273 183.457C10.8871 176.944 15.7667 173.261 20.875 173.261C25.9833 173.261 30.8629 176.944 34.5373 183.457C38.1897 189.931 40.4886 198.959 40.4886 209Z" fill="white" stroke="black" stroke-width="2.52273"/>
<path d="M6.23849 205.598C6.39846 199.502 9.21378 186.46 19.1954 183.057" stroke="black" stroke-width="2.52273" stroke-linecap="round"/>
<path d="M40.4886 310C40.4886 320.041 38.1897 329.069 34.5373 335.543C30.8629 342.056 25.9833 345.739 20.875 345.739C15.7667 345.739 10.8871 342.056 7.21273 335.543C3.56027 329.069 1.26136 320.041 1.26136 310C1.26136 299.959 3.56027 290.931 7.21273 284.457C10.8871 277.944 15.7667 274.261 20.875 274.261C25.9833 274.261 30.8629 277.944 34.5373 284.457C38.1897 290.931 40.4886 299.959 40.4886 310Z" fill="white" stroke="black" stroke-width="2.52273"/>
<path d="M6.23849 306.598C6.39846 300.502 9.21378 287.46 19.1954 284.057" stroke="black" stroke-width="2.52273" stroke-linecap="round"/>
<path d="M40.4886 411C40.4886 421.041 38.1897 430.069 34.5373 436.543C30.8629 443.056 25.9833 446.739 20.875 446.739C15.7667 446.739 10.8871 443.056 7.21273 436.543C3.56027 430.069 1.26136 421.041 1.26136 411C1.26136 400.959 3.56027 391.931 7.21273 385.457C10.8871 378.944 15.7667 375.261 20.875 375.261C25.9833 375.261 30.8629 378.944 34.5373 385.457C38.1897 391.931 40.4886 400.959 40.4886 411Z" fill="white" stroke="black" stroke-width="2.52273"/>
<path d="M6.23849 407.598C6.39846 401.502 9.21378 388.46 19.1954 385.057" stroke="black" stroke-width="2.52273" stroke-linecap="round"/>
<path d="M40.4886 512C40.4886 522.041 38.1897 531.069 34.5373 537.543C30.8629 544.056 25.9833 547.739 20.875 547.739C15.7667 547.739 10.8871 544.056 7.21273 537.543C3.56027 531.069 1.26136 522.041 1.26136 512C1.26136 501.959 3.56027 492.931 7.21273 486.457C10.8871 479.944 15.7667 476.261 20.875 476.261C25.9833 476.261 30.8629 479.944 34.5373 486.457C38.1897 492.931 40.4886 501.959 40.4886 512Z" fill="white" stroke="black" stroke-width="2.52273"/>
<path d="M6.23849 508.598C6.39846 502.502 9.21378 489.46 19.1954 486.057" stroke="black" stroke-width="2.52273" stroke-linecap="round"/>
<path d="M302.989 135C302.989 145.042 300.696 154.07 297.055 160.545C293.391 167.058 288.527 170.739 283.438 170.739C278.348 170.739 273.484 167.058 269.82 160.545C266.179 154.07 263.886 145.042 263.886 135C263.886 124.958 266.179 115.93 269.82 109.455C273.484 102.942 278.348 99.2614 283.438 99.2614C288.527 99.2614 293.391 102.942 297.055 109.455C300.696 115.93 302.989 124.958 302.989 135Z" fill="white" stroke="black" stroke-width="2.52273"/>
<path d="M268.845 131.598C269.004 125.502 271.811 112.46 281.763 109.057" stroke="black" stroke-width="2.52273" stroke-linecap="round"/>
<path d="M302.989 236C302.989 246.042 300.696 255.07 297.055 261.545C293.391 268.058 288.527 271.739 283.438 271.739C278.348 271.739 273.484 268.058 269.82 261.545C266.179 255.07 263.886 246.042 263.886 236C263.886 225.958 266.179 216.93 269.82 210.455C273.484 203.942 278.348 200.261 283.438 200.261C288.527 200.261 293.391 203.942 297.055 210.455C300.696 216.93 302.989 225.958 302.989 236Z" fill="white" stroke="black" stroke-width="2.52273"/>
<path d="M268.845 232.598C269.004 226.502 271.811 213.46 281.763 210.057" stroke="black" stroke-width="2.52273" stroke-linecap="round"/>
<path d="M302.989 337C302.989 347.042 300.696 356.07 297.055 362.545C293.391 369.058 288.527 372.739 283.438 372.739C278.348 372.739 273.484 369.058 269.82 362.545C266.179 356.07 263.886 347.042 263.886 337C263.886 326.958 266.179 317.93 269.82 311.455C273.484 304.942 278.348 301.261 283.438 301.261C288.527 301.261 293.391 304.942 297.055 311.455C300.696 317.93 302.989 326.958 302.989 337Z" fill="white" stroke="black" stroke-width="2.52273"/>
<path d="M268.845 333.598C269.004 327.502 271.811 314.46 281.763 311.057" stroke="black" stroke-width="2.52273" stroke-linecap="round"/>
<path d="M302.989 438C302.989 448.042 300.696 457.07 297.055 463.545C293.391 470.058 288.527 473.739 283.438 473.739C278.348 473.739 273.484 470.058 269.82 463.545C266.179 457.07 263.886 448.042 263.886 438C263.886 427.958 266.179 418.93 269.82 412.455C273.484 405.942 278.348 402.261 283.438 402.261C288.527 402.261 293.391 405.942 297.055 412.455C300.696 418.93 302.989 427.958 302.989 438Z" fill="white" stroke="black" stroke-width="2.52273"/>
<path d="M268.845 434.598C269.004 428.502 271.811 415.46 281.763 412.057" stroke="black" stroke-width="2.52273" stroke-linecap="round"/>
<path d="M302.989 539C302.989 549.042 300.696 558.07 297.055 564.545C293.391 571.058 288.527 574.739 283.438 574.739C278.348 574.739 273.484 571.058 269.82 564.545C266.179 558.07 263.886 549.042 263.886 539C263.886 528.958 266.179 519.93 269.82 513.455C273.484 506.942 278.348 503.261 283.438 503.261C288.527 503.261 293.391 506.942 297.055 513.455C300.696 519.93 302.989 528.958 302.989 539Z" fill="white" stroke="black" stroke-width="2.52273"/>
<path d="M268.845 535.598C269.004 529.502 271.811 516.46 281.763 513.057" stroke="black" stroke-width="2.52273" stroke-linecap="round"/>
</svg>
