<svg width="1285" height="842" viewBox="0 0 1285 842" fill="none" xmlns="http://www.w3.org/2000/svg">
<rect x="8" y="8" width="1277" height="834" rx="6" fill="black"/>
<g clip-path="url(#clip0_80_7063)">
<mask id="path-4-inside-1_80_7063" fill="white">
<path d="M0 0H1277V54H0V0Z"/>
</mask>
<path d="M0 0H1277V54H0V0Z" fill="#61B7F8"/>
<path d="M1277 52H0V56H1277V52Z" fill="black" mask="url(#path-4-inside-1_80_7063)"/>
<g filter="url(#filter0_d_80_7063)">
<path d="M35.5 17.3003H46.4C47.118 17.3003 47.7 17.8823 47.7 18.6003V36.0003C47.7 36.7183 47.118 37.3003 46.4 37.3003H35.5V17.3003Z" fill="#61B7F8" stroke="black"/>
<mask id="path-7-inside-2_80_7063" fill="white">
<path fill-rule="evenodd" clip-rule="evenodd" d="M36.801 16.5001H21.501V37.8001H21.5323C21.8837 39.482 25.1606 40.8001 29.1511 40.8001C33.1416 40.8001 36.4184 39.482 36.7699 37.8001H36.801V37.5164C36.801 37.5109 36.8011 37.5055 36.8011 37.5001C36.8011 37.4946 36.801 37.4892 36.801 37.4837V16.5001Z"/>
</mask>
<path fill-rule="evenodd" clip-rule="evenodd" d="M36.801 16.5001H21.501V37.8001H21.5323C21.8837 39.482 25.1606 40.8001 29.1511 40.8001C33.1416 40.8001 36.4184 39.482 36.7699 37.8001H36.801V37.5164C36.801 37.5109 36.8011 37.5055 36.8011 37.5001C36.8011 37.4946 36.801 37.4892 36.801 37.4837V16.5001Z" fill="#61B7F8"/>
<path d="M21.501 16.5001V15.6001H20.601V16.5001H21.501ZM36.801 16.5001H37.701V15.6001H36.801V16.5001ZM21.501 37.8001H20.601V38.7001H21.501V37.8001ZM21.5323 37.8001L22.4132 37.616L22.2637 36.9001H21.5323V37.8001ZM36.7699 37.8001V36.9001H36.0385L35.8889 37.616L36.7699 37.8001ZM36.801 37.8001V38.7001H37.701V37.8001H36.801ZM36.801 37.5164L35.901 37.5063V37.5164H36.801ZM36.801 37.4837H35.9009L35.901 37.4938L36.801 37.4837ZM21.501 17.4001H36.801V15.6001H21.501V17.4001ZM22.401 37.8001V16.5001H20.601V37.8001H22.401ZM21.5323 36.9001H21.501V38.7001H21.5323V36.9001ZM29.1511 39.9001C27.2452 39.9001 25.5447 39.584 24.3086 39.0941C23.69 38.849 23.2181 38.5723 22.8964 38.2959C22.5723 38.0173 22.4478 37.7814 22.4132 37.616L20.6513 37.9842C20.7925 38.6598 21.2093 39.2193 21.7232 39.661C22.2395 40.1047 22.9021 40.4729 23.6454 40.7675C25.1333 41.3571 27.0664 41.7001 29.1511 41.7001V39.9001ZM35.8889 37.616C35.8544 37.7814 35.7298 38.0173 35.4057 38.2959C35.0841 38.5723 34.6121 38.849 33.9935 39.0941C32.7575 39.584 31.0569 39.9001 29.1511 39.9001V41.7001C31.2357 41.7001 33.1689 41.3571 34.6567 40.7675C35.4001 40.4729 36.0626 40.1047 36.5789 39.661C37.0928 39.2193 37.5097 38.6598 37.6508 37.9842L35.8889 37.616ZM36.801 36.9001H36.7699V38.7001H36.801V36.9001ZM35.901 37.5164V37.8001H37.701V37.5164H35.901ZM35.9011 37.5001C35.9011 37.5021 35.9011 37.5042 35.901 37.5063L37.7009 37.5265C37.701 37.5177 37.7011 37.5089 37.7011 37.5001H35.9011ZM35.901 37.4938C35.9011 37.4959 35.9011 37.498 35.9011 37.5001H37.7011C37.7011 37.4913 37.701 37.4824 37.7009 37.4736L35.901 37.4938ZM35.901 16.5001V37.4837H37.701V16.5001H35.901Z" fill="black" mask="url(#path-7-inside-2_80_7063)"/>
<path d="M36.301 16.5002C36.301 16.7879 36.1679 17.103 35.8428 17.4346C35.5155 17.7685 35.0172 18.092 34.3623 18.3745C33.0541 18.9389 31.212 19.3002 29.151 19.3002C27.09 19.3002 25.2478 18.9389 23.9397 18.3745C23.2847 18.092 22.7865 17.7685 22.4592 17.4346C22.134 17.103 22.001 16.7879 22.001 16.5002C22.001 16.2125 22.134 15.8973 22.4592 15.5657C22.7865 15.2319 23.2847 14.9084 23.9397 14.6258C25.2478 14.0615 27.09 13.7002 29.151 13.7002C31.212 13.7002 33.0541 14.0615 34.3623 14.6258C35.0172 14.9084 35.5155 15.2319 35.8428 15.5657C36.1679 15.8973 36.301 16.2125 36.301 16.5002Z" fill="#F6F6F6" stroke="black"/>
<circle cx="29.3" cy="21.0001" r="1.5" fill="white" stroke="black" stroke-width="0.6"/>
<circle cx="29.3" cy="27.0002" r="1.5" fill="white" stroke="black" stroke-width="0.6"/>
<circle cx="29.3" cy="33.0001" r="1.5" fill="white" stroke="black" stroke-width="0.6"/>
<circle cx="29.3" cy="39" r="1.5" fill="white" stroke="black" stroke-width="0.6"/>
<mask id="path-14-inside-3_80_7063" fill="white">
<path d="M41.9008 17.1002C41.9008 17.5776 41.7111 18.0354 41.3736 18.373C41.036 18.7105 40.5782 18.9002 40.1008 18.9002C39.6234 18.9002 39.1656 18.7105 38.828 18.373C38.4904 18.0354 38.3008 17.5776 38.3008 17.1002L40.1008 17.1002H41.9008Z"/>
</mask>
<path d="M41.9008 17.1002C41.9008 17.5776 41.7111 18.0354 41.3736 18.373C41.036 18.7105 40.5782 18.9002 40.1008 18.9002C39.6234 18.9002 39.1656 18.7105 38.828 18.373C38.4904 18.0354 38.3008 17.5776 38.3008 17.1002L40.1008 17.1002H41.9008Z" fill="white" stroke="black" stroke-width="1.2" mask="url(#path-14-inside-3_80_7063)"/>
<circle cx="40.101" cy="24" r="1.5" fill="white" stroke="black" stroke-width="0.6"/>
<circle cx="40.101" cy="30.9001" r="1.5" fill="white" stroke="black" stroke-width="0.6"/>
<mask id="path-17-inside-4_80_7063" fill="white">
<path d="M41.901 37.5001C41.901 37.2638 41.8545 37.0297 41.764 36.8113C41.6735 36.5929 41.541 36.3945 41.3738 36.2274C41.2067 36.0602 41.0082 35.9276 40.7899 35.8372C40.5715 35.7467 40.3374 35.7001 40.101 35.7001C39.8646 35.7001 39.6306 35.7467 39.4122 35.8372C39.1938 35.9276 38.9954 36.0602 38.8282 36.2274C38.6611 36.3945 38.5285 36.5929 38.438 36.8113C38.3476 37.0297 38.301 37.2638 38.301 37.5001L40.101 37.5001H41.901Z"/>
</mask>
<path d="M41.901 37.5001C41.901 37.2638 41.8545 37.0297 41.764 36.8113C41.6735 36.5929 41.541 36.3945 41.3738 36.2274C41.2067 36.0602 41.0082 35.9276 40.7899 35.8372C40.5715 35.7467 40.3374 35.7001 40.101 35.7001C39.8646 35.7001 39.6306 35.7467 39.4122 35.8372C39.1938 35.9276 38.9954 36.0602 38.8282 36.2274C38.6611 36.3945 38.5285 36.5929 38.438 36.8113C38.3476 37.0297 38.301 37.2638 38.301 37.5001L40.101 37.5001H41.901Z" fill="white" stroke="black" stroke-width="1.2" mask="url(#path-17-inside-4_80_7063)"/>
<path d="M37.4008 21.0001C37.4008 21.4462 37.2797 21.8365 37.0997 22.1065C36.9183 22.3786 36.7006 22.5001 36.5008 22.5001C36.3009 22.5001 36.0833 22.3786 35.9019 22.1065C35.7219 21.8365 35.6008 21.4462 35.6008 21.0001C35.6008 20.554 35.7219 20.1637 35.9019 19.8937C36.0833 19.6216 36.3009 19.5001 36.5008 19.5001C36.7006 19.5001 36.9183 19.6216 37.0997 19.8937C37.2797 20.1637 37.4008 20.554 37.4008 21.0001Z" fill="white" stroke="black" stroke-width="0.6"/>
<path d="M37.4008 27.0002C37.4008 27.4463 37.2797 27.8366 37.0997 28.1066C36.9183 28.3787 36.7006 28.5002 36.5008 28.5002C36.3009 28.5002 36.0833 28.3787 35.9019 28.1066C35.7219 27.8366 35.6008 27.4463 35.6008 27.0002C35.6008 26.5541 35.7219 26.1638 35.9019 25.8938C36.0833 25.6217 36.3009 25.5002 36.5008 25.5002C36.7006 25.5002 36.9183 25.6217 37.0997 25.8938C37.2797 26.1638 37.4008 26.5541 37.4008 27.0002Z" fill="white" stroke="black" stroke-width="0.6"/>
<path d="M37.4008 33.0001C37.4008 33.4462 37.2797 33.8365 37.0997 34.1065C36.9183 34.3786 36.7006 34.5001 36.5008 34.5001C36.3009 34.5001 36.0833 34.3786 35.9019 34.1065C35.7219 33.8365 35.6008 33.4462 35.6008 33.0001C35.6008 32.554 35.7219 32.1637 35.9019 31.8937C36.0833 31.6216 36.3009 31.5001 36.5008 31.5001C36.7006 31.5001 36.9183 31.6216 37.0997 31.8937C37.2797 32.1637 37.4008 32.554 37.4008 33.0001Z" fill="white" stroke="black" stroke-width="0.6"/>
<path d="M23.0005 21.0001C23.0005 21.4461 22.8794 21.8364 22.6994 22.1064C22.518 22.3785 22.3003 22.5001 22.1005 22.5001C21.9006 22.5001 21.6829 22.3785 21.5015 22.1064C21.3215 21.8364 21.2005 21.4461 21.2005 21.0001C21.2005 20.554 21.3215 20.1637 21.5015 19.8937C21.6829 19.6216 21.9006 19.5001 22.1005 19.5001C22.3003 19.5001 22.518 19.6216 22.6994 19.8937C22.8794 20.1637 23.0005 20.554 23.0005 21.0001Z" fill="white" stroke="black" stroke-width="0.6"/>
<path d="M23.0005 27.0002C23.0005 27.4463 22.8794 27.8366 22.6994 28.1066C22.518 28.3787 22.3004 28.5002 22.1005 28.5002C21.9007 28.5002 21.683 28.3787 21.5016 28.1066C21.3216 27.8366 21.2005 27.4463 21.2005 27.0002C21.2005 26.5541 21.3216 26.1638 21.5016 25.8938C21.683 25.6217 21.9007 25.5002 22.1005 25.5002C22.3004 25.5002 22.518 25.6217 22.6994 25.8938C22.8794 26.1638 23.0005 26.5541 23.0005 27.0002Z" fill="white" stroke="black" stroke-width="0.6"/>
<path d="M23.0005 33.0001C23.0005 33.4462 22.8794 33.8365 22.6994 34.1065C22.518 34.3786 22.3004 34.5001 22.1005 34.5001C21.9007 34.5001 21.683 34.3786 21.5016 34.1065C21.3216 33.8365 21.2005 33.4462 21.2005 33.0001C21.2005 32.554 21.3216 32.1637 21.5016 31.8937C21.683 31.6216 21.9007 31.5001 22.1005 31.5001C22.3004 31.5001 22.518 31.6216 22.6994 31.8937C22.8794 32.1637 23.0005 32.554 23.0005 33.0001Z" fill="white" stroke="black" stroke-width="0.6"/>
<circle cx="33.2004" cy="24" r="1.5" fill="white" stroke="black" stroke-width="0.6"/>
<circle cx="33.2004" cy="30.0001" r="1.5" fill="white" stroke="black" stroke-width="0.6"/>
<circle cx="33.2004" cy="36" r="1.5" fill="white" stroke="black" stroke-width="0.6"/>
<circle cx="44.6008" cy="21.6002" r="1.5" fill="white" stroke="black" stroke-width="0.6"/>
<circle cx="44.6008" cy="27.6001" r="1.5" fill="white" stroke="black" stroke-width="0.6"/>
<circle cx="44.6008" cy="33.6002" r="1.5" fill="white" stroke="black" stroke-width="0.6"/>
<circle cx="25.4006" cy="24" r="1.5" fill="white" stroke="black" stroke-width="0.6"/>
<circle cx="25.4006" cy="30.0001" r="1.5" fill="white" stroke="black" stroke-width="0.6"/>
<circle cx="25.4006" cy="36" r="1.5" fill="white" stroke="black" stroke-width="0.6"/>
</g>
<path d="M61.694 34C61.5327 32.5773 61.386 31.0227 61.254 29.336C61.122 27.6347 61.012 25.882 60.924 24.078C60.836 22.274 60.7627 20.4993 60.704 18.754H63.014C63.0287 20.118 63.036 21.504 63.036 22.912C63.0507 24.3053 63.058 25.6987 63.058 27.092C63.0727 28.4707 63.0873 29.8127 63.102 31.118C63.278 30.5607 63.454 29.9887 63.63 29.402C63.8207 28.8007 64.004 28.2067 64.18 27.62C64.356 27.0187 64.5247 26.4467 64.686 25.904C64.862 25.3467 65.0307 24.8333 65.192 24.364H67.128C67.4213 25.3173 67.744 26.3733 68.096 27.532C68.4627 28.676 68.8293 29.8713 69.196 31.118C69.2253 29.8273 69.24 28.4927 69.24 27.114C69.2547 25.7207 69.2693 24.32 69.284 22.912C69.2987 21.504 69.306 20.118 69.306 18.754H71.616C71.5573 20.514 71.4767 22.296 71.374 24.1C71.2713 25.904 71.1613 27.6493 71.044 29.336C70.9267 31.0227 70.78 32.5773 70.604 34H68.47C68.0887 32.8267 67.7073 31.624 67.326 30.392C66.9447 29.1453 66.556 27.9353 66.16 26.762C65.9107 27.5247 65.654 28.3167 65.39 29.138C65.126 29.9593 64.862 30.7807 64.598 31.602C64.3487 32.4233 64.0993 33.2227 63.85 34H61.694ZM75.8745 34V23.176C76.6812 22.8973 77.5099 22.6773 78.3605 22.516C79.2112 22.3547 80.1205 22.274 81.0885 22.274C81.3965 22.274 81.7339 22.2887 82.1005 22.318C82.4819 22.3327 82.8705 22.3693 83.2665 22.428C83.6625 22.472 84.0439 22.5527 84.4105 22.67L83.9705 24.87C83.6772 24.782 83.3619 24.716 83.0245 24.672C82.7019 24.6133 82.3792 24.5767 82.0565 24.562C81.7339 24.5327 81.4332 24.518 81.1545 24.518C80.6705 24.518 80.1939 24.5473 79.7245 24.606C79.2552 24.65 78.7859 24.738 78.3165 24.87V34H75.8745ZM93.0031 34.264C92.3431 34.264 91.7124 34.2053 91.1111 34.088C90.5244 33.9707 90.0038 33.7727 89.5491 33.494C89.1091 33.2153 88.7571 32.834 88.4931 32.35C88.2438 31.866 88.1191 31.2647 88.1191 30.546C88.1191 29.6513 88.3464 28.9473 88.8011 28.434C89.2704 27.906 89.8718 27.532 90.6051 27.312C91.3531 27.0773 92.1304 26.96 92.9371 26.96C93.3624 26.96 93.7584 26.982 94.1251 27.026C94.5064 27.07 94.8584 27.1287 95.1811 27.202V26.718C95.1811 26.2927 95.1004 25.8967 94.9391 25.53C94.7924 25.1633 94.5284 24.8627 94.1471 24.628C93.7804 24.3933 93.2598 24.276 92.5851 24.276C91.9398 24.276 91.3531 24.3273 90.8251 24.43C90.2971 24.518 89.8791 24.6207 89.5711 24.738L89.2631 22.736C89.5711 22.604 90.0551 22.4867 90.7151 22.384C91.3898 22.2813 92.1011 22.23 92.8491 22.23C94.0371 22.23 94.9684 22.4207 95.6431 22.802C96.3324 23.1687 96.8238 23.6893 97.1171 24.364C97.4104 25.0387 97.5571 25.8233 97.5571 26.718V33.78C97.0878 33.868 96.4424 33.9707 95.6211 34.088C94.8144 34.2053 93.9418 34.264 93.0031 34.264ZM93.0691 32.24C93.4944 32.24 93.8904 32.2327 94.2571 32.218C94.6384 32.1887 94.9464 32.152 95.1811 32.108V29.028C94.9611 28.9693 94.6824 28.918 94.3451 28.874C94.0078 28.83 93.6704 28.808 93.3331 28.808C92.8784 28.808 92.4311 28.8593 91.9911 28.962C91.5658 29.05 91.2211 29.2187 90.9571 29.468C90.6931 29.7027 90.5611 30.04 90.5611 30.48C90.5611 31.14 90.7884 31.602 91.2431 31.866C91.6978 32.1153 92.3064 32.24 93.0691 32.24ZM101.904 38.07V22.868C102.241 22.7653 102.63 22.67 103.07 22.582C103.51 22.494 103.994 22.4207 104.522 22.362C105.05 22.2887 105.592 22.252 106.15 22.252C107.294 22.252 108.276 22.494 109.098 22.978C109.919 23.462 110.55 24.1587 110.99 25.068C111.43 25.9627 111.65 27.026 111.65 28.258C111.65 29.4313 111.466 30.4727 111.1 31.382C110.733 32.2767 110.19 32.9807 109.472 33.494C108.768 34.0073 107.902 34.264 106.876 34.264C106.362 34.264 105.893 34.198 105.468 34.066C105.042 33.9487 104.668 33.802 104.346 33.626V38.07H101.904ZM106.48 32.108C107.11 32.108 107.616 31.954 107.998 31.646C108.394 31.3233 108.687 30.876 108.878 30.304C109.068 29.7173 109.164 29.05 109.164 28.302C109.164 27.0847 108.892 26.1313 108.35 25.442C107.822 24.738 107.088 24.386 106.15 24.386C105.724 24.386 105.358 24.408 105.05 24.452C104.756 24.4813 104.522 24.518 104.346 24.562V31.426C104.566 31.602 104.874 31.7633 105.27 31.91C105.68 32.042 106.084 32.108 106.48 32.108ZM128.659 34V18.952C129.069 18.8493 129.517 18.776 130.001 18.732C130.485 18.6733 130.969 18.6367 131.453 18.622C131.937 18.5927 132.362 18.578 132.729 18.578C133.99 18.578 135.039 18.7687 135.875 19.15C136.725 19.5313 137.363 20.0813 137.789 20.8C138.229 21.5187 138.449 22.406 138.449 23.462C138.449 25.1487 137.95 26.4173 136.953 27.268C135.955 28.104 134.503 28.522 132.597 28.522H131.101V34H128.659ZM131.101 26.432H132.597C133.345 26.432 133.968 26.3367 134.467 26.146C134.965 25.9407 135.332 25.6253 135.567 25.2C135.816 24.76 135.941 24.1953 135.941 23.506C135.941 22.5527 135.677 21.8487 135.149 21.394C134.635 20.9393 133.909 20.712 132.971 20.712C132.648 20.712 132.303 20.7193 131.937 20.734C131.57 20.734 131.291 20.7487 131.101 20.778V26.432ZM146.623 34.286C145.582 34.286 144.665 34.0367 143.873 33.538C143.081 33.0247 142.458 32.3133 142.003 31.404C141.563 30.4947 141.343 29.4387 141.343 28.236C141.343 27.0333 141.571 25.9847 142.025 25.09C142.48 24.1807 143.103 23.4767 143.895 22.978C144.687 22.4793 145.597 22.23 146.623 22.23C147.665 22.23 148.581 22.4793 149.373 22.978C150.165 23.4767 150.789 24.1807 151.243 25.09C151.698 25.9847 151.925 27.0333 151.925 28.236C151.925 29.4387 151.698 30.4947 151.243 31.404C150.803 32.3133 150.18 33.0247 149.373 33.538C148.581 34.0367 147.665 34.286 146.623 34.286ZM146.601 32.13C147.188 32.13 147.694 31.976 148.119 31.668C148.545 31.3453 148.867 30.898 149.087 30.326C149.307 29.7393 149.417 29.05 149.417 28.258C149.417 27.466 149.307 26.7767 149.087 26.19C148.867 25.6033 148.545 25.156 148.119 24.848C147.709 24.5253 147.21 24.364 146.623 24.364C146.051 24.364 145.553 24.5253 145.127 24.848C144.702 25.156 144.379 25.6033 144.159 26.19C143.939 26.7767 143.829 27.466 143.829 28.258C143.829 29.05 143.939 29.7393 144.159 30.326C144.379 30.898 144.695 31.3453 145.105 31.668C145.516 31.976 146.015 32.13 146.601 32.13ZM155.546 38.07V22.868C155.883 22.7653 156.272 22.67 156.712 22.582C157.152 22.494 157.636 22.4207 158.164 22.362C158.692 22.2887 159.234 22.252 159.792 22.252C160.936 22.252 161.918 22.494 162.74 22.978C163.561 23.462 164.192 24.1587 164.632 25.068C165.072 25.9627 165.292 27.026 165.292 28.258C165.292 29.4313 165.108 30.4727 164.742 31.382C164.375 32.2767 163.832 32.9807 163.114 33.494C162.41 34.0073 161.544 34.264 160.518 34.264C160.004 34.264 159.535 34.198 159.11 34.066C158.684 33.9487 158.31 33.802 157.988 33.626V38.07H155.546ZM160.122 32.108C160.752 32.108 161.258 31.954 161.64 31.646C162.036 31.3233 162.329 30.876 162.52 30.304C162.71 29.7173 162.806 29.05 162.806 28.302C162.806 27.0847 162.534 26.1313 161.992 25.442C161.464 24.738 160.73 24.386 159.792 24.386C159.366 24.386 159 24.408 158.692 24.452C158.398 24.4813 158.164 24.518 157.988 24.562V31.426C158.208 31.602 158.516 31.7633 158.912 31.91C159.322 32.042 159.726 32.108 160.122 32.108Z" fill="black"/>
<rect x="1238" y="13" width="28" height="28" rx="14" fill="#FF72C6"/>
<rect x="1238" y="13" width="28" height="28" rx="14" stroke="black" stroke-width="2"/>
<path d="M1258 22.7143L1256.29 21L1252 25.2857L1247.71 21L1246 22.7143L1250.29 27L1246 31.2857L1247.71 33L1252 28.7143L1256.29 33L1258 31.2857L1253.71 27L1258 22.7143Z" fill="black"/>
<rect width="1277" height="780" transform="translate(0 54)" fill="#F6F6F6"/>
</g>
<rect x="1.5" y="1.5" width="1274" height="831" rx="10.5" stroke="black" stroke-width="3"/>
<defs>
<filter id="filter0_d_80_7063" x="20.9005" y="13.2002" width="27.8996" height="28.1999" filterUnits="userSpaceOnUse" color-interpolation-filters="sRGB">
<feFlood flood-opacity="0" result="BackgroundImageFix"/>
<feColorMatrix in="SourceAlpha" type="matrix" values="0 0 0 0 0 0 0 0 0 0 0 0 0 0 0 0 0 0 127 0" result="hardAlpha"/>
<feOffset dx="0.6" dy="0.6"/>
<feComposite in2="hardAlpha" operator="out"/>
<feColorMatrix type="matrix" values="0 0 0 0 0 0 0 0 0 0 0 0 0 0 0 0 0 0 1 0"/>
<feBlend mode="normal" in2="BackgroundImageFix" result="effect1_dropShadow_80_7063"/>
<feBlend mode="normal" in="SourceGraphic" in2="effect1_dropShadow_80_7063" result="shape"/>
</filter>
<clipPath id="clip0_80_7063">
<rect width="1277" height="834" rx="12" fill="white"/>
</clipPath>
</defs>
</svg>
